<svg xmlns="http://www.w3.org/2000/svg" xmlns:xlink="http://www.w3.org/1999/xlink" viewBox="0 0 229.41 53.01"><defs><style>.cls-1{isolation:isolate;}.cls-2{fill:#fff;}.cls-3{fill:url(#linear-gradient);}.cls-4{fill:url(#linear-gradient-2);}.cls-5{fill:url(#linear-gradient-3);}.cls-6{fill:url(#linear-gradient-4);}.cls-7{fill:url(#linear-gradient-5);}.cls-8{fill:url(#linear-gradient-6);}.cls-9{fill:url(#linear-gradient-7);}.cls-10{fill:url(#linear-gradient-8);}.cls-11{fill:url(#linear-gradient-9);}.cls-12{fill:url(#linear-gradient-10);}.cls-13{fill:url(#linear-gradient-11);}.cls-14{fill:url(#linear-gradient-12);}.cls-15{fill:url(#linear-gradient-13);}.cls-16{fill:url(#linear-gradient-14);}.cls-17{fill:url(#linear-gradient-15);}.cls-18{fill:url(#linear-gradient-16);}.cls-19{fill:url(#linear-gradient-17);}.cls-20{fill:url(#linear-gradient-18);}.cls-21{fill:url(#Degradado_sin_nombre_4);}.cls-22{fill:url(#Degradado_sin_nombre_4-2);}.cls-23{fill:url(#Degradado_sin_nombre_4-3);}.cls-24{fill:url(#linear-gradient-19);}.cls-25{fill:url(#linear-gradient-20);}.cls-26{fill:url(#linear-gradient-21);}.cls-27{fill:url(#linear-gradient-22);}.cls-28{fill:url(#linear-gradient-23);}.cls-29{fill:url(#linear-gradient-24);}.cls-30{fill:url(#linear-gradient-25);}.cls-31{fill:url(#linear-gradient-26);}.cls-32{fill:url(#linear-gradient-27);}.cls-33{fill:url(#linear-gradient-28);}.cls-34{fill:url(#linear-gradient-29);}.cls-35{fill:url(#linear-gradient-30);}.cls-36{fill:url(#linear-gradient-31);}.cls-37{fill:url(#linear-gradient-32);}.cls-38{fill:url(#linear-gradient-33);}.cls-39{fill:url(#linear-gradient-34);}.cls-40{fill:url(#linear-gradient-35);}.cls-41{fill:url(#linear-gradient-36);}.cls-42{fill:url(#linear-gradient-37);}.cls-43{fill:url(#linear-gradient-38);}.cls-44{fill:url(#linear-gradient-39);}.cls-45{fill:url(#linear-gradient-40);}.cls-46{fill:url(#linear-gradient-41);}.cls-47{fill:url(#linear-gradient-42);}.cls-48{fill:url(#linear-gradient-43);}.cls-49{fill:url(#linear-gradient-44);}.cls-50{fill:url(#linear-gradient-45);}.cls-51{fill:url(#linear-gradient-46);}.cls-52{fill:url(#linear-gradient-47);}.cls-53{fill:url(#linear-gradient-48);}.cls-54{fill:url(#linear-gradient-49);}.cls-55{fill:url(#linear-gradient-50);}.cls-56{fill:url(#linear-gradient-51);}.cls-57{fill:url(#linear-gradient-52);}.cls-58{fill:url(#linear-gradient-53);}.cls-59{fill:url(#linear-gradient-54);}.cls-60{fill:url(#linear-gradient-55);}.cls-61{fill:url(#linear-gradient-56);}.cls-62{fill:url(#linear-gradient-57);}.cls-63{fill:url(#linear-gradient-58);}.cls-64{fill:url(#linear-gradient-59);}.cls-65{fill:url(#linear-gradient-60);}.cls-66{fill:url(#linear-gradient-61);}.cls-67{fill:url(#linear-gradient-62);}.cls-68{fill:url(#linear-gradient-63);}.cls-69{fill:url(#linear-gradient-64);}.cls-70{fill:url(#linear-gradient-65);}.cls-71{fill:url(#linear-gradient-66);}.cls-72{fill:url(#linear-gradient-67);}.cls-73{fill:url(#linear-gradient-68);}.cls-74{fill:url(#linear-gradient-69);}.cls-75{opacity:0.5;}.cls-75,.cls-76,.cls-77,.cls-78,.cls-79,.cls-80,.cls-81,.cls-82,.cls-83,.cls-84,.cls-85,.cls-86,.cls-87,.cls-88,.cls-89,.cls-90,.cls-91,.cls-92,.cls-93{mix-blend-mode:multiply;}.cls-76,.cls-77,.cls-78,.cls-79,.cls-80,.cls-81,.cls-82,.cls-83,.cls-84,.cls-85,.cls-86,.cls-87,.cls-88,.cls-89,.cls-90,.cls-91,.cls-92,.cls-93{opacity:0.55;}.cls-76{fill:url(#linear-gradient-70);}.cls-77{fill:url(#linear-gradient-71);}.cls-78{fill:url(#linear-gradient-72);}.cls-79{fill:url(#linear-gradient-73);}.cls-80{fill:url(#linear-gradient-74);}.cls-81{fill:url(#linear-gradient-75);}.cls-82{fill:url(#linear-gradient-76);}.cls-83{fill:url(#linear-gradient-77);}.cls-84{fill:url(#linear-gradient-78);}.cls-85{fill:url(#linear-gradient-79);}.cls-86{fill:url(#linear-gradient-80);}.cls-87{fill:url(#linear-gradient-81);}.cls-88{fill:url(#linear-gradient-82);}.cls-89{fill:url(#linear-gradient-83);}.cls-90{fill:url(#linear-gradient-84);}.cls-91{fill:url(#linear-gradient-85);}.cls-92{fill:url(#linear-gradient-86);}.cls-93{fill:url(#linear-gradient-87);}</style><linearGradient id="linear-gradient" x1="-355.83" y1="57.78" x2="-355.63" y2="70.35" gradientTransform="translate(375.25 -32.95)" gradientUnits="userSpaceOnUse"><stop offset="0" stop-color="#89181c"/><stop offset="0.54" stop-color="#d33127"/></linearGradient><linearGradient id="linear-gradient-2" x1="-360.72" y1="60.63" x2="-360.56" y2="71.11" xlink:href="#linear-gradient"/><linearGradient id="linear-gradient-3" x1="-365.61" y1="63.49" x2="-365.5" y2="71.08" xlink:href="#linear-gradient"/><linearGradient id="linear-gradient-4" x1="-1145.06" y1="957.13" x2="-1145.16" y2="936.78" gradientTransform="translate(-1123.58 981.9) rotate(180)" gradientUnits="userSpaceOnUse"><stop offset="0" stop-color="#8a181a"/><stop offset="0.54" stop-color="#b32624"/><stop offset="1" stop-color="#d33127"/></linearGradient><linearGradient id="linear-gradient-5" x1="-1140.14" y1="954.05" x2="-1140.22" y2="937.32" xlink:href="#linear-gradient-4"/><linearGradient id="linear-gradient-6" x1="-1135.23" y1="951.35" x2="-1135.29" y2="939.12" xlink:href="#linear-gradient-4"/><linearGradient id="linear-gradient-7" x1="328.15" y1="1317.2" x2="328.44" y2="1336.58" gradientTransform="translate(-1283.83 -348.39) rotate(-60)" gradientUnits="userSpaceOnUse"><stop offset="0" stop-color="#de6823"/><stop offset="0.34" stop-color="#e4872a"/></linearGradient><linearGradient id="linear-gradient-8" x1="323.25" y1="1320.05" x2="323.41" y2="1330.53" xlink:href="#linear-gradient-7"/><linearGradient id="linear-gradient-9" x1="318.36" y1="1322.91" x2="318.47" y2="1330.51" xlink:href="#linear-gradient-7"/><linearGradient id="linear-gradient-10" x1="-1828.48" y1="-302.17" x2="-1828.57" y2="-322.52" gradientTransform="translate(-1154 1456.6) rotate(120)" gradientUnits="userSpaceOnUse"><stop offset="0" stop-color="#d84b25"/><stop offset="0.89" stop-color="#e4872a"/></linearGradient><linearGradient id="linear-gradient-11" x1="-1823.56" y1="-305.25" x2="-1823.64" y2="-321.98" xlink:href="#linear-gradient-10"/><linearGradient id="linear-gradient-12" x1="-1818.64" y1="-307.95" x2="-1818.7" y2="-320.18" xlink:href="#linear-gradient-10"/><linearGradient id="linear-gradient-13" x1="-324.32" y1="2417.61" x2="-324.12" y2="2430.19" gradientTransform="translate(-2233.07 953.27) rotate(-120)" gradientUnits="userSpaceOnUse"><stop offset="0" stop-color="#bb8825"/><stop offset="0.46" stop-color="#e8c007"/><stop offset="0.76" stop-color="#d6c908"/></linearGradient><linearGradient id="linear-gradient-14" x1="-329.21" y1="2420.46" x2="-329.05" y2="2430.94" xlink:href="#linear-gradient-13"/><linearGradient id="linear-gradient-15" x1="-334.11" y1="2423.32" x2="-333.99" y2="2430.92" xlink:href="#linear-gradient-13"/><linearGradient id="linear-gradient-16" x1="-1176.4" y1="-1402.16" x2="-1176.5" y2="-1422.51" gradientTransform="translate(-604.41 1743.41) rotate(60)" gradientUnits="userSpaceOnUse"><stop offset="0" stop-color="#b87d27"/><stop offset="0.8" stop-color="#d6c908"/></linearGradient><linearGradient id="linear-gradient-17" x1="-1171.48" y1="-1405.24" x2="-1171.56" y2="-1421.97" xlink:href="#linear-gradient-16"/><linearGradient id="linear-gradient-18" x1="-1166.56" y1="-1407.94" x2="-1166.62" y2="-1420.17" xlink:href="#linear-gradient-16"/><linearGradient id="Degradado_sin_nombre_4" x1="-1699.84" y1="2524.12" x2="-1699.65" y2="2536.7" gradientTransform="translate(-1676.82 2547.53) rotate(180)" gradientUnits="userSpaceOnUse"><stop offset="0" stop-color="#00763a"/><stop offset="0.52" stop-color="#76a82c"/></linearGradient><linearGradient id="Degradado_sin_nombre_4-2" x1="-1704.74" y1="2526.97" x2="-1704.58" y2="2537.45" xlink:href="#Degradado_sin_nombre_4"/><linearGradient id="Degradado_sin_nombre_4-3" x1="-1709.63" y1="2529.83" x2="-1709.52" y2="2537.43" xlink:href="#Degradado_sin_nombre_4"/><linearGradient id="linear-gradient-19" x1="198.96" y1="-1509.21" x2="198.86" y2="-1529.56" gradientTransform="translate(-177.99 1532.68)" gradientUnits="userSpaceOnUse"><stop offset="0" stop-color="#007538"/><stop offset="1" stop-color="#76a82c"/></linearGradient><linearGradient id="linear-gradient-20" x1="203.88" y1="-1512.29" x2="203.8" y2="-1529.02" xlink:href="#linear-gradient-19"/><linearGradient id="linear-gradient-21" x1="208.8" y1="-1514.99" x2="208.74" y2="-1527.22" xlink:href="#linear-gradient-19"/><linearGradient id="linear-gradient-22" x1="-2306.2" y1="1008.15" x2="-2306.01" y2="1020.72" gradientTransform="translate(-258.54 2523.45) rotate(120)" gradientUnits="userSpaceOnUse"><stop offset="0" stop-color="#1e3766"/><stop offset="0.48" stop-color="#25346b"/></linearGradient><linearGradient id="linear-gradient-23" x1="-2311.1" y1="1011" x2="-2310.94" y2="1021.48" xlink:href="#linear-gradient-22"/><linearGradient id="linear-gradient-24" x1="-2315.99" y1="1013.86" x2="-2315.87" y2="1021.45" xlink:href="#linear-gradient-22"/><linearGradient id="linear-gradient-25" x1="805.87" y1="6.88" x2="805.77" y2="-13.46" gradientTransform="translate(-388.37 718.46) rotate(-60)" gradientUnits="userSpaceOnUse"><stop offset="0" stop-color="#1e2b4f"/><stop offset="0.48" stop-color="#005a91"/><stop offset="1" stop-color="#25346b"/></linearGradient><linearGradient id="linear-gradient-26" x1="810.79" y1="3.8" x2="810.71" y2="-12.93" xlink:href="#linear-gradient-25"/><linearGradient id="linear-gradient-27" x1="815.71" y1="1.1" x2="815.65" y2="-11.13" xlink:href="#linear-gradient-25"/><linearGradient id="linear-gradient-28" x1="-1470.37" y1="103.24" x2="-1470.18" y2="115.81" gradientTransform="translate(844.29 1244.64) rotate(60)" gradientUnits="userSpaceOnUse"><stop offset="0" stop-color="#1a1028"/><stop offset="0.54" stop-color="#18152e"/></linearGradient><linearGradient id="linear-gradient-29" x1="-1475.27" y1="106.09" x2="-1475.11" y2="116.56" xlink:href="#linear-gradient-28"/><linearGradient id="linear-gradient-30" x1="-1480.16" y1="108.95" x2="-1480.04" y2="116.54" xlink:href="#linear-gradient-28"/><linearGradient id="linear-gradient-31" x1="-30.35" y1="912.22" x2="-30.44" y2="891.87" gradientTransform="translate(-784.37 454.5) rotate(-120)" gradientUnits="userSpaceOnUse"><stop offset="0" stop-color="#100912"/><stop offset="0.42" stop-color="#260f27"/></linearGradient><linearGradient id="linear-gradient-32" x1="-25.43" y1="909.13" x2="-25.51" y2="892.41" xlink:href="#linear-gradient-31"/><linearGradient id="linear-gradient-33" x1="1.38" y1="24.47" x2="11.27" y2="18.91" gradientTransform="matrix(1, 0, 0, 1, 0, 0)" xlink:href="#linear-gradient-31"/><linearGradient id="linear-gradient-34" x1="11.59" y1="849.1" x2="11.48" y2="828.82" gradientTransform="translate(-709.38 458.83) rotate(-120)" gradientUnits="userSpaceOnUse"><stop offset="0" stop-color="#371539"/><stop offset="0.5" stop-color="#7a2876"/><stop offset="1" stop-color="#852975" stop-opacity="0"/></linearGradient><linearGradient id="linear-gradient-35" x1="16.51" y1="846.3" x2="16.41" y2="829.4" xlink:href="#linear-gradient-34"/><linearGradient id="linear-gradient-36" x1="21.35" y1="843.5" x2="21.29" y2="831.27" xlink:href="#linear-gradient-34"/><linearGradient id="linear-gradient-37" x1="-1060.47" y1="142.77" x2="-1060.59" y2="122.49" gradientTransform="translate(-1039.67 167.89) rotate(180)" gradientUnits="userSpaceOnUse"><stop offset="0" stop-color="#b61e1e"/><stop offset="1" stop-color="#d43329" stop-opacity="0"/></linearGradient><linearGradient id="linear-gradient-38" x1="-1055.56" y1="139.97" x2="-1055.65" y2="123.08" xlink:href="#linear-gradient-37"/><linearGradient id="linear-gradient-39" x1="-1050.72" y1="137.18" x2="-1050.78" y2="124.95" xlink:href="#linear-gradient-37"/><linearGradient id="linear-gradient-40" x1="-1053.05" y1="-1088.3" x2="-1053.16" y2="-1108.58" gradientTransform="translate(-1447.11 392.77) rotate(120)" gradientUnits="userSpaceOnUse"><stop offset="0" stop-color="#ecab17" stop-opacity="0.35"/><stop offset="0.5" stop-color="#dfcc21"/><stop offset="1" stop-color="#ecab17" stop-opacity="0"/></linearGradient><linearGradient id="linear-gradient-41" x1="-1048.14" y1="-1091.1" x2="-1048.23" y2="-1108" xlink:href="#linear-gradient-40"/><linearGradient id="linear-gradient-42" x1="-1043.27" y1="-1093.88" x2="-1043.34" y2="-1106.11" xlink:href="#linear-gradient-40"/><linearGradient id="linear-gradient-43" x1="-42.89" y1="-1626.85" x2="-43" y2="-1647.13" gradientTransform="translate(-1365.11 874.55) rotate(60)" gradientUnits="userSpaceOnUse"><stop offset="0" stop-color="#e0ce22" stop-opacity="0.35"/><stop offset="0.5" stop-color="#e0ce22"/><stop offset="1" stop-color="#d6c81c" stop-opacity="0"/></linearGradient><linearGradient id="linear-gradient-44" x1="-37.98" y1="-1629.65" x2="-38.07" y2="-1646.55" xlink:href="#linear-gradient-43"/><linearGradient id="linear-gradient-45" x1="-33.11" y1="-1632.43" x2="-33.18" y2="-1644.66" xlink:href="#linear-gradient-43"/><linearGradient id="linear-gradient-46" x1="905.48" y1="-976.45" x2="905.37" y2="-996.73" gradientTransform="translate(-883.85 999.57)" gradientUnits="userSpaceOnUse"><stop offset="0" stop-color="#a9ba2d" stop-opacity="0.35"/><stop offset="0.5" stop-color="#d1c70f"/><stop offset="1" stop-color="#a9ba2d" stop-opacity="0"/></linearGradient><linearGradient id="linear-gradient-47" x1="910.39" y1="-979.25" x2="910.3" y2="-996.15" xlink:href="#linear-gradient-46"/><linearGradient id="linear-gradient-48" x1="915.25" y1="-982.04" x2="915.18" y2="-994.26" xlink:href="#linear-gradient-46"/><linearGradient id="linear-gradient-49" x1="747.03" y1="246.49" x2="746.91" y2="226.21" gradientTransform="translate(-566.41 546.94) rotate(-60)" gradientUnits="userSpaceOnUse"><stop offset="0" stop-color="#005489" stop-opacity="0.35"/><stop offset="0.5" stop-color="#005489"/><stop offset="1" stop-color="#005489" stop-opacity="0"/></linearGradient><linearGradient id="linear-gradient-50" x1="751.94" y1="243.69" x2="751.85" y2="226.79" xlink:href="#linear-gradient-49"/><linearGradient id="linear-gradient-51" x1="756.8" y1="240.9" x2="756.73" y2="228.67" xlink:href="#linear-gradient-49"/><linearGradient id="linear-gradient-52" x1="20.21" y1="20.35" x2="5.13" y2="11.89" gradientUnits="userSpaceOnUse"><stop offset="0.01" stop-color="#008bb9" stop-opacity="0"/><stop offset="0.28" stop-color="#fff"/><stop offset="0.69" stop-color="#fff"/><stop offset="1" stop-color="#008bb9" stop-opacity="0"/></linearGradient><linearGradient id="linear-gradient-53" x1="20.13" y1="14.71" x2="8.95" y2="8.29" xlink:href="#linear-gradient-52"/><linearGradient id="linear-gradient-54" x1="20.16" y1="8.96" x2="13.47" y2="5.15" xlink:href="#linear-gradient-52"/><linearGradient id="linear-gradient-55" x1="-1075.06" y1="988.66" x2="-1090.13" y2="980.19" gradientTransform="translate(1417.6 457.93) rotate(60)" xlink:href="#linear-gradient-52"/><linearGradient id="linear-gradient-56" x1="-1075.14" y1="983.02" x2="-1086.32" y2="976.6" gradientTransform="translate(1417.6 457.93) rotate(60)" xlink:href="#linear-gradient-52"/><linearGradient id="linear-gradient-57" x1="-1075.11" y1="977.27" x2="-1081.8" y2="973.46" gradientTransform="translate(1417.6 457.93) rotate(60)" xlink:href="#linear-gradient-52"/><linearGradient id="linear-gradient-58" x1="1386.21" y1="605.76" x2="1371.14" y2="597.29" gradientTransform="translate(-1200.14 920.68) rotate(-60)" gradientUnits="userSpaceOnUse"><stop offset="0.01" stop-color="#27183a" stop-opacity="0"/><stop offset="0.28" stop-color="#fff"/><stop offset="0.69" stop-color="#fff"/><stop offset="1" stop-color="#27183a" stop-opacity="0"/></linearGradient><linearGradient id="linear-gradient-59" x1="1386.13" y1="600.12" x2="1374.95" y2="593.7" xlink:href="#linear-gradient-58"/><linearGradient id="linear-gradient-60" x1="1386.16" y1="594.37" x2="1379.47" y2="590.56" xlink:href="#linear-gradient-58"/><linearGradient id="linear-gradient-61" x1="1617.13" y1="2151.91" x2="1602.06" y2="2143.45" gradientTransform="translate(-1036.43 2503.13) rotate(-120)" gradientUnits="userSpaceOnUse"><stop offset="0.01" stop-color="#d3322e" stop-opacity="0"/><stop offset="0.28" stop-color="#fff"/><stop offset="0.69" stop-color="#fff"/><stop offset="1" stop-color="#d3322e" stop-opacity="0"/></linearGradient><linearGradient id="linear-gradient-62" x1="1617.05" y1="2146.28" x2="1605.87" y2="2139.85" xlink:href="#linear-gradient-61"/><linearGradient id="linear-gradient-63" x1="1617.08" y1="2140.53" x2="1610.39" y2="2136.71" xlink:href="#linear-gradient-61"/><linearGradient id="linear-gradient-64" x1="389.72" y1="3178.74" x2="374.65" y2="3170.28" gradientTransform="translate(411.81 3206.45) rotate(180)" gradientUnits="userSpaceOnUse"><stop offset="0.01" stop-color="#e48927" stop-opacity="0"/><stop offset="0.28" stop-color="#fff"/><stop offset="0.69" stop-color="#fff"/><stop offset="1" stop-color="#e48927" stop-opacity="0"/></linearGradient><linearGradient id="linear-gradient-65" x1="389.64" y1="3173.11" x2="378.46" y2="3166.68" xlink:href="#linear-gradient-64"/><linearGradient id="linear-gradient-66" x1="389.67" y1="3167.36" x2="382.98" y2="3163.54" xlink:href="#linear-gradient-64"/><linearGradient id="linear-gradient-67" x1="-1092.34" y1="2723.36" x2="-1107.41" y2="2714.9" gradientTransform="translate(1837.36 2332.61) rotate(120)" gradientUnits="userSpaceOnUse"><stop offset="0.01" stop-color="#d6c81c" stop-opacity="0"/><stop offset="0.28" stop-color="#fff"/><stop offset="0.69" stop-color="#fff"/><stop offset="1" stop-color="#d6c81c" stop-opacity="0"/></linearGradient><linearGradient id="linear-gradient-68" x1="-1092.42" y1="2717.73" x2="-1103.6" y2="2711.31" xlink:href="#linear-gradient-67"/><linearGradient id="linear-gradient-69" x1="-1092.39" y1="2711.98" x2="-1099.08" y2="2708.16" xlink:href="#linear-gradient-67"/><linearGradient id="linear-gradient-70" x1="10.03" y1="31.54" x2="10.03" y2="34.73" gradientUnits="userSpaceOnUse"><stop offset="0" stop-color="#737373"/><stop offset="1" stop-color="#fff" stop-opacity="0"/></linearGradient><linearGradient id="linear-gradient-71" x1="14.96" y1="28.6" x2="14.96" y2="31.9" xlink:href="#linear-gradient-70"/><linearGradient id="linear-gradient-72" x1="19.58" y1="25.99" x2="19.58" y2="29.07" xlink:href="#linear-gradient-70"/><linearGradient id="linear-gradient-73" x1="705.93" y1="1260.13" x2="705.93" y2="1263.32" gradientTransform="translate(-1422.19 18.8) rotate(-60)" xlink:href="#linear-gradient-70"/><linearGradient id="linear-gradient-74" x1="710.86" y1="1257.19" x2="710.86" y2="1260.49" gradientTransform="translate(-1422.19 18.8) rotate(-60)" xlink:href="#linear-gradient-70"/><linearGradient id="linear-gradient-75" x1="715.48" y1="1254.57" x2="715.48" y2="1257.66" gradientTransform="translate(-1422.19 18.8) rotate(-60)" xlink:href="#linear-gradient-70"/><linearGradient id="linear-gradient-76" x1="54.39" y1="2489.88" x2="54.39" y2="2493.07" gradientTransform="translate(-2095.79 1322.14) rotate(-120)" xlink:href="#linear-gradient-70"/><linearGradient id="linear-gradient-77" x1="59.32" y1="2486.94" x2="59.32" y2="2490.24" gradientTransform="translate(-2095.79 1322.14) rotate(-120)" xlink:href="#linear-gradient-70"/><linearGradient id="linear-gradient-78" x1="63.94" y1="2484.32" x2="63.94" y2="2487.41" gradientTransform="translate(-2095.79 1322.14) rotate(-120)" xlink:href="#linear-gradient-70"/><linearGradient id="linear-gradient-79" x1="-1426.96" y1="2353.11" x2="-1426.96" y2="2356.3" gradientTransform="translate(-1394.54 2369.81) rotate(180)" xlink:href="#linear-gradient-70"/><linearGradient id="linear-gradient-80" x1="-1422.03" y1="2350.17" x2="-1422.03" y2="2353.47" gradientTransform="translate(-1394.54 2369.81) rotate(180)" xlink:href="#linear-gradient-70"/><linearGradient id="linear-gradient-81" x1="-1417.41" y1="2347.55" x2="-1417.41" y2="2350.64" gradientTransform="translate(-1394.54 2369.81) rotate(180)" xlink:href="#linear-gradient-70"/><linearGradient id="linear-gradient-82" x1="-2023.16" y1="1176.48" x2="-2023.16" y2="1179.67" gradientTransform="translate(27.64 2351.01) rotate(120)" xlink:href="#linear-gradient-70"/><linearGradient id="linear-gradient-83" x1="-2018.23" y1="1173.54" x2="-2018.23" y2="1176.84" gradientTransform="translate(27.64 2351.01) rotate(120)" xlink:href="#linear-gradient-70"/><linearGradient id="linear-gradient-84" x1="-2013.61" y1="1170.92" x2="-2013.61" y2="1174.01" gradientTransform="translate(27.64 2351.01) rotate(120)" xlink:href="#linear-gradient-70"/><linearGradient id="linear-gradient-85" x1="-1237.65" y1="84.56" x2="-1237.65" y2="87.75" gradientTransform="translate(701.25 1047.67) rotate(60)" xlink:href="#linear-gradient-70"/><linearGradient id="linear-gradient-86" x1="-1232.72" y1="81.62" x2="-1232.72" y2="84.92" gradientTransform="translate(701.25 1047.67) rotate(60)" xlink:href="#linear-gradient-70"/><linearGradient id="linear-gradient-87" x1="-1228.1" y1="79" x2="-1228.1" y2="82.09" gradientTransform="translate(701.25 1047.67) rotate(60)" xlink:href="#linear-gradient-70"/></defs><g class="cls-1"><g id="Capa_2" data-name="Capa 2"><g id="Capa_1-2" data-name="Capa 1"><path class="cls-2" d="M73.79,24.57c.36-5.9,5.63-7.67,10.78-7.67,4.57,0,10.07,1,10.07,6.52V35.35c0,2.08.22,4.17.79,5.1H89.05a9.3,9.3,0,0,1-.44-2.22,10.55,10.55,0,0,1-7.72,2.84c-4.35,0-7.81-2.18-7.81-6.88,0-5.19,3.91-6.43,7.81-7s7.45-.44,7.45-3-1.86-3.1-4.08-3.1c-2.4,0-4,1-4.17,3.46Zm14.55,4.66c-1.07.93-3.28,1-5.23,1.33s-3.73,1.06-3.73,3.37,1.82,2.92,3.86,2.92c4.92,0,5.1-3.9,5.1-5.27Z"/><path class="cls-2" d="M107.5,17.52h4.61v4.21H107.5V33.08c0,2.13.53,2.67,2.66,2.67a10,10,0,0,0,2-.18v4.92a23.8,23.8,0,0,1-3.68.22c-3.86,0-7.23-.88-7.23-5.45V21.73H97.39V17.52h3.81V10.64h6.3Z"/><path class="cls-2" d="M114.86,24.57c.35-5.9,5.63-7.67,10.78-7.67,4.56,0,10.06,1,10.06,6.52V35.35c0,2.08.23,4.17.8,5.1h-6.38a9.31,9.31,0,0,1-.45-2.22A10.52,10.52,0,0,1,122,41.07c-4.35,0-7.81-2.18-7.81-6.88,0-5.19,3.9-6.43,7.81-7s7.45-.44,7.45-3-1.87-3.1-4.08-3.1c-2.4,0-4,1-4.17,3.46Zm14.55,4.66c-1.07.93-3.29,1-5.24,1.33s-3.72,1.06-3.72,3.37,1.82,2.92,3.86,2.92c4.92,0,5.1-3.9,5.1-5.27Z"/><path class="cls-2" d="M141.29,8.78h4.44l11,27.76L167.59,8.78H172V40.45h-3V13.08h-.09L158.1,40.45h-2.84L144.4,13.08h-.09V40.45h-3Z"/><path class="cls-2" d="M187.59,8.78H191l12.42,31.67h-3.24l-3.86-9.85H181.87l-3.81,9.85h-3.24ZM182.8,28h12.46L189.14,11.8Zm5.94-21.78h-2.26L191.14,0h3.46Z"/><path class="cls-2" d="M207.68,30c-.13,6.52,4.57,8.52,10.34,8.52,3.32,0,8.38-1.82,8.38-6.43,0-3.59-3.59-5-6.52-5.72l-7-1.73c-3.73-.93-7.14-2.71-7.14-7.63,0-3.1,2-8.91,10.91-8.91,6.25,0,11.75,3.37,11.7,9.84h-3c-.18-4.83-4.17-7.27-8.65-7.27-4.12,0-7.94,1.59-7.94,6.3,0,3,2.22,4.21,4.79,4.83l7.72,1.91c4.48,1.19,8.2,3.15,8.2,8.33,0,2.18-.88,9-12.1,9-7.5,0-13-3.37-12.64-11.09Z"/><path class="cls-2" d="M55.52,8.78H41.86V12.1a23.89,23.89,0,0,1,0,24.06v4.29H55.52c9.67,0,14.37-6.83,14.37-16C69.89,13.93,63.72,8.78,55.52,8.78ZM55,34.59H48.82v-20h5c6.92,0,9.14,4.08,9.14,10.46C62.93,32.11,59.07,34.59,55,34.59Z"/><path class="cls-2" d="M180.39,52.86h-.83v-.72h0a1.58,1.58,0,0,1-1.49.87c-1.79,0-2.31-1.68-2.31-2.93,0-1.48.79-2.62,2.19-2.62a1.77,1.77,0,0,1,1.56.89l0-.07V45.66h.88Zm-2.32-.61c.56,0,1.43-.38,1.43-1.77,0-.85-.14-2.23-1.41-2.23s-1.44,1.3-1.44,2C176.65,51.37,177.1,52.25,178.07,52.25Z"/><path class="cls-2" d="M186.07,51.21a2.18,2.18,0,0,1-2.36,1.8,2.36,2.36,0,0,1-2.34-2.63c0-1.63.78-2.92,2.51-2.92,1.52,0,2.26,1.21,2.26,3.06h-3.83c0,1.09.51,1.73,1.52,1.73a1.34,1.34,0,0,0,1.36-1Zm-.84-1.39c0-.81-.39-1.57-1.47-1.57a1.54,1.54,0,0,0-1.45,1.57Z"/><path class="cls-2" d="M191.19,52.86h-1v-7.2h3.33c1.19,0,2.37.41,2.37,1.93a1.79,1.79,0,0,1-1,1.73c.41.17.82.35.86,1.35l.06,1.3c0,.41.06.56.36.73v.16H195a8.89,8.89,0,0,1-.17-1.81c0-.59-.12-1.28-1.29-1.28h-2.35Zm0-3.92h2.25c.72,0,1.47-.19,1.47-1.25s-.81-1.2-1.3-1.2h-2.42Z"/><path class="cls-2" d="M201.48,51.21a2.19,2.19,0,0,1-2.36,1.8,2.37,2.37,0,0,1-2.35-2.63c0-1.63.79-2.92,2.52-2.92,1.52,0,2.26,1.21,2.26,3.06h-3.83c0,1.09.51,1.73,1.52,1.73a1.34,1.34,0,0,0,1.35-1Zm-.85-1.39c0-.81-.39-1.57-1.46-1.57a1.54,1.54,0,0,0-1.45,1.57Z"/><path class="cls-2" d="M207,52.86h-.83v-.72h0a1.58,1.58,0,0,1-1.49.87c-1.79,0-2.31-1.68-2.31-2.93,0-1.48.79-2.62,2.19-2.62a1.77,1.77,0,0,1,1.56.89l0-.07V45.66H207Zm-2.32-.61c.56,0,1.43-.38,1.43-1.77,0-.85-.14-2.23-1.41-2.23s-1.44,1.3-1.44,2C203.21,51.37,203.66,52.25,204.63,52.25Z"/><path class="cls-2" d="M212.63,51.21a2.28,2.28,0,0,1-.93,1.44,2.25,2.25,0,0,1-1.42.36,2.36,2.36,0,0,1-2.35-2.63c0-1.63.78-2.92,2.52-2.92,1.51,0,2.25,1.21,2.25,3.06h-3.83c0,1.09.51,1.73,1.53,1.73a1.34,1.34,0,0,0,1.35-1Zm-.84-1.39c0-.81-.39-1.57-1.46-1.57a1.55,1.55,0,0,0-1.46,1.57Z"/><path class="cls-2" d="M213.69,52.86v-7.2h.88v2.61h0a1.78,1.78,0,0,1,1.51-.81c1.4,0,2.19,1.14,2.19,2.62,0,1.25-.52,2.93-2.31,2.93a1.56,1.56,0,0,1-1.44-.8h0v.65Zm2.25-4.61c-1.27,0-1.41,1.38-1.41,2.23,0,1.39.87,1.77,1.43,1.77,1,0,1.42-.88,1.42-2C217.38,49.55,217.31,48.25,215.94,48.25Z"/><path class="cls-2" d="M219.3,49.21c0-1.26.88-1.75,2.17-1.75.42,0,1.95.12,1.95,1.47v3c0,.22.11.31.29.31a1.67,1.67,0,0,0,.29,0v.64a1.63,1.63,0,0,1-.48.1c-.79,0-.91-.4-.94-.8a2.38,2.38,0,0,1-1.89.85A1.51,1.51,0,0,1,219,51.49a1.57,1.57,0,0,1,1.6-1.64l1.45-.18c.21,0,.46-.1.46-.62s-.4-.86-1.23-.86a1,1,0,0,0-1.2,1Zm3.23,1c-.14.11-.36.19-1.45.33-.43.06-1.13.19-1.13.85a.84.84,0,0,0,1,.92c.82,0,1.62-.54,1.62-1.24Z"/><path class="cls-2" d="M229.18,52.86h-.88V49.63c0-.92-.26-1.38-1.12-1.38-.5,0-1.39.32-1.39,1.75v2.86h-.88V47.61h.83v.74h0a1.92,1.92,0,0,1,1.59-.89,1.66,1.66,0,0,1,1.83,1.83Z"/><path class="cls-3" d="M17.93,45.07a22.25,22.25,0,0,0,3.29.25V24.83l-3.29,1.89Z"/><path class="cls-4" d="M13,43.68a21.8,21.8,0,0,0,3.29,1.07V27.67L13,29.57Z"/><path class="cls-5" d="M8.08,40.78a20.94,20.94,0,0,0,3.28,2.13l0-12.38L8.08,32.41Z"/><polygon class="cls-6" points="21.22 45.32 21.84 44.96 21.84 24.48 21.22 24.12 21.22 45.32"/><polygon class="cls-7" points="16.29 44.75 16.91 44.39 16.91 27.31 16.29 27.68 16.29 44.75"/><polygon class="cls-8" points="11.37 42.91 11.99 42.55 11.98 30.16 11.34 30.53 11.37 42.91"/><path class="cls-9" d="M37.72,37.44a21,21,0,0,0,1.86-2.72L21.83,24.48v3.79Z"/><path class="cls-10" d="M34.05,41a22.44,22.44,0,0,0,2.57-2.31L21.83,30.17V34Z"/><path class="cls-11" d="M29.08,43.84a21.58,21.58,0,0,0,3.48-1.79L21.83,35.88v3.77Z"/><polygon class="cls-12" points="39.58 34.72 39.58 34.01 21.84 23.76 21.22 24.12 39.58 34.72"/><polygon class="cls-13" points="36.62 38.7 36.62 37.99 21.83 29.45 21.83 30.17 36.62 38.7"/><polygon class="cls-14" points="32.56 42.05 32.57 41.33 21.83 35.14 21.83 35.88 32.56 42.05"/><path class="cls-15" d="M41,16.49a22.38,22.38,0,0,0-1.42-3L21.84,23.77l3.28,1.89Z"/><path class="cls-16" d="M42.27,21.46a19.76,19.76,0,0,0-.72-3.38L26.77,26.62l3.28,1.89Z"/><path class="cls-17" d="M42.23,27.17a21.27,21.27,0,0,0,.19-3.91L31.71,29.47,35,31.35Z"/><polygon class="cls-18" points="39.59 13.52 38.97 13.16 21.22 23.4 21.22 24.12 39.59 13.52"/><polygon class="cls-19" points="41.55 18.07 40.93 17.71 26.14 26.25 26.77 26.61 41.55 18.07"/><polygon class="cls-20" points="42.42 23.26 41.8 22.9 31.07 29.1 31.71 29.47 42.42 23.26"/><path class="cls-21" d="M24.51,3.17a20.94,20.94,0,0,0-3.28-.25V23.41l3.28-1.9Z"/><path class="cls-22" d="M29.44,4.56a21.32,21.32,0,0,0-3.28-1.07V20.56l3.28-1.89Z"/><path class="cls-23" d="M34.37,7.45a22.23,22.23,0,0,0-3.29-2.12l0,12.38,3.27-1.89Z"/><polygon class="cls-24" points="21.23 2.92 20.6 3.27 20.6 23.76 21.23 24.12 21.23 2.92"/><polygon class="cls-25" points="26.16 3.49 25.53 3.85 25.54 20.92 26.16 20.56 26.16 3.49"/><polygon class="cls-26" points="31.08 5.33 30.46 5.69 30.46 18.08 31.1 17.71 31.08 5.33"/><path class="cls-27" d="M4.72,10.8a21,21,0,0,0-1.86,2.72L20.61,23.76V20Z"/><path class="cls-28" d="M8.39,7.22A22.44,22.44,0,0,0,5.82,9.53l14.79,8.54V14.28Z"/><path class="cls-29" d="M13.36,4.4A22,22,0,0,0,9.88,6.19l10.73,6.17V8.59Z"/><polygon class="cls-30" points="2.86 13.52 2.86 14.23 20.6 24.48 21.22 24.12 2.86 13.52"/><polygon class="cls-31" points="5.82 9.54 5.82 10.25 20.61 18.79 20.61 18.07 5.82 9.54"/><polygon class="cls-32" points="9.88 6.19 9.88 6.91 20.61 13.1 20.61 12.36 9.88 6.19"/><path class="cls-33" d="M1.43,31.75a21.27,21.27,0,0,0,1.43,3L20.6,24.47l-3.28-1.9Z"/><path class="cls-34" d="M.17,26.78a21,21,0,0,0,.72,3.38l14.78-8.54-3.28-1.89Z"/><path class="cls-35" d="M.21,21.07A21.27,21.27,0,0,0,0,25l10.71-6.21L7.46,16.88Z"/><polygon class="cls-36" points="2.86 34.72 3.48 35.08 21.22 24.83 21.22 24.12 2.86 34.72"/><polygon class="cls-37" points="0.89 30.16 1.51 30.52 16.3 21.98 15.67 21.62 0.89 30.16"/><polygon class="cls-38" points="0.02 24.98 0.64 25.34 11.37 19.14 10.73 18.77 0.02 24.98"/><polygon class="cls-39" points="2.5 34.08 2.85 34.66 20.6 24.45 19.98 24.12 2.5 34.08"/><polygon class="cls-40" points="0.69 29.45 0.87 30.11 15.67 21.6 15.04 21.26 0.69 29.45"/><polygon class="cls-41" points="0 24.32 0.01 24.91 10.73 18.77 10.24 18.49 0 24.32"/><polygon class="cls-42" points="20.5 45.32 21.18 45.3 21.22 24.83 20.62 25.2 20.5 45.32"/><polygon class="cls-43" points="15.59 44.57 16.25 44.75 16.29 27.68 15.67 28.05 15.59 44.57"/><polygon class="cls-44" points="10.8 42.6 11.32 42.89 11.36 30.54 10.87 30.82 10.8 42.6"/><polygon class="cls-45" points="39.22 35.34 39.55 34.75 21.83 24.48 21.83 25.18 39.22 35.34"/><polygon class="cls-46" points="36.12 39.22 36.6 38.74 21.83 30.17 21.83 30.89 36.12 39.22"/><polygon class="cls-47" points="32 42.4 32.52 42.09 21.83 35.88 21.83 36.44 32 42.4"/><polygon class="cls-48" points="39.94 14.15 39.6 13.57 21.84 23.77 22.45 24.12 39.94 14.15"/><polygon class="cls-49" points="41.76 18.77 41.58 18.11 26.77 26.62 27.4 26.98 41.76 18.77"/><polygon class="cls-50" points="42.45 23.93 42.43 23.33 31.72 29.47 32.2 29.76 42.45 23.93"/><polygon class="cls-51" points="21.93 2.92 21.25 2.93 21.22 23.41 21.82 23.06 21.93 2.92"/><polygon class="cls-52" points="26.84 3.66 26.18 3.49 26.15 20.56 26.77 20.2 26.84 3.66"/><polygon class="cls-53" points="31.65 5.64 31.13 5.36 31.09 17.71 31.58 17.43 31.65 5.64"/><polygon class="cls-54" points="3.22 12.9 2.9 13.49 20.61 23.76 20.61 23.07 3.22 12.9"/><polygon class="cls-55" points="6.32 9.02 5.84 9.5 20.61 18.07 20.61 17.35 6.32 9.02"/><polygon class="cls-56" points="10.44 5.84 9.93 6.16 20.61 12.36 20.61 11.8 10.44 5.84"/><path class="cls-57" d="M5.23,11.84s12.64,7,15,8.56C20.18,20.4,10.09,15,5.23,11.84Z"/><path class="cls-58" d="M8.89,8.27s7.41,4,11.21,6.37C20.1,14.64,13.75,11.38,8.89,8.27Z"/><path class="cls-59" d="M13.39,5s2.91,1.51,6.71,3.9A58.78,58.78,0,0,1,13.39,5Z"/><path class="cls-60" d="M23.77,4s.29,14.43.06,17.23C23.83,21.26,23.51,9.8,23.77,4Z"/><path class="cls-61" d="M28.7,5.42s.25,8.4.09,12.89C28.79,18.31,28.44,11.18,28.7,5.42Z"/><path class="cls-62" d="M33.74,7.7s.15,3.27,0,7.76A60,60,0,0,1,33.74,7.7Z"/><path class="cls-63" d="M2.69,31.82S15,24.35,17.58,23.16C17.58,23.16,7.81,29.16,2.69,31.82Z"/><path class="cls-64" d="M1.43,26.86s7.15-4.42,11.12-6.52C12.55,20.34,6.55,24.21,1.43,26.86Z"/><path class="cls-65" d="M.89,21.35s2.76-1.76,6.73-3.86A57.8,57.8,0,0,1,.89,21.35Z"/><path class="cls-66" d="M18.69,44s-.27-10.46-.06-17.22C18.63,26.74,19,38.2,18.69,44Z"/><path class="cls-67" d="M13.76,42.57s-.25-8.4-.09-12.89C13.67,29.68,14,36.81,13.76,42.57Z"/><path class="cls-68" d="M8.72,40.29s-.15-3.27,0-7.76A57.62,57.62,0,0,1,8.72,40.29Z"/><path class="cls-69" d="M37.07,36.21s-9.19-5-14.94-8.56C22.13,27.65,32.21,33.1,37.07,36.21Z"/><path class="cls-70" d="M33.41,39.78s-7.4-4-11.21-6.37C22.2,33.41,28.55,36.67,33.41,39.78Z"/><path class="cls-71" d="M28.91,43S26,41.5,22.2,39.11A58.78,58.78,0,0,1,28.91,43Z"/><path class="cls-72" d="M40,16.25S31,21.71,25.06,24.91C25.06,24.91,34.83,18.91,40,16.25Z"/><path class="cls-73" d="M41.21,21.21s-7.15,4.42-11.12,6.52C30.09,27.73,36.09,23.86,41.21,21.21Z"/><path class="cls-74" d="M41.75,26.72S39,28.48,35,30.58A57.8,57.8,0,0,1,41.75,26.72Z"/><g class="cls-75"><polygon class="cls-76" points="8.07 36.84 11.99 34.59 11.99 30.16 8.07 32.42 8.07 36.84"/><polygon class="cls-77" points="13.01 34 16.91 31.74 16.91 27.31 13.01 29.57 13.01 34"/><polygon class="cls-78" points="17.93 26.73 17.93 31.15 21.22 29.25 21.22 24.83 17.93 26.73"/></g><g class="cls-75"><polygon class="cls-79" points="25.67 41.87 25.67 37.35 21.83 35.14 21.83 39.66 25.67 41.87"/><polygon class="cls-80" points="25.67 36.18 25.67 31.67 21.83 29.45 21.83 33.96 25.67 36.18"/><polygon class="cls-81" points="21.83 28.27 25.67 30.49 25.67 26.69 21.83 24.48 21.83 28.27"/></g><g class="cls-75"><polygon class="cls-82" points="38.82 29.14 34.91 26.88 31.08 29.09 34.99 31.35 38.82 29.14"/><polygon class="cls-83" points="33.89 26.29 29.98 24.04 26.15 26.25 30.06 28.51 33.89 26.29"/><polygon class="cls-84" points="25.13 25.66 28.96 23.45 25.68 21.55 21.84 23.76 25.13 25.66"/></g><g class="cls-75"><polygon class="cls-85" points="34.37 11.4 30.46 13.65 30.46 18.08 34.37 15.82 34.37 11.4"/><polygon class="cls-86" points="29.44 14.24 25.53 16.5 25.53 20.93 29.44 18.67 29.44 14.24"/><polygon class="cls-87" points="24.51 21.52 24.51 17.09 21.23 18.99 21.23 23.41 24.51 21.52"/></g><g class="cls-75"><polygon class="cls-88" points="16.78 6.37 16.78 10.88 20.61 13.1 20.61 8.58 16.78 6.37"/><polygon class="cls-89" points="16.78 12.06 16.78 16.57 20.61 18.79 20.61 14.28 16.78 12.06"/><polygon class="cls-90" points="20.61 19.96 16.78 17.75 16.78 21.55 20.61 23.76 20.61 19.96"/></g><g class="cls-75"><polygon class="cls-91" points="3.62 19.1 7.54 21.36 11.37 19.15 7.46 16.89 3.62 19.1"/><polygon class="cls-92" points="8.56 21.95 12.46 24.2 16.3 21.99 12.39 19.73 8.56 21.95"/><polygon class="cls-93" points="17.32 22.58 13.48 24.79 16.77 26.69 20.6 24.48 17.32 22.58"/></g></g></g></g></svg>