<svg xmlns="http://www.w3.org/2000/svg" viewBox="0 0 51.91 50.75"><defs><style>.cls-1,.cls-2{fill:none;stroke:#1a3f79;stroke-linecap:round;}.cls-1{stroke-linejoin:round;}.cls-2{stroke-miterlimit:10;}</style></defs><g id="Capa_2" data-name="Capa 2"><g id="Capa_1-2" data-name="Capa 1"><polyline class="cls-1" points="28.16 36.37 8.72 36.37 8.72 13.77"/><circle class="cls-1" cx="13.91" cy="31.43" r="1.53"/><circle class="cls-1" cx="13.91" cy="22.31" r="1.53"/><circle class="cls-1" cx="20.7" cy="32.56" r="1.53"/><circle class="cls-1" cx="20.7" cy="15.53" r="1.53"/><circle class="cls-1" cx="28.15" cy="18.03" r="1.53"/><line class="cls-1" x1="15.41" y1="31.68" x2="19.18" y2="32.3"/><line class="cls-1" x1="21.4" y1="31.2" x2="27.46" y2="19.39"/><line class="cls-1" x1="12.8" y1="32.49" x2="8.72" y2="36.37"/><line class="cls-1" x1="29.68" y1="18.03" x2="31.38" y2="18.03"/><line class="cls-1" x1="12.68" y1="21.41" x2="8.72" y2="18.51"/><line class="cls-1" x1="18.57" y1="17.66" x2="19.52" y2="16.71"/><line class="cls-1" x1="15.09" y1="21.14" x2="17.57" y2="18.66"/><line class="cls-1" x1="21.43" y1="16.87" x2="25.96" y2="25.29"/><rect class="cls-2" x="45.84" y="33.47" width="3.21" height="9.88" rx="1.61" transform="translate(-13.27 44.8) rotate(-45)"/><rect class="cls-2" x="42.64" y="33.51" width="1.45" height="1.85" transform="translate(-11.65 40.75) rotate(-45)"/><circle class="cls-2" cx="36.57" cy="27.65" r="8.75"/><circle class="cls-2" cx="36.57" cy="27.65" r="6.75"/><path class="cls-2" d="M35.75,32.81a5.22,5.22,0,0,0,4.51-1.47"/><path class="cls-2" d="M32.88,31.34a5.13,5.13,0,0,0,1.17.88"/><path class="cls-2" d="M37.57,22.53A5.22,5.22,0,0,0,32.88,24"/><path class="cls-2" d="M40.26,24a5.19,5.19,0,0,0-1.06-.82"/><path class="cls-1" d="M37.22,38.64v6.15a5.47,5.47,0,0,1-5.46,5.46H5.33"/><path class="cls-1" d="M5.33,42.7V5A4.51,4.51,0,0,1,9.83.5H42.36a5.14,5.14,0,0,0-5.14,5.16h0V16.5"/><path class="cls-1" d="M39.79,5.89H47.5V5.62A5.11,5.11,0,0,0,42.39.5h0"/><path class="cls-1" d="M26.31,44.85H.5v.28a5.12,5.12,0,0,0,5.12,5.12H31.28"/><path class="cls-1" d="M26.83,44.85a5.4,5.4,0,0,0,5.4,5.4"/></g></g></svg>