<svg xmlns="http://www.w3.org/2000/svg" viewBox="0 0 61.87 50.74"><defs><style>.cls-1{fill:none;stroke:#1a3f79;stroke-linecap:round;stroke-miterlimit:10;stroke-width:0.75px;}</style></defs><g id="Capa_2" data-name="Capa 2"><g id="Capa_1-2" data-name="Capa 1"><circle class="cls-1" cx="18.33" cy="28.16" r="2.52"/><circle class="cls-1" cx="34.36" cy="6.91" r="2.52"/><line class="cls-1" x1="24.26" y1="28.63" x2="28.8" y2="24.09"/><line class="cls-1" x1="26.38" y1="26.21" x2="24.26" y2="24.09"/><line class="cls-1" x1="28.8" y1="28.63" x2="27.47" y2="27.3"/><line class="cls-1" x1="37.13" y1="22.37" x2="38.28" y2="21.21"/><line class="cls-1" x1="33.74" y1="25.76" x2="36.01" y2="23.48"/><line class="cls-1" x1="38.28" y1="25.76" x2="33.74" y2="21.21"/><line class="cls-1" x1="22.78" y1="10.58" x2="23.94" y2="9.43"/><line class="cls-1" x1="19.39" y1="13.97" x2="21.67" y2="11.7"/><line class="cls-1" x1="23.94" y1="13.97" x2="19.39" y2="9.43"/><path class="cls-1" d="M29,19.08a5.66,5.66,0,0,0,5.67-5.66v-1.8"/><polyline class="cls-1" points="32.33 13.39 34.68 11.04 37.13 13.5"/><path class="cls-1" d="M18.53,23.48c0-2.27,2.89-4.4,6.46-4.4h2.48"/><line class="cls-1" x1="43.13" y1="11.21" x2="61.49" y2="27.14"/><line class="cls-1" x1="39.25" y1="7.86" x2="40.95" y2="9.27"/><path class="cls-1" d="M.38,35.06V4A3.58,3.58,0,0,1,4,.38H54.45A3.58,3.58,0,0,1,58,4V20.08"/><line class="cls-1" x1="1.27" y1="34.38" x2="54.73" y2="34.38"/><path class="cls-1" d="M58,27.72V38a3.58,3.58,0,0,1-3.58,3.58H4A3.58,3.58,0,0,1,.38,38V35.27"/><path class="cls-1" d="M31.55,38.26H26.86a.78.78,0,0,1,0-1.56h4.69a.78.78,0,1,1,0,1.56Z"/><path class="cls-1" d="M39.07,46.91a1.73,1.73,0,1,1,0,3.45H19.33a1.73,1.73,0,0,1,0-3.45h17"/><path class="cls-1" d="M23.72,46.91h11a8.58,8.58,0,0,1-1.88-5.37H25.6A8.58,8.58,0,0,1,23.72,46.91Z"/><line class="cls-1" x1="3.53" y1="31.56" x2="3.53" y2="18.69"/></g></g></svg>