<svg xmlns="http://www.w3.org/2000/svg" viewBox="0 0 58.94 50.55"><defs><style>.cls-1{fill:none;stroke:#1a3f79;stroke-linecap:round;stroke-linejoin:round;}</style></defs><g id="Capa_2" data-name="Capa 2"><g id="Capa_1-2" data-name="Capa 1"><polyline class="cls-1" points="32.11 36.23 8.69 36.23 8.69 13.72"/><circle class="cls-1" cx="13.85" cy="31.31" r="1.52"/><circle class="cls-1" cx="13.85" cy="22.23" r="1.52"/><circle class="cls-1" cx="20.62" cy="32.43" r="1.52"/><circle class="cls-1" cx="20.62" cy="15.47" r="1.52"/><circle class="cls-1" cx="28.04" cy="17.96" r="1.52"/><circle class="cls-1" cx="29.78" cy="31.79" r="1.52"/><line class="cls-1" x1="15.35" y1="31.56" x2="19.1" y2="32.17"/><line class="cls-1" x1="21.32" y1="31.07" x2="27.35" y2="19.31"/><line class="cls-1" x1="12.75" y1="32.36" x2="8.69" y2="36.23"/><line class="cls-1" x1="12.63" y1="21.33" x2="8.69" y2="18.43"/><line class="cls-1" x1="18.49" y1="17.59" x2="19.44" y2="16.65"/><line class="cls-1" x1="15.03" y1="21.06" x2="17.5" y2="18.59"/><line class="cls-1" x1="21.34" y1="16.81" x2="28.95" y2="30.55"/><path class="cls-1" d="M37.07,37.69v6.92a5.44,5.44,0,0,1-5.44,5.44H5.31"/><path class="cls-1" d="M5.31,42.53V5A4.49,4.49,0,0,1,9.8.5H42.19a5.12,5.12,0,0,0-5.12,5.13h0V12"/><path class="cls-1" d="M39.63,5.87h7.69V5.6A5.1,5.1,0,0,0,42.22.5h0"/><path class="cls-1" d="M26.2,44.68H.5V45a5.1,5.1,0,0,0,5.1,5.1H31.16"/><path class="cls-1" d="M26.73,44.68a5.37,5.37,0,0,0,5.37,5.37"/><path class="cls-1" d="M50.05,42.86S55.44,32,56.46,30a15.11,15.11,0,0,0,2-6.74,12.42,12.42,0,1,0-24.84,0,15,15,0,0,0,2,6.74l9,18a1.61,1.61,0,0,0,2.87,0l1.74-3.5"/><line class="cls-1" x1="44.22" y1="42.64" x2="39.64" y2="33.76"/><path class="cls-1" d="M50.24,17.23a7.21,7.21,0,1,0,2,2.46"/></g></g></svg>