<svg xmlns="http://www.w3.org/2000/svg" viewBox="0 0 58.39 52"><defs><style>.cls-1{fill:none;stroke:#1a3f79;stroke-linecap:round;stroke-miterlimit:10;stroke-width:0.75px;}</style></defs><g id="Capa_2" data-name="Capa 2"><g id="Capa_1-2" data-name="Capa 1"><path class="cls-1" d="M16.34,2.63V9.2l4.87,4.39a6.48,6.48,0,0,0,1.7-4.39A6.57,6.57,0,0,0,16.34,2.63Z"/><path class="cls-1" d="M15.08,10.47l0-6.56s0,0,0,0a6.57,6.57,0,1,0,0,13.13c.39,0,1.23-.12,1.23-.12A6.73,6.73,0,0,0,20,14.86Z"/><line class="cls-1" x1="16.34" y1="4.32" x2="17.82" y2="2.84"/><line class="cls-1" x1="16.34" y1="6.44" x2="19.29" y2="3.49"/><line class="cls-1" x1="16.34" y1="8.56" x2="20.62" y2="4.28"/><line class="cls-1" x1="20.09" y1="6.93" x2="20.31" y2="6.71"/><line class="cls-1" x1="17.13" y1="9.89" x2="19.4" y2="7.62"/><line class="cls-1" x1="20.95" y1="6.07" x2="21.67" y2="5.35"/><line class="cls-1" x1="18.24" y1="10.9" x2="22.4" y2="6.74"/><line class="cls-1" x1="19.35" y1="11.91" x2="22.84" y2="8.42"/><line class="cls-1" x1="20.47" y1="12.91" x2="22.75" y2="10.63"/><path class="cls-1" d="M9.57,10.36a2.17,2.17,0,0,0,0,.26"/><path class="cls-1" d="M13,5.39A5.71,5.71,0,0,0,9.67,9.47"/><line class="cls-1" x1="15.43" y1="13.13" x2="15.91" y2="16.7"/><line class="cls-1" x1="15.06" y1="10.45" x2="15.3" y2="12.17"/><polyline class="cls-1" points="8.41 30.38 8.41 23.49 11.31 23.49 11.31 30.38"/><polyline class="cls-1" points="12.48 30.38 12.48 19.3 15.38 19.3 15.38 30.38"/><line class="cls-1" x1="19.92" y1="19.61" x2="19.92" y2="30.38"/><polyline class="cls-1" points="17.02 30.38 17.02 18.2 19.92 18.2 19.92 18.59"/><line class="cls-1" x1="17.17" y1="28" x2="19.82" y2="25.35"/><line class="cls-1" x1="17.17" y1="29.8" x2="19.82" y2="27.16"/><line class="cls-1" x1="18.6" y1="30.18" x2="19.82" y2="28.96"/><line class="cls-1" x1="17.17" y1="26.16" x2="19.85" y2="23.47"/><line class="cls-1" x1="17.17" y1="24.32" x2="19.79" y2="21.7"/><line class="cls-1" x1="17.17" y1="22.48" x2="19.9" y2="19.75"/><line class="cls-1" x1="17.17" y1="20.63" x2="19.45" y2="18.36"/><line class="cls-1" x1="9.27" y1="26.83" x2="9.27" y2="25.47"/><line class="cls-1" x1="9.27" y1="24.59" x2="9.27" y2="24.35"/><line class="cls-1" x1="24.37" y1="38.57" x2="4.08" y2="38.57"/><path class="cls-1" d="M4.08,32.77V3.83A3.45,3.45,0,0,1,7.54.38h25a4,4,0,0,0-3.95,4h0V13"/><path class="cls-1" d="M30.54,4.52h5.92V4.3A3.92,3.92,0,0,0,32.53.38h0"/><path class="cls-1" d="M20.18,34.42H.38v.22A3.92,3.92,0,0,0,4.3,38.57H24"/><path class="cls-1" d="M20.59,34.42a4.14,4.14,0,0,0,4.14,4.15"/><line class="cls-1" x1="7.55" y1="31.24" x2="24.34" y2="31.24"/><path class="cls-1" d="M37.9,15.49v6.56l4.87,4.4a6.56,6.56,0,0,0-4.87-11Z"/><path class="cls-1" d="M36.63,23.32l0-6.56h0a6.57,6.57,0,0,0,0,13.13c.4,0,1.24-.12,1.24-.12a6.68,6.68,0,0,0,3.63-2.05Z"/><line class="cls-1" x1="37.9" y1="17.18" x2="39.38" y2="15.7"/><line class="cls-1" x1="37.9" y1="19.29" x2="40.85" y2="16.35"/><line class="cls-1" x1="37.9" y1="21.41" x2="42.17" y2="17.14"/><line class="cls-1" x1="41.65" y1="19.79" x2="41.86" y2="19.57"/><line class="cls-1" x1="38.68" y1="22.75" x2="40.96" y2="20.47"/><line class="cls-1" x1="42.51" y1="18.92" x2="43.22" y2="18.21"/><line class="cls-1" x1="39.8" y1="23.76" x2="43.96" y2="19.6"/><line class="cls-1" x1="40.91" y1="24.76" x2="44.4" y2="21.28"/><line class="cls-1" x1="42.02" y1="25.77" x2="44.31" y2="23.48"/><path class="cls-1" d="M31.13,23.22a1,1,0,0,0,0,.25"/><path class="cls-1" d="M34.58,18.25a5.69,5.69,0,0,0-3.35,4.08"/><line class="cls-1" x1="36.98" y1="25.99" x2="37.47" y2="29.56"/><line class="cls-1" x1="36.62" y1="23.31" x2="36.85" y2="25.03"/><polyline class="cls-1" points="29.97 43.24 29.97 36.35 32.87 36.35 32.87 43.24"/><polyline class="cls-1" points="34.04 43.24 34.04 32.16 36.94 32.16 36.94 43.24"/><line class="cls-1" x1="41.48" y1="32.47" x2="41.48" y2="43.24"/><polyline class="cls-1" points="38.58 43.24 38.58 31.06 41.48 31.06 41.48 31.45"/><line class="cls-1" x1="38.73" y1="40.86" x2="41.38" y2="38.21"/><line class="cls-1" x1="38.73" y1="42.66" x2="41.38" y2="40.01"/><line class="cls-1" x1="40.16" y1="43.03" x2="41.38" y2="41.82"/><line class="cls-1" x1="38.73" y1="39.02" x2="41.41" y2="36.33"/><line class="cls-1" x1="38.73" y1="37.17" x2="41.35" y2="34.55"/><line class="cls-1" x1="38.73" y1="35.33" x2="41.45" y2="32.61"/><line class="cls-1" x1="38.73" y1="33.49" x2="41" y2="31.21"/><line class="cls-1" x1="30.83" y1="39.68" x2="30.83" y2="38.33"/><line class="cls-1" x1="30.83" y1="37.44" x2="30.83" y2="37.21"/><line class="cls-1" x1="45.93" y1="51.42" x2="25.64" y2="51.42"/><path class="cls-1" d="M25.64,45.63V16.69a3.46,3.46,0,0,1,3.46-3.46h25a4,4,0,0,0-4,4h0V49.3a2.33,2.33,0,0,1-2.33,2.33h0"/><path class="cls-1" d="M52.09,17.37H58v-.21a3.93,3.93,0,0,0-3.93-3.93h0"/><path class="cls-1" d="M41.74,47.28H21.93v.21a3.93,3.93,0,0,0,3.93,3.93h19.7"/><path class="cls-1" d="M42.15,47.28a4.14,4.14,0,0,0,4.14,4.14"/><line class="cls-1" x1="29.1" y1="44.09" x2="45.9" y2="44.09"/></g></g></svg>