<svg xmlns="http://www.w3.org/2000/svg" viewBox="0 0 58.39 51.8"><defs><style>.cls-1,.cls-2{fill:none;stroke:#1a3f79;stroke-linecap:round;}.cls-1{stroke-miterlimit:10;stroke-width:0.75px;}.cls-2{stroke-linejoin:round;stroke-width:0.5px;}</style></defs><g id="Capa_2" data-name="Capa 2"><g id="Capa_1-2" data-name="Capa 1"><line class="cls-1" x1="24.37" y1="38.57" x2="4.08" y2="38.57"/><path class="cls-1" d="M4.08,32.77V3.83A3.45,3.45,0,0,1,7.54.38h25a4,4,0,0,0-3.95,4h0V13"/><path class="cls-1" d="M30.54,4.52h5.92V4.3A3.92,3.92,0,0,0,32.53.38h0"/><path class="cls-1" d="M20.18,34.42H.38v.22A3.92,3.92,0,0,0,4.3,38.57H24"/><path class="cls-1" d="M20.59,34.42a4.14,4.14,0,0,0,4.14,4.15"/><line class="cls-1" x1="45.93" y1="51.42" x2="25.64" y2="51.42"/><path class="cls-1" d="M25.64,45.63V16.69a3.46,3.46,0,0,1,3.46-3.46h25a4,4,0,0,0-4,4h0V48.81a2.33,2.33,0,0,1-2.33,2.33h0"/><path class="cls-1" d="M52.09,17.37H58v-.21a3.93,3.93,0,0,0-3.93-3.93h0"/><path class="cls-1" d="M41.74,47.28H21.93v.21a3.93,3.93,0,0,0,3.93,3.93h19.7"/><path class="cls-1" d="M42.15,47.28a4.14,4.14,0,0,0,4.14,4.14"/><polyline class="cls-2" points="22.07 25.85 7.73 25.85 7.73 12.07"/><circle class="cls-2" cx="10.89" cy="22.84" r="0.93"/><circle class="cls-2" cx="10.89" cy="17.28" r="0.93"/><circle class="cls-2" cx="15.04" cy="23.53" r="0.93"/><circle class="cls-2" cx="15.04" cy="13.14" r="0.93"/><circle class="cls-2" cx="19.58" cy="14.67" r="0.93"/><circle class="cls-2" cx="20.65" cy="23.14" r="0.93"/><line class="cls-2" x1="11.81" y1="22.99" x2="14.11" y2="23.37"/><line class="cls-2" x1="15.46" y1="22.7" x2="19.16" y2="15.5"/><line class="cls-2" x1="10.22" y1="23.48" x2="7.73" y2="25.85"/><line class="cls-2" x1="10.14" y1="16.73" x2="7.73" y2="14.96"/><line class="cls-2" x1="13.73" y1="14.44" x2="14.31" y2="13.86"/><line class="cls-2" x1="11.61" y1="16.56" x2="13.13" y2="15.05"/><line class="cls-2" x1="15.48" y1="13.96" x2="20.14" y2="22.38"/><polyline class="cls-2" points="44.46 39.53 30.11 39.53 30.11 25.75"/><circle class="cls-2" cx="33.28" cy="36.52" r="0.93"/><circle class="cls-2" cx="33.28" cy="30.96" r="0.93"/><circle class="cls-2" cx="37.43" cy="37.2" r="0.93"/><circle class="cls-2" cx="37.43" cy="26.82" r="0.93"/><circle class="cls-2" cx="41.97" cy="28.34" r="0.93"/><circle class="cls-2" cx="43.03" cy="36.81" r="0.93"/><line class="cls-2" x1="34.2" y1="36.67" x2="36.49" y2="37.05"/><line class="cls-2" x1="37.85" y1="36.37" x2="41.54" y2="29.17"/><line class="cls-2" x1="32.6" y1="37.16" x2="30.12" y2="39.53"/><line class="cls-2" x1="32.53" y1="30.41" x2="30.12" y2="28.63"/><line class="cls-2" x1="36.12" y1="28.12" x2="36.7" y2="27.54"/><line class="cls-2" x1="34" y1="30.24" x2="35.51" y2="28.73"/><line class="cls-2" x1="37.87" y1="27.64" x2="42.52" y2="36.06"/></g></g></svg>