<svg xmlns="http://www.w3.org/2000/svg" viewBox="0 0 8.48 93.72"><defs><style>.cls-1{fill:#999;}</style></defs><g id="Capa_2" data-name="Capa 2"><g id="Capa_1-2" data-name="Capa 1"><path class="cls-1" d="M4.38,64.1a1.19,1.19,0,0,0,.78-.23.79.79,0,0,0,.26-.6.76.76,0,0,0-.26-.6,1.15,1.15,0,0,0-.79-.24,1.14,1.14,0,0,0-.77.23.83.83,0,0,0,0,1.21,1.1,1.1,0,0,0,.78.23m0,.63a1.93,1.93,0,0,1-.77-.14,1.47,1.47,0,0,1-.42-.28,1.25,1.25,0,0,1-.27-.39,1.64,1.64,0,0,1-.12-.65,1.39,1.39,0,0,1,.42-1.06,1.56,1.56,0,0,1,1.15-.4,1.61,1.61,0,0,1,1.14.39,1.59,1.59,0,0,1,0,2.13A1.53,1.53,0,0,1,4.4,64.73Zm-1,3.71h2V68a1.48,1.48,0,0,0,0-.36.49.49,0,0,0-.12-.25.61.61,0,0,0-.29-.16,2.07,2.07,0,0,0-.56-.06,1.79,1.79,0,0,0-.53.06.62.62,0,0,0-.29.17.67.67,0,0,0-.15.29,2.6,2.6,0,0,0,0,.5Zm-.51.61V67.93a2.05,2.05,0,0,1,.06-.57,1,1,0,0,1,.28-.45,1.21,1.21,0,0,1,.49-.29,2.09,2.09,0,0,1,.71-.1,2,2,0,0,1,.64.09,1.23,1.23,0,0,1,.53.33,1,1,0,0,1,.25.42,2,2,0,0,1,.06.54v1.15ZM4.7,71.89l-1.12.41,1.12.41Zm1.19-1.13v.67l-.69.26V72.9l.69.24v.65l-3-1.17V72Zm0,6.68h-3v-.61H5.38V75.31h.51Zm0,2.6h-3v-.61h3ZM4.78,83.29H4.27V82h1.2a1.51,1.51,0,0,1,.33.55,2.11,2.11,0,0,1,.14.74,1.66,1.66,0,0,1-.2.82,1.22,1.22,0,0,1-.57.53,1.77,1.77,0,0,1-.8.18,1.8,1.8,0,0,1-.84-.2A1.31,1.31,0,0,1,3,84a1.54,1.54,0,0,1-.15-.72,1.44,1.44,0,0,1,.24-.88,1.05,1.05,0,0,1,.65-.4l.11.6a.62.62,0,0,0-.35.24.76.76,0,0,0-.13.44.8.8,0,0,0,.26.63,1.06,1.06,0,0,0,.75.24,1.18,1.18,0,0,0,.8-.24.8.8,0,0,0,.27-.62,1.07,1.07,0,0,0-.07-.39,1.3,1.3,0,0,0-.19-.33H4.78Zm1.11,4h-3v-.61h3Zm0,3.42-3,1.07v-.66l2.24-.76-2.24-.74V89l3,1.08Z"/><path class="cls-1" d="M2.57,1.64V.78l-.7.27-.53.18a3.24,3.24,0,0,1,.49.13Zm1,.73-2.54-1V1L3.61,0V.38l-.77.3V1.74L3.61,2ZM2.19,4.31V3.59a1.19,1.19,0,0,0,0-.36A.46.46,0,0,0,2,3,.44.44,0,0,0,1.77,3a.39.39,0,0,0-.3.14.58.58,0,0,0-.11.41v.8Zm1.42.33H1.07V3.52A1.59,1.59,0,0,1,1.14,3a.62.62,0,0,1,.24-.29.76.76,0,0,1,.39-.1.64.64,0,0,1,.45.17,1,1,0,0,1,.24.54.87.87,0,0,1,.12-.2,1.64,1.64,0,0,1,.34-.28l.69-.44v.42l-.53.34-.35.24a.9.9,0,0,0-.17.17.47.47,0,0,0-.06.15.78.78,0,0,0,0,.19v.39H3.61ZM3.61,7H1.07V5.17h.3v1.5h.78V5.27h.3v1.4h.86V5.11h.3Zm0,.94H1.07V7.6H3.61Zm-.89.8.09-.33a1.12,1.12,0,0,1,.63.38,1.05,1.05,0,0,1,.21.67,1.2,1.2,0,0,1-.16.66,1.12,1.12,0,0,1-.49.39,1.72,1.72,0,0,1-.68.14,1.52,1.52,0,0,1-.69-.15,1.16,1.16,0,0,1-.45-.43A1.29,1.29,0,0,1,1,9.45a1,1,0,0,1,.2-.64,1,1,0,0,1,.54-.36l.08.33A.77.77,0,0,0,1.44,9a.7.7,0,0,0-.12.42.86.86,0,0,0,.14.49.72.72,0,0,0,.37.27,1.36,1.36,0,0,0,.49.08,1.66,1.66,0,0,0,.57-.09.72.72,0,0,0,.36-.3.8.8,0,0,0,.12-.43A.71.71,0,0,0,3.2,9,.87.87,0,0,0,2.72,8.74Zm.89,4.37H1.07v-.34l2-1.33h-2v-.33H3.61v.35l-2,1.33h2ZM2.57,15v-.86l-.7.26-.53.18a3.32,3.32,0,0,1,.49.14Zm1,.73-2.54-1v-.36l2.54-1v.39l-.77.29v1.06l.77.28Zm0,2.28H1.07v-.35l2-1.33h-2V16H3.61v.35l-2,1.33h2Zm0,.92H1.07v-.33H3.61Zm0,2.2H1.07V19.44h.3v1.38h.79V19.63h.3v1.19H3.61Zm-1,2.72V23l-.7.26-.53.18a3.32,3.32,0,0,1,.49.14Zm1,.73-2.54-1v-.36l2.54-1v.38l-.77.29V24l.77.28Zm0,.65H1.07v-.34H3.61Zm-.89.8.09-.33a1.12,1.12,0,0,1,.63.38,1.05,1.05,0,0,1,.21.67,1.2,1.2,0,0,1-.16.66,1.12,1.12,0,0,1-.49.39,1.72,1.72,0,0,1-.68.14,1.52,1.52,0,0,1-.69-.15,1.19,1.19,0,0,1-.45-.44A1.25,1.25,0,0,1,1,26.76a1,1,0,0,1,.2-.64,1,1,0,0,1,.54-.36l.08.33a.77.77,0,0,0-.41.26.7.7,0,0,0-.12.42.88.88,0,0,0,.14.49.72.72,0,0,0,.37.27,1.62,1.62,0,0,0,.49.08,1.66,1.66,0,0,0,.57-.09.72.72,0,0,0,.36-.3.8.8,0,0,0,.12-.43.71.71,0,0,0-.17-.47A.87.87,0,0,0,2.72,26.05Zm.89,4.37H1.07v-.34l2-1.34h-2v-.32H3.61v.35l-2,1.33h2Zm0,2.35H1.07V30.94h.3v1.5h.78V31h.3v1.41h.86V30.88h.3ZM3.31,35v-.54a1.4,1.4,0,0,0-.05-.4.48.48,0,0,0-.13-.22.82.82,0,0,0-.32-.19,1.7,1.7,0,0,0-.49-.07,1.26,1.26,0,0,0-.61.13.65.65,0,0,0-.28.32,1.18,1.18,0,0,0-.06.44V35Zm.3.33H1.07v-.87a2.31,2.31,0,0,1,0-.45.86.86,0,0,1,.18-.37,1,1,0,0,1,.44-.3,1.57,1.57,0,0,1,.6-.1,1.61,1.61,0,0,1,.51.07,1.15,1.15,0,0,1,.37.17,1,1,0,0,1,.23.23,1,1,0,0,1,.13.3,2.48,2.48,0,0,1,0,.41Zm0,2.56H1.07v-.34l2-1.33h-2V35.9H3.61v.34l-2,1.33h2Zm0,2.35H1.07V38.41h.3v1.5h.78v-1.4h.3v1.4h.86V38.35h.3Zm0,1.53H1.37v.83h-.3v-2h.3v.83H3.61Zm0,3.2H1.07v-.34l2-1.33h-2V43H3.61v.34l-2,1.33h2Zm0,.93H1.07v-.34H3.61ZM2.19,48.17v-.72a1.19,1.19,0,0,0,0-.36.46.46,0,0,0-.16-.2.44.44,0,0,0-.22-.07.39.39,0,0,0-.3.14.58.58,0,0,0-.11.41v.8Zm1.42.33H1.07V47.38a1.59,1.59,0,0,1,.07-.51.62.62,0,0,1,.24-.29.76.76,0,0,1,.39-.1.64.64,0,0,1,.45.17,1,1,0,0,1,.24.54.87.87,0,0,1,.12-.2,1.64,1.64,0,0,1,.34-.28l.69-.44v.42L3.08,47l-.35.24a.9.9,0,0,0-.17.17.47.47,0,0,0-.06.15.78.78,0,0,0,0,.19v.39H3.61Zm0,2.36H1.07V49h.3v1.5h.78v-1.4h.3v1.4h.86V49h.3Zm-1.33,2v-.66a.69.69,0,0,0-.12-.46.44.44,0,0,0-.34-.14.46.46,0,0,0-.27.08.37.37,0,0,0-.15.22,1,1,0,0,0,0,.31v.65Zm1.33.33H1.07v-.95a1.92,1.92,0,0,1,0-.39.72.72,0,0,1,.12-.31.7.7,0,0,1,.24-.21.81.81,0,0,1,.35-.07.83.83,0,0,1,.55.2,1,1,0,0,1,.22.75v.65h1Zm-2.54.9v-.34H2.54a1.71,1.71,0,0,1,.61.09.68.68,0,0,1,.36.31,1.05,1.05,0,0,1,.14.59,1.22,1.22,0,0,1-.12.58.72.72,0,0,1-.36.33,1.75,1.75,0,0,1-.63.09H1.07v-.33H2.54A1.4,1.4,0,0,0,3,55.39a.42.42,0,0,0,.24-.21.72.72,0,0,0,.09-.37.72.72,0,0,0-.17-.53,1,1,0,0,0-.64-.15Zm1.72,4.13,0-.31a.71.71,0,0,0,.31-.11.57.57,0,0,0,.2-.25,1,1,0,0,0,.07-.39.9.9,0,0,0-.06-.34.45.45,0,0,0-.15-.22.36.36,0,0,0-.22-.07.31.31,0,0,0-.21.07.51.51,0,0,0-.15.23l-.12.45a2.78,2.78,0,0,1-.16.49.69.69,0,0,1-.23.27.59.59,0,0,1-.32.09.66.66,0,0,1-.36-.11.68.68,0,0,1-.25-.32A1.14,1.14,0,0,1,1,57.28a1.28,1.28,0,0,1,.09-.5.64.64,0,0,1,.27-.33.79.79,0,0,1,.4-.13l0,.32a.52.52,0,0,0-.36.18.7.7,0,0,0-.12.44.66.66,0,0,0,.11.44.31.31,0,0,0,.27.14.29.29,0,0,0,.22-.09,1.38,1.38,0,0,0,.18-.51,3.93,3.93,0,0,1,.16-.56.81.81,0,0,1,.26-.33.65.65,0,0,1,.36-.1.7.7,0,0,1,.38.11.73.73,0,0,1,.28.34,1.06,1.06,0,0,1,.1.48,1.4,1.4,0,0,1-.1.58.82.82,0,0,1-.3.36A.81.81,0,0,1,2.79,58.26Z"/><path class="cls-1" d="M6.52,18.56V17.7l-.7.26-.52.18a2.9,2.9,0,0,1,.48.14Zm1,.73L5,18.31V18l2.53-1v.38l-.76.29v1.06l.76.28Zm0,.65H5V19.6H7.56ZM7.26,22V21.4a1.35,1.35,0,0,0,0-.23A.4.4,0,0,0,7.18,21,.44.44,0,0,0,7,20.85a.46.46,0,0,0-.21-.05.49.49,0,0,0-.25.07.34.34,0,0,0-.14.21,1.13,1.13,0,0,0-.05.37V22ZM6.09,22v-.55a2.33,2.33,0,0,0,0-.32A.43.43,0,0,0,5.94,21a.43.43,0,0,0-.44,0,.33.33,0,0,0-.14.17,1.73,1.73,0,0,0,0,.39V22Zm1.47.34H5v-.95A1.21,1.21,0,0,1,5.11,21a.56.56,0,0,1,.23-.27.61.61,0,0,1,.34-.1.53.53,0,0,1,.3.09.56.56,0,0,1,.24.26.62.62,0,0,1,.23-.35.6.6,0,0,1,.38-.13.73.73,0,0,1,.33.08.65.65,0,0,1,.24.19.85.85,0,0,1,.12.27,1.62,1.62,0,0,1,0,.41Zm0,2.94H5v-.5l1.79-.6.38-.12L6.79,24,5,23.35V22.9H7.56v.32H5.44L7.56,24v.31L5.41,25H7.56Zm-1.23,2.5a1.05,1.05,0,0,0,.73-.24A.84.84,0,0,0,7.32,27a.8.8,0,0,0-.27-.62,1,1,0,0,0-.75-.25,1.27,1.27,0,0,0-.54.11.82.82,0,0,0-.36.3.9.9,0,0,0-.13.45.84.84,0,0,0,.25.62A1.08,1.08,0,0,0,6.33,27.81Zm0,.35a1.37,1.37,0,0,1-1-.34A1.16,1.16,0,0,1,5,26.94a1.24,1.24,0,0,1,.17-.63,1.09,1.09,0,0,1,.47-.43,1.51,1.51,0,0,1,.68-.14,1.52,1.52,0,0,1,.69.15,1,1,0,0,1,.46.44,1.33,1.33,0,0,1,.16.62,1.17,1.17,0,0,1-.18.64A1.07,1.07,0,0,1,7,28,1.39,1.39,0,0,1,6.33,28.16ZM7.56,30H5V29.7H7.26V28.46h.3ZM6.33,32.53a1.05,1.05,0,0,0,.73-.24.84.84,0,0,0,.26-.62.8.8,0,0,0-.27-.62,1,1,0,0,0-.75-.25,1.27,1.27,0,0,0-.54.11.82.82,0,0,0-.36.3.91.91,0,0,0-.13.46.84.84,0,0,0,.25.61A1.08,1.08,0,0,0,6.33,32.53Zm0,.35a1.37,1.37,0,0,1-1-.34A1.14,1.14,0,0,1,5,31.67,1.25,1.25,0,0,1,5.15,31a1.07,1.07,0,0,1,.47-.42,1.64,1.64,0,0,1,1.37,0,1.09,1.09,0,0,1,.46.44,1.33,1.33,0,0,1,.16.62,1.17,1.17,0,0,1-.18.64,1.09,1.09,0,0,1-.47.43A1.52,1.52,0,0,1,6.33,32.88Zm.35.65.08-.34a1.15,1.15,0,0,1,.63.38,1.08,1.08,0,0,1,.22.67,1.23,1.23,0,0,1-.17.67A1,1,0,0,1,7,35.3a1.72,1.72,0,0,1-.68.13,1.47,1.47,0,0,1-.69-.15,1,1,0,0,1-.45-.43A1.28,1.28,0,0,1,5,34.24a1,1,0,0,1,.19-.64.93.93,0,0,1,.54-.36l.08.33a.73.73,0,0,0-.4.25.7.7,0,0,0-.13.42.84.84,0,0,0,.14.49.82.82,0,0,0,.38.28,1.62,1.62,0,0,0,.49.08,1.6,1.6,0,0,0,.56-.1.7.7,0,0,0,.36-.29.82.82,0,0,0,.12-.43.71.71,0,0,0-.16-.48A.8.8,0,0,0,6.68,33.53Zm.88,5.14H5V36.84h.3v1.5H6.1v-1.4h.3v1.4h.86V36.78h.3Zm-.3,2.23v-.54a1.33,1.33,0,0,0,0-.39.63.63,0,0,0-.13-.23.91.91,0,0,0-.32-.19,1.77,1.77,0,0,0-.49-.06,1.13,1.13,0,0,0-.61.13.61.61,0,0,0-.29.31,1.51,1.51,0,0,0,0,.44v.53Zm.3.34H5v-.88a1.82,1.82,0,0,1,0-.45.8.8,0,0,1,.18-.37,1,1,0,0,1,.43-.3,1.64,1.64,0,0,1,.6-.1,1.53,1.53,0,0,1,.51.07,1.06,1.06,0,0,1,.37.17.84.84,0,0,1,.23.23,1,1,0,0,1,.13.3,1.73,1.73,0,0,1,0,.41Z"/><rect class="cls-1" y="60.37" width="0.75" height="33.35"/><rect class="cls-1" x="7.72" y="60.37" width="0.75" height="33.35"/></g></g></svg>