<svg xmlns="http://www.w3.org/2000/svg" viewBox="0 0 65.97 67.43"><defs><style>.cls-1{fill:#e6e6e6;}.cls-2{fill:#00009f;}.cls-3{fill:#0033a1;}</style></defs><g id="Capa_2" data-name="Capa 2"><g id="Capa_1-2" data-name="Capa 1"><circle class="cls-1" cx="21.5" cy="21.5" r="21.5"/><path class="cls-2" d="M66,21.39V7.8a4.27,4.27,0,0,0-4.25-4.25H39.63A4.26,4.26,0,0,0,35.39,7.8V18H22.64a4.26,4.26,0,0,0-4.24,4.25V46h-.85A2.55,2.55,0,0,0,15,48.57V52a2.55,2.55,0,0,0,2.55,2.55H63.42A2.55,2.55,0,0,0,66,52v-3.4A2.55,2.55,0,0,0,63.42,46h-.85V25.55A4.26,4.26,0,0,0,66,21.39ZM37.09,7.8a2.55,2.55,0,0,1,2.54-2.55H61.72A2.55,2.55,0,0,1,64.27,7.8V21.39a2.55,2.55,0,0,1-2.55,2.55H50.38L43,29.82V23.94h-3.4a2.55,2.55,0,0,1-2.54-2.55Zm2.54,17.84h1.7v7.71L51,25.64h6.5V46H47.34a2.53,2.53,0,0,0-2.13,1.13l-.69,1a.84.84,0,0,1-.7.37H37.14a.85.85,0,0,1-.7-.37l-.69-1A2.54,2.54,0,0,0,33.63,46H23.49V23.09H35.75A4.23,4.23,0,0,0,39.63,25.64ZM20.1,22.24a2.55,2.55,0,0,1,2.54-2.55H35.39v1.7H21.8V46H20.1ZM63.42,47.73a.85.85,0,0,1,.85.84V52a.85.85,0,0,1-.85.85H17.55A.85.85,0,0,1,16.7,52v-3.4a.85.85,0,0,1,.85-.84H33.63a.87.87,0,0,1,.71.37l.68,1a2.55,2.55,0,0,0,2.12,1.13h6.68A2.57,2.57,0,0,0,46,49.14l.68-1a.87.87,0,0,1,.71-.37ZM59.17,46V25.64h1.7V46Z"/><path class="cls-3" d="M52.81,23a1.93,1.93,0,0,1-1.72-1.07l-1-1.78-.54,1a.35.35,0,0,1-.05.08,1.7,1.7,0,0,1-1.37.66h0a1.89,1.89,0,0,1-1.32-.57A1.94,1.94,0,0,1,46.28,20V11.78a1.89,1.89,0,0,1,3.1-1.46l4.17,3.1a.63.63,0,1,1-.76,1l-4.18-3.11,0,0a.63.63,0,0,0-1,.48V20a.69.69,0,0,0,.64.7h0a.49.49,0,0,0,.33-.12l1.07-2a.65.65,0,0,1,.55-.34h0a.62.62,0,0,1,.55.34l1.52,2.85,0,0a.64.64,0,0,0,.85.31.68.68,0,0,0,.34-.37.66.66,0,0,0,0-.48l-1.53-2.74a.64.64,0,0,1,0-.63.66.66,0,0,1,.55-.31h2.17a.66.66,0,0,0,.55-.39.67.67,0,0,0-.13-.69.63.63,0,0,1,.92-.87,1.91,1.91,0,0,1-1.31,3.22H53.49l1,1.81,0,0a1.92,1.92,0,0,1-.92,2.57A2.05,2.05,0,0,1,52.81,23ZM47,9.3a.63.63,0,0,0,.26-.85l-.54-1a.63.63,0,0,0-.86-.25.62.62,0,0,0-.25.85l.54,1a.62.62,0,0,0,.55.33A.54.54,0,0,0,47,9.3Zm-1.33,1.44a.63.63,0,0,0-.33-.83l-1-.44a.63.63,0,1,0-.5,1.15l1,.45a.7.7,0,0,0,.25,0A.64.64,0,0,0,45.66,10.74Zm3.94-2,.34-1a.61.61,0,0,0-.39-.79.62.62,0,0,0-.8.39L48.4,8.3a.63.63,0,0,0,.4.8.64.64,0,0,0,.8-.4Zm1.67,1.6.85-.63a.63.63,0,0,0-.75-1l-.85.64a.62.62,0,0,0-.13.88.6.6,0,0,0,.5.25A.66.66,0,0,0,51.27,10.3Zm-6.9,3.56.94-.38a.64.64,0,1,0-.47-1.18l-.94.38a.63.63,0,0,0-.35.82.61.61,0,0,0,.58.4A.67.67,0,0,0,44.37,13.86Z"/><ellipse class="cls-2" cx="40.94" cy="66.15" rx="8.35" ry="1.28"/></g></g></svg>