<svg xmlns="http://www.w3.org/2000/svg" viewBox="0 0 28.39 28.39"><defs><style>.cls-1{fill:#ff8300;}.cls-2{fill:#fff;}</style></defs><g id="Capa_2" data-name="Capa 2"><g id="Capa_1-2" data-name="Capa 1"><path class="cls-1" d="M14.19,28.39a14.19,14.19,0,0,1-10-24.23A14.19,14.19,0,1,1,24.23,24.23,14.1,14.1,0,0,1,14.19,28.39Z"/><path class="cls-2" d="M14.19,10.39A3.81,3.81,0,1,0,18,14.19,3.8,3.8,0,0,0,14.19,10.39Zm0,6.2a2.4,2.4,0,1,1,2.4-2.4,2.4,2.4,0,0,1-2.4,2.4Zm4.92-6.36a1,1,0,1,1-.95-1A1,1,0,0,1,19.11,10.23Zm2.45.9A4.39,4.39,0,0,0,20.36,8a4.43,4.43,0,0,0-3.11-1.19c-1.22-.07-4.89-.07-6.12,0A4.38,4.38,0,0,0,8,8a4.42,4.42,0,0,0-1.2,3.11c-.06,1.23-.06,4.9,0,6.12A4.42,4.42,0,0,0,8,20.36a4.42,4.42,0,0,0,3.11,1.2c1.23.07,4.9.07,6.12,0a4.4,4.4,0,0,0,3.11-1.2,4.42,4.42,0,0,0,1.2-3.11c.07-1.22.07-4.89,0-6.12ZM19.9,18.51a2.47,2.47,0,0,1-1.39,1.39,16.24,16.24,0,0,1-4.32.29,16.19,16.19,0,0,1-4.31-.29,2.5,2.5,0,0,1-1.39-1.39,16.26,16.26,0,0,1-.29-4.32,16.19,16.19,0,0,1,.29-4.31A2.47,2.47,0,0,1,9.88,8.49a16.19,16.19,0,0,1,4.31-.3,16.23,16.23,0,0,1,4.32.3A2.47,2.47,0,0,1,19.9,9.88a16.19,16.19,0,0,1,.29,4.31A16.24,16.24,0,0,1,19.9,18.51Z"/></g></g></svg>