<svg xmlns="http://www.w3.org/2000/svg" xmlns:xlink="http://www.w3.org/1999/xlink" viewBox="0 0 181.32 34.33"><defs><style>.cls-1{isolation:isolate;}.cls-2{fill:#0033a1;}.cls-3{fill:url(#linear-gradient);}.cls-4{fill:url(#linear-gradient-2);}.cls-5{fill:url(#linear-gradient-3);}.cls-6{fill:url(#linear-gradient-4);}.cls-7{fill:url(#linear-gradient-5);}.cls-8{fill:url(#linear-gradient-6);}.cls-9{fill:url(#linear-gradient-7);}.cls-10{fill:url(#linear-gradient-8);}.cls-11{fill:url(#linear-gradient-9);}.cls-12{fill:url(#linear-gradient-10);}.cls-13{fill:url(#linear-gradient-11);}.cls-14{fill:url(#linear-gradient-12);}.cls-15{fill:url(#linear-gradient-13);}.cls-16{fill:url(#linear-gradient-14);}.cls-17{fill:url(#linear-gradient-15);}.cls-18{fill:url(#linear-gradient-16);}.cls-19{fill:url(#linear-gradient-17);}.cls-20{fill:url(#linear-gradient-18);}.cls-21{fill:url(#Degradado_sin_nombre_2);}.cls-22{fill:url(#Degradado_sin_nombre_2-2);}.cls-23{fill:url(#Degradado_sin_nombre_2-3);}.cls-24{fill:url(#linear-gradient-19);}.cls-25{fill:url(#linear-gradient-20);}.cls-26{fill:url(#linear-gradient-21);}.cls-27{fill:url(#linear-gradient-22);}.cls-28{fill:url(#linear-gradient-23);}.cls-29{fill:url(#linear-gradient-24);}.cls-30{fill:url(#linear-gradient-25);}.cls-31{fill:url(#linear-gradient-26);}.cls-32{fill:url(#linear-gradient-27);}.cls-33{fill:url(#linear-gradient-28);}.cls-34{fill:url(#linear-gradient-29);}.cls-35{fill:url(#linear-gradient-30);}.cls-36{fill:url(#linear-gradient-31);}.cls-37{fill:url(#linear-gradient-32);}.cls-38{fill:url(#linear-gradient-33);}.cls-39{fill:url(#linear-gradient-34);}.cls-40{fill:url(#linear-gradient-35);}.cls-41{fill:url(#linear-gradient-36);}.cls-42{fill:url(#linear-gradient-37);}.cls-43{fill:url(#linear-gradient-38);}.cls-44{fill:url(#linear-gradient-39);}.cls-45{fill:url(#linear-gradient-40);}.cls-46{fill:url(#linear-gradient-41);}.cls-47{fill:url(#linear-gradient-42);}.cls-48{fill:url(#linear-gradient-43);}.cls-49{fill:url(#linear-gradient-44);}.cls-50{fill:url(#linear-gradient-45);}.cls-51{fill:url(#linear-gradient-46);}.cls-52{fill:url(#linear-gradient-47);}.cls-53{fill:url(#linear-gradient-48);}.cls-54{fill:url(#linear-gradient-49);}.cls-55{fill:url(#linear-gradient-50);}.cls-56{fill:url(#linear-gradient-51);}.cls-57{fill:url(#linear-gradient-52);}.cls-58{fill:url(#linear-gradient-53);}.cls-59{fill:url(#linear-gradient-54);}.cls-60{fill:url(#linear-gradient-55);}.cls-61{fill:url(#linear-gradient-56);}.cls-62{fill:url(#linear-gradient-57);}.cls-63{fill:url(#linear-gradient-58);}.cls-64{fill:url(#linear-gradient-59);}.cls-65{fill:url(#linear-gradient-60);}.cls-66{fill:url(#linear-gradient-61);}.cls-67{fill:url(#linear-gradient-62);}.cls-68{fill:url(#linear-gradient-63);}.cls-69{fill:url(#linear-gradient-64);}.cls-70{fill:url(#linear-gradient-65);}.cls-71{fill:url(#linear-gradient-66);}.cls-72{fill:url(#linear-gradient-67);}.cls-73{fill:url(#linear-gradient-68);}.cls-74{fill:url(#linear-gradient-69);}.cls-75{opacity:0.5;}.cls-75,.cls-76,.cls-77,.cls-78,.cls-79,.cls-80,.cls-81,.cls-82,.cls-83,.cls-84,.cls-85,.cls-86,.cls-87,.cls-88,.cls-89,.cls-90,.cls-91,.cls-92,.cls-93{mix-blend-mode:multiply;}.cls-76,.cls-77,.cls-78,.cls-79,.cls-80,.cls-81,.cls-82,.cls-83,.cls-84,.cls-85,.cls-86,.cls-87,.cls-88,.cls-89,.cls-90,.cls-91,.cls-92,.cls-93{opacity:0.55;}.cls-76{fill:url(#linear-gradient-70);}.cls-77{fill:url(#linear-gradient-71);}.cls-78{fill:url(#linear-gradient-72);}.cls-79{fill:url(#linear-gradient-73);}.cls-80{fill:url(#linear-gradient-74);}.cls-81{fill:url(#linear-gradient-75);}.cls-82{fill:url(#linear-gradient-76);}.cls-83{fill:url(#linear-gradient-77);}.cls-84{fill:url(#linear-gradient-78);}.cls-85{fill:url(#linear-gradient-79);}.cls-86{fill:url(#linear-gradient-80);}.cls-87{fill:url(#linear-gradient-81);}.cls-88{fill:url(#linear-gradient-82);}.cls-89{fill:url(#linear-gradient-83);}.cls-90{fill:url(#linear-gradient-84);}.cls-91{fill:url(#linear-gradient-85);}.cls-92{fill:url(#linear-gradient-86);}.cls-93{fill:url(#linear-gradient-87);}</style><linearGradient id="linear-gradient" x1="-359.52" y1="50.69" x2="-359.37" y2="60.87" gradientTransform="translate(375.25 -32.95)" gradientUnits="userSpaceOnUse"><stop offset="0" stop-color="#891820"/><stop offset="0.54" stop-color="#e4201d"/></linearGradient><linearGradient id="linear-gradient-2" x1="-363.49" y1="53" x2="-363.36" y2="61.48" xlink:href="#linear-gradient"/><linearGradient id="linear-gradient-3" x1="-367.45" y1="55.31" x2="-367.35" y2="61.46" xlink:href="#linear-gradient"/><linearGradient id="linear-gradient-4" x1="267.36" y1="-5283.01" x2="267.28" y2="-5299.48" gradientTransform="translate(284.75 -5265.32) rotate(180)" gradientUnits="userSpaceOnUse"><stop offset="0" stop-color="#88181b"/><stop offset="0.54" stop-color="#b62226"/><stop offset="1" stop-color="#e4201d"/></linearGradient><linearGradient id="linear-gradient-5" x1="271.34" y1="-5285.51" x2="271.27" y2="-5299.05" xlink:href="#linear-gradient-4"/><linearGradient id="linear-gradient-6" x1="275.32" y1="-5287.69" x2="275.27" y2="-5297.6" xlink:href="#linear-gradient-4"/><linearGradient id="linear-gradient-7" x1="-2020.61" y1="-861.48" x2="-2020.37" y2="-845.79" gradientTransform="translate(1773.3 -1300.39) rotate(-60)" gradientUnits="userSpaceOnUse"><stop offset="0" stop-color="#ec6d1a"/><stop offset="0.34" stop-color="#f49a26"/></linearGradient><linearGradient id="linear-gradient-8" x1="-2024.57" y1="-859.17" x2="-2024.44" y2="-850.69" xlink:href="#linear-gradient-7"/><linearGradient id="linear-gradient-9" x1="-2028.53" y1="-856.86" x2="-2028.44" y2="-850.71" xlink:href="#linear-gradient-7"/><linearGradient id="linear-gradient-10" x1="1929" y1="-4370.72" x2="1928.92" y2="-4387.19" gradientTransform="translate(-2802.8 -3838.63) rotate(120)" gradientUnits="userSpaceOnUse"><stop offset="0" stop-color="#df4a21"/><stop offset="0.89" stop-color="#f49a26"/></linearGradient><linearGradient id="linear-gradient-11" x1="1932.98" y1="-4373.22" x2="1932.92" y2="-4386.76" xlink:href="#linear-gradient-10"/><linearGradient id="linear-gradient-12" x1="1936.96" y1="-4375.4" x2="1936.92" y2="-4385.3" xlink:href="#linear-gradient-10"/><linearGradient id="linear-gradient-13" x1="-1964.84" y1="-2877.87" x2="-1964.68" y2="-2867.68" gradientTransform="translate(1528.22 -3122.34) rotate(-120)" gradientUnits="userSpaceOnUse"><stop offset="0" stop-color="#c3982d"/><stop offset="0.46" stop-color="#fcd904"/><stop offset="0.76" stop-color="#f2e500"/></linearGradient><linearGradient id="linear-gradient-14" x1="-1968.8" y1="-2875.56" x2="-1968.67" y2="-2867.07" xlink:href="#linear-gradient-13"/><linearGradient id="linear-gradient-15" x1="-1972.76" y1="-2873.24" x2="-1972.67" y2="-2867.09" xlink:href="#linear-gradient-13"/><linearGradient id="linear-gradient-16" x1="1872.84" y1="-2353.92" x2="1872.76" y2="-2370.39" gradientTransform="translate(-2957.38 -428.2) rotate(60)" gradientUnits="userSpaceOnUse"><stop offset="0" stop-color="#bf8d2d"/><stop offset="0.8" stop-color="#f2e500"/></linearGradient><linearGradient id="linear-gradient-17" x1="1876.82" y1="-2356.41" x2="1876.76" y2="-2369.95" xlink:href="#linear-gradient-16"/><linearGradient id="linear-gradient-18" x1="1880.8" y1="-2358.6" x2="1880.75" y2="-2368.5" xlink:href="#linear-gradient-16"/><linearGradient id="Degradado_sin_nombre_2" x1="-287.13" y1="-3716.29" x2="-286.98" y2="-3706.1" gradientTransform="translate(-268.49 -3699.69) rotate(180)" gradientUnits="userSpaceOnUse"><stop offset="0" stop-color="#008543"/><stop offset="0.52" stop-color="#9dc31c"/></linearGradient><linearGradient id="Degradado_sin_nombre_2-2" x1="-291.1" y1="-3713.98" x2="-290.97" y2="-3705.5" xlink:href="#Degradado_sin_nombre_2"/><linearGradient id="Degradado_sin_nombre_2-3" x1="-295.06" y1="-3711.66" x2="-294.96" y2="-3705.51" xlink:href="#Degradado_sin_nombre_2"/><linearGradient id="linear-gradient-19" x1="194.97" y1="-1516.04" x2="194.89" y2="-1532.51" gradientTransform="translate(-177.99 1532.68)" gradientUnits="userSpaceOnUse"><stop offset="0" stop-color="#007f41"/><stop offset="1" stop-color="#9dc31a"/></linearGradient><linearGradient id="linear-gradient-20" x1="198.95" y1="-1518.54" x2="198.89" y2="-1532.08" xlink:href="#linear-gradient-19"/><linearGradient id="linear-gradient-21" x1="202.93" y1="-1520.72" x2="202.88" y2="-1530.62" xlink:href="#linear-gradient-19"/><linearGradient id="linear-gradient-22" x1="1451.57" y1="-3060.66" x2="1451.73" y2="-3050.48" gradientTransform="translate(-1907.34 -2771.77) rotate(120)" gradientUnits="userSpaceOnUse"><stop offset="0" stop-color="#213a75"/><stop offset="0.48" stop-color="#28347c"/></linearGradient><linearGradient id="linear-gradient-23" x1="1447.6" y1="-3058.36" x2="1447.73" y2="-3049.87" xlink:href="#linear-gradient-22"/><linearGradient id="linear-gradient-24" x1="1443.64" y1="-3056.04" x2="1443.74" y2="-3049.89" xlink:href="#linear-gradient-22"/><linearGradient id="linear-gradient-25" x1="-1543.18" y1="-2171.54" x2="-1543.26" y2="-2188.01" gradientTransform="translate(2668.76 -233.54) rotate(-60)" gradientUnits="userSpaceOnUse"><stop offset="0" stop-color="#212d56"/><stop offset="0.48" stop-color="#2d63ac"/><stop offset="1" stop-color="#28347c"/></linearGradient><linearGradient id="linear-gradient-26" x1="-1539.2" y1="-2174.04" x2="-1539.26" y2="-2187.58" xlink:href="#linear-gradient-25"/><linearGradient id="linear-gradient-27" x1="-1535.22" y1="-2176.22" x2="-1535.26" y2="-2186.12" xlink:href="#linear-gradient-25"/><linearGradient id="linear-gradient-28" x1="1579.16" y1="-848.78" x2="1579.32" y2="-838.6" gradientTransform="translate(-1508.67 -926.98) rotate(60)" gradientUnits="userSpaceOnUse"><stop offset="0" stop-color="#1e112e"/><stop offset="0.54" stop-color="#181833"/></linearGradient><linearGradient id="linear-gradient-29" x1="1575.2" y1="-846.47" x2="1575.33" y2="-837.99" xlink:href="#linear-gradient-28"/><linearGradient id="linear-gradient-30" x1="1571.24" y1="-844.16" x2="1571.33" y2="-838.01" xlink:href="#linear-gradient-28"/><linearGradient id="linear-gradient-31" x1="-1671.16" y1="-4383" x2="-1671.24" y2="-4399.47" gradientTransform="translate(2976.92 -3621.11) rotate(-120)" gradientUnits="userSpaceOnUse"><stop offset="0" stop-color="#180d1b"/><stop offset="0.42" stop-color="#29112d"/></linearGradient><linearGradient id="linear-gradient-32" x1="-1667.18" y1="-4385.5" x2="-1667.24" y2="-4399.04" xlink:href="#linear-gradient-31"/><linearGradient id="linear-gradient-33" x1="1.12" y1="17.45" x2="9.13" y2="12.95" gradientTransform="matrix(1, 0, 0, 1, 0, 0)" xlink:href="#linear-gradient-31"/><linearGradient id="linear-gradient-34" x1="-1629.35" y1="-4446.05" x2="-1629.44" y2="-4462.47" gradientTransform="translate(3051.92 -3616.78) rotate(-120)" gradientUnits="userSpaceOnUse"><stop offset="0" stop-color="#36163c"/><stop offset="0.5" stop-color="#752d86"/><stop offset="1" stop-color="#832f87" stop-opacity="0"/></linearGradient><linearGradient id="linear-gradient-35" x1="-1625.37" y1="-4448.32" x2="-1625.45" y2="-4462" xlink:href="#linear-gradient-34"/><linearGradient id="linear-gradient-36" x1="-1621.45" y1="-4450.58" x2="-1621.5" y2="-4460.48" xlink:href="#linear-gradient-34"/><linearGradient id="linear-gradient-37" x1="351.82" y1="-6097.3" x2="351.73" y2="-6113.72" gradientTransform="translate(368.66 -6079.33) rotate(180)" gradientUnits="userSpaceOnUse"><stop offset="0" stop-color="#b9181d"/><stop offset="1" stop-color="#e42620" stop-opacity="0"/></linearGradient><linearGradient id="linear-gradient-38" x1="355.79" y1="-6099.57" x2="355.72" y2="-6113.25" xlink:href="#linear-gradient-37"/><linearGradient id="linear-gradient-39" x1="359.72" y1="-6101.83" x2="359.66" y2="-6111.73" xlink:href="#linear-gradient-37"/><linearGradient id="linear-gradient-40" x1="2704.3" y1="-5156.78" x2="2704.21" y2="-5173.2" gradientTransform="translate(-3095.91 -4902.45) rotate(120)" gradientUnits="userSpaceOnUse"><stop offset="0" stop-color="#fbc013" stop-opacity="0.35"/><stop offset="0.5" stop-color="#f9e823"/><stop offset="1" stop-color="#fbc013" stop-opacity="0"/></linearGradient><linearGradient id="linear-gradient-41" x1="2708.27" y1="-5159.05" x2="2708.2" y2="-5172.73" xlink:href="#linear-gradient-40"/><linearGradient id="linear-gradient-42" x1="2712.21" y1="-5161.3" x2="2712.16" y2="-5171.2" xlink:href="#linear-gradient-40"/><linearGradient id="linear-gradient-43" x1="3006.22" y1="-2578.54" x2="3006.13" y2="-2594.96" gradientTransform="translate(-3718.07 -1297.06) rotate(60)" gradientUnits="userSpaceOnUse"><stop offset="0" stop-color="#fae924" stop-opacity="0.35"/><stop offset="0.5" stop-color="#fae924"/><stop offset="1" stop-color="#f1e51e" stop-opacity="0"/></linearGradient><linearGradient id="linear-gradient-44" x1="3010.2" y1="-2580.81" x2="3010.12" y2="-2594.49" xlink:href="#linear-gradient-43"/><linearGradient id="linear-gradient-45" x1="3014.14" y1="-2583.06" x2="3014.08" y2="-2592.96" xlink:href="#linear-gradient-43"/><linearGradient id="linear-gradient-46" x1="901.36" y1="-983.22" x2="901.27" y2="-999.63" gradientTransform="translate(-883.85 999.57)" gradientUnits="userSpaceOnUse"><stop offset="0" stop-color="#c7d432" stop-opacity="0.35"/><stop offset="0.5" stop-color="#ede300"/><stop offset="1" stop-color="#c7d432" stop-opacity="0"/></linearGradient><linearGradient id="linear-gradient-47" x1="905.33" y1="-985.48" x2="905.26" y2="-999.16" xlink:href="#linear-gradient-46"/><linearGradient id="linear-gradient-48" x1="909.27" y1="-987.74" x2="909.22" y2="-997.64" xlink:href="#linear-gradient-46"/><linearGradient id="linear-gradient-49" x1="-1602.15" y1="-1931.87" x2="-1602.24" y2="-1948.29" gradientTransform="translate(2490.72 -405.06) rotate(-60)" gradientUnits="userSpaceOnUse"><stop offset="0" stop-color="#065ba7" stop-opacity="0.35"/><stop offset="0.5" stop-color="#065ba7"/><stop offset="1" stop-color="#065ba7" stop-opacity="0"/></linearGradient><linearGradient id="linear-gradient-50" x1="-1598.18" y1="-1934.13" x2="-1598.25" y2="-1947.82" xlink:href="#linear-gradient-49"/><linearGradient id="linear-gradient-51" x1="-1594.24" y1="-1936.39" x2="-1594.29" y2="-1946.29" xlink:href="#linear-gradient-49"/><linearGradient id="linear-gradient-52" x1="16.36" y1="14.11" x2="4.16" y2="7.26" gradientUnits="userSpaceOnUse"><stop offset="0.01" stop-color="#27aae2" stop-opacity="0"/><stop offset="0.28" stop-color="#fff"/><stop offset="0.69" stop-color="#fff"/><stop offset="1" stop-color="#27aae2" stop-opacity="0"/></linearGradient><linearGradient id="linear-gradient-53" x1="16.29" y1="9.55" x2="7.25" y2="4.35" xlink:href="#linear-gradient-52"/><linearGradient id="linear-gradient-54" x1="16.32" y1="4.9" x2="10.9" y2="1.81" xlink:href="#linear-gradient-52"/><linearGradient id="linear-gradient-55" x1="1974.35" y1="37.49" x2="1962.15" y2="30.64" gradientTransform="translate(-935.36 -1713.68) rotate(60)" xlink:href="#linear-gradient-52"/><linearGradient id="linear-gradient-56" x1="1974.28" y1="32.93" x2="1965.23" y2="27.73" gradientTransform="translate(-935.36 -1713.68) rotate(60)" xlink:href="#linear-gradient-52"/><linearGradient id="linear-gradient-57" x1="1974.31" y1="28.27" x2="1968.89" y2="25.18" gradientTransform="translate(-935.36 -1713.68) rotate(60)" xlink:href="#linear-gradient-52"/><linearGradient id="linear-gradient-58" x1="-962.71" y1="-1572.08" x2="-974.91" y2="-1578.94" gradientTransform="translate(1856.99 -31.32) rotate(-60)" gradientUnits="userSpaceOnUse"><stop offset="0.01" stop-color="#2a173d" stop-opacity="0"/><stop offset="0.28" stop-color="#fff"/><stop offset="0.69" stop-color="#fff"/><stop offset="1" stop-color="#2a173d" stop-opacity="0"/></linearGradient><linearGradient id="linear-gradient-59" x1="-962.77" y1="-1576.65" x2="-971.82" y2="-1581.85" xlink:href="#linear-gradient-58"/><linearGradient id="linear-gradient-60" x1="-962.75" y1="-1581.3" x2="-968.16" y2="-1584.39" xlink:href="#linear-gradient-58"/><linearGradient id="linear-gradient-61" x1="-23.55" y1="-3142.74" x2="-35.75" y2="-3149.59" gradientTransform="translate(2724.87 -1572.48) rotate(-120)" gradientUnits="userSpaceOnUse"><stop offset="0.01" stop-color="#e42328" stop-opacity="0"/><stop offset="0.28" stop-color="#fff"/><stop offset="0.69" stop-color="#fff"/><stop offset="1" stop-color="#e42328" stop-opacity="0"/></linearGradient><linearGradient id="linear-gradient-62" x1="-23.62" y1="-3147.3" x2="-32.67" y2="-3152.5" xlink:href="#linear-gradient-61"/><linearGradient id="linear-gradient-63" x1="-23.59" y1="-3151.96" x2="-29.01" y2="-3155.05" xlink:href="#linear-gradient-61"/><linearGradient id="linear-gradient-64" x1="1802.25" y1="-3060.85" x2="1790.05" y2="-3067.7" gradientTransform="translate(1820.14 -3040.78) rotate(180)" gradientUnits="userSpaceOnUse"><stop offset="0.01" stop-color="#f49b21" stop-opacity="0"/><stop offset="0.28" stop-color="#fff"/><stop offset="0.69" stop-color="#fff"/><stop offset="1" stop-color="#f49b21" stop-opacity="0"/></linearGradient><linearGradient id="linear-gradient-65" x1="1802.19" y1="-3065.41" x2="1793.14" y2="-3070.61" xlink:href="#linear-gradient-64"/><linearGradient id="linear-gradient-66" x1="1802.21" y1="-3070.06" x2="1796.8" y2="-3073.15" xlink:href="#linear-gradient-64"/><linearGradient id="linear-gradient-67" x1="2665.32" y1="-1344.59" x2="2653.11" y2="-1351.45" gradientTransform="translate(188.56 -2962.61) rotate(120)" gradientUnits="userSpaceOnUse"><stop offset="0.01" stop-color="#f1e51e" stop-opacity="0"/><stop offset="0.28" stop-color="#fff"/><stop offset="0.69" stop-color="#fff"/><stop offset="1" stop-color="#f1e51e" stop-opacity="0"/></linearGradient><linearGradient id="linear-gradient-68" x1="2665.25" y1="-1349.15" x2="2656.2" y2="-1354.35" xlink:href="#linear-gradient-67"/><linearGradient id="linear-gradient-69" x1="2665.28" y1="-1353.81" x2="2659.86" y2="-1356.9" xlink:href="#linear-gradient-67"/><linearGradient id="linear-gradient-70" x1="8.12" y1="23.18" x2="8.12" y2="25.76" gradientUnits="userSpaceOnUse"><stop offset="0" stop-color="#737373"/><stop offset="1" stop-color="#fff" stop-opacity="0"/></linearGradient><linearGradient id="linear-gradient-71" x1="12.11" y1="20.79" x2="12.11" y2="23.47" xlink:href="#linear-gradient-70"/><linearGradient id="linear-gradient-72" x1="15.85" y1="18.68" x2="15.85" y2="21.18" xlink:href="#linear-gradient-70"/><linearGradient id="linear-gradient-73" x1="-1641.03" y1="-919.83" x2="-1641.03" y2="-917.25" gradientTransform="translate(1634.94 -933.2) rotate(-60)" xlink:href="#linear-gradient-70"/><linearGradient id="linear-gradient-74" x1="-1637.04" y1="-922.21" x2="-1637.04" y2="-919.54" gradientTransform="translate(1634.94 -933.2) rotate(-60)" xlink:href="#linear-gradient-70"/><linearGradient id="linear-gradient-75" x1="-1633.31" y1="-924.33" x2="-1633.31" y2="-921.83" gradientTransform="translate(1634.94 -933.2) rotate(-60)" xlink:href="#linear-gradient-70"/><linearGradient id="linear-gradient-76" x1="-1584.34" y1="-2806.87" x2="-1584.34" y2="-2804.29" gradientTransform="translate(1665.5 -2753.47) rotate(-120)" xlink:href="#linear-gradient-70"/><linearGradient id="linear-gradient-77" x1="-1580.35" y1="-2809.25" x2="-1580.35" y2="-2806.58" gradientTransform="translate(1665.5 -2753.47) rotate(-120)" xlink:href="#linear-gradient-70"/><linearGradient id="linear-gradient-78" x1="-1576.61" y1="-2811.37" x2="-1576.61" y2="-2808.87" gradientTransform="translate(1665.5 -2753.47) rotate(-120)" xlink:href="#linear-gradient-70"/><linearGradient id="linear-gradient-79" x1="-12.46" y1="-3888.57" x2="-12.46" y2="-3885.99" gradientTransform="translate(13.78 -3877.41) rotate(180)" xlink:href="#linear-gradient-70"/><linearGradient id="linear-gradient-80" x1="-8.47" y1="-3890.95" x2="-8.47" y2="-3888.28" gradientTransform="translate(13.78 -3877.41) rotate(180)" xlink:href="#linear-gradient-70"/><linearGradient id="linear-gradient-81" x1="-4.73" y1="-3893.07" x2="-4.73" y2="-3890.57" gradientTransform="translate(13.78 -3877.41) rotate(180)" xlink:href="#linear-gradient-70"/><linearGradient id="linear-gradient-82" x1="1736.4" y1="-2893.61" x2="1736.4" y2="-2891.03" gradientTransform="translate(-1621.16 -2944.21) rotate(120)" xlink:href="#linear-gradient-70"/><linearGradient id="linear-gradient-83" x1="1740.39" y1="-2895.99" x2="1740.39" y2="-2893.32" gradientTransform="translate(-1621.16 -2944.21) rotate(120)" xlink:href="#linear-gradient-70"/><linearGradient id="linear-gradient-84" x1="1744.13" y1="-2898.11" x2="1744.13" y2="-2895.61" gradientTransform="translate(-1621.16 -2944.21) rotate(120)" xlink:href="#linear-gradient-70"/><linearGradient id="linear-gradient-85" x1="1813.67" y1="-868.74" x2="1813.67" y2="-866.15" gradientTransform="translate(-1651.72 -1123.94) rotate(60)" xlink:href="#linear-gradient-70"/><linearGradient id="linear-gradient-86" x1="1817.66" y1="-871.12" x2="1817.66" y2="-868.45" gradientTransform="translate(-1651.72 -1123.94) rotate(60)" xlink:href="#linear-gradient-70"/><linearGradient id="linear-gradient-87" x1="1821.4" y1="-873.24" x2="1821.4" y2="-870.74" gradientTransform="translate(-1651.72 -1123.94) rotate(60)" xlink:href="#linear-gradient-70"/></defs><g class="cls-1"><g id="Capa_2" data-name="Capa 2"><g id="Capa_1-2" data-name="Capa 1"><path class="cls-2" d="M181.32,13.11a2.89,2.89,0,1,1-2.85-2.81,2.84,2.84,0,0,1,2.85,2.81m-5,0a2.18,2.18,0,0,0,2.2,2.24,2.15,2.15,0,0,0,2.14-2.23,2.17,2.17,0,1,0-4.34,0M178,14.56h-.65v-2.8a6.82,6.82,0,0,1,1.08-.09,1.48,1.48,0,0,1,1,.23.68.68,0,0,1,.29.59.73.73,0,0,1-.58.67v0c.28.09.41.31.49.69a2.53,2.53,0,0,0,.21.68h-.69a2.5,2.5,0,0,1-.22-.68c0-.3-.22-.43-.58-.43H178ZM178,13h.31c.35,0,.65-.12.65-.41s-.19-.43-.6-.43a1.36,1.36,0,0,0-.36,0Z"/><path class="cls-2" d="M68.14,11.5a7.72,7.72,0,0,1,3.25,2.82,9.53,9.53,0,0,1,1.5,3.94,25.74,25.74,0,0,1,.16,3.79H59.35a4.62,4.62,0,0,0,2,4,4.91,4.91,0,0,0,2.71.71,4.14,4.14,0,0,0,2.73-.87,4.33,4.33,0,0,0,1-1.31h5A6.22,6.22,0,0,1,71,28.05a9.06,9.06,0,0,1-7.08,2.78,10.17,10.17,0,0,1-6.62-2.34c-1.91-1.57-2.87-4.11-2.87-7.64,0-3.3.86-5.84,2.59-7.6a9,9,0,0,1,6.73-2.64A10.67,10.67,0,0,1,68.14,11.5Zm-7.36,4.31a5.27,5.27,0,0,0-1.31,3h8.47a4.12,4.12,0,0,0-1.31-3,4.23,4.23,0,0,0-2.91-1A3.86,3.86,0,0,0,60.78,15.81Z"/><path class="cls-2" d="M85.3,11.42a6.14,6.14,0,0,1,2.16,2.11V4.43h5V30.19H87.66V27.54A6.87,6.87,0,0,1,85.26,30a6.65,6.65,0,0,1-3.34.77,7,7,0,0,1-5.55-2.7,10.49,10.49,0,0,1-2.26-6.94,12.1,12.1,0,0,1,2.22-7.68,7.16,7.16,0,0,1,5.93-2.8A6,6,0,0,1,85.3,11.42ZM86.5,25a7,7,0,0,0,1.09-4.08q0-3.49-1.74-5A3.71,3.71,0,0,0,83.37,15a3.44,3.44,0,0,0-3.17,1.65,7.76,7.76,0,0,0-1,4.1,7.63,7.63,0,0,0,1,4.23,3.44,3.44,0,0,0,3.11,1.58A3.6,3.6,0,0,0,86.5,25Z"/><path class="cls-2" d="M108.62,11.5a7.78,7.78,0,0,1,3.25,2.82,9.52,9.52,0,0,1,1.49,3.94,23.21,23.21,0,0,1,.16,3.79H99.83a4.61,4.61,0,0,0,2,4,5,5,0,0,0,2.72.71,4.14,4.14,0,0,0,2.73-.87,4.5,4.5,0,0,0,1-1.31h5a6.18,6.18,0,0,1-1.83,3.44,9,9,0,0,1-7.07,2.78,10.21,10.21,0,0,1-6.63-2.34c-1.91-1.57-2.86-4.11-2.86-7.64,0-3.3.86-5.84,2.58-7.6a9,9,0,0,1,6.73-2.64A10.72,10.72,0,0,1,108.62,11.5Zm-7.36,4.31a5.27,5.27,0,0,0-1.31,3h8.47a4.15,4.15,0,0,0-1.31-3,4.25,4.25,0,0,0-2.92-1A3.84,3.84,0,0,0,101.26,15.81Z"/><path class="cls-2" d="M131.86,13.41a11,11,0,0,1,2.11,7,12.37,12.37,0,0,1-2.08,7.37,7.49,7.49,0,0,1-9.57,2,7.51,7.51,0,0,1-1.84-2v2.4h-4.85V4.43h4.92V13.6a7.1,7.1,0,0,1,2.07-2,6.11,6.11,0,0,1,3.4-.88A7,7,0,0,1,131.86,13.41ZM127.75,25a7.15,7.15,0,0,0,1.06-4.1,9.23,9.23,0,0,0-.52-3.36,3.63,3.63,0,0,0-3.65-2.52,3.71,3.71,0,0,0-3.71,2.47,9.22,9.22,0,0,0-.52,3.39A7.11,7.11,0,0,0,121.49,25a3.69,3.69,0,0,0,3.29,1.61A3.4,3.4,0,0,0,127.75,25Z"/><path class="cls-2" d="M144.29,18.59a8,8,0,0,0,2-.44,1.5,1.5,0,0,0,1.06-1.42,1.69,1.69,0,0,0-.81-1.62,5,5,0,0,0-2.39-.45,3.12,3.12,0,0,0-2.5.88,3.68,3.68,0,0,0-.7,1.75h-4.75a7.42,7.42,0,0,1,1.39-4.11q2-2.52,6.72-2.52a12,12,0,0,1,5.52,1.24q2.4,1.24,2.4,4.69v8.75c0,.61,0,1.34,0,2.2a2.86,2.86,0,0,0,.29,1.33,1.67,1.67,0,0,0,.73.58v.74H147.9a5.87,5.87,0,0,1-.31-1.09c-.06-.33-.1-.72-.14-1.15a10.15,10.15,0,0,1-2.36,1.9,6.94,6.94,0,0,1-3.61.93,6.23,6.23,0,0,1-4.25-1.47,5.34,5.34,0,0,1-1.67-4.2A5.46,5.46,0,0,1,138.25,20a12.1,12.1,0,0,1,4.35-1.23Zm3,2.32a5,5,0,0,1-.95.48,7.59,7.59,0,0,1-1.32.35L143.9,22a7.09,7.09,0,0,0-2.26.68,2.28,2.28,0,0,0-1.16,2.11,2.21,2.21,0,0,0,.71,1.85,2.66,2.66,0,0,0,1.72.57,5.06,5.06,0,0,0,3-.94q1.37-.95,1.41-3.45Z"/><path class="cls-2" d="M171.39,12.21q1.85,1.54,1.85,5.13V30.19h-5V18.59a5.23,5.23,0,0,0-.4-2.31,2.76,2.76,0,0,0-2.74-1.47A3.41,3.41,0,0,0,161.65,17a7.7,7.7,0,0,0-.48,2.9V30.19h-4.91v-19H161v2.78a8.24,8.24,0,0,1,1.79-2.12,6.12,6.12,0,0,1,3.83-1.15A7.16,7.16,0,0,1,171.39,12.21Z"/><path class="cls-2" d="M53.78,27.85a12.23,12.23,0,0,1-.15-2.38V23.75a8.51,8.51,0,0,0-.72-4,4.79,4.79,0,0,0-2.47-2,5,5,0,0,0,3-2.49,7.68,7.68,0,0,0,.91-3.59A7.33,7.33,0,0,0,53.87,9,7.77,7.77,0,0,0,52.6,6.8,6.11,6.11,0,0,0,50.24,5a10.67,10.67,0,0,0-4-.66H31.62a19.3,19.3,0,0,1,0,25.6h7.68v-10h5.16a4.16,4.16,0,0,1,3,.82c.54.54.82,1.63.84,3.26l0,2.38a14.52,14.52,0,0,0,.22,2.21c.07.35.19.8.35,1.37h5.82v-.64A2.13,2.13,0,0,1,53.78,27.85Zm-6.23-12.6a5.92,5.92,0,0,1-2.54.42H39.33V8.79h5.83a5.17,5.17,0,0,1,2.44.46c1,.53,1.45,1.57,1.45,3.12A2.87,2.87,0,0,1,47.55,15.25Z"/><path class="cls-3" d="M14.52,34.13a17.91,17.91,0,0,0,2.66.2V17.74l-2.66,1.53Z"/><path class="cls-4" d="M10.53,33a16.89,16.89,0,0,0,2.66.87V20l-2.65,1.54Z"/><path class="cls-5" d="M6.54,30.66A18,18,0,0,0,9.2,32.38l0-10L6.54,23.88Z"/><polygon class="cls-6" points="17.18 34.33 17.68 34.04 17.68 17.45 17.18 17.16 17.18 34.33"/><polygon class="cls-7" points="13.19 33.87 13.69 33.58 13.69 19.75 13.19 20.05 13.19 33.87"/><polygon class="cls-8" points="9.2 32.38 9.7 32.09 9.7 22.06 9.18 22.36 9.2 32.38"/><path class="cls-9" d="M30.54,28a17.42,17.42,0,0,0,1.51-2.2L17.68,17.46v3.07Z"/><path class="cls-10" d="M27.57,30.85A17.49,17.49,0,0,0,29.65,29l-12-6.9v3.07Z"/><path class="cls-11" d="M23.54,33.13a16.69,16.69,0,0,0,2.82-1.45l-8.68-5v3Z"/><polygon class="cls-12" points="32.05 25.75 32.05 25.17 17.68 16.88 17.18 17.17 32.05 25.75"/><polygon class="cls-13" points="29.65 28.98 29.65 28.39 17.68 21.48 17.68 22.07 29.65 28.98"/><polygon class="cls-14" points="26.36 31.68 26.36 31.1 17.68 26.09 17.68 26.69 26.36 31.68"/><path class="cls-15" d="M33.2,11a18.27,18.27,0,0,0-1.15-2.41l-14.37,8.3,2.66,1.54Z"/><path class="cls-16" d="M34.22,15a17.6,17.6,0,0,0-.58-2.74l-12,6.92,2.66,1.53Z"/><path class="cls-17" d="M34.19,19.64a16.8,16.8,0,0,0,.15-3.17l-8.67,5L28.32,23Z"/><polygon class="cls-18" points="32.05 8.58 31.55 8.29 17.18 16.59 17.18 17.17 32.05 8.58"/><polygon class="cls-19" points="33.64 12.27 33.14 11.98 21.17 18.89 21.67 19.19 33.64 12.27"/><polygon class="cls-20" points="34.34 16.47 33.84 16.18 25.16 21.2 25.67 21.5 34.34 16.47"/><path class="cls-21" d="M19.85.2A18,18,0,0,0,17.18,0V16.59l2.67-1.53Z"/><path class="cls-22" d="M23.84,1.33A16.51,16.51,0,0,0,21.18.47V14.29l2.66-1.54Z"/><path class="cls-23" d="M27.82,3.67A17.54,17.54,0,0,0,25.16,2l0,10,2.64-1.53Z"/><polygon class="cls-24" points="17.18 0 16.68 0.29 16.68 16.88 17.18 17.17 17.18 0"/><polygon class="cls-25" points="21.18 0.47 20.67 0.75 20.67 14.58 21.18 14.29 21.18 0.47"/><polygon class="cls-26" points="25.16 1.95 24.66 2.24 24.66 12.28 25.18 11.97 25.16 1.95"/><path class="cls-27" d="M3.82,6.38a18.17,18.17,0,0,0-1.51,2.2l14.37,8.3V13.81Z"/><path class="cls-28" d="M6.79,3.49A17.39,17.39,0,0,0,4.71,5.36l12,6.91V9.2Z"/><path class="cls-29" d="M10.82,1.2A17.46,17.46,0,0,0,8,2.65l8.68,5V4.59Z"/><polygon class="cls-30" points="2.31 8.58 2.31 9.16 16.68 17.46 17.18 17.17 2.31 8.58"/><polygon class="cls-31" points="4.71 5.36 4.71 5.94 16.68 12.85 16.68 12.27 4.71 5.36"/><polygon class="cls-32" points="8 2.65 8 3.23 16.68 8.24 16.68 7.65 8 2.65"/><path class="cls-33" d="M1.16,23.34a18.27,18.27,0,0,0,1.15,2.41l14.37-8.3L14,15.91Z"/><path class="cls-34" d="M.14,19.32a17.6,17.6,0,0,0,.58,2.74l12-6.91L10,13.61Z"/><path class="cls-35" d="M.17,14.7A16.66,16.66,0,0,0,0,17.86l8.67-5L6,11.31Z"/><polygon class="cls-36" points="2.31 25.75 2.81 26.04 17.18 17.75 17.18 17.16 2.31 25.75"/><polygon class="cls-37" points="0.72 22.06 1.22 22.35 13.19 15.44 12.69 15.14 0.72 22.06"/><polygon class="cls-38" points="0.01 17.86 0.52 18.15 9.2 13.13 8.69 12.83 0.01 17.86"/><polygon class="cls-39" points="2.02 25.23 2.31 25.7 16.68 17.43 16.18 17.17 2.02 25.23"/><polygon class="cls-40" points="0.56 21.48 0.7 22.02 12.69 15.13 12.18 14.85 0.56 21.48"/><polygon class="cls-41" points="0 17.33 0.01 17.81 8.69 12.83 8.29 12.61 0 17.33"/><polygon class="cls-42" points="16.6 34.33 17.15 34.32 17.18 17.74 16.7 18.04 16.6 34.33"/><polygon class="cls-43" points="12.62 33.73 13.16 33.87 13.19 20.05 12.69 20.35 12.62 33.73"/><polygon class="cls-44" points="8.74 32.13 9.17 32.36 9.2 22.36 8.8 22.59 8.74 32.13"/><polygon class="cls-45" points="31.75 26.25 32.02 25.77 17.68 17.46 17.68 18.02 31.75 26.25"/><polygon class="cls-46" points="29.25 29.39 29.63 29 17.68 22.07 17.68 22.65 29.25 29.39"/><polygon class="cls-47" points="25.91 31.96 26.32 31.71 17.68 26.69 17.68 27.14 25.91 31.96"/><polygon class="cls-48" points="32.34 9.09 32.06 8.62 17.68 16.89 18.17 17.17 32.34 9.09"/><polygon class="cls-49" points="33.8 12.84 33.66 12.3 21.68 19.19 22.18 19.48 33.8 12.84"/><polygon class="cls-50" points="34.36 17.01 34.35 16.53 25.68 21.5 26.07 21.73 34.36 17.01"/><polygon class="cls-51" points="17.75 0 17.21 0.01 17.18 16.59 17.67 16.31 17.75 0"/><polygon class="cls-52" points="21.73 0.6 21.2 0.47 21.17 14.29 21.68 13.99 21.73 0.6"/><polygon class="cls-53" points="25.63 2.21 25.2 1.98 25.17 11.98 25.57 11.75 25.63 2.21"/><polygon class="cls-54" points="2.61 8.08 2.35 8.56 16.69 16.88 16.69 16.31 2.61 8.08"/><polygon class="cls-55" points="5.12 4.94 4.73 5.33 16.69 12.27 16.69 11.69 5.12 4.94"/><polygon class="cls-56" points="8.45 2.37 8.04 2.62 16.69 7.65 16.69 7.19 8.45 2.37"/><path class="cls-57" d="M4.23,7.23s10.24,5.63,12.1,6.93C16.33,14.16,8.17,9.74,4.23,7.23Z"/><path class="cls-58" d="M7.2,4.33s6,3.23,9.07,5.16C16.27,9.49,11.13,6.85,7.2,4.33Z"/><path class="cls-59" d="M10.84,1.72s2.35,1.22,5.43,3.16A47.12,47.12,0,0,1,10.84,1.72Z"/><path class="cls-60" d="M19.25.91s.23,11.68,0,13.94C19.29,14.85,19,5.57,19.25.91Z"/><path class="cls-61" d="M23.23,2s.21,6.8.08,10.43C23.31,12.46,23,6.69,23.23,2Z"/><path class="cls-62" d="M27.32,3.88s.11,2.64,0,6.28A46.91,46.91,0,0,1,27.32,3.88Z"/><path class="cls-63" d="M2.18,23.4s10-6,12.05-7C14.23,16.39,6.33,21.25,2.18,23.4Z"/><path class="cls-64" d="M1.16,19.39s5.78-3.58,9-5.28C10.16,14.11,5.3,17.24,1.16,19.39Z"/><path class="cls-65" d="M.72,14.92S3,13.5,6.17,11.8A48.82,48.82,0,0,1,.72,14.92Z"/><path class="cls-66" d="M15.13,33.23s-.22-8.47-.05-13.95C15.08,19.28,15.34,28.56,15.13,33.23Z"/><path class="cls-67" d="M11.14,32.11s-.21-6.8-.07-10.44C11.07,21.67,11.35,27.44,11.14,32.11Z"/><path class="cls-68" d="M7.06,30.26s-.12-2.65,0-6.28A49.22,49.22,0,0,1,7.06,30.26Z"/><path class="cls-69" d="M30,27s-7.44-4-12.1-6.93C17.91,20,26.08,24.44,30,27Z"/><path class="cls-70" d="M27.05,29.85s-6-3.23-9.08-5.16C18,24.69,23.11,27.33,27.05,29.85Z"/><path class="cls-71" d="M23.4,32.46S21.05,31.24,18,29.3A47.12,47.12,0,0,1,23.4,32.46Z"/><path class="cls-72" d="M32.34,10.8s-7.22,4.42-12.05,7C20.29,17.81,28.2,13,32.34,10.8Z"/><path class="cls-73" d="M33.36,14.81s-5.78,3.58-9,5.28C24.36,20.09,29.22,17,33.36,14.81Z"/><path class="cls-74" d="M33.8,19.27s-2.23,1.43-5.45,3.13A47.5,47.5,0,0,1,33.8,19.27Z"/><g class="cls-75"><polygon class="cls-76" points="6.54 27.47 9.7 25.64 9.7 22.06 6.54 23.89 6.54 27.47"/><polygon class="cls-77" points="10.53 25.16 13.69 23.34 13.69 19.75 10.53 21.58 10.53 25.16"/><polygon class="cls-78" points="14.52 19.28 14.52 22.86 17.18 21.32 17.18 17.74 14.52 19.28"/></g><g class="cls-75"><polygon class="cls-79" points="20.78 31.54 20.78 27.88 17.68 26.09 17.68 29.75 20.78 31.54"/><polygon class="cls-80" points="20.78 26.93 20.78 23.28 17.68 21.48 17.68 25.14 20.78 26.93"/><polygon class="cls-81" points="17.68 20.53 20.78 22.32 20.78 19.25 17.68 17.46 17.68 20.53"/></g><g class="cls-75"><polygon class="cls-82" points="31.43 21.23 28.26 19.4 25.16 21.2 28.33 23.02 31.43 21.23"/><polygon class="cls-83" points="27.44 18.93 24.27 17.1 21.17 18.89 24.33 20.72 27.44 18.93"/><polygon class="cls-84" points="20.34 18.41 23.45 16.62 20.79 15.09 17.68 16.88 20.34 18.41"/></g><g class="cls-75"><polygon class="cls-85" points="27.83 6.87 24.66 8.7 24.66 12.28 27.83 10.45 27.83 6.87"/><polygon class="cls-86" points="23.83 9.17 20.67 11 20.67 14.58 23.83 12.76 23.83 9.17"/><polygon class="cls-87" points="19.84 15.06 19.84 11.47 17.18 13.01 17.18 16.59 19.84 15.06"/></g><g class="cls-75"><polygon class="cls-88" points="13.58 2.79 13.58 6.45 16.69 8.24 16.69 4.59 13.58 2.79"/><polygon class="cls-89" points="13.58 7.41 13.58 11.06 16.69 12.85 16.69 9.2 13.58 7.41"/><polygon class="cls-90" points="16.69 13.8 13.58 12.01 13.58 15.09 16.69 16.88 16.69 13.8"/></g><g class="cls-75"><polygon class="cls-91" points="2.93 13.1 6.1 14.93 9.21 13.14 6.04 11.31 2.93 13.1"/><polygon class="cls-92" points="6.93 15.41 10.09 17.23 13.19 15.44 10.03 13.62 6.93 15.41"/><polygon class="cls-93" points="14.02 15.92 10.92 17.71 13.58 19.25 16.68 17.46 14.02 15.92"/></g></g></g></g></svg>