<svg xmlns="http://www.w3.org/2000/svg" xmlns:xlink="http://www.w3.org/1999/xlink" viewBox="0 0 605.85 504.91"><defs><style>.cls-1{fill:url(#linear-gradient);}.cls-2{fill:url(#linear-gradient-2);}.cls-3{fill:url(#linear-gradient-3);}.cls-4{fill:url(#linear-gradient-4);}.cls-5{fill:url(#linear-gradient-5);}.cls-6{fill:#fff;}.cls-7{fill:url(#linear-gradient-6);}.cls-8{fill:url(#linear-gradient-7);}.cls-9{fill:url(#linear-gradient-8);}</style><linearGradient id="linear-gradient" x1="1678.8" y1="-2583.39" x2="1678.8" y2="-3140.54" gradientTransform="matrix(0.71, -0.71, -0.71, -0.71, -3004.94, -537.54)" gradientUnits="userSpaceOnUse"><stop offset="0" stop-color="#e07d14"/><stop offset="1" stop-color="#ffaf3b"/></linearGradient><linearGradient id="linear-gradient-2" x1="1855.44" y1="-2846.25" x2="1855.44" y2="-3238.52" xlink:href="#linear-gradient"/><linearGradient id="linear-gradient-3" x1="1742.33" y1="-2944.61" x2="1742.33" y2="-3175.23" xlink:href="#linear-gradient"/><linearGradient id="linear-gradient-4" x1="1865.74" y1="-2634.38" x2="1865.74" y2="-2821.52" xlink:href="#linear-gradient"/><linearGradient id="linear-gradient-5" x1="1963.6" y1="-2736.9" x2="1963.6" y2="-2917.69" gradientTransform="matrix(0.71, -0.71, -0.71, -0.71, -3004.94, -537.54)" gradientUnits="userSpaceOnUse"><stop offset="0" stop-color="#ffaf3b"/><stop offset="1" stop-color="#e07d14"/></linearGradient><linearGradient id="linear-gradient-6" x1="1786.55" y1="-2603.05" x2="1786.55" y2="-2783.84" xlink:href="#linear-gradient-5"/><linearGradient id="linear-gradient-7" x1="1794.67" y1="-2896.32" x2="1794.67" y2="-3066.91" xlink:href="#linear-gradient-5"/><linearGradient id="linear-gradient-8" x1="1774.77" y1="-2628.59" x2="1774.77" y2="-2879.41" xlink:href="#linear-gradient"/></defs><g id="Capa_2" data-name="Capa 2"><g id="Capa_2-2" data-name="Capa 2"><path class="cls-1" d="M8.85,102.1h0a30.2,30.2,0,0,0,0,42.72L360.08,496.06a30.21,30.21,0,0,0,42.73,0h0a30.21,30.21,0,0,0,0-42.73L51.58,102.1A30.21,30.21,0,0,0,8.85,102.1Z"/><path class="cls-2" d="M319.63,163.06h0a30.21,30.21,0,0,0,0,42.73L554.27,440.43a30.21,30.21,0,0,0,42.73,0h0a30.21,30.21,0,0,0,0-42.73L362.35,163.06A30.2,30.2,0,0,0,319.63,163.06Z"/><path class="cls-3" d="M309.19,312.59h0a19.66,19.66,0,0,0,0,27.79L444.47,475.66a19.64,19.64,0,0,0,27.79,0h0a19.65,19.65,0,0,0,0-27.8L337,312.59A19.65,19.65,0,0,0,309.19,312.59Z"/><path class="cls-4" d="M177.09,6h0a20.38,20.38,0,0,0,0,28.81L280.6,138.29a20.36,20.36,0,0,0,28.81,0h0a20.38,20.38,0,0,0,0-28.82L205.91,6A20.38,20.38,0,0,0,177.09,6Z"/><path class="cls-5" d="M318.78,9.26h0a1,1,0,0,0,0,1.38L445.24,137.09a1,1,0,0,0,1.37,0h0a1,1,0,0,0,0-1.37L320.15,9.26A1,1,0,0,0,318.78,9.26Z"/><path class="cls-6" d="M354.52,290.63h0a1,1,0,0,0,0,1.38l70.7,70.71a1,1,0,0,0,1.38,0h0a1,1,0,0,0,0-1.38l-70.71-70.71A1,1,0,0,0,354.52,290.63Z"/><path class="cls-6" d="M293.89,94.09h0a1,1,0,0,0,0,1.38L420.35,221.93a1,1,0,0,0,1.38,0h0a1,1,0,0,0,0-1.38L295.27,94.09A1,1,0,0,0,293.89,94.09Z"/><path class="cls-6" d="M35.9,163.25h0a1,1,0,0,0,0,1.38L162.36,291.09a1,1,0,0,0,1.38,0h0a1,1,0,0,0,0-1.38L37.28,163.25A1,1,0,0,0,35.9,163.25Z"/><path class="cls-7" d="M98.94,39.81h0a1,1,0,0,0,0,1.37L225.4,167.64a1,1,0,0,0,1.38,0h0a1,1,0,0,0,0-1.38L100.32,39.81A1,1,0,0,0,98.94,39.81Z"/><path class="cls-8" d="M312.05,241.43h0a4.38,4.38,0,0,0,0,6.18L426.5,362.06a4.38,4.38,0,0,0,6.18,0h0a4.38,4.38,0,0,0,0-6.18L318.23,241.43A4.38,4.38,0,0,0,312.05,241.43Z"/><path class="cls-9" d="M108.67,66.19h0a6.14,6.14,0,0,0,0,8.67L277.35,243.55a6.14,6.14,0,0,0,8.67,0h0a6.12,6.12,0,0,0,0-8.67L117.34,66.19A6.14,6.14,0,0,0,108.67,66.19Z"/></g></g></svg>