<svg xmlns="http://www.w3.org/2000/svg" viewBox="0 0 185.66 93.72"><defs><style>.cls-1{fill:#fff;}</style></defs><g id="Capa_2" data-name="Capa 2"><g id="Capa_1-2" data-name="Capa 1"><path class="cls-1" d="M4.38,64.1a1.19,1.19,0,0,0,.78-.23.79.79,0,0,0,.26-.6.76.76,0,0,0-.26-.6,1.15,1.15,0,0,0-.79-.24,1.14,1.14,0,0,0-.77.23.83.83,0,0,0,0,1.21,1.1,1.1,0,0,0,.78.23m0,.63a1.93,1.93,0,0,1-.77-.14,1.47,1.47,0,0,1-.42-.28,1.25,1.25,0,0,1-.27-.39,1.64,1.64,0,0,1-.12-.65,1.39,1.39,0,0,1,.42-1.06,1.56,1.56,0,0,1,1.15-.4,1.61,1.61,0,0,1,1.14.39,1.59,1.59,0,0,1,0,2.13A1.53,1.53,0,0,1,4.4,64.73Zm-1,3.71h2V68a1.48,1.48,0,0,0,0-.36.49.49,0,0,0-.12-.25.61.61,0,0,0-.29-.16,2.07,2.07,0,0,0-.56-.06,1.79,1.79,0,0,0-.53.06.62.62,0,0,0-.29.17.67.67,0,0,0-.15.29,2.6,2.6,0,0,0,0,.5Zm-.51.61V67.93a2.05,2.05,0,0,1,.06-.57,1,1,0,0,1,.28-.45,1.21,1.21,0,0,1,.49-.29,2.09,2.09,0,0,1,.71-.1,2,2,0,0,1,.64.09,1.23,1.23,0,0,1,.53.33,1,1,0,0,1,.25.42,2,2,0,0,1,.06.54v1.15ZM4.7,71.89l-1.12.41,1.12.41Zm1.19-1.13v.67l-.69.26V72.9l.69.24v.65l-3-1.17V72Zm0,6.68h-3v-.61H5.38V75.31h.51Zm0,2.6h-3v-.61h3ZM4.78,83.29H4.27V82h1.2a1.51,1.51,0,0,1,.33.55,2.11,2.11,0,0,1,.14.74,1.66,1.66,0,0,1-.2.82,1.22,1.22,0,0,1-.57.53,1.77,1.77,0,0,1-.8.18,1.8,1.8,0,0,1-.84-.2A1.31,1.31,0,0,1,3,84a1.54,1.54,0,0,1-.15-.72,1.44,1.44,0,0,1,.24-.88,1.05,1.05,0,0,1,.65-.4l.11.6a.62.62,0,0,0-.35.24.76.76,0,0,0-.13.44.8.8,0,0,0,.26.63,1.06,1.06,0,0,0,.75.24,1.18,1.18,0,0,0,.8-.24.8.8,0,0,0,.27-.62,1.07,1.07,0,0,0-.07-.39,1.3,1.3,0,0,0-.19-.33H4.78Zm1.11,4h-3v-.61h3Zm0,3.42-3,1.07v-.66l2.24-.76-2.24-.74V89l3,1.08Z"/><path class="cls-1" d="M2.57,1.64V.78l-.7.27-.53.18a3.24,3.24,0,0,1,.49.13Zm1,.73-2.54-1V1L3.61,0V.38l-.77.3V1.74L3.61,2ZM2.19,4.31V3.59a1.19,1.19,0,0,0,0-.36A.46.46,0,0,0,2,3,.44.44,0,0,0,1.77,3a.39.39,0,0,0-.3.14.58.58,0,0,0-.11.41v.8Zm1.42.33H1.07V3.52A1.59,1.59,0,0,1,1.14,3a.62.62,0,0,1,.24-.29.76.76,0,0,1,.39-.1.64.64,0,0,1,.45.17,1,1,0,0,1,.24.54.87.87,0,0,1,.12-.2,1.64,1.64,0,0,1,.34-.28l.69-.44v.42l-.53.34-.35.24a.9.9,0,0,0-.17.17.47.47,0,0,0-.06.15.78.78,0,0,0,0,.19v.39H3.61ZM3.61,7H1.07V5.17h.3v1.5h.78V5.27h.3v1.4h.86V5.11h.3Zm0,.94H1.07V7.6H3.61Zm-.89.8.09-.33a1.12,1.12,0,0,1,.63.38,1.05,1.05,0,0,1,.21.67,1.2,1.2,0,0,1-.16.66,1.12,1.12,0,0,1-.49.39,1.72,1.72,0,0,1-.68.14,1.52,1.52,0,0,1-.69-.15,1.16,1.16,0,0,1-.45-.43A1.29,1.29,0,0,1,1,9.45a1,1,0,0,1,.2-.64,1,1,0,0,1,.54-.36l.08.33A.77.77,0,0,0,1.44,9a.7.7,0,0,0-.12.42.86.86,0,0,0,.14.49.72.72,0,0,0,.37.27,1.36,1.36,0,0,0,.49.08,1.66,1.66,0,0,0,.57-.09.72.72,0,0,0,.36-.3.8.8,0,0,0,.12-.43A.71.71,0,0,0,3.2,9,.87.87,0,0,0,2.72,8.74Zm.89,4.37H1.07v-.34l2-1.33h-2v-.33H3.61v.35l-2,1.33h2ZM2.57,15v-.86l-.7.26-.53.18a3.32,3.32,0,0,1,.49.14Zm1,.73-2.54-1v-.36l2.54-1v.39l-.77.29v1.06l.77.28Zm0,2.28H1.07v-.35l2-1.33h-2V16H3.61v.35l-2,1.33h2Zm0,.92H1.07v-.33H3.61Zm0,2.2H1.07V19.44h.3v1.38h.79V19.63h.3v1.19H3.61Zm-1,2.72V23l-.7.26-.53.18a3.32,3.32,0,0,1,.49.14Zm1,.73-2.54-1v-.36l2.54-1v.38l-.77.29V24l.77.28Zm0,.65H1.07v-.34H3.61Zm-.89.8.09-.33a1.12,1.12,0,0,1,.63.38,1.05,1.05,0,0,1,.21.67,1.2,1.2,0,0,1-.16.66,1.12,1.12,0,0,1-.49.39,1.72,1.72,0,0,1-.68.14,1.52,1.52,0,0,1-.69-.15,1.19,1.19,0,0,1-.45-.44A1.25,1.25,0,0,1,1,26.76a1,1,0,0,1,.2-.64,1,1,0,0,1,.54-.36l.08.33a.77.77,0,0,0-.41.26.7.7,0,0,0-.12.42.88.88,0,0,0,.14.49.72.72,0,0,0,.37.27,1.62,1.62,0,0,0,.49.08,1.66,1.66,0,0,0,.57-.09.72.72,0,0,0,.36-.3.8.8,0,0,0,.12-.43.71.71,0,0,0-.17-.47A.87.87,0,0,0,2.72,26.05Zm.89,4.37H1.07v-.34l2-1.34h-2v-.32H3.61v.35l-2,1.33h2Zm0,2.35H1.07V30.94h.3v1.5h.78V31h.3v1.41h.86V30.88h.3ZM3.31,35v-.54a1.4,1.4,0,0,0-.05-.4.48.48,0,0,0-.13-.22.82.82,0,0,0-.32-.19,1.7,1.7,0,0,0-.49-.07,1.26,1.26,0,0,0-.61.13.65.65,0,0,0-.28.32,1.18,1.18,0,0,0-.06.44V35Zm.3.33H1.07v-.87a2.31,2.31,0,0,1,0-.45.86.86,0,0,1,.18-.37,1,1,0,0,1,.44-.3,1.57,1.57,0,0,1,.6-.1,1.61,1.61,0,0,1,.51.07,1.15,1.15,0,0,1,.37.17,1,1,0,0,1,.23.23,1,1,0,0,1,.13.3,2.48,2.48,0,0,1,0,.41Zm0,2.56H1.07v-.34l2-1.33h-2V35.9H3.61v.34l-2,1.33h2Zm0,2.35H1.07V38.41h.3v1.5h.78v-1.4h.3v1.4h.86V38.35h.3Zm0,1.53H1.37v.83h-.3v-2h.3v.83H3.61Zm0,3.2H1.07v-.34l2-1.33h-2V43H3.61v.34l-2,1.33h2Zm0,.93H1.07v-.34H3.61ZM2.19,48.17v-.72a1.19,1.19,0,0,0,0-.36.46.46,0,0,0-.16-.2.44.44,0,0,0-.22-.07.39.39,0,0,0-.3.14.58.58,0,0,0-.11.41v.8Zm1.42.33H1.07V47.38a1.59,1.59,0,0,1,.07-.51.62.62,0,0,1,.24-.29.76.76,0,0,1,.39-.1.64.64,0,0,1,.45.17,1,1,0,0,1,.24.54.87.87,0,0,1,.12-.2,1.64,1.64,0,0,1,.34-.28l.69-.44v.42L3.08,47l-.35.24a.9.9,0,0,0-.17.17.47.47,0,0,0-.06.15.78.78,0,0,0,0,.19v.39H3.61Zm0,2.36H1.07V49h.3v1.5h.78v-1.4h.3v1.4h.86V49h.3Zm-1.33,2v-.66a.69.69,0,0,0-.12-.46.44.44,0,0,0-.34-.14.46.46,0,0,0-.27.08.37.37,0,0,0-.15.22,1,1,0,0,0,0,.31v.65Zm1.33.33H1.07v-.95a1.92,1.92,0,0,1,0-.39.72.72,0,0,1,.12-.31.7.7,0,0,1,.24-.21.81.81,0,0,1,.35-.07.83.83,0,0,1,.55.2,1,1,0,0,1,.22.75v.65h1Zm-2.54.9v-.34H2.54a1.71,1.71,0,0,1,.61.09.68.68,0,0,1,.36.31,1.05,1.05,0,0,1,.14.59,1.22,1.22,0,0,1-.12.58.72.72,0,0,1-.36.33,1.75,1.75,0,0,1-.63.09H1.07v-.33H2.54A1.4,1.4,0,0,0,3,55.39a.42.42,0,0,0,.24-.21.72.72,0,0,0,.09-.37.72.72,0,0,0-.17-.53,1,1,0,0,0-.64-.15Zm1.72,4.13,0-.31a.71.71,0,0,0,.31-.11.57.57,0,0,0,.2-.25,1,1,0,0,0,.07-.39.9.9,0,0,0-.06-.34.45.45,0,0,0-.15-.22.36.36,0,0,0-.22-.07.31.31,0,0,0-.21.07.51.51,0,0,0-.15.23l-.12.45a2.78,2.78,0,0,1-.16.49.69.69,0,0,1-.23.27.59.59,0,0,1-.32.09.66.66,0,0,1-.36-.11.68.68,0,0,1-.25-.32A1.14,1.14,0,0,1,1,57.28a1.28,1.28,0,0,1,.09-.5.64.64,0,0,1,.27-.33.79.79,0,0,1,.4-.13l0,.32a.52.52,0,0,0-.36.18.7.7,0,0,0-.12.44.66.66,0,0,0,.11.44.31.31,0,0,0,.27.14.29.29,0,0,0,.22-.09,1.38,1.38,0,0,0,.18-.51,3.93,3.93,0,0,1,.16-.56.81.81,0,0,1,.26-.33.65.65,0,0,1,.36-.1.7.7,0,0,1,.38.11.73.73,0,0,1,.28.34,1.06,1.06,0,0,1,.1.48,1.4,1.4,0,0,1-.1.58.82.82,0,0,1-.3.36A.81.81,0,0,1,2.79,58.26Z"/><path class="cls-1" d="M6.52,18.56V17.7l-.7.26-.52.18a2.9,2.9,0,0,1,.48.14Zm1,.73L5,18.31V18l2.53-1v.38l-.76.29v1.06l.76.28Zm0,.65H5V19.6H7.56ZM7.26,22V21.4a1.35,1.35,0,0,0,0-.23A.4.4,0,0,0,7.18,21,.44.44,0,0,0,7,20.85a.46.46,0,0,0-.21-.05.49.49,0,0,0-.25.07.34.34,0,0,0-.14.21,1.13,1.13,0,0,0-.05.37V22ZM6.09,22v-.55a2.33,2.33,0,0,0,0-.32A.43.43,0,0,0,5.94,21a.43.43,0,0,0-.44,0,.33.33,0,0,0-.14.17,1.73,1.73,0,0,0,0,.39V22Zm1.47.34H5v-.95A1.21,1.21,0,0,1,5.11,21a.56.56,0,0,1,.23-.27.61.61,0,0,1,.34-.1.53.53,0,0,1,.3.09.56.56,0,0,1,.24.26.62.62,0,0,1,.23-.35.6.6,0,0,1,.38-.13.73.73,0,0,1,.33.08.65.65,0,0,1,.24.19.85.85,0,0,1,.12.27,1.62,1.62,0,0,1,0,.41Zm0,2.94H5v-.5l1.79-.6.38-.12L6.79,24,5,23.35V22.9H7.56v.32H5.44L7.56,24v.31L5.41,25H7.56Zm-1.23,2.5a1.05,1.05,0,0,0,.73-.24A.84.84,0,0,0,7.32,27a.8.8,0,0,0-.27-.62,1,1,0,0,0-.75-.25,1.27,1.27,0,0,0-.54.11.82.82,0,0,0-.36.3.9.9,0,0,0-.13.45.84.84,0,0,0,.25.62A1.08,1.08,0,0,0,6.33,27.81Zm0,.35a1.37,1.37,0,0,1-1-.34A1.16,1.16,0,0,1,5,26.94a1.24,1.24,0,0,1,.17-.63,1.09,1.09,0,0,1,.47-.43,1.51,1.51,0,0,1,.68-.14,1.52,1.52,0,0,1,.69.15,1,1,0,0,1,.46.44,1.33,1.33,0,0,1,.16.62,1.17,1.17,0,0,1-.18.64A1.07,1.07,0,0,1,7,28,1.39,1.39,0,0,1,6.33,28.16ZM7.56,30H5V29.7H7.26V28.46h.3ZM6.33,32.53a1.05,1.05,0,0,0,.73-.24.84.84,0,0,0,.26-.62.8.8,0,0,0-.27-.62,1,1,0,0,0-.75-.25,1.27,1.27,0,0,0-.54.11.82.82,0,0,0-.36.3.91.91,0,0,0-.13.46.84.84,0,0,0,.25.61A1.08,1.08,0,0,0,6.33,32.53Zm0,.35a1.37,1.37,0,0,1-1-.34A1.14,1.14,0,0,1,5,31.67,1.25,1.25,0,0,1,5.15,31a1.07,1.07,0,0,1,.47-.42,1.64,1.64,0,0,1,1.37,0,1.09,1.09,0,0,1,.46.44,1.33,1.33,0,0,1,.16.62,1.17,1.17,0,0,1-.18.64,1.09,1.09,0,0,1-.47.43A1.52,1.52,0,0,1,6.33,32.88Zm.35.65.08-.34a1.15,1.15,0,0,1,.63.38,1.08,1.08,0,0,1,.22.67,1.23,1.23,0,0,1-.17.67A1,1,0,0,1,7,35.3a1.72,1.72,0,0,1-.68.13,1.47,1.47,0,0,1-.69-.15,1,1,0,0,1-.45-.43A1.28,1.28,0,0,1,5,34.24a1,1,0,0,1,.19-.64.93.93,0,0,1,.54-.36l.08.33a.73.73,0,0,0-.4.25.7.7,0,0,0-.13.42.84.84,0,0,0,.14.49.82.82,0,0,0,.38.28,1.62,1.62,0,0,0,.49.08,1.6,1.6,0,0,0,.56-.1.7.7,0,0,0,.36-.29.82.82,0,0,0,.12-.43.71.71,0,0,0-.16-.48A.8.8,0,0,0,6.68,33.53Zm.88,5.14H5V36.84h.3v1.5H6.1v-1.4h.3v1.4h.86V36.78h.3Zm-.3,2.23v-.54a1.33,1.33,0,0,0,0-.39.63.63,0,0,0-.13-.23.91.91,0,0,0-.32-.19,1.77,1.77,0,0,0-.49-.06,1.13,1.13,0,0,0-.61.13.61.61,0,0,0-.29.31,1.51,1.51,0,0,0,0,.44v.53Zm.3.34H5v-.88a1.82,1.82,0,0,1,0-.45.8.8,0,0,1,.18-.37,1,1,0,0,1,.43-.3,1.64,1.64,0,0,1,.6-.1,1.53,1.53,0,0,1,.51.07,1.06,1.06,0,0,1,.37.17.84.84,0,0,1,.23.23,1,1,0,0,1,.13.3,1.73,1.73,0,0,1,0,.41Z"/><rect class="cls-1" y="60.37" width="0.75" height="33.35"/><rect class="cls-1" x="7.72" y="60.37" width="0.75" height="33.35"/><path class="cls-1" d="M185.66,46.24a2.55,2.55,0,1,1-2.53-2.47,2.48,2.48,0,0,1,2.53,2.47m-4.46,0a1.93,1.93,0,0,0,1.93,2,1.9,1.9,0,0,0,1.89-2,1.91,1.91,0,1,0-3.82,0m1.52,1.29h-.57V45.05a6.61,6.61,0,0,1,.95-.08,1.32,1.32,0,0,1,.85.2.63.63,0,0,1,.26.53.64.64,0,0,1-.52.59v0c.25.08.36.27.44.6a2.74,2.74,0,0,0,.18.61h-.6a1.9,1.9,0,0,1-.2-.61c0-.26-.2-.37-.52-.37h-.27Zm0-1.39H183c.32,0,.58-.11.58-.37s-.17-.37-.53-.37a1.17,1.17,0,0,0-.32,0Z"/><path class="cls-1" d="M85.78,44.83a6.78,6.78,0,0,1,2.87,2.49A8.27,8.27,0,0,1,90,50.79a23.17,23.17,0,0,1,.14,3.35H78a4.07,4.07,0,0,0,1.74,3.55,4.37,4.37,0,0,0,2.39.63,3.65,3.65,0,0,0,2.41-.77,3.77,3.77,0,0,0,.9-1.16h4.43a5.57,5.57,0,0,1-1.61,3A8,8,0,0,1,82,61.89a9,9,0,0,1-5.84-2.07q-2.53-2.07-2.54-6.74c0-2.92.77-5.15,2.29-6.71A8,8,0,0,1,81.88,44,9.28,9.28,0,0,1,85.78,44.83Zm-6.49,3.8a4.58,4.58,0,0,0-1.16,2.6h7.48a3.72,3.72,0,0,0-1.16-2.66,3.79,3.79,0,0,0-2.57-.91A3.41,3.41,0,0,0,79.29,48.63Z"/><path class="cls-1" d="M100.92,44.76a5.29,5.29,0,0,1,1.91,1.85v-8h4.39V61.31H103V59a6.17,6.17,0,0,1-2.12,2.18,5.9,5.9,0,0,1-3,.68A6.11,6.11,0,0,1,93,59.45a9.27,9.27,0,0,1-2-6.12,10.68,10.68,0,0,1,2-6.78,6.35,6.35,0,0,1,5.23-2.47A5.29,5.29,0,0,1,100.92,44.76Zm1.06,12a6.15,6.15,0,0,0,1-3.6c0-2.06-.52-3.53-1.54-4.42a3.31,3.31,0,0,0-2.19-.8,3,3,0,0,0-2.8,1.46A6.86,6.86,0,0,0,95.53,53a6.73,6.73,0,0,0,.91,3.73,3,3,0,0,0,2.75,1.39A3.17,3.17,0,0,0,102,56.75Z"/><path class="cls-1" d="M121.5,44.83a6.64,6.64,0,0,1,2.86,2.49,8.42,8.42,0,0,1,1.33,3.47,23.17,23.17,0,0,1,.14,3.35H113.74a4.07,4.07,0,0,0,1.74,3.55,4.34,4.34,0,0,0,2.39.63,3.67,3.67,0,0,0,2.41-.77,3.75,3.75,0,0,0,.89-1.16h4.43a5.45,5.45,0,0,1-1.61,3,8,8,0,0,1-6.24,2.46,9,9,0,0,1-5.85-2.07c-1.68-1.38-2.53-3.63-2.53-6.74,0-2.92.76-5.15,2.29-6.71A8,8,0,0,1,117.6,44,9.28,9.28,0,0,1,121.5,44.83ZM115,48.63a4.51,4.51,0,0,0-1.16,2.6h7.47a3.71,3.71,0,0,0-1.15-2.66,3.79,3.79,0,0,0-2.57-.91A3.41,3.41,0,0,0,115,48.63Z"/><path class="cls-1" d="M142,46.51a9.75,9.75,0,0,1,1.86,6.17,11,11,0,0,1-1.83,6.5,6.61,6.61,0,0,1-8.45,1.75A6.72,6.72,0,0,1,132,59.2v2.11h-4.28V38.59H132v8.09a6.42,6.42,0,0,1,1.82-1.79,5.35,5.35,0,0,1,3-.78A6.16,6.16,0,0,1,142,46.51Zm-3.63,10.25a6.24,6.24,0,0,0,.94-3.61,8.13,8.13,0,0,0-.46-3A3.21,3.21,0,0,0,135.64,48a3.28,3.28,0,0,0-3.28,2.17,8.44,8.44,0,0,0-.46,3,6.37,6.37,0,0,0,.95,3.59,3.28,3.28,0,0,0,2.91,1.41A3,3,0,0,0,138.38,56.76Z"/><path class="cls-1" d="M153,51.08a6.47,6.47,0,0,0,1.73-.39,1.32,1.32,0,0,0,.93-1.25,1.5,1.5,0,0,0-.71-1.43,4.55,4.55,0,0,0-2.11-.39,2.78,2.78,0,0,0-2.21.77,3.22,3.22,0,0,0-.61,1.55h-4.2A6.65,6.65,0,0,1,147,46.3c1.15-1.47,3.13-2.22,5.93-2.22a10.49,10.49,0,0,1,4.87,1.1c1.42.73,2.12,2.11,2.12,4.14V57c0,.53,0,1.18,0,1.94a2.66,2.66,0,0,0,.26,1.18,1.68,1.68,0,0,0,.64.51v.64h-4.72a4.74,4.74,0,0,1-.27-1c0-.3-.09-.64-.13-1A8.72,8.72,0,0,1,153.68,61a6.18,6.18,0,0,1-3.18.82,5.45,5.45,0,0,1-3.75-1.3,4.67,4.67,0,0,1-1.48-3.7,4.83,4.83,0,0,1,2.38-4.5,10.69,10.69,0,0,1,3.84-1.08Zm2.65,2.05a4.77,4.77,0,0,1-.84.43,9.66,9.66,0,0,1-1.17.3l-1,.18a6.43,6.43,0,0,0-2,.61,2,2,0,0,0-1,1.86,2,2,0,0,0,.63,1.63,2.33,2.33,0,0,0,1.52.51,4.47,4.47,0,0,0,2.62-.84,3.54,3.54,0,0,0,1.25-3Z"/><path class="cls-1" d="M176.89,45.45q1.63,1.36,1.63,4.53V61.31h-4.45V51.08a4.79,4.79,0,0,0-.34-2,2.45,2.45,0,0,0-2.42-1.3,3,3,0,0,0-3,1.9,6.7,6.7,0,0,0-.42,2.57v9.1h-4.34V44.51h4.2V47a7.5,7.5,0,0,1,1.58-1.87,5.39,5.39,0,0,1,3.38-1A6.31,6.31,0,0,1,176.89,45.45Z"/><path class="cls-1" d="M73.1,59.25a11.81,11.81,0,0,1-.12-2.1V55.63a7.5,7.5,0,0,0-.64-3.53,4.16,4.16,0,0,0-2.18-1.78,4.46,4.46,0,0,0,2.64-2.2A6.78,6.78,0,0,0,73.6,45a6.35,6.35,0,0,0-.41-2.38,7.2,7.2,0,0,0-1.12-1.89A5.44,5.44,0,0,0,70,39.1a9.58,9.58,0,0,0-3.52-.59H53.55a17,17,0,0,1,0,22.6h6.78V52.25h4.55a3.72,3.72,0,0,1,2.65.72,4.32,4.32,0,0,1,.74,2.88l0,2.1a11.5,11.5,0,0,0,.19,1.95c.06.3.17.7.31,1.21H74v-.57A1.94,1.94,0,0,1,73.1,59.25ZM67.61,48.14a5.15,5.15,0,0,1-2.24.37h-5V42.44H65.5a4.46,4.46,0,0,1,2.15.4,2.82,2.82,0,0,1,1.28,2.75A2.56,2.56,0,0,1,67.61,48.14Z"/><path class="cls-1" d="M41.05,64.86h-.23a15.3,15.3,0,0,1-2.35-.18l-.2,0V51.41l2.78-1.61Zm-2.31-.62a14.26,14.26,0,0,0,1.84.15V50.62l-1.84,1.06Z"/><path class="cls-1" d="M37.59,64.52l-.29-.07A16.1,16.1,0,0,1,35,63.69l-.15-.07V53.41l2.78-1.61Zm-2.32-1.21a14.83,14.83,0,0,0,1.85.61V52.62l-1.84,1.06Z"/><path class="cls-1" d="M34.12,63.32l-.34-.18a16,16,0,0,1-2.35-1.52l-.09-.07V55.41l2.77-1.6Zm-2.31-2a16.22,16.22,0,0,0,1.84,1.21v-7.9l-1.83,1Z"/><polygon class="cls-1" points="40.82 64.62 41.26 64.37 41.26 49.96 40.82 49.71 40.82 64.62"/><polygon class="cls-1" points="37.35 64.22 37.79 63.97 37.79 51.96 37.35 52.21 37.35 64.22"/><polygon class="cls-1" points="33.89 62.93 34.32 62.67 34.32 53.96 33.87 54.22 33.89 62.93"/><path class="cls-1" d="M52.48,59.39,41,52.77V49.55l13.05,7.53-.12.21a16.22,16.22,0,0,1-1.33,1.94Zm-11-6.89,10.88,6.28a15.21,15.21,0,0,0,1-1.53L41.49,50.37Z"/><path class="cls-1" d="M49.86,61.88,41,56.77V53.56l11,6.36-.21.21A15.07,15.07,0,0,1,50,61.78ZM41.49,56.5l8.33,4.81A13.64,13.64,0,0,0,51.27,60l-9.78-5.64Z"/><path class="cls-1" d="M46.33,63.84,41,60.77v-3.2l8.24,4.74-.33.21a15.73,15.73,0,0,1-2.48,1.28ZM41.49,60.5l4.87,2.82a15.24,15.24,0,0,0,2-1l-6.85-3.94Z"/><polygon class="cls-1" points="53.73 57.17 53.73 56.66 41.25 49.46 40.82 49.71 53.73 57.17"/><polygon class="cls-1" points="51.65 59.97 51.65 59.47 41.25 53.46 41.25 53.97 51.65 59.97"/><polygon class="cls-1" points="48.8 62.32 48.8 61.82 41.25 57.46 41.25 57.98 48.8 62.32"/><path class="cls-1" d="M43.56,51.07l-2.78-1.61,13-7.53.12.21a16.52,16.52,0,0,1,1,2.12l.07.19Zm-1.84-1.61,1.84,1.07,10.88-6.28a14.17,14.17,0,0,0-.79-1.67Z"/><path class="cls-1" d="M47,53.07l-2.78-1.6,11-6.36.08.28a15.33,15.33,0,0,1,.52,2.42l0,.15Zm-1.84-1.6L47,52.53l8.34-4.82A15.08,15.08,0,0,0,55,45.82Z"/><path class="cls-1" d="M50.5,55.07l-2.77-1.6L56,48.71l0,.39a15.31,15.31,0,0,1-.14,2.79l0,.11Zm-1.83-1.6,1.83,1.06,4.88-2.82a16,16,0,0,0,.13-2.2Z"/><polygon class="cls-1" points="53.73 42.26 53.3 42 40.82 49.21 40.82 49.71 53.73 42.26"/><polygon class="cls-1" points="55.12 45.46 54.68 45.21 44.28 51.21 44.72 51.47 55.12 45.46"/><polygon class="cls-1" points="55.73 49.11 55.29 48.85 47.75 53.21 48.2 53.47 55.73 49.11"/><path class="cls-1" d="M40.59,49.62V34.56h.23a15.3,15.3,0,0,1,2.35.18l.2,0V48ZM41.06,35V48.8l1.84-1.06V35.18A14.24,14.24,0,0,0,41.06,35Z"/><path class="cls-1" d="M44.06,47.62V34.9l.29.07a15,15,0,0,1,2.35.77l.15.06V46Zm.47-12.12V46.8l1.83-1.06V36.11A14.54,14.54,0,0,0,44.53,35.5Z"/><path class="cls-1" d="M47.53,45.61v-9.5l.34.18a15.17,15.17,0,0,1,2.35,1.51l.09.07V44ZM48,36.89v7.9l1.83-1V38.1A16.22,16.22,0,0,0,48,36.89Z"/><polygon class="cls-1" points="40.82 34.8 40.38 35.05 40.38 49.46 40.82 49.71 40.82 34.8"/><polygon class="cls-1" points="44.29 35.2 43.85 35.45 43.85 47.46 44.29 47.21 44.29 35.2"/><polygon class="cls-1" points="47.75 36.5 47.32 36.75 47.32 45.46 47.77 45.2 47.75 36.5"/><path class="cls-1" d="M40.62,49.87l-13-7.53.12-.2a15.24,15.24,0,0,1,1.33-2l.13-.16,11.46,6.63Zm-12.39-7.7,11.92,6.88V46.93L29.27,40.65A13.16,13.16,0,0,0,28.23,42.17Z"/><path class="cls-1" d="M40.62,45.86l-11-6.35.21-.22a15.07,15.07,0,0,1,1.83-1.65l.13-.1,8.84,5.11ZM30.37,39.4l9.78,5.65V42.92l-8.34-4.81A16,16,0,0,0,30.37,39.4Z"/><path class="cls-1" d="M40.62,41.85l-8.24-4.74.33-.21a15,15,0,0,1,2.49-1.27l.11-.05,5.31,3.07ZM33.3,37.09,40.15,41V38.92l-4.88-2.81A13.39,13.39,0,0,0,33.3,37.09Z"/><polygon class="cls-1" points="27.9 42.25 27.9 42.76 40.38 49.96 40.82 49.71 27.9 42.25"/><polygon class="cls-1" points="29.99 39.45 29.99 39.96 40.39 45.96 40.39 45.45 29.99 39.45"/><polygon class="cls-1" points="32.84 37.1 32.84 37.6 40.39 41.96 40.39 41.44 32.84 37.1"/><path class="cls-1" d="M27.82,57.49l-.12-.21a14.24,14.24,0,0,1-1-2.12L26.61,55l11.46-6.62L40.86,50Zm-.63-2.31a14.89,14.89,0,0,0,.8,1.66L39.91,50,38.07,48.9Z"/><path class="cls-1" d="M26.38,54.31,26.29,54a15.31,15.31,0,0,1-.51-2.42l0-.15,8.85-5.11L37.39,48Zm-.11-2.6a15.62,15.62,0,0,0,.39,1.9L36.44,48,34.61,46.9Z"/><path class="cls-1" d="M25.69,50.71l0-.39a15.31,15.31,0,0,1,.14-2.79l0-.11,5.31-3.07L33.91,46Zm.57-3a14.69,14.69,0,0,0-.13,2.2L33,46l-1.83-1.06Z"/><polygon class="cls-1" points="27.9 57.16 28.34 57.42 40.82 50.21 40.82 49.71 27.9 57.16"/><polygon class="cls-1" points="26.52 53.96 26.95 54.22 37.35 48.21 36.91 47.95 26.52 53.96"/><polygon class="cls-1" points="25.91 50.31 26.34 50.57 33.89 46.21 33.44 45.95 25.91 50.31"/></g></g></svg>