<svg xmlns="http://www.w3.org/2000/svg" viewBox="0 0 47.62 39.14"><defs><style>.cls-1{fill:#e8edfc;}.cls-2{fill:#0033a1;}.cls-3{fill:#00009f;}</style></defs><g id="Capa_2" data-name="Capa 2"><g id="Capa_1-2" data-name="Capa 1"><circle class="cls-1" cx="14.5" cy="14.5" r="14.5"/><path class="cls-2" d="M33.77,16.52a6,6,0,1,0,6,6A6,6,0,0,0,33.77,16.52Zm0,10.7a4.67,4.67,0,1,1,4.66-4.66A4.67,4.67,0,0,1,33.77,27.22Z"/><path class="cls-2" d="M33.77,19.47a.69.69,0,0,0-.69.69.68.68,0,0,0,.69.68,1.72,1.72,0,0,1,1.71,1.72.69.69,0,0,0,1.37,0A3.09,3.09,0,0,0,33.77,19.47Z"/><path class="cls-2" d="M16.73,10.17a.69.69,0,0,0-1.22.63l1.85,3.57a.69.69,0,0,0,1.23,0L19.7,12l1.22,2.35a.68.68,0,0,0,.61.37h0a.7.7,0,0,0,.61-.39l1.71-3.57a.69.69,0,0,0-1.24-.59L21.5,12.52l-1.21-2.35a.7.7,0,0,0-.62-.37.72.72,0,0,0-.61.39L18,12.52Z"/><path class="cls-2" d="M21.14,6.37a.7.7,0,0,0,.49-.2.67.67,0,0,0,.2-.48A.68.68,0,0,0,21.14,5a.67.67,0,0,0-.48.2.7.7,0,0,0-.2.49.68.68,0,0,0,.68.68Z"/><path class="cls-2" d="M47.62,16.8V7.74A2.74,2.74,0,0,0,44.88,5H24a.69.69,0,0,0,0,1.37H44.88a1.38,1.38,0,0,1,1.37,1.37V16.8a1.38,1.38,0,0,1-1.37,1.37H41.53a9,9,0,0,0-4.83-4l1-2.12,1.22,2.35a.67.67,0,0,0,.6.37h0a.69.69,0,0,0,.61-.39l1.72-3.57a.69.69,0,0,0-1.24-.59l-1.12,2.33-1.21-2.35a.7.7,0,0,0-.62-.37.71.71,0,0,0-.61.39L36,12.52l-1.21-2.35a.69.69,0,0,0-1.22.63l1.52,2.93a9.07,9.07,0,0,0-1.28-.09,8.93,8.93,0,0,0-2.44.34l1.54-3.2a.69.69,0,0,0-1.24-.59l-1.12,2.33L29.3,10.17a.7.7,0,0,0-.62-.37.71.71,0,0,0-.61.39L27,12.52l-1.21-2.35a.69.69,0,0,0-1.22.63l1.85,3.57a.69.69,0,0,0,1.23,0L28.71,12l1.22,2.35.07.11a9,9,0,0,0-4,3.69H15.25a1.38,1.38,0,0,1-1.38-1.37V7.74a1.38,1.38,0,0,1,1.38-1.37h2.81a.69.69,0,0,0,0-1.37H15.25A2.75,2.75,0,0,0,12.5,7.74V16.8a2.75,2.75,0,0,0,2.75,2.74H25.38a8.64,8.64,0,0,0-.53,3,8.92,8.92,0,0,0,13.36,7.73l5.44,5.44a2.33,2.33,0,0,0,3.29,0,2.32,2.32,0,0,0,0-3.29L44.8,30.3a.7.7,0,0,0-1,0,.68.68,0,0,0,0,1L46,33.41a1,1,0,0,1-1.35,1.35L39.36,29.5a8.94,8.94,0,0,0,2.8-10h2.72A2.74,2.74,0,0,0,47.62,16.8ZM33.77,30.1a7.55,7.55,0,1,1,7.54-7.54A7.55,7.55,0,0,1,33.77,30.1Z"/><ellipse class="cls-3" cx="30.06" cy="38.29" rx="5.53" ry="0.84"/></g></g></svg>