<svg xmlns="http://www.w3.org/2000/svg" viewBox="0 0 68.41 67.43"><defs><style>.cls-1{fill:#e6e6e6;}.cls-2{fill:#0033a1;}.cls-3{fill:#00009f;}</style></defs><g id="Capa_2" data-name="Capa 2"><g id="Capa_1-2" data-name="Capa 1"><circle class="cls-1" cx="21.5" cy="21.5" r="21.5"/><path class="cls-2" d="M59.22,6.61h-19a.92.92,0,1,0,0,1.83h19a.92.92,0,0,0,0-1.83Z"/><path class="cls-2" d="M31,6.88a.92.92,0,0,0-1.3,0,.92.92,0,0,0-.26.65.9.9,0,0,0,.26.64.92.92,0,0,0,1.3,0,.9.9,0,0,0,.26-.64A.92.92,0,0,0,31,6.88Z"/><path class="cls-2" d="M27.64,6.88A.93.93,0,0,0,27,6.61a.91.91,0,0,0-.64.27.93.93,0,0,0-.27.65.92.92,0,0,0,.91.91.93.93,0,0,0,.65-.27.91.91,0,0,0,.27-.64A.93.93,0,0,0,27.64,6.88Z"/><path class="cls-2" d="M34.35,6.88a.91.91,0,0,0-.64-.27.92.92,0,0,0-.92.92.91.91,0,0,0,.27.64.93.93,0,0,0,.65.27.92.92,0,0,0,.91-.91A.93.93,0,0,0,34.35,6.88Z"/><path class="cls-2" d="M68.14,41.37,61,34.18l1.12-1.13h0l1.12-1.13,3.56,3.55a.91.91,0,1,0,1.29-1.29L63.85,30a.92.92,0,0,0-1.29,0l-1.13,1.13-.55-.54A10.69,10.69,0,0,0,45,16.3H27.39a.91.91,0,0,0-.91.91V30a.91.91,0,0,0,.91.91H44.83a10.67,10.67,0,0,0,14.76.95l.55.54L59,33.53a.93.93,0,0,0-.27.65,1,1,0,0,0,.27.65l3.83,3.82v4a2,2,0,0,1-2,2H25.38a2,2,0,0,1-2-2V11.73H62.84v4.12a.91.91,0,0,0,1.82,0V7.16a3.84,3.84,0,0,0-3.83-3.83H25.38a3.84,3.84,0,0,0-3.83,3.83V42.6a3.84,3.84,0,0,0,3.83,3.84H60.83a3.84,3.84,0,0,0,3.83-3.84V40.48l2.19,2.18a.89.89,0,0,0,.64.27.91.91,0,0,0,.65-.27A.92.92,0,0,0,68.14,41.37ZM42,24l-1.15-2.23a.91.91,0,0,0-1.62.84l2.14,4.15a.91.91,0,0,0,.81.49.92.92,0,0,0,.39-.09,9.68,9.68,0,0,0,.9,2H28.31v-11H43.57A10.64,10.64,0,0,0,42,23.68ZM52.7,32.55a8.88,8.88,0,0,1-8.87-8.87c0-.07,0-.14,0-.21l1.68,3.25a.91.91,0,0,0,.81.49h0a.91.91,0,0,0,.81-.52l2-4.14a.91.91,0,0,0-1.65-.79L46.3,24.25,45,21.73a.91.91,0,0,0-.81-.49A8.87,8.87,0,1,1,52.7,32.55ZM23.38,7.16a2,2,0,0,1,2-2H60.83a2,2,0,0,1,2,2V9.9H23.38Z"/><path class="cls-2" d="M38.25,21.33a.91.91,0,0,0-1.22.43l-1.2,2.49-1.3-2.52a.92.92,0,0,0-.83-.49.94.94,0,0,0-.81.52L31.7,24.25l-1.31-2.52a.91.91,0,0,0-1.62.84l2.15,4.15a.92.92,0,0,0,.82.49.91.91,0,0,0,.81-.52l1.2-2.49,1.3,2.52a.92.92,0,0,0,.81.49h0a.92.92,0,0,0,.81-.52l2-4.14A.93.93,0,0,0,38.25,21.33Z"/><path class="cls-2" d="M59.18,21.33a.91.91,0,0,0-1.22.43l-1.2,2.49-1.3-2.52a.94.94,0,0,0-.82-.49.92.92,0,0,0-.81.52l-1.2,2.49-1.3-2.52a.93.93,0,0,0-1.24-.39.92.92,0,0,0-.39,1.23l2.15,4.15a.92.92,0,0,0,.81.49h0a.91.91,0,0,0,.81-.52l1.2-2.49L56,26.72a.92.92,0,0,0,.81.49h0a.92.92,0,0,0,.81-.52l2-4.14A.92.92,0,0,0,59.18,21.33Z"/><path class="cls-2" d="M28,38.12a.93.93,0,0,0-.65-.27.91.91,0,0,0-.64.27.93.93,0,0,0-.27.65.92.92,0,0,0,.91.91.93.93,0,0,0,.65-.27.91.91,0,0,0,.27-.64A.93.93,0,0,0,28,38.12Z"/><path class="cls-2" d="M48.32,37.85H30.53a.92.92,0,0,0,0,1.83H48.32a.92.92,0,0,0,0-1.83Z"/><path class="cls-2" d="M44.93,33.47H39.54a.92.92,0,0,0,0,1.83h5.39a.92.92,0,1,0,0-1.83Z"/><path class="cls-2" d="M35.44,33.47h-8a.92.92,0,0,0,0,1.83h8a.92.92,0,0,0,0-1.83Z"/><ellipse class="cls-3" cx="44.98" cy="66.15" rx="8.35" ry="1.28"/></g></g></svg>