<svg xmlns="http://www.w3.org/2000/svg" viewBox="0 0 225 102.46"><defs><style>.cls-1{isolation:isolate;}.cls-2,.cls-4{fill:none;stroke-miterlimit:10;}.cls-2{stroke:#ff8300;}.cls-3{fill:#ff8300;}.cls-4{stroke:#e43d30;mix-blend-mode:overlay;}</style></defs><g class="cls-1"><g id="Capa_2" data-name="Capa 2"><g id="Capa_1-2" data-name="Capa 1"><rect class="cls-2" x="0.5" y="0.5" width="224" height="83" rx="12"/><path class="cls-3" d="M173.76,96.15l21.83-21.83a1.86,1.86,0,0,0,0-2.65l-4-4a1.88,1.88,0,0,0-2.65,0L175.05,81.53a1.88,1.88,0,0,1-2.65,0L157.24,66.36a1.89,1.89,0,0,0-2.66,0l-5.3,5.31a1.88,1.88,0,0,0,0,2.65l21.83,21.83A1.88,1.88,0,0,0,173.76,96.15Z"/><path class="cls-4" d="M173.76,101.41l21.83-21.83a1.86,1.86,0,0,0,0-2.65l-4-4a1.86,1.86,0,0,0-2.65,0L175.05,86.79a1.88,1.88,0,0,1-2.65,0L157.24,71.62a1.89,1.89,0,0,0-2.66,0l-5.3,5.31a1.88,1.88,0,0,0,0,2.65l21.83,21.83A1.86,1.86,0,0,0,173.76,101.41Z"/></g></g></g></svg>