<svg xmlns="http://www.w3.org/2000/svg" viewBox="0 0 225.88 103.22"><defs><style>.cls-1{isolation:isolate;}.cls-2,.cls-4{fill:none;stroke-miterlimit:10;}.cls-2{stroke:#ff8300;}.cls-3{fill:#ff8300;}.cls-4{stroke:#e43d30;mix-blend-mode:overlay;}</style></defs><g class="cls-1"><g id="Capa_2" data-name="Capa 2"><g id="Capa_1-2" data-name="Capa 1"><rect class="cls-2" x="0.5" y="19.72" width="224.88" height="83" rx="12"/><path class="cls-3" d="M184.39,6.31,162.56,28.14a1.89,1.89,0,0,0,0,2.66l4,4a1.89,1.89,0,0,0,2.66,0L183.1,20.94a1.87,1.87,0,0,1,2.66,0L200.92,36.1a1.88,1.88,0,0,0,2.65,0l5.31-5.3a1.89,1.89,0,0,0,0-2.66L187.05,6.31A1.89,1.89,0,0,0,184.39,6.31Z"/><path class="cls-4" d="M184.39,1.05,162.56,22.88a1.88,1.88,0,0,0,0,2.65l4,4a1.89,1.89,0,0,0,2.66,0L183.1,15.67a1.89,1.89,0,0,1,2.66,0l15.16,15.17a1.88,1.88,0,0,0,2.65,0l5.31-5.31a1.88,1.88,0,0,0,0-2.65L187.05,1.05A1.89,1.89,0,0,0,184.39,1.05Z"/></g></g></g></svg>