<svg xmlns="http://www.w3.org/2000/svg" viewBox="0 0 65 67.43"><defs><style>.cls-1{fill:#e6e6e6;}.cls-2{fill:#00009f;}.cls-3{fill:#0033a1;}</style></defs><g id="Capa_2" data-name="Capa 2"><g id="Capa_1-2" data-name="Capa 1"><circle class="cls-1" cx="21.5" cy="21.5" r="21.5"/><ellipse class="cls-2" cx="46.98" cy="66.15" rx="8.35" ry="1.28"/><path class="cls-3" d="M42.18,21.12a.91.91,0,0,0-1.22.43L39.76,24l-1.3-2.52a.92.92,0,0,0-.83-.49.94.94,0,0,0-.81.52L35.63,24l-1.31-2.52a.91.91,0,1,0-1.62.84l2.15,4.15a.91.91,0,0,0,1.63,0L37.68,24,39,26.51a.92.92,0,0,0,.81.49h0a.94.94,0,0,0,.81-.52l2-4.14A.93.93,0,0,0,42.18,21.12Z"/><path class="cls-3" d="M57.29,29l-1.54,5.8-28.39,0L25.52,28H27a.78.78,0,0,0,0-1.55H25.1l-1.37-5.12h2a.77.77,0,0,0,.78-.77.78.78,0,0,0-.78-.78H23.31L21.6,13.4l19.91,0,19.92,0L60.2,18h3.21L65,12.2a1.58,1.58,0,0,0-.27-1.35,1.56,1.56,0,0,0-1.23-.6l-21.94,0-20.74,0L19.39,5.12A1.54,1.54,0,0,0,17.89,4H12.82a1.55,1.55,0,1,0,0,3.1H16.7l1.38,5.18,0,.14,2,7.37H13.3a.78.78,0,0,0-.78.78.77.77,0,0,0,.78.77h7.2l1.37,5.12h-3a.78.78,0,1,0,0,1.55h3.41l2.36,8.81a1.14,1.14,0,0,0,.09.26l1.4,5.66a1.54,1.54,0,0,0,.86,1,5.27,5.27,0,1,0,9.24.14h10a5.19,5.19,0,0,0-.6,2.45,5.27,5.27,0,1,0,9.91-2.48,1.55,1.55,0,0,0-.21-3.08l-26.48,0-.71-2.85,28.79,0a1.55,1.55,0,0,0,1.5-1.15L60.49,29ZM50.9,44.14a2.17,2.17,0,1,1,0,4.34,2.17,2.17,0,0,1,0-4.34Zm-19.32,0a2.17,2.17,0,1,1-2.17,2.17A2.17,2.17,0,0,1,31.58,44.17Z"/><path class="cls-3" d="M53.18,21.12a.91.91,0,0,0-1.22.43L50.76,24l-1.3-2.52a.92.92,0,0,0-.83-.49.94.94,0,0,0-.81.52L46.63,24l-1.31-2.52a.91.91,0,0,0-1.62.84l2.15,4.15a.91.91,0,0,0,1.63,0L48.68,24,50,26.51a.92.92,0,0,0,.81.49h0a.94.94,0,0,0,.81-.52l2-4.14A.93.93,0,0,0,53.18,21.12Z"/><path class="cls-3" d="M64.18,21.12a.91.91,0,0,0-1.22.43L61.76,24l-1.3-2.52a.92.92,0,0,0-.83-.49.94.94,0,0,0-.81.52L57.63,24l-1.31-2.52a.91.91,0,0,0-1.62.84l2.15,4.15a.91.91,0,0,0,1.63,0L59.68,24,61,26.51a.92.92,0,0,0,.81.49h0a.94.94,0,0,0,.81-.52l2-4.14A.93.93,0,0,0,64.18,21.12Z"/></g></g></svg>