<svg xmlns="http://www.w3.org/2000/svg" viewBox="0 0 71.85 67.43"><defs><style>.cls-1{fill:#e6e6e6;}.cls-2{fill:#00009f;}.cls-3{fill:#0033a1;}</style></defs><g id="Capa_2" data-name="Capa 2"><g id="Capa_1-2" data-name="Capa 1"><circle class="cls-1" cx="21.5" cy="21.5" r="21.5"/><ellipse class="cls-2" cx="48.03" cy="66.15" rx="8.35" ry="1.28"/><path class="cls-3" d="M26.17,21.81a.75.75,0,0,0,1.06,0,.75.75,0,0,0,0-1.07L25.4,18.91l1.83-1.84A.75.75,0,1,0,26.17,16L23.8,18.37a.74.74,0,0,0-.23.54.72.72,0,0,0,.23.53Z"/><path class="cls-3" d="M33.66,18.91l-1.83,1.83a.76.76,0,0,0,1.07,1.07l2.37-2.37a.77.77,0,0,0,0-1.07L32.9,16a.77.77,0,0,0-1.07,0,.75.75,0,0,0,0,1.07Z"/><path class="cls-3" d="M28.4,22a1,1,0,0,0,.28.05.74.74,0,0,0,.7-.48l1.87-4.74a.76.76,0,0,0-1.41-.55L28,21A.76.76,0,0,0,28.4,22Z"/><path class="cls-3" d="M24.76,26.46h5.09a.74.74,0,0,0,.75-.75.75.75,0,0,0-.75-.76H24.76a.76.76,0,0,0-.76.76A.75.75,0,0,0,24.76,26.46Z"/><path class="cls-3" d="M41.57,25h-9a.76.76,0,0,0-.75.76.75.75,0,0,0,.75.75h9a.75.75,0,0,0,.76-.75A.76.76,0,0,0,41.57,25Z"/><path class="cls-3" d="M24.76,29.65h2.17a.76.76,0,0,0,0-1.51H24.76a.76.76,0,1,0,0,1.51Z"/><path class="cls-3" d="M38.81,28.14a.76.76,0,1,0,0,1.51h1.32a.76.76,0,0,0,0-1.51Z"/><path class="cls-3" d="M36.82,28.9a.76.76,0,0,0-.76-.76H29.58a.76.76,0,1,0,0,1.51h6.48A.76.76,0,0,0,36.82,28.9Z"/><path class="cls-3" d="M41.77,28.9a.76.76,0,0,0,.75.75H45a.76.76,0,0,0,0-1.51H42.52A.76.76,0,0,0,41.77,28.9Z"/><path class="cls-3" d="M37.65,19.51h2.61a.76.76,0,1,0,0-1.51H37.65a.76.76,0,0,0,0,1.51Z"/><path class="cls-3" d="M43.18,19.51H59.1a.76.76,0,1,0,0-1.51H43.18a.76.76,0,0,0,0,1.51Z"/><path class="cls-3" d="M56.68,21.33H50.24a.75.75,0,0,0-.76.75.76.76,0,0,0,.76.76h6.44a.76.76,0,0,0,.76-.76A.75.75,0,0,0,56.68,21.33Z"/><path class="cls-3" d="M47.82,21.33H45.6a.74.74,0,0,0-.75.75.75.75,0,0,0,.75.76h2.22a.75.75,0,0,0,.75-.76A.74.74,0,0,0,47.82,21.33Z"/><path class="cls-3" d="M37.65,22.84h5.43a.76.76,0,0,0,.76-.76.75.75,0,0,0-.76-.75H37.65a.75.75,0,0,0-.75.75A.76.76,0,0,0,37.65,22.84Z"/><path class="cls-3" d="M36.07,31.3H31a.76.76,0,0,0,0,1.51h5.09a.76.76,0,1,0,0-1.51Z"/><path class="cls-3" d="M28.67,31.3H24.76a.76.76,0,1,0,0,1.51h3.91a.76.76,0,0,0,0-1.51Z"/><path class="cls-3" d="M45.3,31.3H38.65a.76.76,0,1,0,0,1.51H45.3a.76.76,0,0,0,0-1.51Z"/><path class="cls-3" d="M54.29,27.42H50.66a.76.76,0,1,0,0,1.51h3.63a.76.76,0,1,0,0-1.51Z"/><path class="cls-3" d="M60.6,28.93h5.13a.76.76,0,1,0,0-1.51H60.6a.76.76,0,1,0,0,1.51Z"/><path class="cls-3" d="M58,27.42H56.86a.76.76,0,1,0,0,1.51H58a.76.76,0,1,0,0-1.51Z"/><path class="cls-3" d="M50.66,37.16h3.63a.75.75,0,0,0,.76-.75.76.76,0,0,0-.76-.76H50.66a.76.76,0,0,0-.76.76A.75.75,0,0,0,50.66,37.16Z"/><path class="cls-3" d="M60.6,37.16h5.13a.75.75,0,0,0,.76-.75.76.76,0,0,0-.76-.76H60.6a.76.76,0,0,0-.76.76A.75.75,0,0,0,60.6,37.16Z"/><path class="cls-3" d="M56.86,37.16H58a.75.75,0,0,0,.76-.75.76.76,0,0,0-.76-.76H56.86a.76.76,0,0,0-.76.76A.75.75,0,0,0,56.86,37.16Z"/><path class="cls-3" d="M54.29,43.89H50.66a.75.75,0,0,0-.76.75.76.76,0,0,0,.76.76h3.63a.76.76,0,0,0,.76-.76A.75.75,0,0,0,54.29,43.89Z"/><path class="cls-3" d="M65.73,43.89H60.6a.75.75,0,0,0-.76.75.76.76,0,0,0,.76.76h5.13a.76.76,0,0,0,.76-.76A.75.75,0,0,0,65.73,43.89Z"/><path class="cls-3" d="M58,43.89H56.86a.75.75,0,0,0-.76.75.76.76,0,0,0,.76.76H58a.76.76,0,0,0,.76-.76A.75.75,0,0,0,58,43.89Z"/><path class="cls-3" d="M68.52,3h-45a3.33,3.33,0,0,0-3.33,3.33V42.88a3.33,3.33,0,0,0,3.33,3.33h2.84a.76.76,0,0,0,0-1.51H23.55a1.82,1.82,0,0,1-1.82-1.82V40H49.26v1.3h-.6a1.49,1.49,0,0,0-1.49,1.49V44.7H31a.76.76,0,0,0,0,1.51h7.27v2.71H36a2.76,2.76,0,0,0-2.76,2.76v1.63a1.25,1.25,0,0,0,1.26,1.26H57.54a1.25,1.25,0,0,0,1.26-1.26V51.68A2.77,2.77,0,0,0,56,48.92H53.76V48h14a1.49,1.49,0,0,0,1.49-1.48v-.36a3.33,3.33,0,0,0,2.57-3.24l.06-36.55A3.34,3.34,0,0,0,68.52,3ZM48.68,38.22V34.6h19v3.62Zm2.09-5.13V31.5H65.62v1.59Zm14.85,6.64v1.59H50.77V39.73ZM39.76,46.21h7.41v.27A1.49,1.49,0,0,0,48.66,48h3.59v1H39.76ZM56,50.43a1.25,1.25,0,0,1,1.25,1.25v1.38H34.72V51.68A1.25,1.25,0,0,1,36,50.43Zm11.66-4h-19V42.83h19Zm2.58-3.57a1.81,1.81,0,0,1-1.06,1.65V42.81a1.49,1.49,0,0,0-1.49-1.49h-.6V40h3.15Zm0-4.37H69.19c0-.09,0-3.94,0-3.94a1.49,1.49,0,0,0-1.49-1.48h-.6V31.5h.6A1.49,1.49,0,0,0,69.22,30V26.34a1.49,1.49,0,0,0-1.49-1.49H63.46a.76.76,0,0,0,0,1.51H67.7V30h-19V26.36H58.76a.76.76,0,1,0,0-1.51H48.66a1.49,1.49,0,0,0-1.49,1.49V30a1.49,1.49,0,0,0,1.49,1.49h.6v1.59h-.6a1.49,1.49,0,0,0-1.49,1.48s0,3.85,0,3.94H21.73V13.28H70.28Zm0-26.74H21.79V6.33A1.82,1.82,0,0,1,23.6,4.51H68.46a1.83,1.83,0,0,1,1.82,1.82Z"/><path class="cls-3" d="M25.79,5.9A2.22,2.22,0,1,0,28,8.12,2.22,2.22,0,0,0,25.79,5.9Zm0,2.92a.7.7,0,0,1-.7-.7.7.7,0,0,1,.7-.71.71.71,0,0,1,.71.71A.7.7,0,0,1,25.79,8.82Z"/><path class="cls-3" d="M31.44,5.9a2.22,2.22,0,1,0,2.21,2.22A2.21,2.21,0,0,0,31.44,5.9Zm0,2.92a.7.7,0,0,1-.71-.7.71.71,0,0,1,.71-.71.7.7,0,0,1,.7.71A.7.7,0,0,1,31.44,8.82Z"/><path class="cls-3" d="M37.08,5.9A2.22,2.22,0,1,0,39.3,8.12,2.21,2.21,0,0,0,37.08,5.9Zm0,2.92a.7.7,0,0,1-.7-.7.7.7,0,0,1,.7-.71.71.71,0,0,1,.71.71A.7.7,0,0,1,37.08,8.82Z"/></g></g></svg>