<svg xmlns="http://www.w3.org/2000/svg" viewBox="0 0 28.39 28.39"><defs><style>.cls-1{fill:#ff8300;}.cls-2{fill:#fff;}</style></defs><g id="Capa_2" data-name="Capa 2"><g id="Capa_1-2" data-name="Capa 1"><path class="cls-1" d="M14.19,28.39a14.19,14.19,0,0,1-10-24.23A14.19,14.19,0,1,1,24.23,24.23,14.1,14.1,0,0,1,14.19,28.39Z"/><path class="cls-2" d="M20.09,11.17c0,.13,0,.26,0,.4.3,4.69-3.06,8.65-8.66,8.65a8.58,8.58,0,0,1-4.67-1.37,6,6,0,0,0,.74,0,6.19,6.19,0,0,0,3.77-1.44,2.92,2.92,0,0,1-2.84-2,3.68,3.68,0,0,0,.58,0,4,4,0,0,0,.91-.19,3.05,3.05,0,0,1-2.55-2.9v0a3.44,3.44,0,0,0,1.48.31A3,3,0,0,1,7.4,10.26a3.05,3.05,0,0,1,.41-1.54,8.67,8.67,0,0,0,6.27,3.19,3.33,3.33,0,0,1-.07-.7,3,3,0,0,1,5.26-2.08,5.86,5.86,0,0,0,1.93-.74A2.62,2.62,0,0,1,20,10a5.06,5.06,0,0,0,1.61-.38,6.48,6.48,0,0,1-1.52,1.57Z"/></g></g></svg>