<svg xmlns="http://www.w3.org/2000/svg" viewBox="0 0 45.53 51.93"><defs><style>.cls-1{fill:#e8edfc;}.cls-2{fill:#00009f;}.cls-3{fill:#a4c2f7;}</style></defs><g id="Capa_2" data-name="Capa 2"><g id="Capa_1-2" data-name="Capa 1"><circle class="cls-1" cx="14.5" cy="14.5" r="14.5"/><ellipse class="cls-2" cx="28.47" cy="51.09" rx="5.53" ry="0.84"/><path class="cls-2" d="M29,7v.12a2.61,2.61,0,0,1-4,2.2h.22a1.89,1.89,0,0,0,1.14-.39.94.94,0,0,1-.86-.64l.17,0a.61.61,0,0,0,.24,0,.91.91,0,0,1-.73-.89v0a.93.93,0,0,0,.41.12.92.92,0,0,1-.4-.76.88.88,0,0,1,.12-.46,2.58,2.58,0,0,0,1.89,1,.68.68,0,0,1,0-.21.91.91,0,0,1,1.58-.62,1.84,1.84,0,0,0,.58-.22.9.9,0,0,1-.4.5,1.82,1.82,0,0,0,.52-.14A1.83,1.83,0,0,1,29,7Z"/><path class="cls-2" d="M33.38,10.69V8.14H32.5v-1h.88v-.7h0a1.28,1.28,0,0,1,.24-.9,1.23,1.23,0,0,1,.92-.45h.88V6h-.59a.41.41,0,0,0-.44.42h0v.7h1l-.12,1h-.87v2.55Z"/><path class="cls-2" d="M41.67,5.74H40a1.33,1.33,0,0,0-1.33,1.33V8.73A1.33,1.33,0,0,0,40,10.07h1.66A1.34,1.34,0,0,0,43,8.73V7.07A1.34,1.34,0,0,0,41.67,5.74Zm.91,2.83a1.07,1.07,0,0,1-1.07,1.08H40.17a1.08,1.08,0,0,1-1.08-1.08V7.23a1.07,1.07,0,0,1,1.08-1.07h1.34a1.07,1.07,0,0,1,1.07,1.07Z"/><path class="cls-2" d="M40.9,6.77A1.14,1.14,0,1,0,42,7.91,1.14,1.14,0,0,0,40.9,6.77Zm0,1.83a.69.69,0,0,1-.69-.69.69.69,0,1,1,.69.69Z"/><path class="cls-2" d="M42.25,6.75A.29.29,0,1,1,42,6.46.29.29,0,0,1,42.25,6.75Z"/><path class="cls-3" d="M44.05,33.55H31.72a1.31,1.31,0,0,0-1.08.58l-.53.8a1.31,1.31,0,0,1-1.08.58H23.91a1.31,1.31,0,0,1-1.08-.58l-.53-.8a1.31,1.31,0,0,0-1.08-.58H8.89a1.31,1.31,0,0,0-1.3,1.3v2.61a1.3,1.3,0,0,0,1.3,1.3H44.05a1.3,1.3,0,0,0,1.3-1.3V34.85A1.3,1.3,0,0,0,44.05,33.55Z"/><path class="cls-2" d="M45.53,14V3.61A3.27,3.27,0,0,0,42.27.35H25.35a3.27,3.27,0,0,0-3.26,3.26v7.81H12.33a3.26,3.26,0,0,0-3.26,3.25V32.9H8.42a2,2,0,0,0-1.95,2v2.61a2,2,0,0,0,2,1.95H43.58a2,2,0,0,0,2-1.95V34.85a2,2,0,0,0-2-2h-.65V17.21A3.26,3.26,0,0,0,45.53,14ZM23.4,3.61a2,2,0,0,1,2-2H42.27a2,2,0,0,1,2,2V14a2,2,0,0,1-2,2H33.58L28,20.48V16h-2.6a2,2,0,0,1-2-2Zm2,13.67h1.3v5.91L34,17.28h5V32.9H31.25a2,2,0,0,0-1.62.87l-.53.8a.65.65,0,0,1-.54.28H23.44a.64.64,0,0,1-.54-.28l-.53-.8a2,2,0,0,0-1.62-.87H13V15.33h9.39A3.26,3.26,0,0,0,25.35,17.28Zm-15-2.61a2,2,0,0,1,1.95-1.95h9.76V14H11.68V32.9h-1.3ZM43.58,34.2a.66.66,0,0,1,.65.65v2.61a.65.65,0,0,1-.65.65H8.42a.65.65,0,0,1-.65-.65V34.85a.66.66,0,0,1,.65-.65H20.75a.66.66,0,0,1,.54.29l.53.8a2,2,0,0,0,1.62.87h5.12a2,2,0,0,0,1.63-.87l.52-.8a.66.66,0,0,1,.54-.29Zm-3.26-1.3V17.28h1.3V32.9Z"/></g></g></svg>