<svg xmlns="http://www.w3.org/2000/svg" xmlns:xlink="http://www.w3.org/1999/xlink" viewBox="0 0 114.2 36.76"><defs><style>.cls-1{fill:none;stroke:#0033a1;stroke-miterlimit:10;}.cls-2{fill:url(#Degradado_sin_nombre_17);}.cls-3{fill:#fff;}</style><linearGradient id="Degradado_sin_nombre_17" x1="0.5" y1="18.38" x2="113.7" y2="18.38" gradientUnits="userSpaceOnUse"><stop offset="0.11" stop-color="#e58f24"/><stop offset="1" stop-color="#da7f1e"/></linearGradient></defs><g id="Capa_2" data-name="Capa 2"><g id="Capa_1-2" data-name="Capa 1"><path class="cls-1" d="M6.51,32.74l100.75,3.51a6.22,6.22,0,0,0,6.38-7.08l-3.23-23.3A6.24,6.24,0,0,0,104,.5L9.42,3.82A6.22,6.22,0,0,0,3.5,9L.6,25.43A6.22,6.22,0,0,0,6.51,32.74Z"/><path class="cls-2" d="M107.69,32.74,6.94,36.25A6.23,6.23,0,0,1,.56,29.17L3.8,5.87A6.23,6.23,0,0,1,10.18.5l94.61,3.32A6.21,6.21,0,0,1,110.7,9l2.91,16.47A6.23,6.23,0,0,1,107.69,32.74Z"/><path class="cls-3" d="M44.67,25.74H41.61V11h3.06Z"/><path class="cls-3" d="M56.17,11h3.19l-5,14.73H51.43L46.45,11h3.29l3.2,11.19Z"/><path class="cls-3" d="M63.9,11h3.48L72.6,25.74H69.26l-1-3H62.86l-1,3H58.64Zm-.2,9.17h3.77l-1.86-5.8Z"/></g></g></svg>