<svg xmlns="http://www.w3.org/2000/svg" xmlns:xlink="http://www.w3.org/1999/xlink" viewBox="0 0 160.75 37.26"><defs><style>.cls-1,.cls-2{fill:none;stroke-miterlimit:10;}.cls-1{stroke:#0033a1;}.cls-2{stroke-width:1.5px;stroke:url(#Degradado_sin_nombre_17);}.cls-3{fill:#e58f24;}</style><linearGradient id="Degradado_sin_nombre_17" y1="18.63" x2="160.75" y2="18.63" gradientUnits="userSpaceOnUse"><stop offset="0.11" stop-color="#e58f24"/><stop offset="1" stop-color="#da7f1e"/></linearGradient></defs><g id="Capa_2" data-name="Capa 2"><g id="Capa_1-2" data-name="Capa 1"><path class="cls-1" d="M6.76,33,153.55,36.5a6.23,6.23,0,0,0,6.39-7.08L156.7,6.12A6.23,6.23,0,0,0,150.32.75L9.67,4.07A6.22,6.22,0,0,0,3.75,9.21L.85,25.68A6.22,6.22,0,0,0,6.76,33Z"/><path class="cls-2" d="M154,33,7.19,36.5A6.23,6.23,0,0,1,.81,29.42L4.05,6.12A6.23,6.23,0,0,1,10.43.75L151.08,4.07A6.21,6.21,0,0,1,157,9.21l2.91,16.47A6.22,6.22,0,0,1,154,33Z"/><path class="cls-3" d="M28,15.88a2.91,2.91,0,0,0-1.71-2.1,4.21,4.21,0,0,0-1.69-.33,3.64,3.64,0,0,0-2.92,1.34,6,6,0,0,0-1.15,4c0,1.81.41,3.09,1.24,3.84a4.1,4.1,0,0,0,2.82,1.13,3.68,3.68,0,0,0,2.54-.89,3.86,3.86,0,0,0,1.22-2.33H25V18.11h6.14V26h-2l-.31-1.84a7,7,0,0,1-1.6,1.47,5.64,5.64,0,0,1-3,.75,6.25,6.25,0,0,1-4.8-2,7.73,7.73,0,0,1-1.95-5.57,8.2,8.2,0,0,1,2-5.74,6.75,6.75,0,0,1,5.21-2.15,6.79,6.79,0,0,1,4.51,1.42,5.32,5.32,0,0,1,2,3.55Z"/><path class="cls-3" d="M44.78,13.9H37.14V17h7v2.56h-7v3.79h8V26h-11V11.29H44.78Z"/><path class="cls-3" d="M47.64,11.29h3.23l5.85,10.27V11.29h2.87V26H56.51l-6-10.45V26H47.64Z"/><path class="cls-3" d="M73.21,13.9H65.57V17h7v2.56h-7v3.79h8V26h-11V11.29H73.21Z"/><path class="cls-3" d="M85.57,11.67a3.58,3.58,0,0,1,1.38,1,4.69,4.69,0,0,1,.74,1.24A4.11,4.11,0,0,1,88,15.48a4.49,4.49,0,0,1-.53,2.07A3,3,0,0,1,85.68,19a2.73,2.73,0,0,1,1.44,1.17,4.74,4.74,0,0,1,.43,2.3v1a7.93,7.93,0,0,0,.08,1.37,1.22,1.22,0,0,0,.57.84V26H84.8c-.09-.33-.16-.59-.2-.79A7.59,7.59,0,0,1,84.47,24l0-1.37A2.72,2.72,0,0,0,84,20.71a2.48,2.48,0,0,0-1.75-.47h-3V26h-3V11.29h7A6.32,6.32,0,0,1,85.57,11.67ZM79.2,13.85v4h3.32A3.55,3.55,0,0,0,84,17.56a1.66,1.66,0,0,0,.87-1.66A1.84,1.84,0,0,0,84,14.11a3,3,0,0,0-1.43-.26Z"/><path class="cls-3" d="M95.12,11.29H98.6L103.81,26h-3.33l-1-3H94.08l-1,3H89.86Zm-.2,9.16h3.77l-1.86-5.8Z"/><path class="cls-3" d="M105.69,11.29h3.07V23.37h7.36V26H105.69Z"/><path class="cls-3" d="M128.92,13.9h-7.63V17h7v2.56h-7v3.79h8V26h-11V11.29h10.64Z"/><path class="cls-3" d="M134.06,21.47a2.93,2.93,0,0,0,.56,1.51,3.25,3.25,0,0,0,2.62.91,5.66,5.66,0,0,0,1.81-.24,1.72,1.72,0,0,0,1.32-1.71,1.26,1.26,0,0,0-.65-1.13,7,7,0,0,0-2.05-.69l-1.59-.35a9.7,9.7,0,0,1-3.23-1.13,3.6,3.6,0,0,1-1.49-3.19,4.23,4.23,0,0,1,1.46-3.28,6.16,6.16,0,0,1,4.28-1.31,6.58,6.58,0,0,1,4,1.23,4.37,4.37,0,0,1,1.74,3.58h-3a2.12,2.12,0,0,0-1.19-1.88,4.08,4.08,0,0,0-1.84-.37,3.46,3.46,0,0,0-1.94.48,1.5,1.5,0,0,0-.73,1.33,1.26,1.26,0,0,0,.72,1.18,8.29,8.29,0,0,0,1.95.61l2.59.61A6.8,6.8,0,0,1,142,18.7a3.64,3.64,0,0,1,1.31,3,4.22,4.22,0,0,1-1.56,3.35,6.58,6.58,0,0,1-4.41,1.34,7.16,7.16,0,0,1-4.57-1.32,4.34,4.34,0,0,1-1.67-3.61Z"/></g></g></svg>