<svg xmlns="http://www.w3.org/2000/svg" xmlns:xlink="http://www.w3.org/1999/xlink" viewBox="0 0 114.7 37.26"><defs><style>.cls-1,.cls-2{fill:none;stroke-miterlimit:10;}.cls-1{stroke:#0033a1;}.cls-2{stroke-width:1.5px;stroke:url(#Degradado_sin_nombre_17);}.cls-3{fill:#e58f24;}</style><linearGradient id="Degradado_sin_nombre_17" y1="18.63" x2="114.7" y2="18.63" gradientUnits="userSpaceOnUse"><stop offset="0.11" stop-color="#e58f24"/><stop offset="1" stop-color="#da7f1e"/></linearGradient></defs><g id="Capa_2" data-name="Capa 2"><g id="Capa_1-2" data-name="Capa 1"><path class="cls-1" d="M6.76,33,107.51,36.5a6.22,6.22,0,0,0,6.38-7.08l-3.23-23.3A6.24,6.24,0,0,0,104.27.75L9.67,4.07A6.22,6.22,0,0,0,3.75,9.21L.85,25.68A6.22,6.22,0,0,0,6.76,33Z"/><path class="cls-2" d="M107.94,33,7.19,36.5A6.23,6.23,0,0,1,.81,29.42L4.05,6.12A6.23,6.23,0,0,1,10.43.75L105,4.07A6.21,6.21,0,0,1,111,9.21l2.91,16.47A6.23,6.23,0,0,1,107.94,33Z"/><path class="cls-3" d="M44.92,26H41.86V11.26h3.06Z"/><path class="cls-3" d="M56.42,11.26h3.19L54.59,26H51.68l-5-14.73H50l3.2,11.19Z"/><path class="cls-3" d="M64.15,11.26h3.48L72.85,26H69.51l-1-3H63.11l-1,3H58.89ZM64,20.43h3.77l-1.86-5.8Z"/></g></g></svg>