<svg xmlns="http://www.w3.org/2000/svg" xmlns:xlink="http://www.w3.org/1999/xlink" viewBox="0 0 114.2 36.76"><defs><style>.cls-1{fill:none;stroke:#0033a1;stroke-miterlimit:10;}.cls-2{fill:url(#Degradado_sin_nombre_17);}.cls-3{fill:#fff;}</style><linearGradient id="Degradado_sin_nombre_17" x1="0.5" y1="18.38" x2="113.7" y2="18.38" gradientUnits="userSpaceOnUse"><stop offset="0.11" stop-color="#e58f24"/><stop offset="1" stop-color="#da7f1e"/></linearGradient></defs><g id="Capa_2" data-name="Capa 2"><g id="Capa_1-2" data-name="Capa 1"><path class="cls-1" d="M6.51,32.74l100.75,3.51a6.22,6.22,0,0,0,6.38-7.08l-3.23-23.3A6.24,6.24,0,0,0,104,.5L9.42,3.82A6.22,6.22,0,0,0,3.5,9L.6,25.43A6.22,6.22,0,0,0,6.51,32.74Z"/><path class="cls-2" d="M107.69,32.74,6.94,36.25A6.23,6.23,0,0,1,.56,29.17L3.8,5.87A6.23,6.23,0,0,1,10.18.5l94.61,3.32A6.21,6.21,0,0,1,110.7,9l2.91,16.47A6.23,6.23,0,0,1,107.69,32.74Z"/><path class="cls-3" d="M43.64,25.68H40.58V11h3.06Z"/><path class="cls-3" d="M46.47,11H49.7l5.84,10.27V11h2.87V25.68H55.33l-6-10.45V25.68H46.47Z"/><path class="cls-3" d="M62.71,12.49a6,6,0,0,1,4.52-1.82q3.69,0,5.38,2.44a5.2,5.2,0,0,1,1,2.74H70.54a4,4,0,0,0-.75-1.59,3,3,0,0,0-2.44-1,3,3,0,0,0-2.59,1.35,6.55,6.55,0,0,0-1,3.83,5.82,5.82,0,0,0,1,3.72,3.15,3.15,0,0,0,2.55,1.23,2.87,2.87,0,0,0,2.41-1.06,4.56,4.56,0,0,0,.76-1.71h3.06a6.64,6.64,0,0,1-2,3.92,5.86,5.86,0,0,1-4.17,1.51,6.25,6.25,0,0,1-4.94-2,8.23,8.23,0,0,1-1.8-5.62A8.1,8.1,0,0,1,62.71,12.49Z"/></g></g></svg>