<svg xmlns="http://www.w3.org/2000/svg" xmlns:xlink="http://www.w3.org/1999/xlink" viewBox="0 0 160.25 36.76"><defs><style>.cls-1{fill:none;stroke:#0033a1;stroke-miterlimit:10;}.cls-2{fill:url(#Degradado_sin_nombre_17);}.cls-3{fill:#fff;}</style><linearGradient id="Degradado_sin_nombre_17" x1="0.5" y1="18.38" x2="159.75" y2="18.38" gradientUnits="userSpaceOnUse"><stop offset="0.11" stop-color="#e58f24"/><stop offset="1" stop-color="#da7f1e"/></linearGradient></defs><g id="Capa_2" data-name="Capa 2"><g id="Capa_1-2" data-name="Capa 1"><path class="cls-1" d="M6.51,32.74,153.3,36.25a6.23,6.23,0,0,0,6.39-7.08l-3.24-23.3A6.23,6.23,0,0,0,150.07.5L9.42,3.82A6.22,6.22,0,0,0,3.5,9L.6,25.43A6.22,6.22,0,0,0,6.51,32.74Z"/><path class="cls-2" d="M153.74,32.74,6.94,36.25A6.23,6.23,0,0,1,.56,29.17L3.8,5.87A6.23,6.23,0,0,1,10.18.5L150.83,3.82A6.21,6.21,0,0,1,156.74,9l2.91,16.47A6.22,6.22,0,0,1,153.74,32.74Z"/><path class="cls-3" d="M27.78,15.63a2.91,2.91,0,0,0-1.71-2.1,4.21,4.21,0,0,0-1.69-.33,3.64,3.64,0,0,0-2.92,1.34,6,6,0,0,0-1.15,4c0,1.81.41,3.09,1.24,3.84a4.1,4.1,0,0,0,2.82,1.13,3.68,3.68,0,0,0,2.54-.89,3.86,3.86,0,0,0,1.22-2.33H24.72V17.86h6.14v7.91h-2l-.31-1.84a7,7,0,0,1-1.6,1.47,5.64,5.64,0,0,1-3,.75,6.25,6.25,0,0,1-4.8-2,7.73,7.73,0,0,1-1.95-5.57,8.2,8.2,0,0,1,2-5.74,6.75,6.75,0,0,1,5.21-2.15,6.79,6.79,0,0,1,4.51,1.42,5.32,5.32,0,0,1,2,3.55Z"/><path class="cls-3" d="M44.53,13.65H36.89v3.12h7v2.56h-7v3.79h8v2.65h-11V11H44.53Z"/><path class="cls-3" d="M47.39,11h3.23l5.85,10.27V11h2.87V25.77H56.26l-6-10.45V25.77H47.39Z"/><path class="cls-3" d="M73,13.65H65.32v3.12h7v2.56h-7v3.79h8v2.65h-11V11H73Z"/><path class="cls-3" d="M85.32,11.42a3.58,3.58,0,0,1,1.38,1,4.69,4.69,0,0,1,.74,1.24,4.11,4.11,0,0,1,.27,1.54,4.49,4.49,0,0,1-.53,2.07,3,3,0,0,1-1.75,1.43,2.73,2.73,0,0,1,1.44,1.17,4.74,4.74,0,0,1,.43,2.3v1a7.93,7.93,0,0,0,.08,1.37,1.22,1.22,0,0,0,.57.84v.37h-3.4c-.09-.33-.16-.59-.2-.79a7.59,7.59,0,0,1-.13-1.27l0-1.37a2.72,2.72,0,0,0-.49-1.88A2.48,2.48,0,0,0,82,20H79v5.78H76V11h7A6.32,6.32,0,0,1,85.32,11.42ZM79,13.6v4h3.32a3.55,3.55,0,0,0,1.48-.24,1.66,1.66,0,0,0,.87-1.66,1.84,1.84,0,0,0-.84-1.79,3,3,0,0,0-1.43-.26Z"/><path class="cls-3" d="M94.87,11h3.48l5.21,14.73h-3.33l-1-3H93.83l-1,3H89.61Zm-.2,9.16h3.77l-1.86-5.8Z"/><path class="cls-3" d="M105.44,11h3.07V23.12h7.36v2.65H105.44Z"/><path class="cls-3" d="M128.67,13.65H121v3.12h7v2.56h-7v3.79h8v2.65H118V11h10.64Z"/><path class="cls-3" d="M133.81,21.22a2.93,2.93,0,0,0,.56,1.51,3.25,3.25,0,0,0,2.62.91,5.66,5.66,0,0,0,1.81-.24,1.72,1.72,0,0,0,1.32-1.71,1.26,1.26,0,0,0-.65-1.13,7,7,0,0,0-2.05-.69l-1.59-.35a9.7,9.7,0,0,1-3.23-1.13,3.6,3.6,0,0,1-1.49-3.19,4.23,4.23,0,0,1,1.46-3.28,6.16,6.16,0,0,1,4.28-1.31,6.58,6.58,0,0,1,4,1.23,4.37,4.37,0,0,1,1.74,3.58h-3a2.12,2.12,0,0,0-1.19-1.88,4.08,4.08,0,0,0-1.84-.37,3.46,3.46,0,0,0-1.94.48A1.5,1.5,0,0,0,134,15a1.26,1.26,0,0,0,.72,1.18,8.29,8.29,0,0,0,1.95.61l2.59.61a6.8,6.8,0,0,1,2.55,1.07,3.64,3.64,0,0,1,1.31,3,4.22,4.22,0,0,1-1.56,3.35,6.58,6.58,0,0,1-4.41,1.34,7.16,7.16,0,0,1-4.57-1.32,4.34,4.34,0,0,1-1.67-3.61Z"/></g></g></svg>