<svg xmlns="http://www.w3.org/2000/svg" xmlns:xlink="http://www.w3.org/1999/xlink" viewBox="0 0 206.16 53.69"><defs><style>.cls-1{fill:url(#Degradado_sin_nombre_17);}.cls-2{fill:#fff;}</style><linearGradient id="Degradado_sin_nombre_17" y1="26.85" x2="206.16" y2="26.85" gradientUnits="userSpaceOnUse"><stop offset="0.11" stop-color="#e58f24"/><stop offset="1" stop-color="#da7f1e"/></linearGradient></defs><g id="Capa_2" data-name="Capa 2"><g id="Capa_1-2" data-name="Capa 1"><rect class="cls-1" width="206.16" height="53.69" rx="26.85"/><path class="cls-2" d="M45.59,18.77a4.08,4.08,0,0,1-2.7.79H40.64v3.89H38.4V12.65H43a3.74,3.74,0,0,1,2.56.84,3.25,3.25,0,0,1,.95,2.58A3.31,3.31,0,0,1,45.59,18.77Zm-1.72-3.89a1.85,1.85,0,0,0-1.2-.35h-2V17.7h2a1.74,1.74,0,0,0,1.2-.38,1.58,1.58,0,0,0,.43-1.24A1.47,1.47,0,0,0,43.87,14.88Z"/><path class="cls-2" d="M51.34,18.59a3.63,3.63,0,0,0,.84-.18.64.64,0,0,0,.45-.6.7.7,0,0,0-.35-.67,2.11,2.11,0,0,0-1-.19,1.3,1.3,0,0,0-1.06.37,1.48,1.48,0,0,0-.3.73h-2a3,3,0,0,1,.59-1.72,3.4,3.4,0,0,1,2.85-1.06,5.17,5.17,0,0,1,2.34.52,2,2,0,0,1,1,2v3.67c0,.25,0,.56,0,.92a1.13,1.13,0,0,0,.12.56.88.88,0,0,0,.31.24v.31H52.88a2.6,2.6,0,0,1-.14-.46c0-.14,0-.3-.05-.48a4.4,4.4,0,0,1-1,.8,3,3,0,0,1-1.53.39,2.68,2.68,0,0,1-1.8-.62,2.23,2.23,0,0,1-.71-1.76,2.27,2.27,0,0,1,1.14-2.13,5.1,5.1,0,0,1,1.85-.51Zm1.28,1a2.56,2.56,0,0,1-.4.21,5,5,0,0,1-.56.14l-.48.09a2.92,2.92,0,0,0-1,.28,1,1,0,0,0-.49.89.92.92,0,0,0,.3.77,1.13,1.13,0,0,0,.73.24,2.12,2.12,0,0,0,1.26-.4,1.64,1.64,0,0,0,.6-1.44Z"/><path class="cls-2" d="M61,15.28h.18v2.14l-.35,0h-.25a1.71,1.71,0,0,0-1.69.82,3.21,3.21,0,0,0-.24,1.42v3.82H56.5v-8h2v1.39a4.71,4.71,0,0,1,.85-1.09,2.33,2.33,0,0,1,1.52-.49Z"/><path class="cls-2" d="M65.52,18.59a3.63,3.63,0,0,0,.84-.18.64.64,0,0,0,.45-.6.7.7,0,0,0-.35-.67,2.11,2.11,0,0,0-1-.19,1.3,1.3,0,0,0-1.06.37,1.48,1.48,0,0,0-.3.73h-2a3.07,3.07,0,0,1,.58-1.72,3.43,3.43,0,0,1,2.86-1.06,5.17,5.17,0,0,1,2.34.52,2,2,0,0,1,1,2v3.67c0,.25,0,.56,0,.92a1.13,1.13,0,0,0,.12.56.88.88,0,0,0,.31.24v.31H67.06a2.6,2.6,0,0,1-.14-.46c0-.14,0-.3,0-.48a4.4,4.4,0,0,1-1,.8,3,3,0,0,1-1.53.39,2.66,2.66,0,0,1-1.8-.62,2.23,2.23,0,0,1-.71-1.76A2.27,2.27,0,0,1,63,19.19a5.1,5.1,0,0,1,1.85-.51Zm1.28,1a2.56,2.56,0,0,1-.4.21,4.74,4.74,0,0,1-.57.14l-.47.09a2.92,2.92,0,0,0-1,.28,1,1,0,0,0-.49.89.92.92,0,0,0,.3.77,1.13,1.13,0,0,0,.73.24,2.12,2.12,0,0,0,1.26-.4,1.66,1.66,0,0,0,.6-1.44Z"/><path class="cls-2" d="M79.79,15.46H82l-2.88,8H77l-2.87-8h2.35l1.66,5.89Z"/><path class="cls-2" d="M88.42,15.62a3.34,3.34,0,0,1,1.38,1.19,4,4,0,0,1,.63,1.65A9.64,9.64,0,0,1,90.5,20H84.69a1.94,1.94,0,0,0,.83,1.69,2.12,2.12,0,0,0,1.15.3,1.79,1.79,0,0,0,1.16-.37,1.76,1.76,0,0,0,.43-.55h2.13a2.57,2.57,0,0,1-.77,1.44,3.89,3.89,0,0,1-3,1.17,4.39,4.39,0,0,1-2.81-1,3.9,3.9,0,0,1-1.22-3.2,4.34,4.34,0,0,1,1.1-3.18,3.87,3.87,0,0,1,2.86-1.11A4.57,4.57,0,0,1,88.42,15.62Zm-3.13,1.81a2.13,2.13,0,0,0-.55,1.23h3.59a1.73,1.73,0,0,0-.55-1.26A1.87,1.87,0,0,0,86.54,17,1.65,1.65,0,0,0,85.29,17.43Z"/><path class="cls-2" d="M96,15.28h.18v2.14l-.35,0h-.25a1.72,1.72,0,0,0-1.69.82,3.21,3.21,0,0,0-.24,1.42v3.82H91.53v-8h2v1.39a4.47,4.47,0,0,1,.84-1.09,2.33,2.33,0,0,1,1.52-.49Z"/><path class="cls-2" d="M99,20.9a1.42,1.42,0,0,0,.29.79,1.93,1.93,0,0,0,1.44.42,2.21,2.21,0,0,0,1-.19.58.58,0,0,0,.37-.55.6.6,0,0,0-.29-.53,12.66,12.66,0,0,0-2.19-.63,4.75,4.75,0,0,1-1.92-.84,1.84,1.84,0,0,1-.55-1.44A2.48,2.48,0,0,1,98,16a3.48,3.48,0,0,1,2.44-.79,4.51,4.51,0,0,1,2.45.59A2.58,2.58,0,0,1,104,17.89h-2.09a1.16,1.16,0,0,0-.23-.63,1.41,1.41,0,0,0-1.17-.43,1.68,1.68,0,0,0-1,.21.62.62,0,0,0-.3.5.55.55,0,0,0,.31.52,12.51,12.51,0,0,0,2.18.58,4,4,0,0,1,1.87.89,2,2,0,0,1,.62,1.5,2.43,2.43,0,0,1-.89,1.94,5.3,5.3,0,0,1-5.52,0,2.6,2.6,0,0,1-.89-2Z"/><path class="cls-2" d="M107.88,14.51h-2.11V12.58h2.11Zm-2.11,1h2.11v8h-2.11Z"/><path class="cls-2" d="M116.56,22.47a4.39,4.39,0,0,1-6.14,0,4.63,4.63,0,0,1-1-3,4.69,4.69,0,0,1,1-3,4.37,4.37,0,0,1,6.14,0,4.63,4.63,0,0,1,1,3A4.57,4.57,0,0,1,116.56,22.47Zm-1.67-1.15a3,3,0,0,0,.49-1.85,3,3,0,0,0-.49-1.85,1.84,1.84,0,0,0-2.81,0,3,3,0,0,0-.5,1.85,3,3,0,0,0,.5,1.85,1.84,1.84,0,0,0,2.81,0Z"/><path class="cls-2" d="M125.5,15.92a2.62,2.62,0,0,1,.79,2.15v5.38h-2.14V18.59a2.28,2.28,0,0,0-.17-1,1.16,1.16,0,0,0-1.16-.61,1.45,1.45,0,0,0-1.45.9,3.22,3.22,0,0,0-.2,1.21v4.33h-2.09v-8h2v1.16a3.5,3.5,0,0,1,.76-.88,2.59,2.59,0,0,1,1.63-.49A3.05,3.05,0,0,1,125.5,15.92Z"/><path class="cls-2" d="M133.43,15.62a3.23,3.23,0,0,1,1.38,1.19,3.88,3.88,0,0,1,.64,1.65,9.88,9.88,0,0,1,.06,1.58H129.7a1.94,1.94,0,0,0,.83,1.69,2.15,2.15,0,0,0,1.16.3,1.76,1.76,0,0,0,1.15-.37,1.62,1.62,0,0,0,.43-.55h2.14a2.65,2.65,0,0,1-.78,1.44,3.85,3.85,0,0,1-3,1.17,4.37,4.37,0,0,1-2.81-1,3.87,3.87,0,0,1-1.22-3.2,4.3,4.3,0,0,1,1.1-3.18,3.83,3.83,0,0,1,2.85-1.11A4.54,4.54,0,0,1,133.43,15.62Zm-3.12,1.81a2.14,2.14,0,0,0-.56,1.23h3.6a1.77,1.77,0,0,0-.56-1.26,1.85,1.85,0,0,0-1.24-.43A1.62,1.62,0,0,0,130.31,17.43Z"/><path class="cls-2" d="M138.19,20.9a1.35,1.35,0,0,0,.29.79,1.93,1.93,0,0,0,1.44.42,2.21,2.21,0,0,0,1-.19.6.6,0,0,0,.07-1.08,12.1,12.1,0,0,0-2.18-.63,4.69,4.69,0,0,1-1.92-.84,1.85,1.85,0,0,1-.56-1.44,2.48,2.48,0,0,1,.87-1.9,3.51,3.51,0,0,1,2.45-.79,4.48,4.48,0,0,1,2.44.59,2.59,2.59,0,0,1,1.09,2.06h-2.09a1.24,1.24,0,0,0-.23-.63,1.42,1.42,0,0,0-1.18-.43,1.72,1.72,0,0,0-1,.21.64.64,0,0,0-.29.5.53.53,0,0,0,.31.52,12.22,12.22,0,0,0,2.18.58,4,4,0,0,1,1.87.89,2,2,0,0,1,.61,1.5,2.43,2.43,0,0,1-.88,1.94,5.3,5.3,0,0,1-5.52,0,2.57,2.57,0,0,1-.9-2Z"/><path class="cls-2" d="M148.91,18.88a2.55,2.55,0,0,1,1.18-1.09,2.48,2.48,0,0,1-1-1.11,3.19,3.19,0,0,1-.23-1.11,2.59,2.59,0,0,1,.88-2,4.12,4.12,0,0,1,4.93,0,2.62,2.62,0,0,1,.87,2,3,3,0,0,1-.23,1.11,2.07,2.07,0,0,1-1,1,3,3,0,0,1,1.19,1.16,3.4,3.4,0,0,1,.39,1.62,3,3,0,0,1-1,2.28,3.86,3.86,0,0,1-2.77.94,3.59,3.59,0,0,1-2.7-.94,3.13,3.13,0,0,1-.92-2.28A3.3,3.3,0,0,1,148.91,18.88Zm2.17,2.7a1.45,1.45,0,0,0,1.12.43,1.48,1.48,0,0,0,1.13-.43,1.71,1.71,0,0,0,.4-1.22,1.71,1.71,0,0,0-.41-1.23,1.7,1.7,0,0,0-2.24,0,1.71,1.71,0,0,0-.41,1.23A1.71,1.71,0,0,0,151.08,21.58Zm.13-4.84a1.3,1.3,0,0,0,1,.37,1.24,1.24,0,0,0,1.33-1.31,1.22,1.22,0,0,0-1.33-1.34,1.37,1.37,0,0,0-1,.35,1.34,1.34,0,0,0-.36,1A1.27,1.27,0,0,0,151.21,16.74Z"/><path class="cls-2" d="M157.39,21.26h2.22v2.19h-2.22Z"/><path class="cls-2" d="M163.09,20.6a2,2,0,0,0,.48,1.06,1.35,1.35,0,0,0,1,.37,1.39,1.39,0,0,0,1.18-.55,2.23,2.23,0,0,0,.4-1.37,2.36,2.36,0,0,0-.38-1.38,1.32,1.32,0,0,0-1.18-.56,1.91,1.91,0,0,0-.66.1,1.29,1.29,0,0,0-.73.65l-1.88-.09.75-5.86h5.84v1.77H163.6l-.38,2.32a4.47,4.47,0,0,1,.75-.42,3.22,3.22,0,0,1,1.1-.17,3.21,3.21,0,0,1,3.28,3.47,4,4,0,0,1-.94,2.63,3.44,3.44,0,0,1-2.83,1.15,3.77,3.77,0,0,1-2.49-.81A3.17,3.17,0,0,1,161,20.6Z"/><path class="cls-2" d="M68,34.75a3.2,3.2,0,0,1,1.38,1.18A3.93,3.93,0,0,1,70,37.58a11.09,11.09,0,0,1,.07,1.58H64.26a1.9,1.9,0,0,0,.84,1.69,2.12,2.12,0,0,0,1.15.3,1.75,1.75,0,0,0,1.16-.37,1.86,1.86,0,0,0,.43-.54H70a2.65,2.65,0,0,1-.78,1.44,3.88,3.88,0,0,1-3,1.16,4.37,4.37,0,0,1-2.81-1,3.89,3.89,0,0,1-1.22-3.2,4.34,4.34,0,0,1,1.1-3.18,3.84,3.84,0,0,1,2.86-1.1A4.49,4.49,0,0,1,68,34.75Zm-3.12,1.8a2.27,2.27,0,0,0-.56,1.24h3.6a1.7,1.7,0,0,0-.56-1.26,1.79,1.79,0,0,0-1.23-.43A1.66,1.66,0,0,0,64.87,36.55Z"/><path class="cls-2" d="M77.57,35.05a2.63,2.63,0,0,1,.78,2.15v5.37H76.21V37.72a2.27,2.27,0,0,0-.16-1,1.19,1.19,0,0,0-1.17-.62,1.43,1.43,0,0,0-1.44.9,3.07,3.07,0,0,0-.21,1.22v4.32H71.15v-8h2v1.17a3.58,3.58,0,0,1,.76-.89,2.62,2.62,0,0,1,1.62-.48A3,3,0,0,1,77.57,35.05Z"/><path class="cls-2" d="M87.62,37.72a3.09,3.09,0,0,0,.84-.19.62.62,0,0,0,.45-.59.71.71,0,0,0-.35-.68,2.24,2.24,0,0,0-1-.19,1.34,1.34,0,0,0-1.06.37,1.52,1.52,0,0,0-.3.73h-2a3,3,0,0,1,.59-1.72,3.42,3.42,0,0,1,2.85-1.05,5,5,0,0,1,2.34.52,2,2,0,0,1,1,2v3.66c0,.26,0,.56,0,.93a1.09,1.09,0,0,0,.12.55.7.7,0,0,0,.31.24v.31H89.16a1.72,1.72,0,0,1-.13-.45,3.28,3.28,0,0,1-.06-.49,4.15,4.15,0,0,1-1,.8,3,3,0,0,1-1.53.39,2.68,2.68,0,0,1-1.8-.62,2.21,2.21,0,0,1-.71-1.75,2.26,2.26,0,0,1,1.14-2.13,5.29,5.29,0,0,1,1.85-.52Zm1.28,1a2.49,2.49,0,0,1-.4.2,3.49,3.49,0,0,1-.56.14l-.48.09a3,3,0,0,0-1,.29,1.09,1.09,0,0,0-.19,1.66,1.18,1.18,0,0,0,.73.23,2.18,2.18,0,0,0,1.26-.39,1.65,1.65,0,0,0,.6-1.44Z"/><path class="cls-2" d="M97,34.72a2.47,2.47,0,0,1,.91.88V31.79h2.12V42.57H98v-1.1a3,3,0,0,1-1,1,2.9,2.9,0,0,1-1.42.32,3,3,0,0,1-2.35-1.13,4.34,4.34,0,0,1-1-2.91,5,5,0,0,1,.94-3.21,3.07,3.07,0,0,1,2.52-1.17A2.52,2.52,0,0,1,97,34.72Zm.51,5.68A2.87,2.87,0,0,0,98,38.7a2.6,2.6,0,0,0-.74-2.1,1.59,1.59,0,0,0-1-.38,1.48,1.48,0,0,0-1.35.69,3.27,3.27,0,0,0-.42,1.72,3.18,3.18,0,0,0,.43,1.77,1.47,1.47,0,0,0,1.32.66A1.55,1.55,0,0,0,97.55,40.4Z"/><path class="cls-2" d="M107.17,34.75a3.2,3.2,0,0,1,1.38,1.18,3.93,3.93,0,0,1,.64,1.65,10,10,0,0,1,.06,1.58h-5.81a1.9,1.9,0,0,0,.84,1.69,2.09,2.09,0,0,0,1.15.3,1.71,1.71,0,0,0,1.15-.37,1.58,1.58,0,0,0,.43-.54h2.14a2.65,2.65,0,0,1-.78,1.44,3.88,3.88,0,0,1-3,1.16,4.37,4.37,0,0,1-2.81-1,3.86,3.86,0,0,1-1.22-3.2,4.3,4.3,0,0,1,1.1-3.18,3.82,3.82,0,0,1,2.85-1.1A4.54,4.54,0,0,1,107.17,34.75Zm-3.12,1.8a2.2,2.2,0,0,0-.56,1.24h3.6a1.74,1.74,0,0,0-.56-1.26,1.8,1.8,0,0,0-1.24-.43A1.66,1.66,0,0,0,104.05,36.55Z"/><path class="cls-2" d="M112.44,42.57h-2.09V31.78h2.09Z"/><path class="cls-2" d="M117.64,37.72a2.91,2.91,0,0,0,.83-.19.62.62,0,0,0,.45-.59.7.7,0,0,0-.34-.68,2.24,2.24,0,0,0-1-.19,1.37,1.37,0,0,0-1.07.37,1.52,1.52,0,0,0-.29.73h-2a3.11,3.11,0,0,1,.59-1.72,3.44,3.44,0,0,1,2.85-1.05,5,5,0,0,1,2.34.52,2,2,0,0,1,1,2v3.66c0,.26,0,.56,0,.93a1.18,1.18,0,0,0,.13.55.67.67,0,0,0,.3.24v.31h-2.27a3.14,3.14,0,0,1-.13-.45c0-.14,0-.31-.06-.49a4.1,4.1,0,0,1-1,.8,3,3,0,0,1-1.53.39,2.64,2.64,0,0,1-1.8-.62,2.18,2.18,0,0,1-.71-1.75,2.26,2.26,0,0,1,1.14-2.13,5.22,5.22,0,0,1,1.84-.52Zm1.28,1a2.58,2.58,0,0,1-.41.2A3,3,0,0,1,118,39l-.47.09a2.88,2.88,0,0,0-1,.29,1.08,1.08,0,0,0-.2,1.66,1.23,1.23,0,0,0,.74.23,2.23,2.23,0,0,0,1.26-.39,1.7,1.7,0,0,0,.6-1.44Z"/><path class="cls-2" d="M129.26,35.05A2.63,2.63,0,0,1,130,37.2v5.37H127.9V37.72a2.27,2.27,0,0,0-.16-1,1.2,1.2,0,0,0-1.17-.62,1.46,1.46,0,0,0-1.45.9,3.27,3.27,0,0,0-.2,1.22v4.32h-2.09v-8h2v1.17a3.57,3.57,0,0,1,.75-.89,2.65,2.65,0,0,1,1.63-.48A3,3,0,0,1,129.26,35.05Z"/><path class="cls-2" d="M131.16,36.15V34.66h1.12V32.43h2.06v2.23h1.3v1.49h-1.3v4.22a1,1,0,0,0,.12.61,1.42,1.42,0,0,0,.77.12h.2l.21,0v1.56l-1,0a2.69,2.69,0,0,1-2-.51,1.51,1.51,0,0,1-.35-1.11V36.15Z"/><path class="cls-2" d="M142.18,34.75a3.2,3.2,0,0,1,1.38,1.18,3.93,3.93,0,0,1,.64,1.65,10,10,0,0,1,.06,1.58h-5.81a1.91,1.91,0,0,0,.83,1.69,2.15,2.15,0,0,0,1.16.3,1.71,1.71,0,0,0,1.15-.37,1.58,1.58,0,0,0,.43-.54h2.14a2.65,2.65,0,0,1-.78,1.44,3.88,3.88,0,0,1-3,1.16,4.37,4.37,0,0,1-2.81-1,3.86,3.86,0,0,1-1.22-3.2,4.3,4.3,0,0,1,1.1-3.18,3.82,3.82,0,0,1,2.85-1.1A4.54,4.54,0,0,1,142.18,34.75Zm-3.12,1.8a2.2,2.2,0,0,0-.56,1.24h3.6a1.74,1.74,0,0,0-.56-1.26,1.8,1.8,0,0,0-1.24-.43A1.66,1.66,0,0,0,139.06,36.55Z"/></g></g></svg>