<svg xmlns="http://www.w3.org/2000/svg" xmlns:xlink="http://www.w3.org/1999/xlink" viewBox="0 0 206.16 53.69"><defs><style>.cls-1{fill:url(#Degradado_sin_nombre_17);}.cls-2{fill:#fff;}</style><linearGradient id="Degradado_sin_nombre_17" y1="26.85" x2="206.16" y2="26.85" gradientUnits="userSpaceOnUse"><stop offset="0.11" stop-color="#e58f24"/><stop offset="1" stop-color="#da7f1e"/></linearGradient></defs><g id="Capa_2" data-name="Capa 2"><g id="Capa_1-2" data-name="Capa 1"><rect class="cls-1" width="206.16" height="53.69" rx="26.85"/><path class="cls-2" d="M47.48,21.18a3.8,3.8,0,0,1-2.53.74H42.86v3.62h-2.1V15.47h4.33a3.51,3.51,0,0,1,2.39.78,3,3,0,0,1,.89,2.41A3.12,3.12,0,0,1,47.48,21.18Zm-1.61-3.63a1.7,1.7,0,0,0-1.12-.33H42.86v3h1.89a1.61,1.61,0,0,0,1.12-.37,1.45,1.45,0,0,0,.4-1.14A1.4,1.4,0,0,0,45.87,17.55Z"/><path class="cls-2" d="M52.85,21a2.88,2.88,0,0,0,.78-.17.58.58,0,0,0,.42-.55.64.64,0,0,0-.33-.63,2,2,0,0,0-.94-.18,1.26,1.26,0,0,0-1,.34,1.45,1.45,0,0,0-.28.69H49.63a2.9,2.9,0,0,1,.55-1.61,3.18,3.18,0,0,1,2.66-1A4.83,4.83,0,0,1,55,18.4,1.87,1.87,0,0,1,56,20.23v3.42c0,.24,0,.53,0,.86a1.08,1.08,0,0,0,.11.52.69.69,0,0,0,.29.23v.28H54.28a1.93,1.93,0,0,1-.12-.42,4.5,4.5,0,0,1-.06-.45,4.25,4.25,0,0,1-.93.75,2.84,2.84,0,0,1-1.43.36,2.48,2.48,0,0,1-1.69-.58,2.07,2.07,0,0,1-.66-1.64,2.13,2.13,0,0,1,1.07-2,4.71,4.71,0,0,1,1.72-.47Zm1.19.91a2.25,2.25,0,0,1-.38.19,2.78,2.78,0,0,1-.52.13l-.44.09a3,3,0,0,0-.9.26.88.88,0,0,0-.46.83.86.86,0,0,0,.28.72,1.07,1.07,0,0,0,.68.22A2,2,0,0,0,53.48,24,1.53,1.53,0,0,0,54,22.65Z"/><path class="cls-2" d="M61.82,17.92H62v2l-.33,0h-.23a1.63,1.63,0,0,0-1.58.77A3,3,0,0,0,59.62,22v3.56h-2V18.09h1.86v1.3a4.23,4.23,0,0,1,.79-1,2.16,2.16,0,0,1,1.42-.45Z"/><path class="cls-2" d="M66.08,21a2.78,2.78,0,0,0,.78-.17.58.58,0,0,0,.42-.55.65.65,0,0,0-.32-.63,2,2,0,0,0-.95-.18,1.29,1.29,0,0,0-1,.34,1.36,1.36,0,0,0-.27.69H62.87a2.89,2.89,0,0,1,.54-1.61,3.21,3.21,0,0,1,2.67-1,4.79,4.79,0,0,1,2.18.48,1.86,1.86,0,0,1,1,1.83v3.42c0,.24,0,.53,0,.86a1,1,0,0,0,.12.52.66.66,0,0,0,.28.23v.28H67.51a1.93,1.93,0,0,1-.12-.42c0-.13,0-.28,0-.45a4.31,4.31,0,0,1-.94.75,2.84,2.84,0,0,1-1.43.36,2.44,2.44,0,0,1-1.68-.58,2.07,2.07,0,0,1-.66-1.64,2.13,2.13,0,0,1,1.06-2,4.77,4.77,0,0,1,1.72-.47Zm1.19.91a2.16,2.16,0,0,1-.37.19,3.15,3.15,0,0,1-.53.13l-.44.09a3.08,3.08,0,0,0-.9.26.9.9,0,0,0-.46.83.86.86,0,0,0,.29.72,1,1,0,0,0,.68.22A2,2,0,0,0,66.72,24a1.55,1.55,0,0,0,.55-1.34Z"/><path class="cls-2" d="M79.4,18.09h2.09L78.8,25.54h-2l-2.68-7.45h2.19l1.55,5.5Z"/><path class="cls-2" d="M87.45,18.25a3,3,0,0,1,1.29,1.1,3.67,3.67,0,0,1,.59,1.54,9.86,9.86,0,0,1,.06,1.48H84a1.79,1.79,0,0,0,.78,1.57,2,2,0,0,0,1.07.28,1.63,1.63,0,0,0,1.08-.34,1.74,1.74,0,0,0,.4-.51h2a2.38,2.38,0,0,1-.72,1.34,3.6,3.6,0,0,1-2.8,1.09,4.09,4.09,0,0,1-2.63-.92,3.59,3.59,0,0,1-1.13-3,4.05,4.05,0,0,1,1-3,3.59,3.59,0,0,1,2.67-1A4.11,4.11,0,0,1,87.45,18.25Zm-2.92,1.68A2,2,0,0,0,84,21.08h3.35a1.61,1.61,0,0,0-.52-1.18,1.73,1.73,0,0,0-1.15-.4A1.55,1.55,0,0,0,84.53,19.93Z"/><path class="cls-2" d="M94.52,17.92h.17v2l-.33,0h-.23a1.62,1.62,0,0,0-1.58.77A3,3,0,0,0,92.32,22v3.56h-2V18.09h1.86v1.3a4.52,4.52,0,0,1,.78-1,2.19,2.19,0,0,1,1.43-.45Z"/><path class="cls-2" d="M97.34,23.17a1.24,1.24,0,0,0,.27.73,1.8,1.8,0,0,0,1.34.39,2,2,0,0,0,.92-.17.53.53,0,0,0,.34-.51.56.56,0,0,0-.27-.5,12.14,12.14,0,0,0-2-.59,4.24,4.24,0,0,1-1.79-.78,1.7,1.7,0,0,1-.52-1.34,2.34,2.34,0,0,1,.81-1.78,3.28,3.28,0,0,1,2.29-.74,4.17,4.17,0,0,1,2.27.56,2.35,2.35,0,0,1,1,1.92H100a1.09,1.09,0,0,0-.22-.59,1.31,1.31,0,0,0-1.09-.4,1.59,1.59,0,0,0-.91.2.57.57,0,0,0-.27.46.5.5,0,0,0,.29.49,12.4,12.4,0,0,0,2,.54,3.63,3.63,0,0,1,1.74.83,1.85,1.85,0,0,1,.58,1.4,2.27,2.27,0,0,1-.83,1.81,3.92,3.92,0,0,1-2.55.7,3.88,3.88,0,0,1-2.6-.74,2.43,2.43,0,0,1-.84-1.89Z"/><path class="cls-2" d="M105.62,17.2h-2V15.41h2Zm-2,.89h2v7.45h-2Z"/><path class="cls-2" d="M113.72,24.63a4.09,4.09,0,0,1-5.73,0A4.63,4.63,0,0,1,108,19a4.07,4.07,0,0,1,5.73,0,4.63,4.63,0,0,1,0,5.59Zm-1.56-1.07a2.87,2.87,0,0,0,.46-1.73,2.82,2.82,0,0,0-.46-1.72,1.53,1.53,0,0,0-1.31-.61,1.55,1.55,0,0,0-1.32.61,2.75,2.75,0,0,0-.46,1.72,2.8,2.8,0,0,0,.46,1.73,1.57,1.57,0,0,0,1.32.6A1.55,1.55,0,0,0,112.16,23.56Z"/><path class="cls-2" d="M122.06,18.52a2.46,2.46,0,0,1,.74,2v5h-2V21a2,2,0,0,0-.16-.9,1.09,1.09,0,0,0-1.08-.57,1.34,1.34,0,0,0-1.35.84,2.8,2.8,0,0,0-.19,1.13v4h-2V18.11H118V19.2a3.08,3.08,0,0,1,.7-.83,2.47,2.47,0,0,1,1.52-.45A2.85,2.85,0,0,1,122.06,18.52Z"/><path class="cls-2" d="M129.46,18.25a3,3,0,0,1,1.29,1.1,3.54,3.54,0,0,1,.59,1.54,8.46,8.46,0,0,1,.07,1.48H126a1.79,1.79,0,0,0,.78,1.57,2.05,2.05,0,0,0,1.07.28,1.65,1.65,0,0,0,1.09-.34,1.93,1.93,0,0,0,.4-.51h2a2.47,2.47,0,0,1-.73,1.34,3.59,3.59,0,0,1-2.8,1.09,4,4,0,0,1-2.62-.92,3.6,3.6,0,0,1-1.14-3,4,4,0,0,1,1-3,3.57,3.57,0,0,1,2.66-1A4.11,4.11,0,0,1,129.46,18.25Zm-2.91,1.68a2,2,0,0,0-.52,1.15h3.36a1.65,1.65,0,0,0-.52-1.18,1.76,1.76,0,0,0-1.16-.4A1.51,1.51,0,0,0,126.55,19.93Z"/><path class="cls-2" d="M133.9,23.17a1.39,1.39,0,0,0,.27.73,1.81,1.81,0,0,0,1.35.39,2,2,0,0,0,.92-.17.55.55,0,0,0,.34-.51.57.57,0,0,0-.28-.5,11.49,11.49,0,0,0-2-.59,4.37,4.37,0,0,1-1.79-.78,1.73,1.73,0,0,1-.52-1.34,2.32,2.32,0,0,1,.82-1.78,3.27,3.27,0,0,1,2.28-.74,4.23,4.23,0,0,1,2.28.56,2.38,2.38,0,0,1,1,1.92h-1.95a1.18,1.18,0,0,0-.21-.59,1.33,1.33,0,0,0-1.1-.4,1.61,1.61,0,0,0-.91.2.57.57,0,0,0-.27.46.51.51,0,0,0,.29.49,12.4,12.4,0,0,0,2,.54,3.72,3.72,0,0,1,1.75.83,1.88,1.88,0,0,1,.57,1.4,2.26,2.26,0,0,1-.82,1.81,3.92,3.92,0,0,1-2.55.7,3.86,3.86,0,0,1-2.6-.74,2.43,2.43,0,0,1-.84-1.89Z"/><path class="cls-2" d="M143.91,21.29a2.42,2.42,0,0,1,1.1-1,2.38,2.38,0,0,1-.94-1,3,3,0,0,1-.21-1,2.44,2.44,0,0,1,.81-1.84,3.88,3.88,0,0,1,4.61,0,2.44,2.44,0,0,1,.81,1.84,3,3,0,0,1-.21,1,2,2,0,0,1-.94,1,2.77,2.77,0,0,1,1.11,1.09,3,3,0,0,1,.37,1.51,2.84,2.84,0,0,1-.93,2.13,3.64,3.64,0,0,1-2.59.87,3.38,3.38,0,0,1-2.52-.87,3,3,0,0,1-.85-2.13A3.05,3.05,0,0,1,143.91,21.29Zm2,2.51a1.39,1.39,0,0,0,1,.4,1.36,1.36,0,0,0,1.05-.4,1.61,1.61,0,0,0,.38-1.13,1.55,1.55,0,0,0-.39-1.15,1.35,1.35,0,0,0-1-.4,1.36,1.36,0,0,0-1,.4,1.55,1.55,0,0,0-.39,1.15A1.61,1.61,0,0,0,145.93,23.8Zm.13-4.51a1.41,1.41,0,0,0,1.84,0,1.22,1.22,0,0,0,.33-.88,1.25,1.25,0,0,0-.33-.92,1.45,1.45,0,0,0-1.84,0,1.21,1.21,0,0,0-.34.92A1.18,1.18,0,0,0,146.06,19.29Z"/><path class="cls-2" d="M151.82,23.5h2.07v2h-2.07Z"/><path class="cls-2" d="M162.16,23.41H161v2.13h-1.91V23.41H155.2v-1.7l3.65-6H161v6.19h1.12Zm-3-1.52V17.62l-2.47,4.27Z"/><path class="cls-2" d="M72.08,41.63a4.08,4.08,0,0,1-5.72,0,4.59,4.59,0,0,1,0-5.59,4.06,4.06,0,0,1,5.72,0,4.59,4.59,0,0,1,0,5.59Zm-1.55-1.07A2.87,2.87,0,0,0,71,38.83a2.82,2.82,0,0,0-.45-1.72,1.55,1.55,0,0,0-1.32-.61,1.52,1.52,0,0,0-1.31.61,2.75,2.75,0,0,0-.46,1.72,2.8,2.8,0,0,0,.46,1.73,1.54,1.54,0,0,0,1.31.6A1.57,1.57,0,0,0,70.53,40.56Z"/><path class="cls-2" d="M80.31,34.2h-2V32.41h2Zm-2,.89h2v7.45h-2Z"/><path class="cls-2" d="M88.21,35.52a2.45,2.45,0,0,1,.73,2v5H87V38a2.13,2.13,0,0,0-.16-.9,1.1,1.1,0,0,0-1.09-.57,1.36,1.36,0,0,0-1.35.84,3,3,0,0,0-.19,1.13v4h-2V35.11H84.1V36.2a3.28,3.28,0,0,1,.71-.83,2.45,2.45,0,0,1,1.52-.45A2.88,2.88,0,0,1,88.21,35.52Z"/><path class="cls-2" d="M93.84,32.38l.41,0V34l-.55,0a.64.64,0,0,0-.54.17.61.61,0,0,0-.14.4v.63h1.27v1.38H93v6H91.08v-6H90V35.16h1.06v-.48A2.5,2.5,0,0,1,91.46,33c.28-.45,1-.67,2-.67Z"/><path class="cls-2" d="M100.27,35.25a3,3,0,0,1,1.29,1.1,3.67,3.67,0,0,1,.59,1.54,9.59,9.59,0,0,1,.07,1.48H96.79a1.79,1.79,0,0,0,.78,1.57,2,2,0,0,0,1.07.28,1.61,1.61,0,0,0,1.08-.34,1.74,1.74,0,0,0,.4-.51h2a2.38,2.38,0,0,1-.72,1.34,3.6,3.6,0,0,1-2.8,1.09A4.09,4.09,0,0,1,96,41.88a3.62,3.62,0,0,1-1.13-3,4.05,4.05,0,0,1,1-3,3.61,3.61,0,0,1,2.67-1A4.11,4.11,0,0,1,100.27,35.25Zm-2.91,1.68a2,2,0,0,0-.52,1.15h3.35a1.58,1.58,0,0,0-.52-1.18,1.73,1.73,0,0,0-1.15-.4A1.51,1.51,0,0,0,97.36,36.93Z"/><path class="cls-2" d="M107.34,34.92h.17v2l-.33,0H107a1.62,1.62,0,0,0-1.58.77,3,3,0,0,0-.23,1.32v3.56h-2V35.09H105v1.3a4.23,4.23,0,0,1,.79-1,2.14,2.14,0,0,1,1.42-.45Z"/><path class="cls-2" d="M110.65,34.2h-2V32.41h2Zm-2,.89h2v7.45h-2Z"/><path class="cls-2" d="M118.75,41.63a4.09,4.09,0,0,1-5.73,0A4.63,4.63,0,0,1,113,36a4.07,4.07,0,0,1,5.73,0,4.59,4.59,0,0,1,0,5.59Zm-1.56-1.07a2.8,2.8,0,0,0,.46-1.73,2.75,2.75,0,0,0-.46-1.72,1.71,1.71,0,0,0-2.62,0,2.75,2.75,0,0,0-.47,1.72,2.8,2.8,0,0,0,.47,1.73,1.73,1.73,0,0,0,2.62,0Z"/><path class="cls-2" d="M125.23,34.92h.17v2l-.33,0h-.23a1.62,1.62,0,0,0-1.58.77A3,3,0,0,0,123,39v3.56h-2V35.09h1.86v1.3a4.23,4.23,0,0,1,.79-1,2.14,2.14,0,0,1,1.42-.45Z"/><path class="cls-2" d="M131.39,35.25a3,3,0,0,1,1.29,1.1,3.56,3.56,0,0,1,.6,1.54,9.86,9.86,0,0,1,.06,1.48h-5.43a1.79,1.79,0,0,0,.78,1.57,2.06,2.06,0,0,0,1.08.28,1.64,1.64,0,0,0,1.08-.34,1.93,1.93,0,0,0,.4-.51h2a2.38,2.38,0,0,1-.72,1.34,3.62,3.62,0,0,1-2.81,1.09,4.07,4.07,0,0,1-2.62-.92,3.6,3.6,0,0,1-1.14-3,4,4,0,0,1,1-3,3.57,3.57,0,0,1,2.66-1A4.11,4.11,0,0,1,131.39,35.25Zm-2.91,1.68a2,2,0,0,0-.52,1.15h3.36a1.65,1.65,0,0,0-.52-1.18,1.76,1.76,0,0,0-1.16-.4A1.51,1.51,0,0,0,128.48,36.93Z"/><path class="cls-2" d="M135.84,40.17a1.32,1.32,0,0,0,.26.73,1.83,1.83,0,0,0,1.35.39,2,2,0,0,0,.92-.17.57.57,0,0,0,.06-1,11.49,11.49,0,0,0-2-.59,4.25,4.25,0,0,1-1.78-.78,1.7,1.7,0,0,1-.52-1.34,2.34,2.34,0,0,1,.81-1.78,3.27,3.27,0,0,1,2.28-.74,4.23,4.23,0,0,1,2.28.56,2.38,2.38,0,0,1,1,1.92h-1.95a1.09,1.09,0,0,0-.21-.59,1.33,1.33,0,0,0-1.1-.4,1.63,1.63,0,0,0-.91.2A.57.57,0,0,0,136,37a.51.51,0,0,0,.29.49,12.34,12.34,0,0,0,2,.54,3.72,3.72,0,0,1,1.74.83,1.89,1.89,0,0,1,.58,1.4,2.27,2.27,0,0,1-.83,1.81,3.92,3.92,0,0,1-2.55.7,3.86,3.86,0,0,1-2.6-.74,2.43,2.43,0,0,1-.84-1.89Z"/></g></g></svg>