<svg xmlns="http://www.w3.org/2000/svg" xmlns:xlink="http://www.w3.org/1999/xlink" viewBox="0 0 317.3 116.7"><defs><style>.cls-1{isolation:isolate;}.cls-2,.cls-3{fill:#555;}.cls-2{fill-rule:evenodd;}.cls-4{fill:#00369c;}.cls-5{fill:url(#linear-gradient);}.cls-6{fill:url(#linear-gradient-2);}.cls-7{fill:url(#linear-gradient-3);}.cls-8{fill:url(#linear-gradient-4);}.cls-9{fill:url(#linear-gradient-5);}.cls-10{fill:url(#linear-gradient-6);}.cls-11{fill:url(#linear-gradient-7);}.cls-12{fill:url(#linear-gradient-8);}.cls-13{fill:url(#linear-gradient-9);}.cls-14{fill:url(#linear-gradient-10);}.cls-15{fill:url(#linear-gradient-11);}.cls-16{fill:url(#linear-gradient-12);}.cls-17{fill:url(#linear-gradient-13);}.cls-18{fill:url(#linear-gradient-14);}.cls-19{fill:url(#linear-gradient-15);}.cls-20{fill:url(#linear-gradient-16);}.cls-21{fill:url(#linear-gradient-17);}.cls-22{fill:url(#linear-gradient-18);}.cls-23{fill:url(#Degradado_sin_nombre_3);}.cls-24{fill:url(#Degradado_sin_nombre_3-2);}.cls-25{fill:url(#Degradado_sin_nombre_3-3);}.cls-26{fill:url(#linear-gradient-19);}.cls-27{fill:url(#linear-gradient-20);}.cls-28{fill:url(#linear-gradient-21);}.cls-29{fill:url(#linear-gradient-22);}.cls-30{fill:url(#linear-gradient-23);}.cls-31{fill:url(#linear-gradient-24);}.cls-32{fill:url(#linear-gradient-25);}.cls-33{fill:url(#linear-gradient-26);}.cls-34{fill:url(#linear-gradient-27);}.cls-35{fill:url(#linear-gradient-28);}.cls-36{fill:url(#linear-gradient-29);}.cls-37{fill:url(#linear-gradient-30);}.cls-38{fill:url(#linear-gradient-31);}.cls-39{fill:url(#linear-gradient-32);}.cls-40{fill:url(#linear-gradient-33);}.cls-41{fill:url(#linear-gradient-34);}.cls-42{fill:url(#linear-gradient-35);}.cls-43{fill:url(#linear-gradient-36);}.cls-44{fill:url(#linear-gradient-37);}.cls-45{fill:url(#linear-gradient-38);}.cls-46{fill:url(#linear-gradient-39);}.cls-47{fill:url(#linear-gradient-40);}.cls-48{fill:url(#linear-gradient-41);}.cls-49{fill:url(#linear-gradient-42);}.cls-50{fill:url(#linear-gradient-43);}.cls-51{fill:url(#linear-gradient-44);}.cls-52{fill:url(#linear-gradient-45);}.cls-53{fill:url(#linear-gradient-46);}.cls-54{fill:url(#linear-gradient-47);}.cls-55{fill:url(#linear-gradient-48);}.cls-56{fill:url(#linear-gradient-49);}.cls-57{fill:url(#linear-gradient-50);}.cls-58{fill:url(#linear-gradient-51);}.cls-59{fill:url(#linear-gradient-52);}.cls-60{fill:url(#linear-gradient-53);}.cls-61{fill:url(#linear-gradient-54);}.cls-62{fill:url(#linear-gradient-55);}.cls-63{fill:url(#linear-gradient-56);}.cls-64{fill:url(#linear-gradient-57);}.cls-65{fill:url(#linear-gradient-58);}.cls-66{fill:url(#linear-gradient-59);}.cls-67{fill:url(#linear-gradient-60);}.cls-68{fill:url(#linear-gradient-61);}.cls-69{fill:url(#linear-gradient-62);}.cls-70{fill:url(#linear-gradient-63);}.cls-71{fill:url(#linear-gradient-64);}.cls-72{fill:url(#linear-gradient-65);}.cls-73{fill:url(#linear-gradient-66);}.cls-74{fill:url(#linear-gradient-67);}.cls-75{fill:url(#linear-gradient-68);}.cls-76{fill:url(#linear-gradient-69);}.cls-77{opacity:0.5;}.cls-77,.cls-78,.cls-79,.cls-80,.cls-81,.cls-82,.cls-83,.cls-84,.cls-85,.cls-86,.cls-87,.cls-88,.cls-89,.cls-90,.cls-91,.cls-92,.cls-93,.cls-94,.cls-95{mix-blend-mode:multiply;}.cls-78,.cls-79,.cls-80,.cls-81,.cls-82,.cls-83,.cls-84,.cls-85,.cls-86,.cls-87,.cls-88,.cls-89,.cls-90,.cls-91,.cls-92,.cls-93,.cls-94,.cls-95{opacity:0.55;}.cls-78{fill:url(#linear-gradient-70);}.cls-79{fill:url(#linear-gradient-71);}.cls-80{fill:url(#linear-gradient-72);}.cls-81{fill:url(#linear-gradient-73);}.cls-82{fill:url(#linear-gradient-74);}.cls-83{fill:url(#linear-gradient-75);}.cls-84{fill:url(#linear-gradient-76);}.cls-85{fill:url(#linear-gradient-77);}.cls-86{fill:url(#linear-gradient-78);}.cls-87{fill:url(#linear-gradient-79);}.cls-88{fill:url(#linear-gradient-80);}.cls-89{fill:url(#linear-gradient-81);}.cls-90{fill:url(#linear-gradient-82);}.cls-91{fill:url(#linear-gradient-83);}.cls-92{fill:url(#linear-gradient-84);}.cls-93{fill:url(#linear-gradient-85);}.cls-94{fill:url(#linear-gradient-86);}.cls-95{fill:url(#linear-gradient-87);}</style><linearGradient id="linear-gradient" x1="-329.19" y1="92.45" x2="-328.94" y2="109.12" gradientTransform="translate(375.25 -32.95)" gradientUnits="userSpaceOnUse"><stop offset="0" stop-color="#761e28"/><stop offset="0.54" stop-color="#ba0d27"/></linearGradient><linearGradient id="linear-gradient-2" x1="-335.69" y1="96.23" x2="-335.48" y2="110.12" xlink:href="#linear-gradient"/><linearGradient id="linear-gradient-3" x1="-342.17" y1="100.02" x2="-342.02" y2="110.09" xlink:href="#linear-gradient"/><linearGradient id="linear-gradient-4" x1="-3425.73" y1="-6053.07" x2="-3425.86" y2="-6080.05" gradientTransform="translate(-3376.95 -5993.65) rotate(180)" gradientUnits="userSpaceOnUse"><stop offset="0" stop-color="#751e22"/><stop offset="0.54" stop-color="#9d1d2b"/><stop offset="1" stop-color="#ba0d27"/></linearGradient><linearGradient id="linear-gradient-5" x1="-3419.21" y1="-6057.16" x2="-3419.32" y2="-6079.34" xlink:href="#linear-gradient-4"/><linearGradient id="linear-gradient-6" x1="-3412.69" y1="-6060.74" x2="-3412.77" y2="-6076.96" xlink:href="#linear-gradient-4"/><linearGradient id="linear-gradient-7" x1="-3272.52" y1="590.16" x2="-3272.12" y2="615.86" gradientTransform="translate(1173.24 -3067.99) rotate(-60)" gradientUnits="userSpaceOnUse"><stop offset="0" stop-color="#c7642a"/><stop offset="0.34" stop-color="#d18338"/></linearGradient><linearGradient id="linear-gradient-8" x1="-3279.01" y1="593.95" x2="-3278.8" y2="607.84" xlink:href="#linear-gradient-7"/><linearGradient id="linear-gradient-9" x1="-3285.5" y1="597.74" x2="-3285.35" y2="607.81" xlink:href="#linear-gradient-7"/><linearGradient id="linear-gradient-10" x1="-481.85" y1="-6550.67" x2="-481.98" y2="-6577.65" gradientTransform="translate(-5864.44 -2799.36) rotate(120)" gradientUnits="userSpaceOnUse"><stop offset="0" stop-color="#be3d27"/><stop offset="0.89" stop-color="#d18338"/></linearGradient><linearGradient id="linear-gradient-11" x1="-475.32" y1="-6554.76" x2="-475.43" y2="-6576.93" xlink:href="#linear-gradient-10"/><linearGradient id="linear-gradient-12" x1="-468.81" y1="-6558.33" x2="-468.88" y2="-6574.55" xlink:href="#linear-gradient-10"/><linearGradient id="linear-gradient-13" x1="-5078.93" y1="-1831.79" x2="-5078.68" y2="-1815.11" gradientTransform="translate(-902.68 -5254.1) rotate(-120)" gradientUnits="userSpaceOnUse"><stop offset="0" stop-color="#ae8638"/><stop offset="0.46" stop-color="#eac933"/><stop offset="0.76" stop-color="#e0d635"/></linearGradient><linearGradient id="linear-gradient-14" x1="-5085.43" y1="-1828.01" x2="-5085.22" y2="-1814.12" xlink:href="#linear-gradient-13"/><linearGradient id="linear-gradient-15" x1="-5091.92" y1="-1824.22" x2="-5091.76" y2="-1814.15" xlink:href="#linear-gradient-13"/><linearGradient id="linear-gradient-16" x1="1324.18" y1="-4128.29" x2="1324.05" y2="-4155.27" gradientTransform="translate(-4188.17 975.23) rotate(60)" gradientUnits="userSpaceOnUse"><stop offset="0" stop-color="#aa7f38"/><stop offset="0.8" stop-color="#e0d635"/></linearGradient><linearGradient id="linear-gradient-17" x1="1330.7" y1="-4132.37" x2="1330.6" y2="-4154.55" xlink:href="#linear-gradient-16"/><linearGradient id="linear-gradient-18" x1="1337.22" y1="-4135.96" x2="1337.14" y2="-4152.17" xlink:href="#linear-gradient-16"/><linearGradient id="Degradado_sin_nombre_3" x1="-3981.02" y1="-4485.64" x2="-3980.76" y2="-4468.96" gradientTransform="translate(-3930.19 -4428.02) rotate(180)" gradientUnits="userSpaceOnUse"><stop offset="0" stop-color="#487f4b"/><stop offset="0.52" stop-color="#92b33c"/></linearGradient><linearGradient id="Degradado_sin_nombre_3-2" x1="-3987.51" y1="-4481.86" x2="-3987.3" y2="-4467.96" xlink:href="#Degradado_sin_nombre_3"/><linearGradient id="Degradado_sin_nombre_3-3" x1="-3994" y1="-4478.07" x2="-3993.84" y2="-4467.99" xlink:href="#Degradado_sin_nombre_3"/><linearGradient id="linear-gradient-19" x1="226.09" y1="-1474.99" x2="225.96" y2="-1501.97" gradientTransform="translate(-177.99 1532.68)" gradientUnits="userSpaceOnUse"><stop offset="0" stop-color="#487f48"/><stop offset="1" stop-color="#92b33b"/></linearGradient><linearGradient id="linear-gradient-20" x1="232.62" y1="-1479.08" x2="232.51" y2="-1501.25" xlink:href="#linear-gradient-19"/><linearGradient id="linear-gradient-21" x1="239.14" y1="-1482.66" x2="239.06" y2="-1498.87" xlink:href="#linear-gradient-19"/><linearGradient id="linear-gradient-22" x1="-960.07" y1="-5239.91" x2="-959.82" y2="-5223.23" gradientTransform="translate(-4968.98 -1732.51) rotate(120)" gradientUnits="userSpaceOnUse"><stop offset="0" stop-color="#2d3e70"/><stop offset="0.48" stop-color="#2f3876"/></linearGradient><linearGradient id="linear-gradient-23" x1="-966.57" y1="-5236.12" x2="-966.36" y2="-5222.23" xlink:href="#linear-gradient-22"/><linearGradient id="linear-gradient-24" x1="-973.06" y1="-5232.33" x2="-972.9" y2="-5222.26" xlink:href="#linear-gradient-22"/><linearGradient id="linear-gradient-25" x1="-2794.29" y1="-720.6" x2="-2794.42" y2="-747.58" gradientTransform="translate(2068.7 -2001.14) rotate(-60)" gradientUnits="userSpaceOnUse"><stop offset="0" stop-color="#293155"/><stop offset="0.48" stop-color="#3e659c"/><stop offset="1" stop-color="#2f3876"/></linearGradient><linearGradient id="linear-gradient-26" x1="-2787.77" y1="-724.69" x2="-2787.88" y2="-746.87" xlink:href="#linear-gradient-25"/><linearGradient id="linear-gradient-27" x1="-2781.25" y1="-728.27" x2="-2781.33" y2="-744.48" xlink:href="#linear-gradient-25"/><linearGradient id="linear-gradient-28" x1="1029.71" y1="-2622.45" x2="1029.96" y2="-2605.77" gradientTransform="translate(-2739.46 476.46) rotate(60)" gradientUnits="userSpaceOnUse"><stop offset="0" stop-color="#231a30"/><stop offset="0.54" stop-color="#1f1f35"/></linearGradient><linearGradient id="linear-gradient-29" x1="1023.21" y1="-2618.67" x2="1023.42" y2="-2604.77" xlink:href="#linear-gradient-28"/><linearGradient id="linear-gradient-30" x1="1016.73" y1="-2614.87" x2="1016.88" y2="-2604.8" xlink:href="#linear-gradient-28"/><linearGradient id="linear-gradient-31" x1="-4784.46" y1="-3337.63" x2="-4784.59" y2="-3364.61" gradientTransform="translate(546.02 -5752.87) rotate(-120)" gradientUnits="userSpaceOnUse"><stop offset="0" stop-color="#1c1520"/><stop offset="0.42" stop-color="#2b1830"/></linearGradient><linearGradient id="linear-gradient-32" x1="-4777.94" y1="-3341.72" x2="-4778.04" y2="-3363.9" xlink:href="#linear-gradient-31"/><linearGradient id="linear-gradient-33" x1="22.13" y1="59.02" x2="35.25" y2="51.65" gradientTransform="matrix(1, 0, 0, 1, 0, 0)" xlink:href="#linear-gradient-31"/><linearGradient id="linear-gradient-34" x1="-4742.3" y1="-3400.86" x2="-4742.44" y2="-3427.76" gradientTransform="translate(621.01 -5748.54) rotate(-120)" gradientUnits="userSpaceOnUse"><stop offset="0" stop-color="#351d3d"/><stop offset="0.5" stop-color="#6e297d"/><stop offset="1" stop-color="#73297d" stop-opacity="0"/></linearGradient><linearGradient id="linear-gradient-35" x1="-4735.78" y1="-3404.58" x2="-4735.9" y2="-3426.98" xlink:href="#linear-gradient-34"/><linearGradient id="linear-gradient-36" x1="-4729.35" y1="-3408.28" x2="-4729.44" y2="-3424.5" xlink:href="#linear-gradient-34"/><linearGradient id="linear-gradient-37" x1="-3340.93" y1="-6867.54" x2="-3341.07" y2="-6894.43" gradientTransform="translate(-3293.03 -6807.66) rotate(180)" gradientUnits="userSpaceOnUse"><stop offset="0" stop-color="#a01c25"/><stop offset="1" stop-color="#ba0c2a" stop-opacity="0"/></linearGradient><linearGradient id="linear-gradient-38" x1="-3334.41" y1="-6871.25" x2="-3334.53" y2="-6893.66" xlink:href="#linear-gradient-37"/><linearGradient id="linear-gradient-39" x1="-3327.98" y1="-6874.96" x2="-3328.07" y2="-6891.18" xlink:href="#linear-gradient-37"/><linearGradient id="linear-gradient-40" x1="293.8" y1="-7336.91" x2="293.65" y2="-7363.8" gradientTransform="translate(-6157.55 -3863.18) rotate(120)" gradientUnits="userSpaceOnUse"><stop offset="0" stop-color="#dfab36" stop-opacity="0.35"/><stop offset="0.5" stop-color="#e7d841"/><stop offset="1" stop-color="#dfab36" stop-opacity="0"/></linearGradient><linearGradient id="linear-gradient-41" x1="300.31" y1="-7340.62" x2="300.19" y2="-7363.03" xlink:href="#linear-gradient-40"/><linearGradient id="linear-gradient-42" x1="306.76" y1="-7344.31" x2="306.67" y2="-7360.53" xlink:href="#linear-gradient-40"/><linearGradient id="linear-gradient-43" x1="2457.91" y1="-4353.09" x2="2457.77" y2="-4379.98" gradientTransform="translate(-4948.86 106.37) rotate(60)" gradientUnits="userSpaceOnUse"><stop offset="0" stop-color="#e8d941" stop-opacity="0.35"/><stop offset="0.5" stop-color="#e8d941"/><stop offset="1" stop-color="#dfd73f" stop-opacity="0"/></linearGradient><linearGradient id="linear-gradient-44" x1="2464.43" y1="-4356.8" x2="2464.3" y2="-4379.21" xlink:href="#linear-gradient-43"/><linearGradient id="linear-gradient-45" x1="2470.88" y1="-4360.5" x2="2470.79" y2="-4376.71" xlink:href="#linear-gradient-43"/><linearGradient id="linear-gradient-46" x1="932.83" y1="-942.34" x2="932.68" y2="-969.23" gradientTransform="translate(-883.85 999.57)" gradientUnits="userSpaceOnUse"><stop offset="0" stop-color="#b9c647" stop-opacity="0.35"/><stop offset="0.5" stop-color="#dcd434"/><stop offset="1" stop-color="#b9c647" stop-opacity="0"/></linearGradient><linearGradient id="linear-gradient-47" x1="939.34" y1="-946.05" x2="939.22" y2="-968.46" xlink:href="#linear-gradient-46"/><linearGradient id="linear-gradient-48" x1="945.79" y1="-949.75" x2="945.7" y2="-965.96" xlink:href="#linear-gradient-46"/><linearGradient id="linear-gradient-49" x1="-2852.92" y1="-481.11" x2="-2853.07" y2="-508" gradientTransform="translate(1890.66 -2172.65) rotate(-60)" gradientUnits="userSpaceOnUse"><stop offset="0" stop-color="#355d97" stop-opacity="0.35"/><stop offset="0.5" stop-color="#355d97"/><stop offset="1" stop-color="#355d97" stop-opacity="0"/></linearGradient><linearGradient id="linear-gradient-50" x1="-2846.4" y1="-484.82" x2="-2846.53" y2="-507.23" xlink:href="#linear-gradient-49"/><linearGradient id="linear-gradient-51" x1="-2839.96" y1="-488.51" x2="-2840.04" y2="-504.73" xlink:href="#linear-gradient-49"/><linearGradient id="linear-gradient-52" x1="47.09" y1="53.56" x2="27.11" y2="42.33" gradientUnits="userSpaceOnUse"><stop offset="0.01" stop-color="#5a9ed2" stop-opacity="0"/><stop offset="0.28" stop-color="#fff"/><stop offset="0.69" stop-color="#fff"/><stop offset="1" stop-color="#5a9ed2" stop-opacity="0"/></linearGradient><linearGradient id="linear-gradient-53" x1="46.99" y1="46.09" x2="32.17" y2="37.57" xlink:href="#linear-gradient-52"/><linearGradient id="linear-gradient-54" x1="47.03" y1="38.46" x2="38.16" y2="33.4" xlink:href="#linear-gradient-52"/><linearGradient id="linear-gradient-55" x1="1425.23" y1="-1738.48" x2="1405.24" y2="-1749.7" gradientTransform="translate(-2166.15 -310.25) rotate(60)" xlink:href="#linear-gradient-52"/><linearGradient id="linear-gradient-56" x1="1425.12" y1="-1745.95" x2="1410.3" y2="-1754.47" gradientTransform="translate(-2166.15 -310.25) rotate(60)" xlink:href="#linear-gradient-52"/><linearGradient id="linear-gradient-57" x1="1425.17" y1="-1753.58" x2="1416.3" y2="-1758.64" gradientTransform="translate(-2166.15 -310.25) rotate(60)" xlink:href="#linear-gradient-52"/><linearGradient id="linear-gradient-58" x1="-2214.18" y1="-122.71" x2="-2234.17" y2="-133.94" gradientTransform="translate(1256.93 -1798.91) rotate(-60)" gradientUnits="userSpaceOnUse"><stop offset="0.01" stop-color="#2c1f3e" stop-opacity="0"/><stop offset="0.28" stop-color="#fff"/><stop offset="0.69" stop-color="#fff"/><stop offset="1" stop-color="#2c1f3e" stop-opacity="0"/></linearGradient><linearGradient id="linear-gradient-59" x1="-2214.29" y1="-130.19" x2="-2229.11" y2="-138.7" xlink:href="#linear-gradient-58"/><linearGradient id="linear-gradient-60" x1="-2214.25" y1="-137.81" x2="-2223.12" y2="-142.87" xlink:href="#linear-gradient-58"/><linearGradient id="linear-gradient-61" x1="-3137.21" y1="-2098.9" x2="-3157.19" y2="-2110.12" gradientTransform="translate(293.96 -3704.24) rotate(-120)" gradientUnits="userSpaceOnUse"><stop offset="0.01" stop-color="#ba0b2f" stop-opacity="0"/><stop offset="0.28" stop-color="#fff"/><stop offset="0.69" stop-color="#fff"/><stop offset="1" stop-color="#ba0b2f" stop-opacity="0"/></linearGradient><linearGradient id="linear-gradient-62" x1="-3137.31" y1="-2106.37" x2="-3152.13" y2="-2114.89" xlink:href="#linear-gradient-61"/><linearGradient id="linear-gradient-63" x1="-3137.27" y1="-2114" x2="-3146.14" y2="-2119.06" xlink:href="#linear-gradient-61"/><linearGradient id="linear-gradient-64" x1="-1891.15" y1="-3832.42" x2="-1911.14" y2="-3843.64" gradientTransform="translate(-1841.55 -3769.11) rotate(180)" gradientUnits="userSpaceOnUse"><stop offset="0.01" stop-color="#d18436" stop-opacity="0"/><stop offset="0.28" stop-color="#fff"/><stop offset="0.69" stop-color="#fff"/><stop offset="1" stop-color="#d18436" stop-opacity="0"/></linearGradient><linearGradient id="linear-gradient-65" x1="-1891.26" y1="-3839.89" x2="-1906.08" y2="-3848.4" xlink:href="#linear-gradient-64"/><linearGradient id="linear-gradient-66" x1="-1891.22" y1="-3847.51" x2="-1900.09" y2="-3852.57" xlink:href="#linear-gradient-64"/><linearGradient id="linear-gradient-67" x1="253.98" y1="-3526.15" x2="233.99" y2="-3537.38" gradientTransform="translate(-2873.08 -1923.34) rotate(120)" gradientUnits="userSpaceOnUse"><stop offset="0.01" stop-color="#dfd73f" stop-opacity="0"/><stop offset="0.28" stop-color="#fff"/><stop offset="0.69" stop-color="#fff"/><stop offset="1" stop-color="#dfd73f" stop-opacity="0"/></linearGradient><linearGradient id="linear-gradient-68" x1="253.87" y1="-3533.62" x2="239.05" y2="-3542.14" xlink:href="#linear-gradient-67"/><linearGradient id="linear-gradient-69" x1="253.91" y1="-3541.25" x2="245.04" y2="-3546.31" xlink:href="#linear-gradient-67"/><linearGradient id="linear-gradient-70" x1="33.6" y1="68.4" x2="33.6" y2="72.63" gradientUnits="userSpaceOnUse"><stop offset="0" stop-color="#737373"/><stop offset="1" stop-color="#fff" stop-opacity="0"/></linearGradient><linearGradient id="linear-gradient-71" x1="40.14" y1="64.5" x2="40.14" y2="68.88" xlink:href="#linear-gradient-70"/><linearGradient id="linear-gradient-72" x1="46.26" y1="61.03" x2="46.26" y2="65.13" xlink:href="#linear-gradient-70"/><linearGradient id="linear-gradient-73" x1="-2897.8" y1="535.29" x2="-2897.8" y2="539.51" gradientTransform="translate(1034.89 -2700.8) rotate(-60)" xlink:href="#linear-gradient-70"/><linearGradient id="linear-gradient-74" x1="-2891.26" y1="531.38" x2="-2891.26" y2="535.76" gradientTransform="translate(1034.89 -2700.8) rotate(-60)" xlink:href="#linear-gradient-70"/><linearGradient id="linear-gradient-75" x1="-2885.14" y1="527.92" x2="-2885.14" y2="532.01" gradientTransform="translate(1034.89 -2700.8) rotate(-60)" xlink:href="#linear-gradient-70"/><linearGradient id="linear-gradient-76" x1="-4703.29" y1="-1757.33" x2="-4703.29" y2="-1753.1" gradientTransform="translate(-765.4 -4885.23) rotate(-120)" xlink:href="#linear-gradient-70"/><linearGradient id="linear-gradient-77" x1="-4696.76" y1="-1761.23" x2="-4696.76" y2="-1756.85" gradientTransform="translate(-765.4 -4885.23) rotate(-120)" xlink:href="#linear-gradient-70"/><linearGradient id="linear-gradient-78" x1="-4690.63" y1="-1764.7" x2="-4690.63" y2="-1760.61" gradientTransform="translate(-765.4 -4885.23) rotate(-120)" xlink:href="#linear-gradient-70"/><linearGradient id="linear-gradient-79" x1="-3711.2" y1="-4654.46" x2="-3711.2" y2="-4650.23" gradientTransform="translate(-3647.91 -4605.74) rotate(180)" xlink:href="#linear-gradient-70"/><linearGradient id="linear-gradient-80" x1="-3704.66" y1="-4658.36" x2="-3704.66" y2="-4653.98" gradientTransform="translate(-3647.91 -4605.74) rotate(180)" xlink:href="#linear-gradient-70"/><linearGradient id="linear-gradient-81" x1="-3698.54" y1="-4661.83" x2="-3698.54" y2="-4657.73" gradientTransform="translate(-3647.91 -4605.74) rotate(180)" xlink:href="#linear-gradient-70"/><linearGradient id="linear-gradient-82" x1="-680.1" y1="-5069.38" x2="-680.1" y2="-5065.16" gradientTransform="translate(-4682.8 -1904.95) rotate(120)" xlink:href="#linear-gradient-70"/><linearGradient id="linear-gradient-83" x1="-673.56" y1="-5073.29" x2="-673.56" y2="-5068.91" gradientTransform="translate(-4682.8 -1904.95) rotate(120)" xlink:href="#linear-gradient-70"/><linearGradient id="linear-gradient-84" x1="-667.44" y1="-5076.75" x2="-667.44" y2="-5072.66" gradientTransform="translate(-4682.8 -1904.95) rotate(120)" xlink:href="#linear-gradient-70"/><linearGradient id="linear-gradient-85" x1="1259.36" y1="-2638.93" x2="1259.36" y2="-2634.7" gradientTransform="translate(-2882.51 279.49) rotate(60)" xlink:href="#linear-gradient-70"/><linearGradient id="linear-gradient-86" x1="1265.9" y1="-2642.83" x2="1265.9" y2="-2638.46" gradientTransform="translate(-2882.51 279.49) rotate(60)" xlink:href="#linear-gradient-70"/><linearGradient id="linear-gradient-87" x1="1272.03" y1="-2646.3" x2="1272.03" y2="-2642.21" gradientTransform="translate(-2882.51 279.49) rotate(60)" xlink:href="#linear-gradient-70"/></defs><g class="cls-1"><g id="Capa_2" data-name="Capa 2"><g id="Capa_1-2" data-name="Capa 1"><path class="cls-2" d="M5.58,78.35a1.3,1.3,0,0,0,1-.32,1.05,1.05,0,0,0,.35-.81,1.07,1.07,0,0,0-.35-.82,1.45,1.45,0,0,0-1-.33,2,2,0,0,0-.71.15,1.11,1.11,0,0,0-.46.39,1.19,1.19,0,0,0-.17.6,1.17,1.17,0,0,0,.32.81,1.42,1.42,0,0,0,1.07.33m0,.45a1.82,1.82,0,0,1-1.3-.43,1.52,1.52,0,0,1-.47-1.16A1.69,1.69,0,0,1,4,76.38a1.47,1.47,0,0,1,.62-.56,2,2,0,0,1,.88-.2,2,2,0,0,1,.91.21,1.3,1.3,0,0,1,.6.58,1.52,1.52,0,0,1,.22.81,1.63,1.63,0,0,1-.23.84,1.49,1.49,0,0,1-.63.56,1.79,1.79,0,0,1-.82.18M6.8,83.71V83a1.48,1.48,0,0,0-.06-.52.62.62,0,0,0-.17-.3,1.2,1.2,0,0,0-.42-.25,2,2,0,0,0-.64-.08A1.63,1.63,0,0,0,4.7,82a.76.76,0,0,0-.36.42,1.32,1.32,0,0,0-.08.56v.71Zm.4.44H3.87V83a2.17,2.17,0,0,1,.06-.59,1,1,0,0,1,.22-.49,1.34,1.34,0,0,1,.58-.4,2.15,2.15,0,0,1,.79-.12,2.19,2.19,0,0,1,.66.09,1.6,1.6,0,0,1,.49.22A1,1,0,0,1,7,82a1.18,1.18,0,0,1,.17.39,2.09,2.09,0,0,1,.06.53ZM5.84,88.76V87.63L4.91,88l-.68.23a4,4,0,0,1,.63.18Zm1.36,1L3.87,88.44V88L7.2,86.61v.5l-1,.39v1.39l1,.37Zm0,4.36H3.87v-.45H6.8V92h.4Zm0,3.3H3.87V97H7.2Zm-1.3,4.25H5.51v-1.41H6.73a2.17,2.17,0,0,1,.39.67,2,2,0,0,1,.14.71,1.75,1.75,0,0,1-.22.89,1.36,1.36,0,0,1-.6.61,1.91,1.91,0,0,1-.89.2,1.92,1.92,0,0,1-.9-.2,1.36,1.36,0,0,1-.64-.59,1.86,1.86,0,0,1-.2-.87,1.56,1.56,0,0,1,.13-.66,1.17,1.17,0,0,1,.31-.46,1.55,1.55,0,0,1,.55-.24l.11.39a1.07,1.07,0,0,0-.4.19.66.66,0,0,0-.23.32,1.24,1.24,0,0,0-.09.45,1.52,1.52,0,0,0,.09.52,1,1,0,0,0,.58.57,1.78,1.78,0,0,0,.67.13,1.53,1.53,0,0,0,.74-.16.94.94,0,0,0,.44-.44,1.45,1.45,0,0,0,.15-.62,1.52,1.52,0,0,0-.12-.56,1.61,1.61,0,0,0-.23-.42H5.9Zm1.3,4.88H3.87v-.43H7.2Zm0,4.34-3.33,1.29v-.47l2.42-.86a4.88,4.88,0,0,1,.54-.18q-.27-.07-.54-.18l-2.42-.9v-.45l3.33,1.3Z"/><path class="cls-2" d="M3.42,2V1l-.85.32-.64.22a4.31,4.31,0,0,1,.59.16Zm1.26.88L1.61,1.69V1.25L4.68,0V.46L3.76.82V2.11l.92.33ZM3,5.23V4.35a1.33,1.33,0,0,0-.06-.44.57.57,0,0,0-.19-.24.61.61,0,0,0-.28-.07.47.47,0,0,0-.35.15.76.76,0,0,0-.15.51v1Zm1.71.41H1.61V4.27a1.66,1.66,0,0,1,.08-.62A.65.65,0,0,1,2,3.31a.75.75,0,0,1,.46-.13A.78.78,0,0,1,3,3.39a1.13,1.13,0,0,1,.29.66.63.63,0,0,1,.15-.25,1.5,1.5,0,0,1,.4-.34l.84-.53v.51L4,3.85l-.42.28a2,2,0,0,0-.21.21.77.77,0,0,0-.08.19,1.13,1.13,0,0,0,0,.23v.47H4.68Zm0,2.86H1.61V6.28H2V8.09h.94V6.39h.37v1.7h1V6.21h.36Zm0,1.13H1.61v-.4H4.68Zm-1.07,1,.1-.41a1.45,1.45,0,0,1,.76.46,1.28,1.28,0,0,1,.26.82,1.52,1.52,0,0,1-.19.81,1.26,1.26,0,0,1-.59.47,2,2,0,0,1-.83.16,1.86,1.86,0,0,1-.84-.17,1.31,1.31,0,0,1-.54-.53,1.46,1.46,0,0,1-.19-.74,1.2,1.2,0,0,1,.25-.78,1.14,1.14,0,0,1,.65-.44l.1.4a1,1,0,0,0-.5.31.85.85,0,0,0-.15.51,1,1,0,0,0,.18.6.89.89,0,0,0,.45.33,1.7,1.7,0,0,0,.59.1,2,2,0,0,0,.68-.11A.84.84,0,0,0,4.24,12a1,1,0,0,0,.15-.52.94.94,0,0,0-.2-.59,1,1,0,0,0-.58-.32m1.07,5.3H1.61V15.5L4,13.89H1.61V13.5H4.68v.41L2.26,15.53H4.68ZM3.42,18.24v-1l-.85.33-.64.21a3.28,3.28,0,0,1,.59.17Zm1.26.88L1.61,17.94V17.5l3.07-1.25v.45l-.92.36v1.29l.92.34Zm0,2.77H1.61v-.42L4,19.85H1.61v-.39H4.68v.43L2.26,21.5H4.68Zm0,1.12H1.61v-.4H4.68Zm0,2.68H1.61V23.61H2v1.67h1V23.84h.37v1.44H4.68ZM3.42,29.22v-1l-.85.32-.64.22a4.31,4.31,0,0,1,.59.16Zm1.26.89L1.61,28.93v-.44l3.07-1.26v.46l-.92.37v1.27l.92.35Zm0,.79H1.61v-.42H4.68Zm-1.07,1,.1-.41a1.24,1.24,0,0,1,1,1.27,1.52,1.52,0,0,1-.19.81A1.34,1.34,0,0,1,4,34a2.23,2.23,0,0,1-.83.16A1.86,1.86,0,0,1,2.28,34a1.24,1.24,0,0,1-.54-.52,1.47,1.47,0,0,1-.19-.75A1.19,1.19,0,0,1,1.8,32a1.14,1.14,0,0,1,.65-.44l.1.4a1,1,0,0,0-.5.31.83.83,0,0,0-.15.51,1,1,0,0,0,.18.6.89.89,0,0,0,.45.33,1.7,1.7,0,0,0,.59.1,1.79,1.79,0,0,0,.68-.12.8.8,0,0,0,.44-.36,1,1,0,0,0,.15-.52.86.86,0,0,0-.2-.57,1,1,0,0,0-.58-.32m1.07,5.3H1.61v-.42L4,35.14H1.61v-.39H4.68v.43L2.26,36.79H4.68Zm0,2.86H1.61V37.81H2v1.81h.94v-1.7h.37v1.7h1V37.74h.36Zm-.36,2.71v-.67a1.86,1.86,0,0,0-.05-.47.78.78,0,0,0-.17-.28,1.07,1.07,0,0,0-.38-.23,2.1,2.1,0,0,0-.6-.07,1.39,1.39,0,0,0-.74.15.83.83,0,0,0-.35.38A1.78,1.78,0,0,0,2,42.1v.65Zm.36.4H1.61V42.08a3.66,3.66,0,0,1,0-.54,1.17,1.17,0,0,1,.23-.46,1.33,1.33,0,0,1,.52-.35,1.92,1.92,0,0,1,.74-.13,2,2,0,0,1,.62.09,1.39,1.39,0,0,1,.44.19,1.32,1.32,0,0,1,.29.29,1.2,1.2,0,0,1,.15.37,1.89,1.89,0,0,1,0,.49Zm0,3.11H1.61v-.42L4,44.22H1.61v-.39H4.68v.42L2.26,45.87H4.68Zm0,2.85H1.61V46.89H2V48.7h.94V47h.37v1.7h1V46.81h.36Zm0,1.86H2v1H1.61V49.54H2v1H4.68Zm0,3.88H1.61v-.42L4,52.82H1.61v-.39H4.68v.42L2.26,54.46H4.68Zm0,1.12H1.61v-.4H4.68ZM3,58.74v-.88a1.29,1.29,0,0,0-.06-.44.57.57,0,0,0-.19-.24.51.51,0,0,0-.28-.08.48.48,0,0,0-.35.16.73.73,0,0,0-.15.5v1Zm1.71.41H1.61V57.78a1.69,1.69,0,0,1,.08-.62A.71.71,0,0,1,2,56.81a.82.82,0,0,1,.46-.13A.75.75,0,0,1,3,56.9a1.1,1.1,0,0,1,.29.66.77.77,0,0,1,.15-.26,1.68,1.68,0,0,1,.4-.33l.84-.54V57l-.64.4-.42.3a1,1,0,0,0-.21.2.77.77,0,0,0-.08.19,1.09,1.09,0,0,0,0,.22v.48H4.68Zm0,2.86H1.61V59.78H2V61.6h.94V59.89h.37V61.6h1V59.71h.36ZM3.07,64.48v-.8a.82.82,0,0,0-.15-.56A.51.51,0,0,0,2.51,63a.52.52,0,0,0-.33.1.4.4,0,0,0-.18.26,1.41,1.41,0,0,0,0,.37v.79Zm1.61.41H1.61V63.72a2.83,2.83,0,0,1,0-.46,1,1,0,0,1,.15-.38.63.63,0,0,1,.3-.25.81.81,0,0,1,.42-.09.91.91,0,0,1,.66.24,1.21,1.21,0,0,1,.27.91v.79H4.68ZM1.61,66v-.4H3.39a2,2,0,0,1,.73.11.94.94,0,0,1,.45.37,1.42,1.42,0,0,1,.16.72,1.52,1.52,0,0,1-.14.72,1,1,0,0,1-.43.39,2.07,2.07,0,0,1-.77.12H1.61v-.41H3.37A1.72,1.72,0,0,0,4,67.5a.63.63,0,0,0,.3-.26.82.82,0,0,0,.11-.44.84.84,0,0,0-.22-.64,1.14,1.14,0,0,0-.79-.2ZM3.7,71l0-.39A.74.74,0,0,0,4,70.49a.7.7,0,0,0,.24-.31,1.21,1.21,0,0,0,.1-.48,1.07,1.07,0,0,0-.08-.41A.59.59,0,0,0,4.11,69a.44.44,0,0,0-.27-.09.49.49,0,0,0-.25.08.68.68,0,0,0-.18.28,4.46,4.46,0,0,0-.15.54,2.21,2.21,0,0,1-.19.6.93.93,0,0,1-.28.33.77.77,0,0,1-.39.11A.78.78,0,0,1,2,70.75a.91.91,0,0,1-.3-.39,1.43,1.43,0,0,1-.11-.56,1.66,1.66,0,0,1,.11-.61.82.82,0,0,1,.33-.4.81.81,0,0,1,.48-.15l0,.39a.59.59,0,0,0-.43.21.81.81,0,0,0-.15.54.88.88,0,0,0,.13.54.4.4,0,0,0,.32.17.34.34,0,0,0,.27-.12,1.58,1.58,0,0,0,.23-.61,4.15,4.15,0,0,1,.19-.69,1.18,1.18,0,0,1,.31-.4.86.86,0,0,1,.44-.12.81.81,0,0,1,.47.14,1,1,0,0,1,.34.4,1.41,1.41,0,0,1,.11.59,1.77,1.77,0,0,1-.11.7,1,1,0,0,1-.37.45A1.08,1.08,0,0,1,3.7,71M8.07,22.65v-1l-.84.32a6.2,6.2,0,0,1-.64.22,3.86,3.86,0,0,1,.58.17Zm1.28.89L6.26,22.36v-.44l3.09-1.27v.48l-.94.35v1.29l.94.33Zm0,.79H6.26v-.41H9.35ZM9,26.87v-.76a1.7,1.7,0,0,0,0-.28.67.67,0,0,0-.08-.24.5.5,0,0,0-.17-.15.53.53,0,0,0-.26-.07.49.49,0,0,0-.3.1.43.43,0,0,0-.17.24,1.14,1.14,0,0,0-.06.45v.71Zm-1.43,0v-.66a1.32,1.32,0,0,0,0-.39.42.42,0,0,0-.15-.23.4.4,0,0,0-.27-.08.42.42,0,0,0-.43.28,1.63,1.63,0,0,0,0,.48v.6Zm1.8.4H6.26V26.12a1.28,1.28,0,0,1,.1-.56.66.66,0,0,1,.29-.33.65.65,0,0,1,.4-.12.69.69,0,0,1,.37.1.82.82,0,0,1,.29.32A.68.68,0,0,1,8,25.12.71.71,0,0,1,8.45,25a1,1,0,0,1,.41.1.81.81,0,0,1,.28.22,1.06,1.06,0,0,1,.15.34,2.28,2.28,0,0,1,.06.5Zm0,3.59H6.26v-.62l2.18-.72.45-.15-.48-.17-2.15-.74v-.55H9.35v.4H6.76l2.59.89v.37l-2.63.9H9.35Zm-1.5,3a1.25,1.25,0,0,0,.88-.3,1,1,0,0,0,.32-.75,1,1,0,0,0-.33-.76,1.35,1.35,0,0,0-.92-.29,1.64,1.64,0,0,0-.65.12.89.89,0,0,0-.43.38,1,1,0,0,0-.16.54,1.05,1.05,0,0,0,.3.75,1.31,1.31,0,0,0,1,.31m0,.42a1.68,1.68,0,0,1-1.2-.41,1.39,1.39,0,0,1-.43-1.06,1.43,1.43,0,0,1,.2-.76A1.35,1.35,0,0,1,7,31.54a2,2,0,0,1,.83-.17,1.72,1.72,0,0,1,.83.19,1.2,1.2,0,0,1,.56.53,1.43,1.43,0,0,1,.2.75,1.48,1.48,0,0,1-.22.78,1.23,1.23,0,0,1-.57.51,1.71,1.71,0,0,1-.77.18m1.51,2.28H6.26v-.4H9V34.68h.37Zm-1.5,3a1.25,1.25,0,0,0,.88-.3,1,1,0,0,0,0-1.51,1.3,1.3,0,0,0-.92-.29,1.48,1.48,0,0,0-.65.12.93.93,0,0,0-.43.37,1.08,1.08,0,0,0-.16.56,1,1,0,0,0,.3.74,1.35,1.35,0,0,0,1,.31m0,.42a1.73,1.73,0,0,1-1.2-.41,1.39,1.39,0,0,1-.43-1.06,1.59,1.59,0,0,1,.2-.78A1.41,1.41,0,0,1,7,37.29a1.75,1.75,0,0,1,.83-.19,1.62,1.62,0,0,1,.83.2,1.2,1.2,0,0,1,.56.53,1.41,1.41,0,0,1,.2.75,1.44,1.44,0,0,1-.22.77,1.25,1.25,0,0,1-.57.52,1.71,1.71,0,0,1-.77.18m.43.78.1-.41a1.39,1.39,0,0,1,.76.46,1.32,1.32,0,0,1,.27.82,1.52,1.52,0,0,1-.21.81,1.3,1.3,0,0,1-.58.47,2.12,2.12,0,0,1-.83.17A1.86,1.86,0,0,1,6.94,43a1.27,1.27,0,0,1-.54-.51,1.61,1.61,0,0,1-.19-.76,1.22,1.22,0,0,1,.24-.77,1.15,1.15,0,0,1,.66-.44l.09.4a.93.93,0,0,0-.49.31.85.85,0,0,0-.15.51,1,1,0,0,0,.17.59.93.93,0,0,0,.46.34,1.87,1.87,0,0,0,.59.1,1.76,1.76,0,0,0,.68-.12.79.79,0,0,0,.44-.36,1,1,0,0,0,.15-.52.86.86,0,0,0-.2-.57.94.94,0,0,0-.58-.33m1.08,6.25H6.26V44.86h.36v1.81h1V45h.36v1.69H9V44.79h.37ZM9,49.79v-.66a1.56,1.56,0,0,0-.06-.48.71.71,0,0,0-.16-.28.9.9,0,0,0-.39-.21,1.7,1.7,0,0,0-.59-.09,1.38,1.38,0,0,0-.74.16.73.73,0,0,0-.35.39,1.57,1.57,0,0,0-.07.52v.65Zm.37.41H6.26V49.14a2.61,2.61,0,0,1,0-.56,1,1,0,0,1,.22-.44,1.3,1.3,0,0,1,.52-.37,2.12,2.12,0,0,1,.74-.13,1.72,1.72,0,0,1,.62.1,1.34,1.34,0,0,1,.45.21,1.2,1.2,0,0,1,.28.27,1.79,1.79,0,0,1,.15.37,2.36,2.36,0,0,1,.06.5Z"/><path class="cls-2" d="M9.43,73.44h1.3v40.89H9.43ZM0,73.44H1.3v40.89H0Z"/><path class="cls-3" d="M28.4,115v-5.9H31a3.6,3.6,0,0,1,1.2.16,1.38,1.38,0,0,1,.66.56,1.72,1.72,0,0,1,.24.89,1.46,1.46,0,0,1-.41,1.06,2,2,0,0,1-1.25.55,1.91,1.91,0,0,1,.47.3,3.73,3.73,0,0,1,.65.78l1,1.6h-1l-.78-1.23a9.52,9.52,0,0,0-.56-.81,1.58,1.58,0,0,0-.4-.39,1.09,1.09,0,0,0-.35-.16,2.22,2.22,0,0,0-.44,0h-.9V115Zm.78-3.29h1.68a2.6,2.6,0,0,0,.83-.11.93.93,0,0,0,.46-.36.92.92,0,0,0,.16-.53A.83.83,0,0,0,32,110a1.36,1.36,0,0,0-1-.27H29.18Z"/><path class="cls-3" d="M36.88,113.59l.75.09a1.8,1.8,0,0,1-.66,1,1.91,1.91,0,0,1-1.22.37,1.94,1.94,0,0,1-1.49-.58,2.27,2.27,0,0,1-.55-1.62,2.36,2.36,0,0,1,.56-1.67,1.86,1.86,0,0,1,1.44-.59,1.79,1.79,0,0,1,1.4.58,2.3,2.3,0,0,1,.54,1.64V113H34.46a1.66,1.66,0,0,0,.4,1.08,1.19,1.19,0,0,0,.89.38,1.09,1.09,0,0,0,.68-.22,1.33,1.33,0,0,0,.45-.66m-2.38-1.17h2.39a1.52,1.52,0,0,0-.27-.81,1.12,1.12,0,0,0-.9-.42,1.15,1.15,0,0,0-.84.33,1.33,1.33,0,0,0-.38.9"/><path class="cls-3" d="M41,115v-.54a1.32,1.32,0,0,1-1.19.64,1.7,1.7,0,0,1-.95-.28,1.82,1.82,0,0,1-.65-.79,2.64,2.64,0,0,1-.24-1.16,3.07,3.07,0,0,1,.21-1.16,1.71,1.71,0,0,1,.64-.8,1.76,1.76,0,0,1,.95-.28,1.6,1.6,0,0,1,.7.16,1.55,1.55,0,0,1,.49.43v-2.12h.71V115Zm-2.29-2.13a1.88,1.88,0,0,0,.35,1.23,1,1,0,0,0,.82.41,1,1,0,0,0,.8-.4,1.77,1.77,0,0,0,.33-1.18,2.08,2.08,0,0,0-.33-1.29,1.07,1.07,0,0,0-.84-.41,1,1,0,0,0-.8.4,1.9,1.9,0,0,0-.33,1.24"/><path class="cls-3" d="M45.47,113.59l.75.09a1.8,1.8,0,0,1-.66,1,1.91,1.91,0,0,1-1.22.37,1.94,1.94,0,0,1-1.49-.58,2.27,2.27,0,0,1-.55-1.62,2.36,2.36,0,0,1,.56-1.67,1.86,1.86,0,0,1,1.44-.59,1.79,1.79,0,0,1,1.4.58,2.3,2.3,0,0,1,.54,1.64V113H43.05a1.66,1.66,0,0,0,.4,1.08,1.2,1.2,0,0,0,.9.38,1.08,1.08,0,0,0,.67-.22,1.33,1.33,0,0,0,.45-.66m-2.38-1.17h2.39a1.61,1.61,0,0,0-.27-.81,1.14,1.14,0,0,0-.9-.42,1.15,1.15,0,0,0-.84.33,1.33,1.33,0,0,0-.38.9"/><path class="cls-3" d="M47.51,115h-.67v-5.91h.72v2.11a1.46,1.46,0,0,1,1.17-.58,1.9,1.9,0,0,1,.75.16,1.52,1.52,0,0,1,.58.45,2,2,0,0,1,.35.69,2.73,2.73,0,0,1,.13.87,2.46,2.46,0,0,1-.54,1.7,1.71,1.71,0,0,1-1.3.6,1.36,1.36,0,0,1-1.19-.63Zm0-2.17a2.18,2.18,0,0,0,.21,1.1,1,1,0,0,0,.92.56,1,1,0,0,0,.83-.41,1.86,1.86,0,0,0,.34-1.23,1.88,1.88,0,0,0-.33-1.23,1,1,0,0,0-.8-.4,1.08,1.08,0,0,0-.83.41,1.87,1.87,0,0,0-.34,1.2"/><path class="cls-3" d="M53.92,114.43a2.81,2.81,0,0,1-.77.49,2.32,2.32,0,0,1-.8.14,1.59,1.59,0,0,1-1.09-.35,1.16,1.16,0,0,1-.37-.87,1.27,1.27,0,0,1,.14-.58,1.23,1.23,0,0,1,.37-.41,1.6,1.6,0,0,1,.53-.24,5.38,5.38,0,0,1,.64-.11,6.19,6.19,0,0,0,1.29-.25v-.19a.78.78,0,0,0-.2-.62,1.22,1.22,0,0,0-.82-.25,1.31,1.31,0,0,0-.76.18,1.12,1.12,0,0,0-.36.63l-.7-.09a1.73,1.73,0,0,1,.31-.74,1.45,1.45,0,0,1,.64-.43,2.86,2.86,0,0,1,1-.15,2.46,2.46,0,0,1,.89.13,1.33,1.33,0,0,1,.51.33,1.17,1.17,0,0,1,.22.49,4.48,4.48,0,0,1,0,.67v1a11,11,0,0,0,0,1.28,1.37,1.37,0,0,0,.19.51h-.76a1.43,1.43,0,0,1-.15-.53m-.06-1.61a5.34,5.34,0,0,1-1.18.27,2.62,2.62,0,0,0-.63.15.66.66,0,0,0-.29.23.68.68,0,0,0-.1.35.61.61,0,0,0,.22.48,1,1,0,0,0,.65.19,1.53,1.53,0,0,0,.74-.18,1.22,1.22,0,0,0,.48-.5,2,2,0,0,0,.11-.73Z"/><path class="cls-3" d="M55.43,115v-4.27h.65v.61a1.54,1.54,0,0,1,1.36-.71,1.8,1.8,0,0,1,.71.14,1,1,0,0,1,.49.37,1.41,1.41,0,0,1,.22.53,3.92,3.92,0,0,1,0,.71V115h-.72v-2.6a2.18,2.18,0,0,0-.08-.66.73.73,0,0,0-.3-.35,1,1,0,0,0-.51-.13,1.19,1.19,0,0,0-.8.29,1.48,1.48,0,0,0-.34,1.12V115Z"/><path class="cls-3" d="M61.8,115v-5.9H63l1.39,4.18.29.87c.06-.21.17-.53.31-.94l1.41-4.11h1.06V115h-.76V110L65,115h-.7l-1.7-5v5Z"/><path class="cls-3" d="M71.1,115v-.63a1.54,1.54,0,0,1-1.35.73,1.83,1.83,0,0,1-.71-.14,1.29,1.29,0,0,1-.49-.37,1.57,1.57,0,0,1-.22-.54,3.69,3.69,0,0,1,0-.67v-2.65H69v2.37a4.22,4.22,0,0,0,0,.76.87.87,0,0,0,.29.46,1,1,0,0,0,.55.15,1.18,1.18,0,0,0,.61-.16.87.87,0,0,0,.41-.46A2.24,2.24,0,0,0,71,113v-2.29h.72V115Z"/><rect class="cls-3" x="72.58" y="109.07" width="0.72" height="5.9"/><path class="cls-3" d="M75.72,114.32l.11.64a4.16,4.16,0,0,1-.55.06,1.15,1.15,0,0,1-.61-.13.66.66,0,0,1-.31-.33,2.48,2.48,0,0,1-.09-.84v-2.47h-.53v-.56h.53v-1.06l.72-.43v1.49h.73v.56H75v2.5a1.44,1.44,0,0,0,0,.4.33.33,0,0,0,.12.14.47.47,0,0,0,.25,0l.32,0"/><path class="cls-3" d="M76.14,109.07h.73v.83h-.73Zm0,1.62h.73V115h-.73Z"/><path class="cls-3" d="M80.47,113.4l.71.09a1.81,1.81,0,0,1-.59,1.15,1.76,1.76,0,0,1-1.18.42,1.81,1.81,0,0,1-1.41-.58,2.28,2.28,0,0,1-.53-1.64,3,3,0,0,1,.22-1.21,1.67,1.67,0,0,1,.7-.78,2.08,2.08,0,0,1,1-.25,1.82,1.82,0,0,1,1.14.34,1.7,1.7,0,0,1,.57,1l-.71.12a1.11,1.11,0,0,0-.35-.65.91.91,0,0,0-.62-.22,1.12,1.12,0,0,0-.89.39,1.84,1.84,0,0,0-.34,1.24,1.93,1.93,0,0,0,.33,1.25,1.07,1.07,0,0,0,.86.4,1,1,0,0,0,.71-.27,1.27,1.27,0,0,0,.36-.8"/><path class="cls-3" d="M81.25,112.82a2.18,2.18,0,0,1,.66-1.75,2,2,0,0,1,1.34-.48,1.93,1.93,0,0,1,1.44.58,2.2,2.2,0,0,1,.56,1.59,2.89,2.89,0,0,1-.25,1.3,1.71,1.71,0,0,1-.72.74,2.13,2.13,0,0,1-1,.26,1.9,1.9,0,0,1-1.45-.58,2.29,2.29,0,0,1-.55-1.66m.74,0a1.85,1.85,0,0,0,.36,1.24,1.16,1.16,0,0,0,.9.41,1.1,1.1,0,0,0,.89-.42,1.78,1.78,0,0,0,.36-1.25,1.71,1.71,0,0,0-.36-1.2,1.12,1.12,0,0,0-.89-.41,1.16,1.16,0,0,0-.9.41,1.8,1.8,0,0,0-.36,1.22"/><rect class="cls-3" x="85.79" y="109.07" width="0.73" height="5.9"/><path class="cls-3" d="M87.08,112.82a2.18,2.18,0,0,1,.66-1.75,2,2,0,0,1,1.35-.48,1.94,1.94,0,0,1,1.44.58,2.2,2.2,0,0,1,.56,1.59,2.89,2.89,0,0,1-.25,1.3,1.77,1.77,0,0,1-.72.74,2.16,2.16,0,0,1-1,.26,1.9,1.9,0,0,1-1.45-.58,2.3,2.3,0,0,1-.56-1.66m.75,0a1.91,1.91,0,0,0,.35,1.24,1.16,1.16,0,0,0,.91.41,1.14,1.14,0,0,0,.9-.42,1.88,1.88,0,0,0,.35-1.25,1.76,1.76,0,0,0-.36-1.2,1.19,1.19,0,0,0-1.8,0,1.85,1.85,0,0,0-.35,1.22"/><path class="cls-3" d="M91.64,115v-4.27h.65v.64a1.73,1.73,0,0,1,.46-.59.8.8,0,0,1,.47-.15,1.45,1.45,0,0,1,.74.23l-.25.68a1,1,0,0,0-.53-.16.68.68,0,0,0-.43.15.73.73,0,0,0-.26.39,2.57,2.57,0,0,0-.13.85V115Z"/><path class="cls-3" d="M95.93,113.07l.74-.07a1.54,1.54,0,0,0,.24.73,1.37,1.37,0,0,0,.6.46,2.33,2.33,0,0,0,.9.17,2.15,2.15,0,0,0,.79-.13,1.11,1.11,0,0,0,.51-.36.85.85,0,0,0,.17-.51.77.77,0,0,0-.16-.48,1.18,1.18,0,0,0-.54-.35c-.16-.06-.51-.16-1.05-.29a4.87,4.87,0,0,1-1.13-.37,1.59,1.59,0,0,1-.64-.55,1.4,1.4,0,0,1-.2-.73,1.58,1.58,0,0,1,.25-.84,1.63,1.63,0,0,1,.74-.59,2.88,2.88,0,0,1,1.08-.2,3,3,0,0,1,1.16.21,1.66,1.66,0,0,1,.77.63,1.79,1.79,0,0,1,.29.92l-.75.06a1.21,1.21,0,0,0-.41-.85,1.63,1.63,0,0,0-1-.28,1.69,1.69,0,0,0-1,.26.8.8,0,0,0-.32.63.68.68,0,0,0,.23.52,3.15,3.15,0,0,0,1.18.42,8.18,8.18,0,0,1,1.3.37,1.77,1.77,0,0,1,.76.61,1.4,1.4,0,0,1,.25.83,1.6,1.6,0,0,1-.27.89,1.74,1.74,0,0,1-.78.65,2.57,2.57,0,0,1-1.13.23,3.29,3.29,0,0,1-1.34-.23,1.84,1.84,0,0,1-.85-.7,2,2,0,0,1-.33-1.06"/><rect class="cls-3" x="101.52" y="114.13" width="0.83" height="0.83"/><path class="cls-3" d="M102.76,115l2.27-5.9h.84l2.41,5.9h-.89l-.68-1.79h-2.47l-.65,1.79Zm1.7-2.42h2l-.61-1.63q-.28-.75-.42-1.23a9.05,9.05,0,0,1-.32,1.13Z"/><rect class="cls-3" x="108.73" y="114.13" width="0.83" height="0.83"/><path class="cls-3" d="M112.35,113.07l.74-.07a1.66,1.66,0,0,0,.24.73,1.4,1.4,0,0,0,.59.46,2.42,2.42,0,0,0,.91.17,2.15,2.15,0,0,0,.79-.13,1.11,1.11,0,0,0,.51-.36.85.85,0,0,0,.17-.51.77.77,0,0,0-.16-.48,1.18,1.18,0,0,0-.54-.35,10.09,10.09,0,0,0-1-.29,4.87,4.87,0,0,1-1.13-.37,1.49,1.49,0,0,1-.63-.55,1.32,1.32,0,0,1-.21-.73,1.5,1.5,0,0,1,.25-.84,1.63,1.63,0,0,1,.74-.59,2.92,2.92,0,0,1,1.08-.2,3,3,0,0,1,1.16.21,1.61,1.61,0,0,1,.77.63,1.7,1.7,0,0,1,.29.92l-.75.06a1.21,1.21,0,0,0-.41-.85,1.63,1.63,0,0,0-1-.28,1.69,1.69,0,0,0-1,.26.8.8,0,0,0-.32.63.68.68,0,0,0,.23.52,3.15,3.15,0,0,0,1.17.42,8.06,8.06,0,0,1,1.31.37,1.77,1.77,0,0,1,.76.61,1.4,1.4,0,0,1,.25.83,1.6,1.6,0,0,1-.27.89,1.74,1.74,0,0,1-.78.65,2.57,2.57,0,0,1-1.13.23,3.29,3.29,0,0,1-1.34-.23,1.86,1.86,0,0,1-.86-.7,2,2,0,0,1-.32-1.06"/><path class="cls-3" d="M117.74,109.07h.72v.83h-.72Zm0,1.62h.72V115h-.72Z"/><path class="cls-3" d="M119,113.69l.71-.12a1.06,1.06,0,0,0,.34.67,1.2,1.2,0,0,0,.77.22,1.17,1.17,0,0,0,.74-.2.6.6,0,0,0,.24-.48.43.43,0,0,0-.21-.38,2.94,2.94,0,0,0-.74-.25,7.36,7.36,0,0,1-1.11-.34,1.08,1.08,0,0,1-.62-1,1.06,1.06,0,0,1,.13-.52,1,1,0,0,1,.36-.41,1.58,1.58,0,0,1,.45-.21,2.18,2.18,0,0,1,.63-.09,2.44,2.44,0,0,1,.89.15,1.1,1.1,0,0,1,.55.39,1.6,1.6,0,0,1,.26.66l-.71.1a.86.86,0,0,0-.28-.52,1.08,1.08,0,0,0-.66-.18,1.26,1.26,0,0,0-.71.16.49.49,0,0,0-.21.39.41.41,0,0,0,.08.25.71.71,0,0,0,.29.2l.63.18a9,9,0,0,1,1.08.34,1,1,0,0,1,.47.38,1,1,0,0,1,.18.62,1.15,1.15,0,0,1-.22.68,1.23,1.23,0,0,1-.6.49,2.21,2.21,0,0,1-.91.18,2,2,0,0,1-1.26-.35,1.56,1.56,0,0,1-.56-1"/><path class="cls-3" d="M124.69,114.32l.11.64a4.16,4.16,0,0,1-.55.06,1.22,1.22,0,0,1-.62-.13.68.68,0,0,1-.3-.33,2.48,2.48,0,0,1-.09-.84v-2.47h-.53v-.56h.53v-1.06l.72-.43v1.49h.73v.56H124v2.5a1.12,1.12,0,0,0,0,.4.28.28,0,0,0,.12.14.47.47,0,0,0,.25,0l.32,0"/><path class="cls-3" d="M128,113.59l.75.09a1.74,1.74,0,0,1-.65,1,2.2,2.2,0,0,1-2.71-.21,2.22,2.22,0,0,1-.55-1.62,2.31,2.31,0,0,1,.56-1.67,1.83,1.83,0,0,1,1.43-.59,1.81,1.81,0,0,1,1.41.58,2.3,2.3,0,0,1,.54,1.64V113h-3.19a1.61,1.61,0,0,0,.4,1.08,1.16,1.16,0,0,0,.89.38,1.13,1.13,0,0,0,.68-.22,1.32,1.32,0,0,0,.44-.66m-2.37-1.17h2.39a1.51,1.51,0,0,0-.28-.81,1.11,1.11,0,0,0-.9-.42,1.17,1.17,0,0,0-.84.33,1.28,1.28,0,0,0-.37.9"/><path class="cls-3" d="M129.41,115v-4.27h.64v.59a1.59,1.59,0,0,1,.54-.49,1.46,1.46,0,0,1,.76-.2,1.43,1.43,0,0,1,.78.2,1.08,1.08,0,0,1,.43.55,1.51,1.51,0,0,1,1.32-.75,1.31,1.31,0,0,1,1,.35,1.52,1.52,0,0,1,.34,1.09V115h-.72v-2.69a2.22,2.22,0,0,0-.06-.62.73.73,0,0,0-.26-.32.87.87,0,0,0-.44-.11,1,1,0,0,0-.74.3,1.31,1.31,0,0,0-.3,1V115h-.73v-2.77a1.21,1.21,0,0,0-.17-.73.67.67,0,0,0-.58-.24,1.11,1.11,0,0,0-.57.16.91.91,0,0,0-.37.47,2.57,2.57,0,0,0-.12.89V115Z"/><path class="cls-3" d="M138.77,114.43a2.85,2.85,0,0,1-.78.49,2.26,2.26,0,0,1-.79.14,1.57,1.57,0,0,1-1.09-.35,1.13,1.13,0,0,1-.37-.87,1.16,1.16,0,0,1,.14-.58,1.07,1.07,0,0,1,.38-.41,1.5,1.5,0,0,1,.51-.24,6.05,6.05,0,0,1,.65-.11,6.49,6.49,0,0,0,1.29-.25v-.19a.78.78,0,0,0-.2-.62,1.57,1.57,0,0,0-1.58-.07,1.12,1.12,0,0,0-.36.63l-.71-.09a1.73,1.73,0,0,1,.32-.74,1.45,1.45,0,0,1,.64-.43,2.86,2.86,0,0,1,1-.15,2.5,2.5,0,0,1,.89.13,1.21,1.21,0,0,1,.5.33,1.05,1.05,0,0,1,.22.49,3.42,3.42,0,0,1,0,.67v1a10.12,10.12,0,0,0,.05,1.28,1.55,1.55,0,0,0,.18.51h-.76a1.65,1.65,0,0,1-.14-.53m-.06-1.61a5.49,5.49,0,0,1-1.18.27,2.87,2.87,0,0,0-.64.15.63.63,0,0,0-.28.23.6.6,0,0,0-.1.35.61.61,0,0,0,.22.48.92.92,0,0,0,.64.19,1.47,1.47,0,0,0,.74-.18,1.1,1.1,0,0,0,.48-.5,1.75,1.75,0,0,0,.12-.73Z"/><path class="cls-3" d="M145.05,115v-.54a1.32,1.32,0,0,1-1.19.64,1.62,1.62,0,0,1-.94-.28,1.86,1.86,0,0,1-.67-.79,2.64,2.64,0,0,1-.24-1.16,3.07,3.07,0,0,1,.22-1.16,1.71,1.71,0,0,1,.64-.8,1.76,1.76,0,0,1,.95-.28,1.53,1.53,0,0,1,.69.16,1.36,1.36,0,0,1,.49.43v-2.12h.72V115Zm-2.29-2.13a1.88,1.88,0,0,0,.35,1.23,1,1,0,0,0,1.62,0,1.77,1.77,0,0,0,.33-1.18,2,2,0,0,0-.34-1.29,1,1,0,0,0-.83-.41,1,1,0,0,0-.81.4,2,2,0,0,0-.32,1.24"/><path class="cls-3" d="M149.5,113.59l.75.09a1.8,1.8,0,0,1-.66,1,2.2,2.2,0,0,1-2.71-.21,2.22,2.22,0,0,1-.55-1.62,2.36,2.36,0,0,1,.56-1.67,1.86,1.86,0,0,1,1.43-.59,1.81,1.81,0,0,1,1.41.58,2.3,2.3,0,0,1,.54,1.64,1.58,1.58,0,0,1,0,.19h-3.18a1.66,1.66,0,0,0,.4,1.08,1.18,1.18,0,0,0,.89.38,1.13,1.13,0,0,0,.68-.22,1.33,1.33,0,0,0,.45-.66m-2.38-1.17h2.39a1.51,1.51,0,0,0-.28-.81,1.11,1.11,0,0,0-.9-.42,1.13,1.13,0,0,0-.83.33,1.33,1.33,0,0,0-.38.9"/><path class="cls-3" d="M152.87,116.6v-5.91h.65v.56a1.69,1.69,0,0,1,.54-.5,1.52,1.52,0,0,1,.71-.16,1.68,1.68,0,0,1,1.6,1.08,2.92,2.92,0,0,1,.21,1.13,2.78,2.78,0,0,1-.24,1.17,1.77,1.77,0,0,1-1.62,1.09,1.36,1.36,0,0,1-.65-.15,1.42,1.42,0,0,1-.48-.39v2.08Zm.65-3.75a1.83,1.83,0,0,0,.34,1.22,1,1,0,0,0,1.63,0,2.42,2.42,0,0,0,0-2.49,1,1,0,0,0-.8-.4,1,1,0,0,0-.82.43,1.93,1.93,0,0,0-.36,1.26"/><path class="cls-3" d="M160,114.43a2.81,2.81,0,0,1-.77.49,2.36,2.36,0,0,1-.8.14,1.52,1.52,0,0,1-1.08-.35,1.1,1.1,0,0,1-.38-.87,1.27,1.27,0,0,1,.14-.58,1.15,1.15,0,0,1,.38-.41,1.46,1.46,0,0,1,.52-.24,5.38,5.38,0,0,1,.64-.11,6.19,6.19,0,0,0,1.29-.25,1.77,1.77,0,0,0,0-.19.79.79,0,0,0-.21-.62,1.24,1.24,0,0,0-.82-.25,1.27,1.27,0,0,0-.76.18,1.12,1.12,0,0,0-.36.63l-.71-.09a1.86,1.86,0,0,1,.32-.74,1.45,1.45,0,0,1,.64-.43,2.86,2.86,0,0,1,1-.15,2.5,2.5,0,0,1,.89.13,1.25,1.25,0,0,1,.51.33,1,1,0,0,1,.21.49,3.42,3.42,0,0,1,0,.67v1a10.12,10.12,0,0,0,0,1.28,1.55,1.55,0,0,0,.18.51h-.75a1.43,1.43,0,0,1-.15-.53m-.06-1.61a5.49,5.49,0,0,1-1.18.27,2.62,2.62,0,0,0-.63.15.66.66,0,0,0-.29.23.6.6,0,0,0-.1.35.61.61,0,0,0,.22.48.94.94,0,0,0,.64.19,1.54,1.54,0,0,0,.75-.18,1.22,1.22,0,0,0,.48-.5,2,2,0,0,0,.11-.73Z"/><path class="cls-3" d="M161.33,115.32l.7.1a.69.69,0,0,0,.24.48,1.25,1.25,0,0,0,.74.19,1.34,1.34,0,0,0,.78-.19,1,1,0,0,0,.37-.57,5.65,5.65,0,0,0,.05-.93A1.49,1.49,0,0,1,163,115a1.62,1.62,0,0,1-1.37-.63,2.49,2.49,0,0,1-.48-1.53,3,3,0,0,1,.22-1.13,1.85,1.85,0,0,1,.65-.8,1.76,1.76,0,0,1,1-.28,1.57,1.57,0,0,1,1.25.61v-.51H165v3.69a3.42,3.42,0,0,1-.21,1.42,1.51,1.51,0,0,1-.64.66,2.24,2.24,0,0,1-1.08.24,2,2,0,0,1-1.24-.35,1.13,1.13,0,0,1-.45-1m.6-2.57a1.84,1.84,0,0,0,.33,1.22,1,1,0,0,0,.84.39,1,1,0,0,0,.83-.38,1.78,1.78,0,0,0,.34-1.21,1.75,1.75,0,0,0-.35-1.18,1.09,1.09,0,0,0-.83-.4,1.06,1.06,0,0,0-.83.39,1.79,1.79,0,0,0-.33,1.17"/><path class="cls-3" d="M165.48,112.82a2.18,2.18,0,0,1,.66-1.75,2,2,0,0,1,1.35-.48,2,2,0,0,1,1.44.58,2.2,2.2,0,0,1,.56,1.59,2.76,2.76,0,0,1-.25,1.3,1.71,1.71,0,0,1-.72.74,2.16,2.16,0,0,1-1,.26,1.9,1.9,0,0,1-1.45-.58,2.3,2.3,0,0,1-.56-1.66m.75,0a1.85,1.85,0,0,0,.36,1.24,1.16,1.16,0,0,0,.9.41,1.12,1.12,0,0,0,.89-.42,1.83,1.83,0,0,0,.37-1.25,1.76,1.76,0,0,0-.37-1.2,1.14,1.14,0,0,0-.89-.41,1.16,1.16,0,0,0-.9.41,1.8,1.8,0,0,0-.36,1.22"/><path class="cls-3" d="M174.82,115v-.54a1.31,1.31,0,0,1-1.19.64,1.65,1.65,0,0,1-.94-.28A1.86,1.86,0,0,1,172,114a2.79,2.79,0,0,1-.23-1.16,3.07,3.07,0,0,1,.21-1.16,1.71,1.71,0,0,1,.64-.8,1.76,1.76,0,0,1,1-.28,1.53,1.53,0,0,1,.69.16,1.36,1.36,0,0,1,.49.43v-2.12h.72V115Zm-2.29-2.13a1.94,1.94,0,0,0,.34,1.23,1.08,1.08,0,0,0,.83.41,1,1,0,0,0,.8-.4,1.77,1.77,0,0,0,.33-1.18,2.08,2.08,0,0,0-.33-1.29,1.07,1.07,0,0,0-.84-.41,1,1,0,0,0-.81.4,2,2,0,0,0-.32,1.24"/><path class="cls-3" d="M179.27,113.59l.75.09a1.8,1.8,0,0,1-.66,1,2.19,2.19,0,0,1-2.7-.21,2.23,2.23,0,0,1-.56-1.62,2.36,2.36,0,0,1,.56-1.67,1.86,1.86,0,0,1,1.44-.59,1.79,1.79,0,0,1,1.4.58,2.3,2.3,0,0,1,.54,1.64V113h-3.19a1.66,1.66,0,0,0,.4,1.08,1.19,1.19,0,0,0,.89.38,1.09,1.09,0,0,0,.68-.22,1.33,1.33,0,0,0,.45-.66m-2.38-1.17h2.38a1.52,1.52,0,0,0-.26-.81,1.14,1.14,0,0,0-.9-.42,1.17,1.17,0,0,0-.84.33,1.33,1.33,0,0,0-.38.9"/><path class="cls-3" d="M183.31,115h-.68v-5.91h.73v2.11a1.46,1.46,0,0,1,1.17-.58,1.9,1.9,0,0,1,.75.16,1.52,1.52,0,0,1,.58.45,2.25,2.25,0,0,1,.36.69,3,3,0,0,1,.12.87,2.46,2.46,0,0,1-.54,1.7,1.7,1.7,0,0,1-1.31.6,1.36,1.36,0,0,1-1.18-.63Zm0-2.17a2.18,2.18,0,0,0,.21,1.1,1,1,0,0,0,.93.56,1,1,0,0,0,.81-.41,1.81,1.81,0,0,0,.35-1.23,1.88,1.88,0,0,0-.33-1.23,1,1,0,0,0-.8-.4,1,1,0,0,0-.82.41,1.81,1.81,0,0,0-.35,1.2"/><path class="cls-3" d="M189.72,114.43a2.67,2.67,0,0,1-.77.49,2.32,2.32,0,0,1-.8.14,1.54,1.54,0,0,1-1.08-.35,1.14,1.14,0,0,1-.38-.87,1.27,1.27,0,0,1,.14-.58,1.15,1.15,0,0,1,.38-.41,1.46,1.46,0,0,1,.52-.24,5.78,5.78,0,0,1,.64-.11,6.19,6.19,0,0,0,1.29-.25,1.77,1.77,0,0,0,0-.19.82.82,0,0,0-.2-.62,1.26,1.26,0,0,0-.83-.25,1.31,1.31,0,0,0-.76.18,1.12,1.12,0,0,0-.36.63l-.71-.09a1.86,1.86,0,0,1,.32-.74,1.51,1.51,0,0,1,.64-.43,2.86,2.86,0,0,1,1-.15,2.43,2.43,0,0,1,.89.13,1.33,1.33,0,0,1,.51.33,1.17,1.17,0,0,1,.22.49,4.48,4.48,0,0,1,0,.67v1a11,11,0,0,0,0,1.28,1.57,1.57,0,0,0,.19.51h-.76a1.65,1.65,0,0,1-.15-.53m-.06-1.61a5.34,5.34,0,0,1-1.18.27,2.62,2.62,0,0,0-.63.15.66.66,0,0,0-.29.23.68.68,0,0,0-.1.35.64.64,0,0,0,.22.48,1,1,0,0,0,.65.19,1.53,1.53,0,0,0,.74-.18,1.22,1.22,0,0,0,.48-.5,2,2,0,0,0,.11-.73Z"/><path class="cls-3" d="M190.31,116.62l.14-.62a1.28,1.28,0,0,0,.34.06.4.4,0,0,0,.33-.15,1.49,1.49,0,0,0,.11-.73v-4.49H192v4.51a2.16,2.16,0,0,1-.2,1.09.94.94,0,0,1-.87.4,2.12,2.12,0,0,1-.57-.07m.92-7.55H192v.83h-.72Z"/><path class="cls-3" d="M192.5,112.82a2.16,2.16,0,0,1,.67-1.75,2.09,2.09,0,0,1,2.78.1,2.2,2.2,0,0,1,.56,1.59,2.89,2.89,0,0,1-.25,1.3,1.77,1.77,0,0,1-.72.74,2.16,2.16,0,0,1-1,.26,1.9,1.9,0,0,1-1.45-.58,2.3,2.3,0,0,1-.56-1.66m.75,0a1.85,1.85,0,0,0,.36,1.24,1.13,1.13,0,0,0,.9.41,1.1,1.1,0,0,0,.89-.42,1.83,1.83,0,0,0,.36-1.25,1.76,1.76,0,0,0-.36-1.2,1.18,1.18,0,0,0-1.79,0,1.8,1.8,0,0,0-.36,1.22"/><path class="cls-3" d="M200.26,115l-1.63-4.27h.77l.91,2.56c.1.27.19.56.28.86.06-.23.15-.5.26-.81l1-2.61h.74L200.93,115Z"/><path class="cls-3" d="M205.69,114.43a2.71,2.71,0,0,1-.78.49,2.28,2.28,0,0,1-.8.14,1.58,1.58,0,0,1-1.08-.35,1.14,1.14,0,0,1-.38-.87,1.17,1.17,0,0,1,.15-.58,1.23,1.23,0,0,1,.37-.41,1.64,1.64,0,0,1,.52-.24,6.05,6.05,0,0,1,.65-.11,6.49,6.49,0,0,0,1.29-.25,1.77,1.77,0,0,0,0-.19.82.82,0,0,0-.21-.62,1.57,1.57,0,0,0-1.58-.07,1.07,1.07,0,0,0-.36.63l-.71-.09a1.73,1.73,0,0,1,.32-.74,1.45,1.45,0,0,1,.64-.43,2.86,2.86,0,0,1,1-.15,2.5,2.5,0,0,1,.89.13,1.21,1.21,0,0,1,.5.33,1.06,1.06,0,0,1,.23.49,4.93,4.93,0,0,1,0,.67v1a10.12,10.12,0,0,0,0,1.28,1.55,1.55,0,0,0,.18.51h-.75a1.43,1.43,0,0,1-.15-.53m-.06-1.61a5.46,5.46,0,0,1-1.19.27,2.9,2.9,0,0,0-.63.15.63.63,0,0,0-.28.23.6.6,0,0,0-.1.35.61.61,0,0,0,.22.48.94.94,0,0,0,.64.19,1.54,1.54,0,0,0,.75-.18,1.13,1.13,0,0,0,.47-.5,1.75,1.75,0,0,0,.12-.73Z"/><rect class="cls-3" x="207.18" y="109.07" width="0.72" height="5.9"/><path class="cls-3" d="M208.47,112.82a2.18,2.18,0,0,1,.66-1.75,2,2,0,0,1,1.34-.48,1.93,1.93,0,0,1,1.44.58,2.2,2.2,0,0,1,.56,1.59,2.9,2.9,0,0,1-.24,1.3,1.83,1.83,0,0,1-.72.74,2.17,2.17,0,0,1-1,.26,1.88,1.88,0,0,1-1.44-.58,2.3,2.3,0,0,1-.56-1.66m.74,0a1.85,1.85,0,0,0,.36,1.24,1.16,1.16,0,0,0,.9.41,1.11,1.11,0,0,0,.9-.42,1.83,1.83,0,0,0,.36-1.25,1.76,1.76,0,0,0-.36-1.2,1.19,1.19,0,0,0-1.8,0,1.8,1.8,0,0,0-.36,1.22"/><path class="cls-3" d="M213,115v-4.27h.65v.64a1.73,1.73,0,0,1,.46-.59.77.77,0,0,1,.46-.15,1.48,1.48,0,0,1,.75.23l-.25.68a1,1,0,0,0-.53-.16.68.68,0,0,0-.43.15.75.75,0,0,0-.27.39,2.86,2.86,0,0,0-.12.85V115Z"/><rect class="cls-3" x="215.24" y="114.13" width="0.83" height="0.83"/><path class="cls-4" d="M317.3,51.91a4.73,4.73,0,1,1-4.68-4.6,4.64,4.64,0,0,1,4.68,4.6m-8.28,0a3.59,3.59,0,0,0,3.6,3.68,3.53,3.53,0,0,0,3.5-3.65,3.55,3.55,0,1,0-7.1,0m2.83,2.38h-1.06v-4.6a13.58,13.58,0,0,1,1.76-.14,2.44,2.44,0,0,1,1.58.37,1.15,1.15,0,0,1,.47,1,1.18,1.18,0,0,1-1,1.09v.06c.46.14.67.51.81,1.12a4.08,4.08,0,0,0,.34,1.12h-1.12a3.57,3.57,0,0,1-.36-1.12c-.09-.48-.37-.69-1-.69h-.51Zm0-2.57h.5c.58,0,1.07-.2,1.07-.68s-.32-.69-1-.69a2.49,2.49,0,0,0-.58,0Z"/><path class="cls-4" d="M131.9,49.28a12.58,12.58,0,0,1,5.33,4.62,15.46,15.46,0,0,1,2.45,6.46,39.94,39.94,0,0,1,.27,6.2H117.51c.13,3.13,1.2,5.33,3.23,6.59a8,8,0,0,0,4.44,1.18,6.7,6.7,0,0,0,4.46-1.44,6.78,6.78,0,0,0,1.67-2.14h8.22a10.26,10.26,0,0,1-3,5.64Q132.42,81,125,81A16.67,16.67,0,0,1,114.1,77.1q-4.69-3.84-4.7-12.5,0-8.13,4.24-12.45a14.76,14.76,0,0,1,11-4.34A17.22,17.22,0,0,1,131.9,49.28Zm-12,7.06a8.48,8.48,0,0,0-2.15,4.83h13.88a6.89,6.89,0,0,0-2.15-4.94,7,7,0,0,0-4.78-1.68A6.31,6.31,0,0,0,119.86,56.34Z"/><path class="cls-4" d="M160,49.15a9.91,9.91,0,0,1,3.54,3.45V37.7h8.16V79.88h-7.83V75.55a11.34,11.34,0,0,1-3.93,4,10.86,10.86,0,0,1-5.48,1.26,11.39,11.39,0,0,1-9.09-4.43,17.21,17.21,0,0,1-3.69-11.37c0-5.32,1.22-9.52,3.64-12.57A11.73,11.73,0,0,1,155,47.9,9.85,9.85,0,0,1,160,49.15Zm2,22.26a11.54,11.54,0,0,0,1.78-6.69q0-5.73-2.85-8.19A6.12,6.12,0,0,0,156.85,55a5.64,5.64,0,0,0-5.19,2.7A12.76,12.76,0,0,0,150,64.47a12.59,12.59,0,0,0,1.68,6.92,5.66,5.66,0,0,0,5.1,2.59A5.94,5.94,0,0,0,162,71.41Z"/><path class="cls-4" d="M198.21,49.28a12.55,12.55,0,0,1,5.32,4.62A15.46,15.46,0,0,1,206,60.36a39.94,39.94,0,0,1,.27,6.2H183.81c.13,3.13,1.21,5.33,3.22,6.59a8,8,0,0,0,4.44,1.18A6.75,6.75,0,0,0,196,72.89a6.89,6.89,0,0,0,1.65-2.14h8.23a10.33,10.33,0,0,1-3,5.64Q198.7,81,191.25,81A16.67,16.67,0,0,1,180.4,77.1q-4.69-3.84-4.7-12.5,0-8.13,4.24-12.45a14.74,14.74,0,0,1,11-4.34A17.26,17.26,0,0,1,198.21,49.28Zm-12.05,7.06A8.48,8.48,0,0,0,184,61.17h13.87a6.81,6.81,0,0,0-2.14-4.94A7,7,0,0,0,191,54.55,6.31,6.31,0,0,0,186.16,56.34Z"/><path class="cls-4" d="M236.28,52.4q3.47,4.44,3.46,11.46a20.32,20.32,0,0,1-3.41,12.07,12.28,12.28,0,0,1-15.68,3.24,12.14,12.14,0,0,1-3-3.21v3.92h-7.95V37.7h8.06v15a12,12,0,0,1,3.39-3.32A9.93,9.93,0,0,1,226.71,48,11.45,11.45,0,0,1,236.28,52.4Zm-6.73,19a11.68,11.68,0,0,0,1.74-6.71,15,15,0,0,0-.86-5.5,6,6,0,0,0-6-4.12,6,6,0,0,0-6.07,4,15.27,15.27,0,0,0-.86,5.56,11.79,11.79,0,0,0,1.77,6.66A6.05,6.05,0,0,0,224.68,74,5.56,5.56,0,0,0,229.55,71.43Z"/><path class="cls-4" d="M256.64,60.88a12.87,12.87,0,0,0,3.21-.71,2.45,2.45,0,0,0,1.73-2.32,2.77,2.77,0,0,0-1.32-2.66,8.33,8.33,0,0,0-3.92-.73c-1.93,0-3.29.48-4.09,1.44a5.88,5.88,0,0,0-1.14,2.86h-7.79A12.2,12.2,0,0,1,245.6,52q3.21-4.11,11-4.12a19.38,19.38,0,0,1,9,2q3.94,2,3.94,7.67V72c0,1,0,2.19.06,3.6a4.5,4.5,0,0,0,.49,2.18,2.73,2.73,0,0,0,1.18,1v1.2h-8.77a9,9,0,0,1-.5-1.77c-.1-.55-.17-1.19-.23-1.89A16.52,16.52,0,0,1,258,79.34,11.51,11.51,0,0,1,252,80.86a10.15,10.15,0,0,1-7-2.42,8.69,8.69,0,0,1-2.74-6.87q0-5.76,4.41-8.34a19.86,19.86,0,0,1,7.12-2Zm4.92,3.81a8.8,8.8,0,0,1-1.56.79,13.06,13.06,0,0,1-2.17.56l-1.83.35a12.14,12.14,0,0,0-3.7,1.11A3.73,3.73,0,0,0,250.4,71a3.64,3.64,0,0,0,1.15,3,4.35,4.35,0,0,0,2.83.94,8.33,8.33,0,0,0,4.86-1.55q2.24-1.55,2.32-5.65Z"/><path class="cls-4" d="M301,50.44c2,1.69,3,4.49,3,8.4v21H295.8v-19a8.8,8.8,0,0,0-.65-3.78c-.78-1.6-2.28-2.41-4.49-2.41a5.56,5.56,0,0,0-5.58,3.53,12.38,12.38,0,0,0-.79,4.76v16.9h-8.05V48.7h7.81v4.56A13.34,13.34,0,0,1,287,49.79a10,10,0,0,1,6.27-1.89A11.69,11.69,0,0,1,301,50.44Z"/><path class="cls-4" d="M108.38,76.06a21.69,21.69,0,0,1-.23-3.9V69.34c0-2.94-.39-5.13-1.19-6.56a7.68,7.68,0,0,0-4-3.31,8.33,8.33,0,0,0,4.91-4.08,12.72,12.72,0,0,0,1.48-5.88,11.92,11.92,0,0,0-.76-4.41,13.08,13.08,0,0,0-2.08-3.53,10.32,10.32,0,0,0-3.87-2.93,17.93,17.93,0,0,0-6.52-1.08h-24a31.62,31.62,0,0,1,0,41.94H84.73V63.05h8.44q3.6,0,4.92,1.34c.88.89,1.33,2.67,1.37,5.35l.05,3.9a21.44,21.44,0,0,0,.37,3.61c.11.57.3,1.32.56,2.25H110v-1A3.52,3.52,0,0,1,108.38,76.06ZM98.18,55.43a9.81,9.81,0,0,1-4.15.68h-9.3V44.84h9.54a8.47,8.47,0,0,1,4,.74q2.38,1.31,2.38,5.12C100.64,53.06,99.82,54.63,98.18,55.43Z"/><path class="cls-5" d="M44.08,86.34a28.5,28.5,0,0,0,4.36.33V59.5L44.08,62Z"/><path class="cls-6" d="M37.54,84.49a28.12,28.12,0,0,0,4.36,1.42V63.27l-4.36,2.52Z"/><path class="cls-7" d="M31,80.65a28.49,28.49,0,0,0,4.36,2.82l0-16.41L31,69.56Z"/><polygon class="cls-8" points="48.44 86.67 49.26 86.2 49.26 59.03 48.44 58.55 48.44 86.67"/><polygon class="cls-9" points="41.9 85.91 42.73 85.44 42.72 62.79 41.9 63.27 41.9 85.91"/><polygon class="cls-10" points="35.37 83.47 36.19 83 36.19 66.57 35.34 67.06 35.37 83.47"/><path class="cls-11" d="M70.32,76.23a28.72,28.72,0,0,0,2.47-3.61L49.25,59v5Z"/><path class="cls-12" d="M65.45,81a27.33,27.33,0,0,0,3.41-3.06L49.25,66.58v5Z"/><path class="cls-13" d="M58.86,84.7a27.93,27.93,0,0,0,4.62-2.36L49.25,74.15v5Z"/><polygon class="cls-14" points="72.79 72.62 72.79 71.67 49.26 58.08 48.44 58.56 72.79 72.62"/><polygon class="cls-15" points="68.86 77.9 68.86 76.95 49.25 65.63 49.25 66.58 68.86 77.9"/><polygon class="cls-16" points="63.48 82.34 63.48 81.39 49.25 73.17 49.25 74.15 63.48 82.34"/><path class="cls-17" d="M74.68,48.44a29,29,0,0,0-1.89-3.94L49.26,58.09l4.35,2.52Z"/><path class="cls-18" d="M76.35,55a28,28,0,0,0-.95-4.49L55.8,61.87l4.35,2.51Z"/><path class="cls-19" d="M76.29,62.6a27.14,27.14,0,0,0,.26-5.18l-14.2,8.23,4.33,2.5Z"/><polygon class="cls-20" points="72.79 44.5 71.97 44.02 48.44 57.61 48.44 58.56 72.79 44.5"/><polygon class="cls-21" points="75.4 50.54 74.58 50.06 54.97 61.39 55.8 61.87 75.4 50.54"/><polygon class="cls-22" points="76.55 57.42 75.73 56.94 61.5 65.16 62.35 65.65 76.55 57.42"/><path class="cls-23" d="M52.8,30.78a28.27,28.27,0,0,0-4.35-.34V57.62L52.8,55.1Z"/><path class="cls-24" d="M59.34,32.62A27.78,27.78,0,0,0,55,31.2V53.84l4.35-2.51Z"/><path class="cls-25" d="M65.87,36.46a27.92,27.92,0,0,0-4.35-2.82l0,16.42,4.33-2.51Z"/><polygon class="cls-26" points="48.45 30.44 47.62 30.91 47.62 58.08 48.45 58.56 48.45 30.44"/><polygon class="cls-27" points="54.98 31.2 54.16 31.67 54.16 54.32 54.99 53.84 54.98 31.2"/><polygon class="cls-28" points="61.52 33.64 60.69 34.12 60.69 50.55 61.54 50.05 61.52 33.64"/><path class="cls-29" d="M26.56,40.89a28,28,0,0,0-2.47,3.61L47.63,58.09v-5Z"/><path class="cls-30" d="M31.43,36.15A27.41,27.41,0,0,0,28,39.22L47.63,50.53v-5Z"/><path class="cls-31" d="M38,32.41a28.77,28.77,0,0,0-4.62,2.37L47.63,43V38Z"/><polygon class="cls-32" points="24.09 44.5 24.09 45.45 47.62 59.03 48.44 58.56 24.09 44.5"/><polygon class="cls-33" points="28.02 39.22 28.02 40.17 47.63 51.49 47.63 50.53 28.02 39.22"/><polygon class="cls-34" points="33.4 34.78 33.4 35.73 47.63 43.94 47.63 42.96 33.4 34.78"/><path class="cls-35" d="M22.2,68.67a27.32,27.32,0,0,0,1.89,3.94L47.62,59l-4.36-2.51Z"/><path class="cls-36" d="M20.53,62.09a27.09,27.09,0,0,0,.95,4.48l19.6-11.32-4.35-2.52Z"/><path class="cls-37" d="M20.58,54.51a28.93,28.93,0,0,0-.26,5.18l14.21-8.23L30.19,49Z"/><polygon class="cls-38" points="24.09 72.61 24.91 73.09 48.44 59.51 48.44 58.55 24.09 72.61"/><polygon class="cls-39" points="21.48 66.57 22.3 67.05 41.91 55.73 41.08 55.25 21.48 66.57"/><polygon class="cls-40" points="20.32 59.69 21.15 60.17 35.37 51.95 34.53 51.46 20.32 59.69"/><polygon class="cls-41" points="23.62 71.76 24.08 72.53 47.62 59 46.8 58.56 23.62 71.76"/><polygon class="cls-42" points="21.21 65.63 21.45 66.5 41.08 55.22 40.24 54.76 21.21 65.63"/><polygon class="cls-43" points="20.3 58.82 20.32 59.61 34.53 51.46 33.88 51.09 20.3 58.82"/><polygon class="cls-44" points="47.49 86.67 48.39 86.65 48.44 59.49 47.65 59.99 47.49 86.67"/><polygon class="cls-45" points="40.98 85.68 41.85 85.91 41.9 63.27 41.08 63.77 40.98 85.68"/><polygon class="cls-46" points="34.62 83.07 35.32 83.45 35.36 67.07 34.72 67.44 34.62 83.07"/><polygon class="cls-47" points="72.31 73.44 72.74 72.65 49.25 59.03 49.25 59.96 72.31 73.44"/><polygon class="cls-48" points="68.2 78.58 68.83 77.94 49.25 66.59 49.25 67.54 68.2 78.58"/><polygon class="cls-49" points="62.74 82.8 63.41 82.38 49.25 74.15 49.25 74.9 62.74 82.8"/><polygon class="cls-50" points="73.27 45.33 72.81 44.56 49.26 58.1 50.06 58.56 73.27 45.33"/><polygon class="cls-51" points="75.67 51.47 75.43 50.59 55.8 61.88 56.63 62.35 75.67 51.47"/><polygon class="cls-52" points="76.58 58.3 76.57 57.51 62.36 65.66 63.01 66.03 76.58 58.3"/><polygon class="cls-53" points="49.38 30.44 48.48 30.46 48.44 57.62 49.24 57.15 49.38 30.44"/><polygon class="cls-54" points="55.89 31.43 55.02 31.2 54.98 53.84 55.8 53.36 55.89 31.43"/><polygon class="cls-55" points="62.27 34.06 61.58 33.68 61.53 50.06 62.18 49.68 62.27 34.06"/><polygon class="cls-56" points="24.57 43.68 24.14 44.47 47.63 58.09 47.63 57.16 24.57 43.68"/><polygon class="cls-57" points="28.68 38.53 28.05 39.17 47.63 50.53 47.63 49.58 28.68 38.53"/><polygon class="cls-58" points="34.15 34.32 33.47 34.74 47.63 42.97 47.63 42.22 34.15 34.32"/><path class="cls-59" d="M27.23,42.28S44,51.51,47.05,53.63C47.05,53.63,33.68,46.4,27.23,42.28Z"/><path class="cls-60" d="M32.09,37.54S41.91,42.82,47,46C47,46,38.54,41.66,32.09,37.54Z"/><path class="cls-61" d="M38.06,33.26s3.85,2,8.89,5.17A78.91,78.91,0,0,1,38.06,33.26Z"/><path class="cls-62" d="M51.82,31.92s.39,19.14.08,22.84C51.9,54.76,51.48,39.56,51.82,31.92Z"/><path class="cls-63" d="M58.35,33.76s.34,11.14.12,17.09C58.47,50.85,58,41.4,58.35,33.76Z"/><path class="cls-64" d="M65.05,36.79s.19,4.33,0,10.29A78.06,78.06,0,0,1,65.05,36.79Z"/><path class="cls-65" d="M23.87,68.77s16.38-9.9,19.74-11.49C43.61,57.28,30.66,65.25,23.87,68.77Z"/><path class="cls-66" d="M22.2,62.19s9.47-5.86,14.74-8.64C36.94,53.55,29,58.67,22.2,62.19Z"/><path class="cls-67" d="M21.48,54.89s3.65-2.34,8.92-5.12A78.63,78.63,0,0,1,21.48,54.89Z"/><path class="cls-68" d="M45.08,84.87S44.73,71,45,62C45,62,45.43,77.22,45.08,84.87Z"/><path class="cls-69" d="M38.55,83s-.34-11.14-.12-17.09C38.43,65.94,38.89,75.39,38.55,83Z"/><path class="cls-70" d="M31.86,80s-.19-4.33,0-10.29A78.8,78.8,0,0,1,31.86,80Z"/><path class="cls-71" d="M69.46,74.59S57.27,68,49.64,63.23C49.64,63.23,63,70.47,69.46,74.59Z"/><path class="cls-72" d="M64.6,79.33s-9.82-5.28-14.86-8.45C49.74,70.88,58.15,75.21,64.6,79.33Z"/><path class="cls-73" d="M58.63,83.6s-3.85-2-8.89-5.17A77.79,77.79,0,0,1,58.63,83.6Z"/><path class="cls-74" d="M73.27,48.12S61.44,55.36,53.53,59.61C53.53,59.61,66.48,51.64,73.27,48.12Z"/><path class="cls-75" d="M75,54.7s-9.48,5.86-14.75,8.65C60.2,63.35,68.16,58.22,75,54.7Z"/><path class="cls-76" d="M75.67,62S72,64.34,66.74,67.12A77.67,77.67,0,0,1,75.67,62Z"/><g class="cls-77"><polygon class="cls-78" points="31 75.43 36.19 72.44 36.19 66.57 31 69.56 31 75.43"/><polygon class="cls-79" points="37.55 71.65 42.73 68.66 42.73 62.79 37.55 65.79 37.55 71.65"/><polygon class="cls-80" points="44.08 62.01 44.08 67.88 48.44 65.36 48.44 59.49 44.08 62.01"/></g><g class="cls-77"><polygon class="cls-81" points="54.34 82.1 54.34 76.11 49.25 73.17 49.25 79.17 54.34 82.1"/><polygon class="cls-82" points="54.34 74.55 54.34 68.56 49.25 65.63 49.25 71.61 54.34 74.55"/><polygon class="cls-83" points="49.25 64.07 54.34 67 54.34 61.97 49.25 59.03 49.25 64.07"/></g><g class="cls-77"><polygon class="cls-84" points="71.78 65.22 66.59 62.22 61.51 65.16 66.7 68.15 71.78 65.22"/><polygon class="cls-85" points="65.24 61.44 60.06 58.45 54.98 61.38 60.16 64.38 65.24 61.44"/><polygon class="cls-86" points="53.62 60.6 58.71 57.67 54.35 55.15 49.26 58.09 53.62 60.6"/></g><g class="cls-77"><polygon class="cls-87" points="65.88 41.69 60.69 44.68 60.69 50.55 65.88 47.56 65.88 41.69"/><polygon class="cls-88" points="59.34 45.46 54.16 48.45 54.16 54.32 59.34 51.33 59.34 45.46"/><polygon class="cls-89" points="52.8 55.1 52.8 49.23 48.44 51.75 48.44 57.62 52.8 55.1"/></g><g class="cls-77"><polygon class="cls-90" points="42.55 35.02 42.55 41.01 47.63 43.94 47.63 37.95 42.55 35.02"/><polygon class="cls-91" points="42.55 42.57 42.55 48.55 47.63 51.49 47.63 45.51 42.55 42.57"/><polygon class="cls-92" points="47.63 53.05 42.55 50.12 42.55 55.15 47.63 58.09 47.63 53.05"/></g><g class="cls-77"><polygon class="cls-93" points="25.1 51.9 30.29 54.9 35.38 51.96 30.19 48.97 25.1 51.9"/><polygon class="cls-94" points="31.64 55.68 36.83 58.67 41.91 55.73 36.73 52.74 31.64 55.68"/><polygon class="cls-95" points="43.26 56.52 38.18 59.45 42.54 61.97 47.62 59.03 43.26 56.52"/></g></g></g></g></svg>