<svg xmlns="http://www.w3.org/2000/svg" xmlns:xlink="http://www.w3.org/1999/xlink" viewBox="0 0 227.2 43.02"><defs><style>.cls-1{isolation:isolate;}.cls-2{fill:#00369c;}.cls-3{fill:url(#linear-gradient);}.cls-4{fill:url(#linear-gradient-2);}.cls-5{fill:url(#linear-gradient-3);}.cls-6{fill:url(#linear-gradient-4);}.cls-7{fill:url(#linear-gradient-5);}.cls-8{fill:url(#linear-gradient-6);}.cls-9{fill:url(#linear-gradient-7);}.cls-10{fill:url(#linear-gradient-8);}.cls-11{fill:url(#linear-gradient-9);}.cls-12{fill:url(#linear-gradient-10);}.cls-13{fill:url(#linear-gradient-11);}.cls-14{fill:url(#linear-gradient-12);}.cls-15{fill:url(#linear-gradient-13);}.cls-16{fill:url(#linear-gradient-14);}.cls-17{fill:url(#linear-gradient-15);}.cls-18{fill:url(#linear-gradient-16);}.cls-19{fill:url(#linear-gradient-17);}.cls-20{fill:url(#linear-gradient-18);}.cls-21{fill:url(#Degradado_sin_nombre_148);}.cls-22{fill:url(#Degradado_sin_nombre_148-2);}.cls-23{fill:url(#Degradado_sin_nombre_148-3);}.cls-24{fill:url(#linear-gradient-19);}.cls-25{fill:url(#linear-gradient-20);}.cls-26{fill:url(#linear-gradient-21);}.cls-27{fill:url(#linear-gradient-22);}.cls-28{fill:url(#linear-gradient-23);}.cls-29{fill:url(#linear-gradient-24);}.cls-30{fill:url(#linear-gradient-25);}.cls-31{fill:url(#linear-gradient-26);}.cls-32{fill:url(#linear-gradient-27);}.cls-33{fill:url(#linear-gradient-28);}.cls-34{fill:url(#linear-gradient-29);}.cls-35{fill:url(#linear-gradient-30);}.cls-36{fill:url(#linear-gradient-31);}.cls-37{fill:url(#linear-gradient-32);}.cls-38{fill:url(#linear-gradient-33);}.cls-39{fill:url(#linear-gradient-34);}.cls-40{fill:url(#linear-gradient-35);}.cls-41{fill:url(#linear-gradient-36);}.cls-42{fill:url(#linear-gradient-37);}.cls-43{fill:url(#linear-gradient-38);}.cls-44{fill:url(#linear-gradient-39);}.cls-45{fill:url(#linear-gradient-40);}.cls-46{fill:url(#linear-gradient-41);}.cls-47{fill:url(#linear-gradient-42);}.cls-48{fill:url(#linear-gradient-43);}.cls-49{fill:url(#linear-gradient-44);}.cls-50{fill:url(#linear-gradient-45);}.cls-51{fill:url(#linear-gradient-46);}.cls-52{fill:url(#linear-gradient-47);}.cls-53{fill:url(#linear-gradient-48);}.cls-54{fill:url(#linear-gradient-49);}.cls-55{fill:url(#linear-gradient-50);}.cls-56{fill:url(#linear-gradient-51);}.cls-57{fill:url(#linear-gradient-52);}.cls-58{fill:url(#linear-gradient-53);}.cls-59{fill:url(#linear-gradient-54);}.cls-60{fill:url(#linear-gradient-55);}.cls-61{fill:url(#linear-gradient-56);}.cls-62{fill:url(#linear-gradient-57);}.cls-63{fill:url(#linear-gradient-58);}.cls-64{fill:url(#linear-gradient-59);}.cls-65{fill:url(#linear-gradient-60);}.cls-66{fill:url(#linear-gradient-61);}.cls-67{fill:url(#linear-gradient-62);}.cls-68{fill:url(#linear-gradient-63);}.cls-69{fill:url(#linear-gradient-64);}.cls-70{fill:url(#linear-gradient-65);}.cls-71{fill:url(#linear-gradient-66);}.cls-72{fill:url(#linear-gradient-67);}.cls-73{fill:url(#linear-gradient-68);}.cls-74{fill:url(#linear-gradient-69);}.cls-75{opacity:0.5;}.cls-75,.cls-76,.cls-77,.cls-78,.cls-79,.cls-80,.cls-81,.cls-82,.cls-83,.cls-84,.cls-85,.cls-86,.cls-87,.cls-88,.cls-89,.cls-90,.cls-91,.cls-92,.cls-93{mix-blend-mode:multiply;}.cls-76,.cls-77,.cls-78,.cls-79,.cls-80,.cls-81,.cls-82,.cls-83,.cls-84,.cls-85,.cls-86,.cls-87,.cls-88,.cls-89,.cls-90,.cls-91,.cls-92,.cls-93{opacity:0.55;}.cls-76{fill:url(#linear-gradient-70);}.cls-77{fill:url(#linear-gradient-71);}.cls-78{fill:url(#linear-gradient-72);}.cls-79{fill:url(#linear-gradient-73);}.cls-80{fill:url(#linear-gradient-74);}.cls-81{fill:url(#linear-gradient-75);}.cls-82{fill:url(#linear-gradient-76);}.cls-83{fill:url(#linear-gradient-77);}.cls-84{fill:url(#linear-gradient-78);}.cls-85{fill:url(#linear-gradient-79);}.cls-86{fill:url(#linear-gradient-80);}.cls-87{fill:url(#linear-gradient-81);}.cls-88{fill:url(#linear-gradient-82);}.cls-89{fill:url(#linear-gradient-83);}.cls-90{fill:url(#linear-gradient-84);}.cls-91{fill:url(#linear-gradient-85);}.cls-92{fill:url(#linear-gradient-86);}.cls-93{fill:url(#linear-gradient-87);}</style><linearGradient id="linear-gradient" x1="-355.55" y1="55.18" x2="-355.35" y2="67.93" gradientTransform="translate(375.25 -32.95)" gradientUnits="userSpaceOnUse"><stop offset="0" stop-color="#741e28"/><stop offset="0.54" stop-color="#b80d27"/></linearGradient><linearGradient id="linear-gradient-2" x1="-360.51" y1="58.07" x2="-360.35" y2="68.7" xlink:href="#linear-gradient"/><linearGradient id="linear-gradient-3" x1="-365.48" y1="60.97" x2="-365.36" y2="68.68" xlink:href="#linear-gradient"/><linearGradient id="linear-gradient-4" x1="-2683.46" y1="-521.84" x2="-2683.56" y2="-542.48" gradientTransform="translate(-2661.67 -499.67) rotate(180)" gradientUnits="userSpaceOnUse"><stop offset="0" stop-color="#731e22"/><stop offset="0.54" stop-color="#9a1d2b"/><stop offset="1" stop-color="#b80d27"/></linearGradient><linearGradient id="linear-gradient-5" x1="-2678.47" y1="-524.97" x2="-2678.55" y2="-541.93" xlink:href="#linear-gradient-4"/><linearGradient id="linear-gradient-6" x1="-2673.48" y1="-527.71" x2="-2673.54" y2="-540.11" xlink:href="#linear-gradient-4"/><linearGradient id="linear-gradient-7" x1="-695.52" y1="1611.81" x2="-695.22" y2="1631.47" gradientTransform="translate(-1026.83 -1384.78) rotate(-60)" gradientUnits="userSpaceOnUse"><stop offset="0" stop-color="#c4642a"/><stop offset="0.34" stop-color="#ce8038"/></linearGradient><linearGradient id="linear-gradient-8" x1="-700.49" y1="1614.71" x2="-700.33" y2="1625.34" xlink:href="#linear-gradient-7"/><linearGradient id="linear-gradient-9" x1="-705.45" y1="1617.61" x2="-705.33" y2="1625.31" xlink:href="#linear-gradient-7"/><linearGradient id="linear-gradient-10" x1="-2342.93" y1="-2078.36" x2="-2343.03" y2="-2099" gradientTransform="translate(-2949.09 1011.41) rotate(120)" gradientUnits="userSpaceOnUse"><stop offset="0" stop-color="#bb3d27"/><stop offset="0.89" stop-color="#ce8038"/></linearGradient><linearGradient id="linear-gradient-11" x1="-2337.94" y1="-2081.49" x2="-2338.02" y2="-2098.45" xlink:href="#linear-gradient-10"/><linearGradient id="linear-gradient-12" x1="-2332.95" y1="-2084.22" x2="-2333.01" y2="-2096.63" xlink:href="#linear-gradient-10"/><linearGradient id="linear-gradient-13" x1="-2117.37" y1="1974.02" x2="-2117.17" y2="1986.78" gradientTransform="translate(-2745.12 -823.9) rotate(-120)" gradientUnits="userSpaceOnUse"><stop offset="0" stop-color="#ab8338"/><stop offset="0.46" stop-color="#e7c632"/><stop offset="0.76" stop-color="#dcd335"/></linearGradient><linearGradient id="linear-gradient-14" x1="-2122.34" y1="1976.91" x2="-2122.17" y2="1987.54" xlink:href="#linear-gradient-13"/><linearGradient id="linear-gradient-15" x1="-2127.3" y1="1979.81" x2="-2127.18" y2="1987.52" xlink:href="#linear-gradient-13"/><linearGradient id="linear-gradient-16" x1="-921.47" y1="-2440.14" x2="-921.57" y2="-2460.78" gradientTransform="translate(-1630.45 2039.01) rotate(60)" gradientUnits="userSpaceOnUse"><stop offset="0" stop-color="#a77f38"/><stop offset="0.8" stop-color="#dcd335"/></linearGradient><linearGradient id="linear-gradient-17" x1="-916.48" y1="-2443.26" x2="-916.56" y2="-2460.23" xlink:href="#linear-gradient-16"/><linearGradient id="linear-gradient-18" x1="-911.49" y1="-2446" x2="-911.55" y2="-2458.41" xlink:href="#linear-gradient-16"/><linearGradient id="Degradado_sin_nombre_148" x1="-3238.27" y1="1045.17" x2="-3238.07" y2="1057.92" gradientTransform="translate(-3214.91 1065.95) rotate(180)" gradientUnits="userSpaceOnUse"><stop offset="0" stop-color="#487f4b"/><stop offset="0.52" stop-color="#8faf3b"/></linearGradient><linearGradient id="Degradado_sin_nombre_148-2" x1="-3243.23" y1="1048.06" x2="-3243.07" y2="1058.69" xlink:href="#Degradado_sin_nombre_148"/><linearGradient id="Degradado_sin_nombre_148-3" x1="-3248.2" y1="1050.96" x2="-3248.08" y2="1058.66" xlink:href="#Degradado_sin_nombre_148"/><linearGradient id="linear-gradient-19" x1="199.26" y1="-1511.83" x2="199.16" y2="-1532.47" gradientTransform="translate(-177.99 1532.68)" gradientUnits="userSpaceOnUse"><stop offset="0" stop-color="#487f48"/><stop offset="1" stop-color="#8faf3a"/></linearGradient><linearGradient id="linear-gradient-20" x1="204.25" y1="-1514.96" x2="204.17" y2="-1531.92" xlink:href="#linear-gradient-19"/><linearGradient id="linear-gradient-21" x1="209.24" y1="-1517.7" x2="209.18" y2="-1530.1" xlink:href="#linear-gradient-19"/><linearGradient id="linear-gradient-22" x1="-2820.67" y1="-768.02" x2="-2820.48" y2="-755.26" gradientTransform="translate(-2053.63 2078.26) rotate(120)" gradientUnits="userSpaceOnUse"><stop offset="0" stop-color="#2d3e70"/><stop offset="0.48" stop-color="#2f3876"/></linearGradient><linearGradient id="linear-gradient-23" x1="-2825.64" y1="-765.13" x2="-2825.48" y2="-754.5" xlink:href="#linear-gradient-22"/><linearGradient id="linear-gradient-24" x1="-2830.6" y1="-762.23" x2="-2830.49" y2="-754.52" xlink:href="#linear-gradient-22"/><linearGradient id="linear-gradient-25" x1="-217.78" y1="301.48" x2="-217.88" y2="280.84" gradientTransform="translate(-131.37 -317.93) rotate(-60)" gradientUnits="userSpaceOnUse"><stop offset="0" stop-color="#293155"/><stop offset="0.48" stop-color="#3e6599"/><stop offset="1" stop-color="#2f3876"/></linearGradient><linearGradient id="linear-gradient-26" x1="-212.78" y1="298.35" x2="-212.87" y2="281.38" xlink:href="#linear-gradient-25"/><linearGradient id="linear-gradient-27" x1="-207.8" y1="295.61" x2="-207.86" y2="283.21" xlink:href="#linear-gradient-25"/><linearGradient id="linear-gradient-28" x1="-1215.46" y1="-934.72" x2="-1215.26" y2="-921.96" gradientTransform="translate(-181.75 1540.23) rotate(60)" gradientUnits="userSpaceOnUse"><stop offset="0" stop-color="#231a30"/><stop offset="0.54" stop-color="#1f1f35"/></linearGradient><linearGradient id="linear-gradient-29" x1="-1220.43" y1="-931.83" x2="-1220.27" y2="-921.2" xlink:href="#linear-gradient-28"/><linearGradient id="linear-gradient-30" x1="-1225.39" y1="-928.93" x2="-1225.27" y2="-921.22" xlink:href="#linear-gradient-28"/><linearGradient id="linear-gradient-31" x1="-1823.38" y1="468.6" x2="-1823.48" y2="447.96" gradientTransform="translate(-1296.42 -1322.67) rotate(-120)" gradientUnits="userSpaceOnUse"><stop offset="0" stop-color="#1c1520"/><stop offset="0.42" stop-color="#2b1830"/></linearGradient><linearGradient id="linear-gradient-32" x1="-1818.39" y1="465.47" x2="-1818.47" y2="448.51" xlink:href="#linear-gradient-31"/><linearGradient id="linear-gradient-33" x1="1.4" y1="21.87" x2="11.43" y2="16.23" gradientTransform="matrix(1, 0, 0, 1, 0, 0)" xlink:href="#linear-gradient-31"/><linearGradient id="linear-gradient-34" x1="-1781.43" y1="405.48" x2="-1781.54" y2="384.91" gradientTransform="translate(-1221.42 -1318.34) rotate(-120)" gradientUnits="userSpaceOnUse"><stop offset="0" stop-color="#351d3d"/><stop offset="0.5" stop-color="#6e297d"/><stop offset="1" stop-color="#70297d" stop-opacity="0"/></linearGradient><linearGradient id="linear-gradient-35" x1="-1776.44" y1="402.64" x2="-1776.54" y2="385.5" xlink:href="#linear-gradient-34"/><linearGradient id="linear-gradient-36" x1="-1771.53" y1="399.8" x2="-1771.59" y2="387.4" xlink:href="#linear-gradient-34"/><linearGradient id="linear-gradient-37" x1="-2598.86" y1="-1336.21" x2="-2598.98" y2="-1356.78" gradientTransform="translate(-2577.76 -1313.68) rotate(180)" gradientUnits="userSpaceOnUse"><stop offset="0" stop-color="#9d1c25"/><stop offset="1" stop-color="#b80c2a" stop-opacity="0"/></linearGradient><linearGradient id="linear-gradient-38" x1="-2593.88" y1="-1339.04" x2="-2593.97" y2="-1356.19" xlink:href="#linear-gradient-37"/><linearGradient id="linear-gradient-39" x1="-2588.96" y1="-1341.88" x2="-2589.03" y2="-1354.28" xlink:href="#linear-gradient-37"/><linearGradient id="linear-gradient-40" x1="-1567.49" y1="-2864.49" x2="-1567.6" y2="-2885.06" gradientTransform="translate(-3242.2 -52.41) rotate(120)" gradientUnits="userSpaceOnUse"><stop offset="0" stop-color="#dca835" stop-opacity="0.35"/><stop offset="0.5" stop-color="#e4d540"/><stop offset="1" stop-color="#dca835" stop-opacity="0"/></linearGradient><linearGradient id="linear-gradient-41" x1="-1562.51" y1="-2867.33" x2="-1562.6" y2="-2884.47" xlink:href="#linear-gradient-40"/><linearGradient id="linear-gradient-42" x1="-1557.58" y1="-2870.15" x2="-1557.64" y2="-2882.56" xlink:href="#linear-gradient-40"/><linearGradient id="linear-gradient-43" x1="212.05" y1="-2664.83" x2="211.94" y2="-2685.4" gradientTransform="translate(-2391.15 1170.15) rotate(60)" gradientUnits="userSpaceOnUse"><stop offset="0" stop-color="#e5d640" stop-opacity="0.35"/><stop offset="0.5" stop-color="#e5d640"/><stop offset="1" stop-color="#dcd43e" stop-opacity="0"/></linearGradient><linearGradient id="linear-gradient-44" x1="217.04" y1="-2667.67" x2="216.94" y2="-2684.81" xlink:href="#linear-gradient-43"/><linearGradient id="linear-gradient-45" x1="221.97" y1="-2670.5" x2="221.9" y2="-2682.9" xlink:href="#linear-gradient-43"/><linearGradient id="linear-gradient-46" x1="905.79" y1="-979.08" x2="905.68" y2="-999.65" gradientTransform="translate(-883.85 999.57)" gradientUnits="userSpaceOnUse"><stop offset="0" stop-color="#b6c347" stop-opacity="0.35"/><stop offset="0.5" stop-color="#d9d134"/><stop offset="1" stop-color="#b6c347" stop-opacity="0"/></linearGradient><linearGradient id="linear-gradient-47" x1="910.77" y1="-981.92" x2="910.68" y2="-999.06" xlink:href="#linear-gradient-46"/><linearGradient id="linear-gradient-48" x1="915.7" y1="-984.74" x2="915.64" y2="-997.15" xlink:href="#linear-gradient-46"/><linearGradient id="linear-gradient-49" x1="-276.61" y1="541.08" x2="-276.72" y2="520.5" gradientTransform="translate(-309.41 -489.45) rotate(-60)" gradientUnits="userSpaceOnUse"><stop offset="0" stop-color="#355d94" stop-opacity="0.35"/><stop offset="0.5" stop-color="#355d94"/><stop offset="1" stop-color="#355d94" stop-opacity="0"/></linearGradient><linearGradient id="linear-gradient-50" x1="-271.63" y1="538.24" x2="-271.72" y2="521.09" xlink:href="#linear-gradient-49"/><linearGradient id="linear-gradient-51" x1="-266.69" y1="535.41" x2="-266.76" y2="523.01" xlink:href="#linear-gradient-49"/><linearGradient id="linear-gradient-52" x1="20.5" y1="17.68" x2="5.21" y2="9.1" gradientUnits="userSpaceOnUse"><stop offset="0.01" stop-color="#589bcf" stop-opacity="0"/><stop offset="0.28" stop-color="#fff"/><stop offset="0.69" stop-color="#fff"/><stop offset="1" stop-color="#589bcf" stop-opacity="0"/></linearGradient><linearGradient id="linear-gradient-53" x1="20.42" y1="11.97" x2="9.08" y2="5.45" xlink:href="#linear-gradient-52"/><linearGradient id="linear-gradient-54" x1="20.45" y1="6.14" x2="13.66" y2="2.26" xlink:href="#linear-gradient-52"/><linearGradient id="linear-gradient-55" x1="-820.14" y1="-49.36" x2="-835.43" y2="-57.95" gradientTransform="translate(391.56 753.53) rotate(60)" xlink:href="#linear-gradient-52"/><linearGradient id="linear-gradient-56" x1="-820.22" y1="-55.08" x2="-831.56" y2="-61.6" gradientTransform="translate(391.56 753.53) rotate(60)" xlink:href="#linear-gradient-52"/><linearGradient id="linear-gradient-57" x1="-820.19" y1="-60.91" x2="-826.98" y2="-64.79" gradientTransform="translate(391.56 753.53) rotate(60)" xlink:href="#linear-gradient-52"/><linearGradient id="linear-gradient-58" x1="362.55" y1="900.31" x2="347.26" y2="891.72" gradientTransform="translate(-943.14 -115.7) rotate(-60)" gradientUnits="userSpaceOnUse"><stop offset="0.01" stop-color="#2c1f3e" stop-opacity="0"/><stop offset="0.28" stop-color="#fff"/><stop offset="0.69" stop-color="#fff"/><stop offset="1" stop-color="#2c1f3e" stop-opacity="0"/></linearGradient><linearGradient id="linear-gradient-59" x1="362.47" y1="894.59" x2="351.13" y2="888.08" xlink:href="#linear-gradient-58"/><linearGradient id="linear-gradient-60" x1="362.5" y1="888.76" x2="355.72" y2="884.89" xlink:href="#linear-gradient-58"/><linearGradient id="linear-gradient-61" x1="-175.91" y1="1708.25" x2="-191.2" y2="1699.67" gradientTransform="translate(-1548.47 725.95) rotate(-120)" gradientUnits="userSpaceOnUse"><stop offset="0.01" stop-color="#b80b2f" stop-opacity="0"/><stop offset="0.28" stop-color="#fff"/><stop offset="0.69" stop-color="#fff"/><stop offset="1" stop-color="#b80b2f" stop-opacity="0"/></linearGradient><linearGradient id="linear-gradient-62" x1="-175.99" y1="1702.54" x2="-187.33" y2="1696.02" xlink:href="#linear-gradient-61"/><linearGradient id="linear-gradient-63" x1="-175.96" y1="1696.71" x2="-182.74" y2="1692.84" xlink:href="#linear-gradient-61"/><linearGradient id="linear-gradient-64" x1="-1148.69" y1="1699.73" x2="-1163.98" y2="1691.14" gradientTransform="translate(-1126.28 1724.87) rotate(180)" gradientUnits="userSpaceOnUse"><stop offset="0.01" stop-color="#ce8136" stop-opacity="0"/><stop offset="0.28" stop-color="#fff"/><stop offset="0.69" stop-color="#fff"/><stop offset="1" stop-color="#ce8136" stop-opacity="0"/></linearGradient><linearGradient id="linear-gradient-65" x1="-1148.77" y1="1694.01" x2="-1160.11" y2="1687.5" xlink:href="#linear-gradient-64"/><linearGradient id="linear-gradient-66" x1="-1148.74" y1="1688.18" x2="-1155.52" y2="1684.31" xlink:href="#linear-gradient-64"/><linearGradient id="linear-gradient-67" x1="-1606.8" y1="947.13" x2="-1622.09" y2="938.54" gradientTransform="translate(42.27 1887.43) rotate(120)" gradientUnits="userSpaceOnUse"><stop offset="0.01" stop-color="#dcd43e" stop-opacity="0"/><stop offset="0.28" stop-color="#fff"/><stop offset="0.69" stop-color="#fff"/><stop offset="1" stop-color="#dcd43e" stop-opacity="0"/></linearGradient><linearGradient id="linear-gradient-68" x1="-1606.89" y1="941.42" x2="-1618.22" y2="934.9" xlink:href="#linear-gradient-67"/><linearGradient id="linear-gradient-69" x1="-1606.85" y1="935.58" x2="-1613.64" y2="931.71" xlink:href="#linear-gradient-67"/><linearGradient id="linear-gradient-70" x1="10.17" y1="29.04" x2="10.17" y2="32.27" gradientUnits="userSpaceOnUse"><stop offset="0" stop-color="#737373"/><stop offset="1" stop-color="#fff" stop-opacity="0"/></linearGradient><linearGradient id="linear-gradient-71" x1="15.17" y1="26.05" x2="15.17" y2="29.4" xlink:href="#linear-gradient-70"/><linearGradient id="linear-gradient-72" x1="19.86" y1="23.4" x2="19.86" y2="26.53" xlink:href="#linear-gradient-70"/><linearGradient id="linear-gradient-73" x1="-317.87" y1="1554.84" x2="-317.87" y2="1558.08" gradientTransform="translate(-1165.19 -1017.59) rotate(-60)" xlink:href="#linear-gradient-70"/><linearGradient id="linear-gradient-74" x1="-312.87" y1="1551.86" x2="-312.87" y2="1555.21" gradientTransform="translate(-1165.19 -1017.59) rotate(-60)" xlink:href="#linear-gradient-70"/><linearGradient id="linear-gradient-75" x1="-308.19" y1="1549.2" x2="-308.19" y2="1552.34" gradientTransform="translate(-1165.19 -1017.59) rotate(-60)" xlink:href="#linear-gradient-70"/><linearGradient id="linear-gradient-76" x1="-1738.8" y1="2046.39" x2="-1738.8" y2="2049.62" gradientTransform="translate(-2607.84 -455.03) rotate(-120)" xlink:href="#linear-gradient-70"/><linearGradient id="linear-gradient-77" x1="-1733.8" y1="2043.4" x2="-1733.8" y2="2046.75" gradientTransform="translate(-2607.84 -455.03) rotate(-120)" xlink:href="#linear-gradient-70"/><linearGradient id="linear-gradient-78" x1="-1729.11" y1="2040.75" x2="-1729.11" y2="2043.88" gradientTransform="translate(-2607.84 -455.03) rotate(-120)" xlink:href="#linear-gradient-70"/><linearGradient id="linear-gradient-79" x1="-2965.52" y1="874.26" x2="-2965.52" y2="877.49" gradientTransform="translate(-2932.63 888.23) rotate(180)" xlink:href="#linear-gradient-70"/><linearGradient id="linear-gradient-80" x1="-2960.52" y1="871.27" x2="-2960.52" y2="874.62" gradientTransform="translate(-2932.63 888.23) rotate(180)" xlink:href="#linear-gradient-70"/><linearGradient id="linear-gradient-81" x1="-2955.83" y1="868.62" x2="-2955.83" y2="871.75" gradientTransform="translate(-2932.63 888.23) rotate(180)" xlink:href="#linear-gradient-70"/><linearGradient id="linear-gradient-82" x1="-2537.77" y1="-599.59" x2="-2537.77" y2="-596.36" gradientTransform="translate(-1767.45 1905.82) rotate(120)" xlink:href="#linear-gradient-70"/><linearGradient id="linear-gradient-83" x1="-2532.77" y1="-602.58" x2="-2532.77" y2="-599.23" gradientTransform="translate(-1767.45 1905.82) rotate(120)" xlink:href="#linear-gradient-70"/><linearGradient id="linear-gradient-84" x1="-2528.08" y1="-605.23" x2="-2528.08" y2="-602.1" gradientTransform="translate(-1767.45 1905.82) rotate(120)" xlink:href="#linear-gradient-70"/><linearGradient id="linear-gradient-85" x1="-982.87" y1="-953.3" x2="-982.87" y2="-950.07" gradientTransform="translate(-324.8 1343.27) rotate(60)" xlink:href="#linear-gradient-70"/><linearGradient id="linear-gradient-86" x1="-977.87" y1="-956.29" x2="-977.87" y2="-952.94" gradientTransform="translate(-324.8 1343.27) rotate(60)" xlink:href="#linear-gradient-70"/><linearGradient id="linear-gradient-87" x1="-973.19" y1="-958.94" x2="-973.19" y2="-955.81" gradientTransform="translate(-324.8 1343.27) rotate(60)" xlink:href="#linear-gradient-70"/></defs><g class="cls-1"><g id="Capa_2" data-name="Capa 2"><g id="Capa_1-2" data-name="Capa 1"><path class="cls-2" d="M227.2,16.42a3.62,3.62,0,1,1-3.59-3.51,3.52,3.52,0,0,1,3.59,3.51m-6.34,0a2.75,2.75,0,0,0,2.75,2.82,2.71,2.71,0,0,0,2.69-2.79,2.72,2.72,0,1,0-5.44,0M223,18.25h-.82V14.73a8.72,8.72,0,0,1,1.36-.11,1.87,1.87,0,0,1,1.2.28.9.9,0,0,1,.36.75.91.91,0,0,1-.73.84v0c.35.11.52.39.63.86a2.68,2.68,0,0,0,.26.86h-.87a3.19,3.19,0,0,1-.27-.86c-.07-.37-.28-.53-.74-.53H223Zm0-2h.39c.45,0,.82-.15.82-.52s-.24-.53-.76-.53a1.62,1.62,0,0,0-.45,0Z"/><path class="cls-2" d="M85.37,14.41a9.68,9.68,0,0,1,4.08,3.53,12,12,0,0,1,1.88,4.94,32.11,32.11,0,0,1,.2,4.75H74.36q.15,3.6,2.47,5a6.18,6.18,0,0,0,3.4.9,5.13,5.13,0,0,0,3.42-1.1,5.21,5.21,0,0,0,1.27-1.64h6.29a7.85,7.85,0,0,1-2.29,4.32q-3.17,3.48-8.87,3.48a12.77,12.77,0,0,1-8.29-2.93c-2.4-2-3.6-5.15-3.6-9.57q0-6.21,3.25-9.53a11.29,11.29,0,0,1,8.42-3.31A13.34,13.34,0,0,1,85.37,14.41Zm-9.21,5.4a6.61,6.61,0,0,0-1.65,3.7H85.13a5.25,5.25,0,0,0-1.64-3.78,5.35,5.35,0,0,0-3.66-1.29A4.83,4.83,0,0,0,76.16,19.81Z"/><path class="cls-2" d="M106.88,14.31a7.58,7.58,0,0,1,2.7,2.64V5.55h6.25V37.82h-6V34.51a8.79,8.79,0,0,1-3,3.1,8.35,8.35,0,0,1-4.19,1,8.71,8.71,0,0,1-7-3.39,13.13,13.13,0,0,1-2.83-8.7q0-6.1,2.78-9.62a9,9,0,0,1,7.43-3.51A7.54,7.54,0,0,1,106.88,14.31Zm1.51,17a8.82,8.82,0,0,0,1.36-5.12q0-4.38-2.18-6.26a4.69,4.69,0,0,0-3.12-1.14,4.3,4.3,0,0,0-4,2.07A9.74,9.74,0,0,0,99.22,26a9.57,9.57,0,0,0,1.29,5.29,4.33,4.33,0,0,0,3.9,2A4.55,4.55,0,0,0,108.39,31.34Z"/><path class="cls-2" d="M136.09,14.41a9.65,9.65,0,0,1,4.07,3.53A11.76,11.76,0,0,1,142,22.88a29.55,29.55,0,0,1,.2,4.75H125.08q.15,3.6,2.47,5a6.17,6.17,0,0,0,3.39.9,5.14,5.14,0,0,0,3.43-1.1,5.34,5.34,0,0,0,1.26-1.64h6.29a7.83,7.83,0,0,1-2.28,4.32q-3.16,3.48-8.87,3.48a12.8,12.8,0,0,1-8.3-2.93c-2.4-2-3.59-5.15-3.59-9.57q0-6.21,3.24-9.53a11.31,11.31,0,0,1,8.43-3.31A13.31,13.31,0,0,1,136.09,14.41Zm-9.21,5.4a6.54,6.54,0,0,0-1.65,3.7h10.62a5.25,5.25,0,0,0-1.64-3.78,5.37,5.37,0,0,0-3.66-1.29A4.82,4.82,0,0,0,126.88,19.81Z"/><path class="cls-2" d="M165.22,16.8a13.87,13.87,0,0,1,2.64,8.77,15.58,15.58,0,0,1-2.6,9.23,9.39,9.39,0,0,1-12,2.48,9.42,9.42,0,0,1-2.3-2.46v3h-6.08V5.55H151V17a9,9,0,0,1,2.6-2.54,7.53,7.53,0,0,1,4.26-1.1A8.74,8.74,0,0,1,165.22,16.8Zm-5.15,14.56a8.93,8.93,0,0,0,1.33-5.14,11.46,11.46,0,0,0-.66-4.2,4.54,4.54,0,0,0-4.57-3.16A4.64,4.64,0,0,0,151.52,22a11.79,11.79,0,0,0-.65,4.25,9,9,0,0,0,1.35,5.09,4.64,4.64,0,0,0,4.12,2A4.25,4.25,0,0,0,160.07,31.36Z"/><path class="cls-2" d="M180.79,23.29a9.67,9.67,0,0,0,2.46-.55A1.89,1.89,0,0,0,184.58,21a2.09,2.09,0,0,0-1-2,6.29,6.29,0,0,0-3-.57,3.91,3.91,0,0,0-3.13,1.1,4.61,4.61,0,0,0-.87,2.2h-5.95a9.25,9.25,0,0,1,1.74-5.16c1.63-2.1,4.44-3.16,8.42-3.16a14.82,14.82,0,0,1,6.91,1.57q3,1.55,3,5.87v11c0,.76,0,1.68.05,2.76a3.62,3.62,0,0,0,.37,1.67,2.18,2.18,0,0,0,.91.72v.92h-6.71a7.32,7.32,0,0,1-.38-1.35c-.08-.43-.13-.91-.18-1.45a12.94,12.94,0,0,1-2.95,2.39,8.83,8.83,0,0,1-4.53,1.16A7.76,7.76,0,0,1,172,36.72a6.65,6.65,0,0,1-2.1-5.26,6.84,6.84,0,0,1,3.38-6.38,15.15,15.15,0,0,1,5.45-1.53Zm3.76,2.91a7.05,7.05,0,0,1-1.19.61,11.54,11.54,0,0,1-1.65.43l-1.4.26a9.2,9.2,0,0,0-2.84.85A2.86,2.86,0,0,0,176,31a2.81,2.81,0,0,0,.88,2.32,3.41,3.41,0,0,0,2.17.71,6.34,6.34,0,0,0,3.71-1.18q1.71-1.18,1.77-4.32Z"/><path class="cls-2" d="M214.75,15.3q2.31,1.93,2.31,6.43V37.82h-6.31V23.29a6.92,6.92,0,0,0-.49-2.9,3.48,3.48,0,0,0-3.44-1.84,4.25,4.25,0,0,0-4.27,2.7,9.44,9.44,0,0,0-.6,3.64V37.82h-6.16V14h6v3.48A10.53,10.53,0,0,1,204,14.8a7.74,7.74,0,0,1,4.8-1.45A9,9,0,0,1,214.75,15.3Z"/><path class="cls-2" d="M67.38,34.89a15.88,15.88,0,0,1-.18-3V29.76a10.56,10.56,0,0,0-.91-5,5.9,5.9,0,0,0-3.09-2.53A6.35,6.35,0,0,0,67,19.08a9.64,9.64,0,0,0,1.13-4.49,9.18,9.18,0,0,0-.58-3.38,10,10,0,0,0-1.59-2.69,7.87,7.87,0,0,0-3-2.25,13.53,13.53,0,0,0-5-.82H39.62a24.18,24.18,0,0,1,0,32.08h9.63V25h6.46c1.84,0,3.1.34,3.77,1s1,2.05,1.05,4.09l0,3a14.87,14.87,0,0,0,.28,2.77c.08.43.23,1,.42,1.72h7.3v-.81A2.69,2.69,0,0,1,67.38,34.89Zm-7.8-15.78a7.39,7.39,0,0,1-3.18.53H49.28V11h7.3a6.59,6.59,0,0,1,3.06.56c1.21.67,1.81,2,1.81,3.92S60.83,18.5,59.58,19.11Z"/><path class="cls-3" d="M18.19,42.76a21.58,21.58,0,0,0,3.33.26V22.23l-3.33,1.92Z"/><path class="cls-4" d="M13.19,41.35a21.22,21.22,0,0,0,3.33,1.08V25.12L13.19,27Z"/><path class="cls-5" d="M8.19,38.41a21.66,21.66,0,0,0,3.34,2.16l0-12.56L8.19,29.92Z"/><polygon class="cls-6" points="21.52 43.02 22.16 42.65 22.16 21.87 21.52 21.51 21.52 43.02"/><polygon class="cls-7" points="16.52 42.43 17.16 42.07 17.15 24.75 16.52 25.12 16.52 42.43"/><polygon class="cls-8" points="11.53 40.57 12.16 40.2 12.16 27.64 11.51 28.01 11.53 40.57"/><path class="cls-9" d="M38.26,35a21.34,21.34,0,0,0,1.89-2.76l-18-10.4v3.85Z"/><path class="cls-10" d="M34.54,38.65a21.39,21.39,0,0,0,2.61-2.35l-15-8.65v3.84Z"/><path class="cls-11" d="M29.5,41.51A21.37,21.37,0,0,0,33,39.7L22.15,33.44v3.83Z"/><polygon class="cls-12" points="40.15 32.27 40.15 31.54 22.16 21.15 21.52 21.51 40.15 32.27"/><polygon class="cls-13" points="37.15 36.3 37.15 35.58 22.15 26.92 22.15 27.65 37.15 36.3"/><polygon class="cls-14" points="33.03 39.7 33.03 38.97 22.15 32.69 22.15 33.44 33.03 39.7"/><path class="cls-15" d="M41.6,13.77a23,23,0,0,0-1.44-3l-18,10.39,3.34,1.93Z"/><path class="cls-16" d="M42.88,18.81a21.61,21.61,0,0,0-.73-3.43L27.15,24,30.48,26Z"/><path class="cls-17" d="M42.83,24.6a20.91,20.91,0,0,0,.2-4l-10.86,6.3,3.31,1.91Z"/><polygon class="cls-18" points="40.16 10.76 39.53 10.39 21.53 20.78 21.53 21.51 40.16 10.76"/><polygon class="cls-19" points="42.15 15.38 41.52 15.01 26.52 23.68 27.16 24.04 42.15 15.38"/><polygon class="cls-20" points="43.03 20.64 42.4 20.27 31.52 26.56 32.17 26.93 43.03 20.64"/><path class="cls-21" d="M24.87.26A21.61,21.61,0,0,0,21.53,0V20.79l3.34-1.93Z"/><path class="cls-22" d="M29.87,1.67A21,21,0,0,0,26.53.58V17.9L29.87,16Z"/><path class="cls-23" d="M34.86,4.6a22.28,22.28,0,0,0-3.33-2.15l0,12.56,3.31-1.92Z"/><polygon class="cls-24" points="21.53 0 20.9 0.36 20.9 21.15 21.53 21.51 21.53 0"/><polygon class="cls-25" points="26.53 0.58 25.9 0.94 25.9 18.27 26.54 17.9 26.53 0.58"/><polygon class="cls-26" points="31.53 2.45 30.9 2.81 30.9 15.38 31.55 15.01 31.53 2.45"/><path class="cls-27" d="M4.79,8A22.39,22.39,0,0,0,2.9,10.75l18,10.4V17.3Z"/><path class="cls-28" d="M8.51,4.37a21.22,21.22,0,0,0-2.6,2.34l15,8.66V11.52Z"/><path class="cls-29" d="M13.55,1.51A21.78,21.78,0,0,0,10,3.32L20.91,9.58V5.75Z"/><polygon class="cls-30" points="2.9 10.75 2.9 11.48 20.9 21.87 21.53 21.51 2.9 10.75"/><polygon class="cls-31" points="5.91 6.71 5.9 7.44 20.91 16.1 20.91 15.37 5.91 6.71"/><polygon class="cls-32" points="10.02 3.32 10.02 4.05 20.91 10.33 20.91 9.58 10.02 3.32"/><path class="cls-33" d="M1.45,29.24a21.42,21.42,0,0,0,1.45,3l18-10.4-3.33-1.92Z"/><path class="cls-34" d="M.17,24.21A21.61,21.61,0,0,0,.9,27.64L15.9,19l-3.33-1.93Z"/><path class="cls-35" d="M.22,18.41a21.06,21.06,0,0,0-.2,4l10.86-6.3L7.57,14.17Z"/><polygon class="cls-36" points="2.9 32.26 3.53 32.63 21.52 22.23 21.52 21.51 2.9 32.26"/><polygon class="cls-37" points="0.9 27.64 1.53 28 16.53 19.34 15.9 18.98 0.9 27.64"/><polygon class="cls-38" points="0.02 22.38 0.65 22.74 11.53 16.46 10.88 16.08 0.02 22.38"/><polygon class="cls-39" points="2.54 31.61 2.89 32.2 20.9 21.84 20.27 21.51 2.54 31.61"/><polygon class="cls-40" points="0.7 26.92 0.88 27.59 15.9 18.96 15.26 18.61 0.7 26.92"/><polygon class="cls-41" points="0 21.71 0.01 22.32 10.88 16.08 10.39 15.79 0 21.71"/><polygon class="cls-42" points="20.8 43.01 21.49 43 21.52 22.23 20.92 22.61 20.8 43.01"/><polygon class="cls-43" points="15.82 42.26 16.49 42.43 16.52 25.12 15.89 25.5 15.82 42.26"/><polygon class="cls-44" points="10.96 40.26 11.49 40.55 11.52 28.02 11.03 28.31 10.96 40.26"/><polygon class="cls-45" points="39.79 32.89 40.12 32.29 22.15 21.87 22.15 22.58 39.79 32.89"/><polygon class="cls-46" points="36.64 36.83 37.13 36.34 22.15 27.65 22.15 28.38 36.64 36.83"/><polygon class="cls-47" points="32.46 40.05 32.98 39.73 22.15 33.44 22.15 34.01 32.46 40.05"/><polygon class="cls-48" points="40.52 11.39 40.16 10.8 22.16 21.16 22.77 21.51 40.52 11.39"/><polygon class="cls-49" points="42.36 16.08 42.17 15.42 27.16 24.05 27.79 24.41 42.36 16.08"/><polygon class="cls-50" points="43.06 21.32 43.04 20.71 32.17 26.94 32.67 27.23 43.06 21.32"/><polygon class="cls-51" points="22.25 0 21.56 0.02 21.52 20.79 22.14 20.43 22.25 0"/><polygon class="cls-52" points="27.23 0.76 26.56 0.58 26.53 17.9 27.16 17.54 27.23 0.76"/><polygon class="cls-53" points="32.11 2.77 31.57 2.48 31.54 15.01 32.03 14.72 32.11 2.77"/><polygon class="cls-54" points="3.27 10.13 2.94 10.73 20.91 21.15 20.91 20.44 3.27 10.13"/><polygon class="cls-55" points="6.41 6.19 5.93 6.68 20.91 15.37 20.91 14.64 6.41 6.19"/><polygon class="cls-56" points="10.59 2.97 10.07 3.29 20.91 9.58 20.91 9.01 10.59 2.97"/><path class="cls-57" d="M5.31,9.05s12.82,7.07,15.16,8.69C20.47,17.74,10.24,12.21,5.31,9.05Z"/><path class="cls-58" d="M9,5.43s7.51,4,11.37,6.46C20.39,11.89,14,8.58,9,5.43Z"/><path class="cls-59" d="M13.59,2.16s2.94,1.53,6.8,4A57.92,57.92,0,0,1,13.59,2.16Z"/><path class="cls-60" d="M24.11,1.13s.3,14.64.06,17.48C24.17,18.61,23.85,7,24.11,1.13Z"/><path class="cls-61" d="M29.11,2.54s.26,8.52.09,13.08C29.2,15.62,28.85,8.39,29.11,2.54Z"/><path class="cls-62" d="M34.23,4.86s.14,3.31,0,7.87A60.86,60.86,0,0,1,34.23,4.86Z"/><path class="cls-63" d="M2.73,29.32s12.53-7.58,15.1-8.79C17.83,20.53,7.93,26.63,2.73,29.32Z"/><path class="cls-64" d="M1.45,24.29s7.25-4.48,11.28-6.61C12.73,17.68,6.65,21.6,1.45,24.29Z"/><path class="cls-65" d="M.9,18.7s2.8-1.78,6.83-3.91A60.45,60.45,0,0,1,.9,18.7Z"/><path class="cls-66" d="M19,41.63S18.69,31,18.9,24.16C18.9,24.16,19.22,35.79,19,41.63Z"/><path class="cls-67" d="M14,40.23s-.26-8.52-.09-13.08C13.87,27.15,14.23,34.38,14,40.23Z"/><path class="cls-68" d="M8.84,37.91S8.7,34.6,8.87,30A60.86,60.86,0,0,1,8.84,37.91Z"/><path class="cls-69" d="M37.6,33.77s-9.32-5.07-15.16-8.68C22.44,25.09,32.67,30.62,37.6,33.77Z"/><path class="cls-70" d="M33.89,37.4s-7.51-4-11.37-6.46C22.52,30.94,29,34.24,33.89,37.4Z"/><path class="cls-71" d="M29.32,40.67s-2.94-1.53-6.8-4A59.36,59.36,0,0,1,29.32,40.67Z"/><path class="cls-72" d="M40.52,13.53s-9.05,5.53-15.1,8.78C25.42,22.31,35.33,16.22,40.52,13.53Z"/><path class="cls-73" d="M41.8,18.56S34.55,23,30.52,25.17C30.52,25.17,36.61,21.25,41.8,18.56Z"/><path class="cls-74" d="M42.36,24.15s-2.8,1.78-6.83,3.91A60.45,60.45,0,0,1,42.36,24.15Z"/><g class="cls-75"><polygon class="cls-76" points="8.19 34.42 12.16 32.13 12.16 27.64 8.19 29.93 8.19 34.42"/><polygon class="cls-77" points="13.19 31.53 17.16 29.24 17.16 24.75 13.19 27.04 13.19 31.53"/><polygon class="cls-78" points="18.19 24.15 18.19 28.64 21.53 26.72 21.53 22.23 18.19 24.15"/></g><g class="cls-75"><polygon class="cls-79" points="26.04 39.52 26.04 34.94 22.15 32.69 22.15 37.27 26.04 39.52"/><polygon class="cls-80" points="26.04 33.74 26.04 29.16 22.15 26.92 22.15 31.5 26.04 33.74"/><polygon class="cls-81" points="22.15 25.73 26.04 27.97 26.04 24.12 22.15 21.87 22.15 25.73"/></g><g class="cls-75"><polygon class="cls-82" points="39.38 26.6 35.41 24.31 31.52 26.56 35.49 28.85 39.38 26.6"/><polygon class="cls-83" points="34.38 23.71 30.41 21.43 26.53 23.67 30.49 25.96 34.38 23.71"/><polygon class="cls-84" points="25.49 23.07 29.38 20.83 26.05 18.9 22.16 21.15 25.49 23.07"/></g><g class="cls-75"><polygon class="cls-85" points="34.87 8.6 30.9 10.89 30.9 15.38 34.87 13.09 34.87 8.6"/><polygon class="cls-86" points="29.86 11.49 25.9 13.78 25.9 18.27 29.86 15.98 29.86 11.49"/><polygon class="cls-87" points="24.87 18.87 24.87 14.38 21.53 16.3 21.53 20.79 24.87 18.87"/></g><g class="cls-75"><polygon class="cls-88" points="17.02 3.5 17.02 8.08 20.91 10.33 20.91 5.75 17.02 3.5"/><polygon class="cls-89" points="17.02 9.28 17.02 13.86 20.91 16.1 20.91 11.53 17.02 9.28"/><polygon class="cls-90" points="20.91 17.3 17.02 15.05 17.02 18.9 20.91 21.15 20.91 17.3"/></g><g class="cls-75"><polygon class="cls-91" points="3.67 16.42 7.64 18.71 11.53 16.46 7.56 14.17 3.67 16.42"/><polygon class="cls-92" points="8.68 19.31 12.64 21.59 16.53 19.35 12.57 17.06 8.68 19.31"/><polygon class="cls-93" points="17.57 19.95 13.68 22.19 17.01 24.12 20.9 21.87 17.57 19.95"/></g></g></g></g></svg>