<?xml version="1.0" encoding="utf-8"?>
<!-- Generator: Adobe Illustrator 26.0.1, SVG Export Plug-In . SVG Version: 6.00 Build 0)  -->
<svg version="1.1" id="Capa_1" xmlns="http://www.w3.org/2000/svg" xmlns:xlink="http://www.w3.org/1999/xlink" x="0px" y="0px"
	 viewBox="0 0 464 464" style="enable-background:new 0 0 464 464;" xml:space="preserve">
<style type="text/css">
	.st0{fill:#75E000;}
	.st1{fill:#0042C7;}
</style>
<path class="st0" d="M420.5,124.8L378.1,104v352l59.2-296C440.5,145.6,433.3,131.2,420.5,124.8z"/>
<g>
	<g>
		<path class="st1" d="M423.7,85.6l-38.4-19.2C382.9,47.2,366.1,32,346.1,32H161.3c-4-18.4-20-32-39.2-32h-32
			c-19.2,0-36,14.4-39.2,32.8C32.5,36,18.1,52.8,18.1,72v352c0,22.4,17.6,40,40,40h288c21.6,0,40-16.8,40-38.4l0,0l59.2-296
			C448.5,112,439.7,93.6,423.7,85.6z M90.1,16h32c10.4,0,19.2,6.4,22.4,16H67.7C70.9,22.4,79.7,16,90.1,16z M370.1,424
			c0,13.6-10.4,24-24,24h-88v-24c0-4.8-3.2-8-8-8s-8,3.2-8,8v24h-16v-56c0-4.8-3.2-8-8-8s-8,3.2-8,8v56h-16v-24c0-4.8-3.2-8-8-8
			s-8,3.2-8,8v24h-80v-24c0-4.8-3.2-8-8-8s-8,3.2-8,8v24h-24c-13.6,0-24-10.4-24-24V72c0-13.6,10.4-24,24-24h88v152
			c0,13.6-10.4,24-24,24s-24-10.4-24-24V72c0-4.8-3.2-8-8-8s-8,3.2-8,8v128c0,22.4,17.6,40,40,40s40-17.6,40-40V48h184
			c13.6,0,24,10.4,24,24V424z M429.3,126.4l-43.2,216.8V84.8l30.4,15.2C426.1,104.8,431.7,116,429.3,126.4z"/>
		<path class="st1" d="M314.1,96h-96c-4.8,0-8,3.2-8,8s3.2,8,8,8h96c4.8,0,8-3.2,8-8S318.9,96,314.1,96z"/>
		<path class="st1" d="M314.1,160h-96c-4.8,0-8,3.2-8,8s3.2,8,8,8h96c4.8,0,8-3.2,8-8S318.9,160,314.1,160z"/>
		<path class="st1" d="M218.1,240h32c4.8,0,8-3.2,8-8s-3.2-8-8-8h-32c-4.8,0-8,3.2-8,8S213.3,240,218.1,240z"/>
		<path class="st1" d="M314.1,224h-32c-4.8,0-8,3.2-8,8s3.2,8,8,8h32c4.8,0,8-3.2,8-8S318.9,224,314.1,224z"/>
		<path class="st1" d="M186.1,320h-96c-4.8,0-8,3.2-8,8s3.2,8,8,8h96c4.8,0,8-3.2,8-8S190.9,320,186.1,320z"/>
		<path class="st1" d="M314.1,320h-96c-4.8,0-8,3.2-8,8s3.2,8,8,8h96c4.8,0,8-3.2,8-8S318.9,320,314.1,320z"/>
		<path class="st1" d="M314.1,192h-96c-4.8,0-8,3.2-8,8s3.2,8,8,8h96c4.8,0,8-3.2,8-8S318.9,192,314.1,192z"/>
		<path class="st1" d="M258.1,296c0-4.8-3.2-8-8-8h-160c-4.8,0-8,3.2-8,8s3.2,8,8,8h160C254.9,304,258.1,300.8,258.1,296z"/>
		<path class="st1" d="M314.1,288h-32c-4.8,0-8,3.2-8,8s3.2,8,8,8h32c4.8,0,8-3.2,8-8S318.9,288,314.1,288z"/>
		<path class="st1" d="M218.1,144h32c4.8,0,8-3.2,8-8s-3.2-8-8-8h-32c-4.8,0-8,3.2-8,8S213.3,144,218.1,144z"/>
		<path class="st1" d="M314.1,128h-32c-4.8,0-8,3.2-8,8s3.2,8,8,8h32c4.8,0,8-3.2,8-8S318.9,128,314.1,128z"/>
		<path class="st1" d="M314.1,256h-96c-4.8,0-8,3.2-8,8s3.2,8,8,8h96c4.8,0,8-3.2,8-8S318.9,256,314.1,256z"/>
	</g>
</g>
</svg>
